M48
;Layer_Color=9474304
;FILE_FORMAT=4:4
METRIC,LZ
;TYPE=PLATED
T01F00S00C0.2000
T02F00S00C0.3000
T03F00S00C0.3810
T05F00S00C0.6858
T07F00S00C2.7000
;TYPE=NON_PLATED
T08F00S00C0.9000
%
T01
X0026734Y00010132
X0023743Y00053793
X00241344Y00122577
X00225233Y00144334
X00224944Y00161131
X00252682Y00161577
X00273479Y00091926
X00300831Y00065223
X00378273Y00056851
X00398519
X00380811Y00117532
X00375087Y00127362
X00363831Y00152484
X00365556Y00190859
X00365831Y002141
X00352331Y00221742
X00339831Y00221327
X00314962Y00222076
X00289301Y00287488
X00294981Y00299488
X00350016Y0029263
Y0028263
X00360016
Y0029263
Y00311179
X00350016
Y00321179
X00360016
X00379251
Y00311179
X00389251
Y00321179
Y0029263
Y0028263
X00379251
Y0029263
X00396859Y00212816
X00470321Y00212654
X00484614Y00218694
X0049751Y00219398
X00537079Y00215392
X0055442Y0018627
X00586727Y00183277
X00536579Y00154512
X00542345Y0014479
X00542675Y00108722
X00568555Y00119742
X00463512Y00105507
X00477481Y0015591
X0047887Y00165692
X00494774Y00165862
X00433021Y00162274
X00420887Y00129829
X00352331Y00107505
X0045847Y0024765
X00495021Y00263488
X00497842Y00284948
X0049842Y0029263
X00481427Y00307125
X00458632Y00342102
X00514981Y00342119
X0054991Y00331123
X00568555Y00317046
X005667Y0027393
X0058674Y00277055
X00550361Y0025743
X0055499Y0036068
X0058674Y00359488
X00279872Y0035291
X00264736Y00363034
X00240799Y00355125
X00233431Y00236464
X00221033Y00171261
X00201329Y0019022
X00182968Y00161503
X00175457Y00164003
X00176579Y00155402
X00201329Y0013688
X00182274Y0011294
X00186594Y00085465
X00164481Y00042794
X00221264Y00054178
X00099526Y0007149
X00085713
X00072971
X00074592Y0018605
X00066334Y00185803
X00086457Y0018605
X00138988Y00164717
X00133285Y00284717
X00102878Y00278206
Y00269437
X00091224Y00277913
X00090372Y00284717
X0008496Y0028448
X00086922Y00290715
X00076492Y00296658
X00070065
X00063791Y00296093
X00064407Y00302921
X00071704Y00303075
X00078604Y00302921
X00146513Y00310727
X00159877Y00325465
X00146569Y00352026
X00215379Y00359554
X00221516Y00337215
X00016791Y00354835
Y0036063
X00018871Y0040113
X00018791Y0040726
X00048482Y0038881
X00074863Y00374723
X00103422Y00368063
X00129686Y00373316
X00163403Y0038458
X00173664Y00372025
X00190035Y00375683
X00197228Y00370781
X00203706Y00375128
X00214719Y00372025
X00203165Y0042488
X00190035Y00423575
X00168466Y00414215
X00158362Y0044545
X0014998Y00445196
Y00453735
X00118324Y00453387
X00067817Y00450553
X00068698Y00461352
X00052814Y00464998
X00042083Y00448646
X00077645Y00414128
X0009442Y00396919
X00180155Y0044545
X0018415Y00466852
X0019215
X00205907Y00469138
X0021415Y00469506
X00210734Y00462102
X0021972Y00462618
X00161107Y00476677
X0019065Y00510096
X0018565Y00544734
X00179041Y00544396
X00172031
X00164642
X0015745Y00544023
X00159483Y0055083
X00168305
X0017565
X00182829
X00195994Y00550488
X00203509Y0055083
X00207164Y00544606
X00199677Y00544396
X0021902
X00219014Y00551821
X00186789Y00581802
X00171501Y00582969
X00138349Y0057265
X00136904Y00565611
Y00557715
X0013693Y00550196
X00071396Y00540488
X00060812
X00066104Y00535196
X00060812Y00529904
X00071396
X00062603Y00506038
X00028911Y00506641
X00034172Y00512102
X00036775Y00536194
X0004538Y00548949
X00049527Y00568895
X00238101Y00556605
X00245149Y00557055
X00257452Y00555017
X0023064Y00498552
X00225285Y00469025
X002813Y00459839
X00288266Y00458453
X00284261Y0042138
X00261017Y00406821
X00235099Y00408223
X00235855Y00390755
X0027391Y00375456
X00291463Y00371488
X0034417Y00410412
X0035949Y0041156
X0036949
Y0042156
X0035949
Y00433734
X0036949
Y00443734
X0035949
X00381309
Y00433734
X00391309
Y00443734
Y0042156
Y0041156
X00381309
Y0042156
X00428492Y00430817
X00458848Y00432502
X00458632Y00397839
X0045833Y00383881
X00473196Y00392464
X00423023Y00394673
X00427872Y00371488
X00432276Y00363976
X00542031Y0036909
X00591312Y00396903
X00492475Y00452643
X00430426Y00478816
X00423023Y0048376
X0041529Y0048411
X004064
X0039751
X00389251Y0048376
X00379251Y00483897
X0036949Y0048411
X0035941
X00348528
X00339831Y0048376
X0033274Y0048411
X0033655Y00492814
X0034417
X00353939
X0036449
X00372285
X00384251Y0049276
X003937Y00492814
X0040132
X0041275
X00420467
X00429163
X00328692
X00327831Y0044251
T02
X00252006Y00192743
X00288276Y00215772
Y00225678
X00290817Y00251488
X00290016Y00311488
X00291463Y0016605
Y00157416
X00544374Y00100653
X00550361Y00102797
X00573635Y00124822
X00465775Y00301334
X0045847Y00311488
X00215975Y00222946
X00219129Y001508
X00115985Y00316179
X00204767Y00364594
X00037631Y00455514
X00026195Y0053178
X00067723Y00565611
X00106778Y0057469
X00122969Y00562625
X00129285Y0056707
X00291463Y00387019
X0054497Y00459337
X00575861Y00472224
X00588281Y00440182
X00587201Y0051895
X00525412Y00543732
T03
X00199267Y00443488
T05
X00102878Y0024511
X00231758Y00570128
T07
X0057554Y00026964
X00031463Y00023875
X00024701Y00576475
X00574257Y0057658
T08
X00044565Y00181516
M30
