G04*
G04 #@! TF.GenerationSoftware,Altium Limited,Altium Designer,23.8.1 (32)*
G04*
G04 Layer_Physical_Order=3*
G04 Layer_Color=16440176*
%FSLAX44Y44*%
%MOMM*%
G71*
G04*
G04 #@! TF.SameCoordinates,271CB4FA-4F0A-43F9-8DEE-C87A6A24424C*
G04*
G04*
G04 #@! TF.FilePolarity,Positive*
G04*
G01*
G75*
%ADD35C,1.2700*%
%ADD103C,0.5000*%
%ADD123C,0.9000*%
%ADD124O,0.9000X1.7000*%
%ADD125O,1.4600X1.0000*%
%ADD126O,1.8000X1.0000*%
%ADD127C,3.6000*%
%ADD128C,0.7620*%
%ADD129C,0.6000*%
G36*
X261017Y558580D02*
X259747Y558054D01*
X259587Y558213D01*
X258202Y558787D01*
X256702D01*
X255317Y558213D01*
X254256Y557152D01*
X253682Y555767D01*
Y554267D01*
X254256Y552881D01*
X255317Y551821D01*
X256702Y551247D01*
X258202D01*
X259587Y551821D01*
X259747Y551980D01*
X261017Y551454D01*
Y503235D01*
X261411Y501253D01*
X262534Y499573D01*
X264214Y498450D01*
X266196Y498056D01*
X485831D01*
X487813Y498450D01*
X489493Y499573D01*
X490616Y501253D01*
X491011Y503235D01*
Y594821D01*
X516025D01*
X516213Y593551D01*
X515282Y593268D01*
X512634Y591853D01*
X510314Y589949D01*
X508409Y587628D01*
X506994Y584980D01*
X506123Y582108D01*
X505829Y579120D01*
X506123Y576132D01*
X506994Y573260D01*
X508409Y570612D01*
X510314Y568292D01*
X512634Y566387D01*
X515282Y564972D01*
X518155Y564100D01*
X521142Y563806D01*
X524130Y564100D01*
X527002Y564972D01*
X529650Y566387D01*
X531971Y568292D01*
X533875Y570612D01*
X535290Y573260D01*
X536162Y576132D01*
X536456Y579120D01*
X536162Y582108D01*
X535290Y584980D01*
X533875Y587628D01*
X531971Y589949D01*
X529650Y591853D01*
X527002Y593268D01*
X526071Y593551D01*
X526259Y594821D01*
X564897D01*
X564967Y594473D01*
X564970Y593551D01*
X561973Y591548D01*
X559289Y588864D01*
X557180Y585708D01*
X555727Y582201D01*
X554987Y578478D01*
Y574682D01*
X555727Y570959D01*
X557180Y567452D01*
X559289Y564296D01*
X561973Y561612D01*
X565129Y559503D01*
X568636Y558050D01*
X572359Y557310D01*
X576155D01*
X579878Y558050D01*
X583384Y559503D01*
X586541Y561612D01*
X589225Y564296D01*
X591334Y567452D01*
X592786Y570959D01*
X593527Y574682D01*
Y578478D01*
X592786Y582201D01*
X591334Y585708D01*
X589225Y588864D01*
X586541Y591548D01*
X583544Y593551D01*
X583547Y594473D01*
X583616Y594821D01*
X594821D01*
Y400522D01*
X593551Y399995D01*
X593447Y400098D01*
X592062Y400672D01*
X590562D01*
X589176Y400098D01*
X588116Y399038D01*
X587542Y397652D01*
Y396153D01*
X588116Y394767D01*
X589176Y393706D01*
X590562Y393133D01*
X592062D01*
X593447Y393706D01*
X593551Y393810D01*
X594821Y393283D01*
Y72412D01*
X593551Y72350D01*
X593377Y74108D01*
X592506Y76980D01*
X591091Y79628D01*
X589187Y81948D01*
X586866Y83853D01*
X584218Y85268D01*
X581346Y86139D01*
X578358Y86434D01*
X575370Y86139D01*
X572498Y85268D01*
X569850Y83853D01*
X567529Y81948D01*
X565625Y79628D01*
X564210Y76980D01*
X563339Y74108D01*
X563044Y71120D01*
X563339Y68132D01*
X564210Y65260D01*
X565625Y62612D01*
X567529Y60292D01*
X569850Y58387D01*
X572498Y56972D01*
X575370Y56101D01*
X578358Y55806D01*
X581346Y56101D01*
X584218Y56972D01*
X586866Y58387D01*
X589187Y60292D01*
X591091Y62612D01*
X592506Y65260D01*
X593377Y68132D01*
X593551Y69890D01*
X594821Y69828D01*
Y34090D01*
X593551Y33837D01*
X592617Y36092D01*
X590508Y39248D01*
X587824Y41932D01*
X584668Y44041D01*
X581161Y45493D01*
X577438Y46234D01*
X573642D01*
X569919Y45493D01*
X566412Y44041D01*
X563256Y41932D01*
X560572Y39248D01*
X558463Y36092D01*
X557010Y32585D01*
X556270Y28862D01*
Y25066D01*
X557010Y21343D01*
X558463Y17836D01*
X560572Y14680D01*
X563256Y11996D01*
X566412Y9887D01*
X569919Y8435D01*
X573642Y7694D01*
X577438D01*
X581161Y8435D01*
X584668Y9887D01*
X587824Y11996D01*
X590508Y14680D01*
X592617Y17836D01*
X593551Y20091D01*
X594821Y19838D01*
Y5179D01*
X40002D01*
X39750Y6449D01*
X40591Y6798D01*
X43747Y8907D01*
X46431Y11591D01*
X48540Y14747D01*
X49993Y18254D01*
X50733Y21977D01*
Y25773D01*
X49993Y29496D01*
X48540Y33003D01*
X46431Y36159D01*
X43747Y38843D01*
X40591Y40952D01*
X37084Y42404D01*
X33361Y43145D01*
X29565D01*
X25843Y42404D01*
X22336Y40952D01*
X19180Y38843D01*
X16495Y36159D01*
X14387Y33003D01*
X12934Y29496D01*
X12193Y25773D01*
Y21977D01*
X12934Y18254D01*
X14387Y14747D01*
X16495Y11591D01*
X19180Y8907D01*
X22336Y6798D01*
X23177Y6449D01*
X22925Y5179D01*
X5179D01*
Y439459D01*
X6449Y439711D01*
X7261Y437753D01*
X9500Y434835D01*
X12418Y432595D01*
X15817Y431188D01*
X19463Y430708D01*
X23110Y431188D01*
X26509Y432595D01*
X29427Y434835D01*
X31666Y437753D01*
X33074Y441151D01*
X33554Y444798D01*
X33074Y448445D01*
X31666Y451843D01*
X29427Y454762D01*
X26509Y457001D01*
X23110Y458409D01*
X19463Y458889D01*
X15817Y458409D01*
X12418Y457001D01*
X9500Y454762D01*
X7261Y451843D01*
X6449Y449885D01*
X5179Y450137D01*
Y569930D01*
X6449Y570183D01*
X7624Y567347D01*
X9733Y564191D01*
X12417Y561507D01*
X15573Y559398D01*
X19080Y557946D01*
X22803Y557205D01*
X26599D01*
X30322Y557946D01*
X33828Y559398D01*
X36985Y561507D01*
X39669Y564191D01*
X41778Y567347D01*
X43230Y570854D01*
X43971Y574577D01*
Y578373D01*
X43230Y582096D01*
X41778Y585603D01*
X39669Y588759D01*
X36985Y591443D01*
X33828Y593552D01*
X33773Y593575D01*
X34021Y594821D01*
X261017Y594821D01*
Y558580D01*
D02*
G37*
%LPC*%
G36*
X172251Y586739D02*
X170751D01*
X169366Y586165D01*
X168305Y585104D01*
X167731Y583719D01*
Y582219D01*
X168305Y580834D01*
X169366Y579773D01*
X170751Y579199D01*
X172251D01*
X173637Y579773D01*
X174697Y580834D01*
X175271Y582219D01*
Y583719D01*
X174697Y585104D01*
X173637Y586165D01*
X172251Y586739D01*
D02*
G37*
G36*
X107627Y578960D02*
X105929D01*
X104359Y578310D01*
X103158Y577109D01*
X102508Y575539D01*
Y573841D01*
X103158Y572271D01*
X104359Y571070D01*
X105929Y570420D01*
X107627D01*
X109197Y571070D01*
X110398Y572271D01*
X111048Y573841D01*
Y575539D01*
X110398Y577109D01*
X109197Y578310D01*
X107627Y578960D01*
D02*
G37*
G36*
X130134Y571340D02*
X128436D01*
X126866Y570690D01*
X125665Y569489D01*
X125015Y567919D01*
Y567542D01*
X123959Y566837D01*
X123818Y566895D01*
X122119D01*
X120550Y566245D01*
X119349Y565044D01*
X118699Y563474D01*
Y561776D01*
X119349Y560206D01*
X120550Y559005D01*
X122119Y558355D01*
X123818D01*
X125387Y559005D01*
X126588Y560206D01*
X127239Y561776D01*
Y562153D01*
X128294Y562859D01*
X128436Y562800D01*
X130134D01*
X131704Y563450D01*
X132905Y564651D01*
X133555Y566221D01*
Y567919D01*
X132905Y569489D01*
X131704Y570690D01*
X130134Y571340D01*
D02*
G37*
G36*
X50277Y572665D02*
X48777D01*
X47391Y572091D01*
X46331Y571030D01*
X45757Y569645D01*
Y568145D01*
X46331Y566759D01*
X47391Y565699D01*
X48777Y565125D01*
X50277D01*
X51662Y565699D01*
X52723Y566759D01*
X53297Y568145D01*
Y569645D01*
X52723Y571030D01*
X51662Y572091D01*
X50277Y572665D01*
D02*
G37*
G36*
X232762Y577748D02*
X230755D01*
X228817Y577228D01*
X227080Y576225D01*
X225661Y574806D01*
X224658Y573069D01*
X224138Y571131D01*
Y569124D01*
X224658Y567186D01*
X225661Y565449D01*
X227080Y564030D01*
X228817Y563027D01*
X230755Y562508D01*
X232762D01*
X234700Y563027D01*
X236437Y564030D01*
X237856Y565449D01*
X238859Y567186D01*
X239378Y569124D01*
Y571131D01*
X238859Y573069D01*
X237856Y574806D01*
X236437Y576225D01*
X234700Y577228D01*
X232762Y577748D01*
D02*
G37*
G36*
X68572Y569881D02*
X66873D01*
X65304Y569231D01*
X64103Y568030D01*
X63453Y566460D01*
Y564762D01*
X64103Y563192D01*
X65304Y561991D01*
X66873Y561341D01*
X68572D01*
X70141Y561991D01*
X71343Y563192D01*
X71993Y564762D01*
Y566460D01*
X71343Y568030D01*
X70141Y569231D01*
X68572Y569881D01*
D02*
G37*
G36*
X46129Y552719D02*
X44630D01*
X43244Y552145D01*
X42183Y551084D01*
X41610Y549698D01*
Y548199D01*
X42183Y546813D01*
X43244Y545752D01*
X44630Y545178D01*
X46129D01*
X47515Y545752D01*
X48576Y546813D01*
X49149Y548199D01*
Y549698D01*
X48576Y551084D01*
X47515Y552145D01*
X46129Y552719D01*
D02*
G37*
G36*
X72146Y544258D02*
X70646D01*
X69260Y543684D01*
X68200Y542623D01*
X67626Y541238D01*
Y540020D01*
X67180Y539412D01*
X66571Y538966D01*
X65637D01*
X65028Y539412D01*
X64582Y540020D01*
Y541238D01*
X64008Y542623D01*
X62947Y543684D01*
X61562Y544258D01*
X60062D01*
X58676Y543684D01*
X57616Y542623D01*
X57042Y541238D01*
Y539738D01*
X57616Y538352D01*
X58676Y537292D01*
X60062Y536718D01*
X61279D01*
X61888Y536272D01*
X62334Y535663D01*
Y534728D01*
X61888Y534119D01*
X61279Y533674D01*
X60062D01*
X58676Y533100D01*
X57616Y532039D01*
X57042Y530653D01*
Y529154D01*
X57616Y527768D01*
X58676Y526708D01*
X60062Y526134D01*
X61562D01*
X62947Y526708D01*
X64008Y527768D01*
X64582Y529154D01*
Y530371D01*
X65028Y530980D01*
X65637Y531426D01*
X66571D01*
X67180Y530980D01*
X67626Y530371D01*
Y529154D01*
X68200Y527768D01*
X69260Y526708D01*
X70646Y526134D01*
X72146D01*
X73531Y526708D01*
X74592Y527768D01*
X75166Y529154D01*
Y530653D01*
X74592Y532039D01*
X73531Y533100D01*
X72146Y533674D01*
X70929D01*
X70320Y534119D01*
X69874Y534728D01*
Y535663D01*
X70320Y536272D01*
X70929Y536718D01*
X72146D01*
X73531Y537292D01*
X74592Y538352D01*
X75166Y539738D01*
Y541238D01*
X74592Y542623D01*
X73531Y543684D01*
X72146Y544258D01*
D02*
G37*
G36*
X37525Y539964D02*
X36025D01*
X34639Y539390D01*
X33579Y538330D01*
X33005Y536944D01*
Y535444D01*
X33579Y534058D01*
X34639Y532998D01*
X36025Y532424D01*
X37525D01*
X38910Y532998D01*
X39971Y534058D01*
X40545Y535444D01*
Y536944D01*
X39971Y538330D01*
X38910Y539390D01*
X37525Y539964D01*
D02*
G37*
G36*
X27044Y536050D02*
X25345D01*
X23776Y535400D01*
X22575Y534199D01*
X21925Y532629D01*
Y530931D01*
X22575Y529361D01*
X23776Y528160D01*
X25345Y527510D01*
X27044D01*
X28614Y528160D01*
X29815Y529361D01*
X30465Y530931D01*
Y532629D01*
X29815Y534199D01*
X28614Y535400D01*
X27044Y536050D01*
D02*
G37*
G36*
X588050Y523220D02*
X586351D01*
X584782Y522570D01*
X583581Y521369D01*
X582931Y519799D01*
Y518101D01*
X583581Y516531D01*
X584782Y515330D01*
X586351Y514680D01*
X588050D01*
X589619Y515330D01*
X590821Y516531D01*
X591471Y518101D01*
Y519799D01*
X590821Y521369D01*
X589619Y522570D01*
X588050Y523220D01*
D02*
G37*
G36*
X191400Y513866D02*
X189900D01*
X188514Y513292D01*
X187454Y512232D01*
X186880Y510846D01*
Y509346D01*
X187454Y507961D01*
X188514Y506900D01*
X189900Y506326D01*
X191400D01*
X192785Y506900D01*
X193846Y507961D01*
X194420Y509346D01*
Y510846D01*
X193846Y512232D01*
X192785Y513292D01*
X191400Y513866D01*
D02*
G37*
G36*
X34922Y515872D02*
X33422D01*
X32036Y515298D01*
X30976Y514238D01*
X30402Y512852D01*
Y511479D01*
X30141Y511103D01*
X29417Y510411D01*
X28161D01*
X26776Y509837D01*
X25715Y508777D01*
X25141Y507391D01*
Y505891D01*
X25715Y504506D01*
X26776Y503445D01*
X28161Y502871D01*
X29661D01*
X31047Y503445D01*
X32107Y504506D01*
X32681Y505891D01*
Y507264D01*
X32943Y507641D01*
X33666Y508332D01*
X34922D01*
X36307Y508906D01*
X37368Y509966D01*
X37942Y511352D01*
Y512852D01*
X37368Y514238D01*
X36307Y515298D01*
X34922Y515872D01*
D02*
G37*
G36*
X63353Y509808D02*
X61853D01*
X60467Y509234D01*
X59407Y508173D01*
X58833Y506788D01*
Y505288D01*
X59407Y503902D01*
X60467Y502842D01*
X61853Y502268D01*
X63353D01*
X64738Y502842D01*
X65799Y503902D01*
X66373Y505288D01*
Y506788D01*
X65799Y508173D01*
X64738Y509234D01*
X63353Y509808D01*
D02*
G37*
G36*
X402070Y496584D02*
X400570D01*
X399184Y496010D01*
X398228Y495054D01*
X397510Y494998D01*
X396792Y495054D01*
X395835Y496010D01*
X394450Y496584D01*
X392950D01*
X391564Y496010D01*
X390504Y494950D01*
X389930Y493564D01*
Y492064D01*
X390504Y490679D01*
X391564Y489618D01*
X392950Y489044D01*
X394450D01*
X395835Y489618D01*
X396792Y490575D01*
X397510Y490631D01*
X398228Y490575D01*
X399184Y489618D01*
X400570Y489044D01*
X402070D01*
X403456Y489618D01*
X404516Y490679D01*
X405090Y492064D01*
Y493564D01*
X404516Y494950D01*
X403456Y496010D01*
X402070Y496584D01*
D02*
G37*
G36*
X344920D02*
X343420D01*
X342034Y496010D01*
X341078Y495054D01*
X340360Y494998D01*
X339642Y495054D01*
X338685Y496010D01*
X337300Y496584D01*
X335800D01*
X334414Y496010D01*
X333354Y494950D01*
X333308Y494840D01*
X331934D01*
X331888Y494950D01*
X330828Y496010D01*
X329442Y496584D01*
X327942D01*
X326557Y496010D01*
X325496Y494950D01*
X324922Y493564D01*
Y492064D01*
X325496Y490679D01*
X326557Y489618D01*
X327942Y489044D01*
X329442D01*
X330828Y489618D01*
X331888Y490679D01*
X331934Y490789D01*
X333308D01*
X333354Y490679D01*
X334414Y489618D01*
X335800Y489044D01*
X337300D01*
X338685Y489618D01*
X339642Y490575D01*
X340360Y490631D01*
X341078Y490575D01*
X342034Y489618D01*
X343420Y489044D01*
X344920D01*
X346306Y489618D01*
X347366Y490679D01*
X347940Y492064D01*
Y493564D01*
X347366Y494950D01*
X346306Y496010D01*
X344920Y496584D01*
D02*
G37*
G36*
X373035D02*
X371536D01*
X370150Y496010D01*
X369090Y494950D01*
X369075Y494915D01*
X367700D01*
X367686Y494950D01*
X366626Y496010D01*
X365240Y496584D01*
X363740D01*
X362355Y496010D01*
X361294Y494950D01*
X360720Y493564D01*
Y492064D01*
X361294Y490679D01*
X362355Y489618D01*
X363740Y489044D01*
X365240D01*
X366626Y489618D01*
X367686Y490679D01*
X367700Y490714D01*
X369075D01*
X369090Y490679D01*
X370150Y489618D01*
X371536Y489044D01*
X373035D01*
X374421Y489618D01*
X375482Y490679D01*
X376055Y492064D01*
Y493564D01*
X375482Y494950D01*
X374421Y496010D01*
X373035Y496584D01*
D02*
G37*
G36*
X231390Y502322D02*
X229890D01*
X228504Y501748D01*
X227444Y500687D01*
X226870Y499302D01*
Y497802D01*
X227444Y496416D01*
X228504Y495356D01*
X229890Y494782D01*
X231390D01*
X232775Y495356D01*
X233836Y496416D01*
X234410Y497802D01*
Y499302D01*
X233836Y500687D01*
X232775Y501748D01*
X231390Y502322D01*
D02*
G37*
G36*
X429913Y496584D02*
X428413D01*
X427027Y496010D01*
X425967Y494950D01*
X425450Y493702D01*
X424815Y493630D01*
X424180Y493702D01*
X423663Y494950D01*
X422603Y496010D01*
X421217Y496584D01*
X419717D01*
X418332Y496010D01*
X417271Y494950D01*
X415946D01*
X414885Y496010D01*
X413500Y496584D01*
X412000D01*
X410615Y496010D01*
X409554Y494950D01*
X408980Y493564D01*
Y492064D01*
X409554Y490679D01*
X410615Y489618D01*
X412000Y489044D01*
X413500D01*
X414885Y489618D01*
X415946Y490679D01*
X417271D01*
X418332Y489618D01*
X419717Y489044D01*
X421217D01*
X422603Y489618D01*
X423663Y490679D01*
X424180Y491926D01*
X424815Y491999D01*
X425450Y491926D01*
X425967Y490679D01*
X427027Y489618D01*
X428413Y489044D01*
X429913D01*
X431298Y489618D01*
X432359Y490679D01*
X432933Y492064D01*
Y493564D01*
X432359Y494950D01*
X431298Y496010D01*
X429913Y496584D01*
D02*
G37*
G36*
X354689D02*
X353189D01*
X351803Y496010D01*
X350743Y494950D01*
X350169Y493564D01*
Y492064D01*
X350743Y490679D01*
X351803Y489618D01*
X353189Y489044D01*
X354689D01*
X356074Y489618D01*
X357135Y490679D01*
X357709Y492064D01*
Y493564D01*
X357135Y494950D01*
X356074Y496010D01*
X354689Y496584D01*
D02*
G37*
G36*
X385001Y496530D02*
X383501D01*
X382116Y495956D01*
X381055Y494896D01*
X380481Y493510D01*
Y492010D01*
X381055Y490625D01*
X382116Y489564D01*
X383501Y488990D01*
X385001D01*
X386387Y489564D01*
X387447Y490625D01*
X388021Y492010D01*
Y493510D01*
X387447Y494896D01*
X386387Y495956D01*
X385001Y496530D01*
D02*
G37*
G36*
X398260Y487880D02*
X396760D01*
X395374Y487306D01*
X394314Y486245D01*
X393996Y485477D01*
X392621D01*
X392447Y485896D01*
X391387Y486956D01*
X390001Y487530D01*
X388501D01*
X387116Y486956D01*
X386055Y485896D01*
X385481Y484510D01*
Y483010D01*
X386055Y481624D01*
X387116Y480564D01*
X388501Y479990D01*
X390001D01*
X391387Y480564D01*
X392447Y481624D01*
X392766Y482393D01*
X394140D01*
X394314Y481974D01*
X395374Y480914D01*
X396760Y480340D01*
X398260D01*
X399646Y480914D01*
X400706Y481974D01*
X401280Y483360D01*
Y484860D01*
X400706Y486245D01*
X399646Y487306D01*
X398260Y487880D01*
D02*
G37*
G36*
X349278D02*
X347778D01*
X346392Y487306D01*
X345332Y486245D01*
X344775Y484900D01*
X344608Y484851D01*
X343488Y484783D01*
X343027Y485896D01*
X341967Y486956D01*
X340581Y487530D01*
X339081D01*
X337696Y486956D01*
X337215Y486476D01*
X336063Y486269D01*
X335631Y486551D01*
X334875Y487306D01*
X333490Y487880D01*
X331990D01*
X330605Y487306D01*
X329544Y486245D01*
X328970Y484860D01*
Y483360D01*
X329544Y481974D01*
X330605Y480914D01*
X331990Y480340D01*
X333490D01*
X334875Y480914D01*
X335356Y481394D01*
X336508Y481601D01*
X336940Y481319D01*
X337696Y480564D01*
X339081Y479990D01*
X340581D01*
X341967Y480564D01*
X343027Y481624D01*
X343585Y482970D01*
X343751Y483019D01*
X344871Y483087D01*
X345332Y481974D01*
X346392Y480914D01*
X347778Y480340D01*
X349278D01*
X350663Y480914D01*
X351724Y481974D01*
X352298Y483360D01*
Y484860D01*
X351724Y486245D01*
X350663Y487306D01*
X349278Y487880D01*
D02*
G37*
G36*
X407150D02*
X405650D01*
X404264Y487306D01*
X403204Y486245D01*
X402630Y484860D01*
Y483360D01*
X403204Y481974D01*
X404264Y480914D01*
X405650Y480340D01*
X407150D01*
X408535Y480914D01*
X409596Y481974D01*
X410170Y483360D01*
Y484860D01*
X409596Y486245D01*
X408535Y487306D01*
X407150Y487880D01*
D02*
G37*
G36*
X370240D02*
X368740D01*
X367355Y487306D01*
X366294Y486245D01*
X365720Y484860D01*
Y483360D01*
X366294Y481974D01*
X367355Y480914D01*
X368740Y480340D01*
X370240D01*
X371626Y480914D01*
X372686Y481974D01*
X373260Y483360D01*
Y484860D01*
X372686Y486245D01*
X371626Y487306D01*
X370240Y487880D01*
D02*
G37*
G36*
X360160D02*
X358660D01*
X357275Y487306D01*
X356214Y486245D01*
X355640Y484860D01*
Y483360D01*
X356214Y481974D01*
X357275Y480914D01*
X358660Y480340D01*
X360160D01*
X361545Y480914D01*
X362606Y481974D01*
X363180Y483360D01*
Y484860D01*
X362606Y486245D01*
X361545Y487306D01*
X360160Y487880D01*
D02*
G37*
G36*
X380001Y487667D02*
X378501D01*
X377116Y487093D01*
X376055Y486033D01*
X375481Y484647D01*
Y483147D01*
X376055Y481762D01*
X377116Y480701D01*
X378501Y480127D01*
X380001D01*
X381387Y480701D01*
X382447Y481762D01*
X383021Y483147D01*
Y484647D01*
X382447Y486033D01*
X381387Y487093D01*
X380001Y487667D01*
D02*
G37*
G36*
X416040Y487880D02*
X414540D01*
X413154Y487306D01*
X412094Y486245D01*
X411520Y484860D01*
Y483360D01*
X412094Y481974D01*
X413154Y480914D01*
X414540Y480340D01*
X416040D01*
X417425Y480914D01*
X418360Y481848D01*
X419116Y481869D01*
X419771Y481759D01*
X419827Y481624D01*
X420888Y480564D01*
X422273Y479990D01*
X423773D01*
X425159Y480564D01*
X426219Y481624D01*
X426793Y483010D01*
Y484510D01*
X426219Y485896D01*
X425159Y486956D01*
X423773Y487530D01*
X422273D01*
X420888Y486956D01*
X419953Y486022D01*
X419197Y486001D01*
X418542Y486111D01*
X418486Y486245D01*
X417425Y487306D01*
X416040Y487880D01*
D02*
G37*
G36*
X431176Y482586D02*
X429676D01*
X428291Y482012D01*
X427230Y480952D01*
X426656Y479566D01*
Y478066D01*
X427230Y476681D01*
X428291Y475620D01*
X429676Y475046D01*
X431176D01*
X432562Y475620D01*
X433622Y476681D01*
X434196Y478066D01*
Y479566D01*
X433622Y480952D01*
X432562Y482012D01*
X431176Y482586D01*
D02*
G37*
G36*
X161857Y480447D02*
X160357D01*
X158972Y479874D01*
X157911Y478813D01*
X157337Y477427D01*
Y475928D01*
X157911Y474542D01*
X158972Y473481D01*
X160357Y472907D01*
X161857D01*
X163242Y473481D01*
X164303Y474542D01*
X164877Y475928D01*
Y477427D01*
X164303Y478813D01*
X163242Y479874D01*
X161857Y480447D01*
D02*
G37*
G36*
X214900Y473276D02*
X213400D01*
X212015Y472702D01*
X210954Y471641D01*
X210640Y470883D01*
X209265D01*
X209104Y471273D01*
X208043Y472334D01*
X206657Y472908D01*
X205158D01*
X203772Y472334D01*
X202711Y471273D01*
X202138Y469888D01*
Y468388D01*
X202711Y467002D01*
X203772Y465942D01*
X205158Y465368D01*
X206657D01*
X207023Y465519D01*
X207742Y464443D01*
X207537Y464238D01*
X206964Y462852D01*
Y461352D01*
X207537Y459967D01*
X208598Y458906D01*
X209984Y458332D01*
X211483D01*
X212869Y458906D01*
X213930Y459967D01*
X214503Y461352D01*
Y462852D01*
X213930Y464238D01*
X213702Y464466D01*
X214228Y465736D01*
X214900D01*
X216285Y466310D01*
X217180Y465410D01*
X216524Y464754D01*
X215950Y463368D01*
Y461868D01*
X216524Y460482D01*
X217584Y459422D01*
X218970Y458848D01*
X220470D01*
X221855Y459422D01*
X222916Y460482D01*
X223490Y461868D01*
Y463368D01*
X223017Y464509D01*
X223525Y465256D01*
X223863Y465534D01*
X224536Y465255D01*
X226035D01*
X227421Y465829D01*
X228482Y466889D01*
X229055Y468275D01*
Y469775D01*
X228482Y471161D01*
X227421Y472221D01*
X226035Y472795D01*
X224536D01*
X223150Y472221D01*
X222089Y471161D01*
X221516Y469775D01*
Y468275D01*
X221988Y467134D01*
X221480Y466387D01*
X221143Y466109D01*
X220470Y466388D01*
X218970D01*
X217584Y465814D01*
X216689Y466713D01*
X217346Y467370D01*
X217920Y468756D01*
Y470256D01*
X217346Y471641D01*
X216285Y472702D01*
X214900Y473276D01*
D02*
G37*
G36*
X192900Y470622D02*
X191400D01*
X190014Y470048D01*
X188954Y468988D01*
X188837Y468706D01*
X187463D01*
X187346Y468988D01*
X186285Y470048D01*
X184900Y470622D01*
X183400D01*
X182015Y470048D01*
X180954Y468988D01*
X180380Y467602D01*
Y466102D01*
X180954Y464717D01*
X182015Y463656D01*
X183400Y463082D01*
X184900D01*
X186285Y463656D01*
X187346Y464717D01*
X187463Y464998D01*
X188837D01*
X188954Y464717D01*
X190014Y463656D01*
X191400Y463082D01*
X192900D01*
X194286Y463656D01*
X195346Y464717D01*
X195920Y466102D01*
Y467602D01*
X195346Y468988D01*
X194286Y470048D01*
X192900Y470622D01*
D02*
G37*
G36*
X576710Y476494D02*
X575011D01*
X573442Y475844D01*
X572241Y474643D01*
X571591Y473073D01*
Y471375D01*
X572241Y469805D01*
X573442Y468604D01*
X575011Y467954D01*
X576710D01*
X578279Y468604D01*
X579481Y469805D01*
X580131Y471375D01*
Y473073D01*
X579481Y474643D01*
X578279Y475844D01*
X576710Y476494D01*
D02*
G37*
G36*
X53564Y468768D02*
X52064D01*
X50678Y468195D01*
X49618Y467134D01*
X49044Y465748D01*
Y464249D01*
X49618Y462863D01*
X50678Y461802D01*
X52064Y461228D01*
X53564D01*
X54949Y461802D01*
X56010Y462863D01*
X56584Y464249D01*
Y465748D01*
X56010Y467134D01*
X54949Y468195D01*
X53564Y468768D01*
D02*
G37*
G36*
X69448Y465122D02*
X67948D01*
X66562Y464548D01*
X65502Y463488D01*
X64928Y462102D01*
Y460602D01*
X65502Y459217D01*
X66562Y458156D01*
X67948Y457582D01*
X69448D01*
X70833Y458156D01*
X71894Y459217D01*
X72468Y460602D01*
Y462102D01*
X71894Y463488D01*
X70833Y464548D01*
X69448Y465122D01*
D02*
G37*
G36*
X545819Y463607D02*
X544121D01*
X542551Y462957D01*
X541350Y461756D01*
X540700Y460186D01*
Y458488D01*
X541350Y456918D01*
X542551Y455717D01*
X544121Y455067D01*
X545819D01*
X547389Y455717D01*
X548590Y456918D01*
X549240Y458488D01*
Y460186D01*
X548590Y461756D01*
X547389Y462957D01*
X545819Y463607D01*
D02*
G37*
G36*
X282050Y463609D02*
X280550D01*
X279164Y463035D01*
X278104Y461975D01*
X277530Y460589D01*
Y459089D01*
X278104Y457704D01*
X279164Y456643D01*
X280550Y456069D01*
X282050D01*
X283435Y456643D01*
X283688Y456895D01*
X284933Y456647D01*
X285070Y456318D01*
X286131Y455257D01*
X287516Y454683D01*
X289016D01*
X290402Y455257D01*
X291462Y456318D01*
X292036Y457704D01*
Y459203D01*
X291462Y460589D01*
X290402Y461650D01*
X289016Y462223D01*
X287516D01*
X286131Y461650D01*
X285878Y461397D01*
X284633Y461645D01*
X284496Y461975D01*
X283435Y463035D01*
X282050Y463609D01*
D02*
G37*
G36*
X119073Y457158D02*
X117574D01*
X116188Y456584D01*
X115127Y455523D01*
X114554Y454137D01*
Y452638D01*
X115127Y451252D01*
X116188Y450191D01*
X117574Y449618D01*
X119073D01*
X120459Y450191D01*
X121520Y451252D01*
X122094Y452638D01*
Y454137D01*
X121520Y455523D01*
X120459Y456584D01*
X119073Y457158D01*
D02*
G37*
G36*
X493225Y456413D02*
X491725D01*
X490339Y455839D01*
X489279Y454779D01*
X488705Y453393D01*
Y451893D01*
X489279Y450508D01*
X490339Y449447D01*
X491725Y448873D01*
X493225D01*
X494610Y449447D01*
X495671Y450508D01*
X496245Y451893D01*
Y453393D01*
X495671Y454779D01*
X494610Y455839D01*
X493225Y456413D01*
D02*
G37*
G36*
X68567Y454323D02*
X67067D01*
X65682Y453749D01*
X64621Y452688D01*
X64047Y451303D01*
Y449803D01*
X64621Y448417D01*
X65682Y447357D01*
X67067Y446783D01*
X68567D01*
X69953Y447357D01*
X71013Y448417D01*
X71587Y449803D01*
Y451303D01*
X71013Y452688D01*
X69953Y453749D01*
X68567Y454323D01*
D02*
G37*
G36*
X38480Y459784D02*
X36782D01*
X35212Y459134D01*
X34011Y457933D01*
X33361Y456364D01*
Y454665D01*
X34011Y453096D01*
X35212Y451894D01*
X36782Y451244D01*
X37704D01*
X38567Y450010D01*
X38313Y449396D01*
Y447896D01*
X38887Y446511D01*
X39947Y445450D01*
X41333Y444876D01*
X42833D01*
X44218Y445450D01*
X45279Y446511D01*
X45853Y447896D01*
Y449396D01*
X45279Y450782D01*
X44218Y451842D01*
X42833Y452416D01*
X42240D01*
X42225Y452426D01*
X41496Y453686D01*
X41901Y454665D01*
Y456364D01*
X41251Y457933D01*
X40050Y459134D01*
X38480Y459784D01*
D02*
G37*
G36*
X180905Y449220D02*
X179405D01*
X178020Y448646D01*
X176959Y447586D01*
X176385Y446200D01*
Y444700D01*
X176959Y443315D01*
X178020Y442254D01*
X179405Y441680D01*
X180905D01*
X182291Y442254D01*
X183351Y443315D01*
X183925Y444700D01*
Y446200D01*
X183351Y447586D01*
X182291Y448646D01*
X180905Y449220D01*
D02*
G37*
G36*
X150730Y457505D02*
X149230D01*
X147844Y456931D01*
X146784Y455871D01*
X146210Y454485D01*
Y452985D01*
X146784Y451600D01*
X147844Y450539D01*
X148809Y450139D01*
Y448792D01*
X147844Y448392D01*
X146784Y447332D01*
X146210Y445946D01*
Y444446D01*
X146784Y443060D01*
X147844Y442000D01*
X149230Y441426D01*
X150730D01*
X152115Y442000D01*
X153176Y443060D01*
X153536Y443930D01*
X154911D01*
X155166Y443315D01*
X156226Y442254D01*
X157612Y441680D01*
X159112D01*
X160497Y442254D01*
X161558Y443315D01*
X162132Y444700D01*
Y446200D01*
X161558Y447586D01*
X160497Y448646D01*
X159112Y449220D01*
X157612D01*
X156226Y448646D01*
X155166Y447586D01*
X154805Y446716D01*
X153431D01*
X153176Y447332D01*
X152115Y448392D01*
X151151Y448792D01*
Y450139D01*
X152115Y450539D01*
X153176Y451600D01*
X153750Y452985D01*
Y454485D01*
X153176Y455871D01*
X152115Y456931D01*
X150730Y457505D01*
D02*
G37*
G36*
X392058Y447504D02*
X390559D01*
X389173Y446930D01*
X388113Y445870D01*
X387539Y444484D01*
Y442984D01*
X388113Y441599D01*
X389173Y440538D01*
X390559Y439964D01*
X392058D01*
X393444Y440538D01*
X394505Y441599D01*
X395079Y442984D01*
Y444484D01*
X394505Y445870D01*
X393444Y446930D01*
X392058Y447504D01*
D02*
G37*
G36*
X382058D02*
X380559D01*
X379173Y446930D01*
X378113Y445870D01*
X377539Y444484D01*
Y442984D01*
X378113Y441599D01*
X379173Y440538D01*
X380559Y439964D01*
X382058D01*
X383444Y440538D01*
X384505Y441599D01*
X385079Y442984D01*
Y444484D01*
X384505Y445870D01*
X383444Y446930D01*
X382058Y447504D01*
D02*
G37*
G36*
X370240D02*
X368740D01*
X367355Y446930D01*
X366294Y445870D01*
X365720Y444484D01*
Y442984D01*
X366294Y441599D01*
X367355Y440538D01*
X368740Y439964D01*
X370240D01*
X371626Y440538D01*
X372686Y441599D01*
X373260Y442984D01*
Y444484D01*
X372686Y445870D01*
X371626Y446930D01*
X370240Y447504D01*
D02*
G37*
G36*
X360240D02*
X358740D01*
X357355Y446930D01*
X356294Y445870D01*
X355720Y444484D01*
Y442984D01*
X356294Y441599D01*
X357355Y440538D01*
X358740Y439964D01*
X360240D01*
X361626Y440538D01*
X362686Y441599D01*
X363260Y442984D01*
Y444484D01*
X362686Y445870D01*
X361626Y446930D01*
X360240Y447504D01*
D02*
G37*
G36*
X328581Y446280D02*
X327081D01*
X325696Y445706D01*
X324635Y444645D01*
X324061Y443260D01*
Y441760D01*
X324635Y440374D01*
X325696Y439314D01*
X327081Y438740D01*
X328581D01*
X329967Y439314D01*
X331027Y440374D01*
X331601Y441760D01*
Y443260D01*
X331027Y444645D01*
X329967Y445706D01*
X328581Y446280D01*
D02*
G37*
G36*
X200278Y448568D02*
X198257D01*
X196390Y447794D01*
X194961Y446366D01*
X194187Y444498D01*
Y442477D01*
X194961Y440610D01*
X196390Y439181D01*
X198257Y438408D01*
X200278D01*
X202145Y439181D01*
X203574Y440610D01*
X204347Y442477D01*
Y444498D01*
X203574Y446366D01*
X202145Y447794D01*
X200278Y448568D01*
D02*
G37*
G36*
X589130Y444452D02*
X587431D01*
X585862Y443802D01*
X584661Y442601D01*
X584011Y441031D01*
Y439333D01*
X584661Y437763D01*
X585862Y436562D01*
X587431Y435912D01*
X589130D01*
X590699Y436562D01*
X591901Y437763D01*
X592551Y439333D01*
Y441031D01*
X591901Y442601D01*
X590699Y443802D01*
X589130Y444452D01*
D02*
G37*
G36*
X392058Y437504D02*
X390559D01*
X389173Y436930D01*
X388113Y435870D01*
X387539Y434484D01*
Y432984D01*
X388113Y431599D01*
X389173Y430538D01*
X390559Y429964D01*
X392058D01*
X393444Y430538D01*
X394505Y431599D01*
X395079Y432984D01*
Y434484D01*
X394505Y435870D01*
X393444Y436930D01*
X392058Y437504D01*
D02*
G37*
G36*
X382058D02*
X380559D01*
X379173Y436930D01*
X378113Y435870D01*
X377539Y434484D01*
Y432984D01*
X378113Y431599D01*
X379173Y430538D01*
X380559Y429964D01*
X382058D01*
X383444Y430538D01*
X384505Y431599D01*
X385079Y432984D01*
Y434484D01*
X384505Y435870D01*
X383444Y436930D01*
X382058Y437504D01*
D02*
G37*
G36*
X370240D02*
X368740D01*
X367355Y436930D01*
X366294Y435870D01*
X365720Y434484D01*
Y432984D01*
X366294Y431599D01*
X367355Y430538D01*
X368740Y429964D01*
X370240D01*
X371626Y430538D01*
X372686Y431599D01*
X373260Y432984D01*
Y434484D01*
X372686Y435870D01*
X371626Y436930D01*
X370240Y437504D01*
D02*
G37*
G36*
X360240D02*
X358740D01*
X357355Y436930D01*
X356294Y435870D01*
X355720Y434484D01*
Y432984D01*
X356294Y431599D01*
X357355Y430538D01*
X358740Y429964D01*
X360240D01*
X361626Y430538D01*
X362686Y431599D01*
X363260Y432984D01*
Y434484D01*
X362686Y435870D01*
X361626Y436930D01*
X360240Y437504D01*
D02*
G37*
G36*
X459598Y436272D02*
X458098D01*
X456712Y435699D01*
X455652Y434638D01*
X455078Y433252D01*
Y431753D01*
X455652Y430367D01*
X456712Y429306D01*
X458098Y428732D01*
X459598D01*
X460984Y429306D01*
X462044Y430367D01*
X462618Y431753D01*
Y433252D01*
X462044Y434638D01*
X460984Y435699D01*
X459598Y436272D01*
D02*
G37*
G36*
X429242Y434587D02*
X427742D01*
X426357Y434013D01*
X425296Y432953D01*
X424722Y431567D01*
Y430067D01*
X425296Y428682D01*
X426357Y427621D01*
X427742Y427047D01*
X429242D01*
X430628Y427621D01*
X431688Y428682D01*
X432262Y430067D01*
Y431567D01*
X431688Y432953D01*
X430628Y434013D01*
X429242Y434587D01*
D02*
G37*
G36*
X203914Y428650D02*
X202415D01*
X201029Y428076D01*
X199968Y427015D01*
X199394Y425630D01*
Y424130D01*
X199968Y422744D01*
X201029Y421684D01*
X202415Y421110D01*
X203914D01*
X205300Y421684D01*
X206360Y422744D01*
X206935Y424130D01*
Y425630D01*
X206360Y427015D01*
X205300Y428076D01*
X203914Y428650D01*
D02*
G37*
G36*
X190784Y427345D02*
X189285D01*
X187899Y426771D01*
X186838Y425711D01*
X186264Y424325D01*
Y422825D01*
X186838Y421440D01*
X187899Y420379D01*
X189285Y419805D01*
X190784D01*
X192170Y420379D01*
X193231Y421440D01*
X193804Y422825D01*
Y424325D01*
X193231Y425711D01*
X192170Y426771D01*
X190784Y427345D01*
D02*
G37*
G36*
X392058Y425330D02*
X390559D01*
X389173Y424756D01*
X388113Y423695D01*
X387539Y422310D01*
Y420810D01*
X388113Y419425D01*
X389173Y418364D01*
X390559Y417790D01*
X392058D01*
X393444Y418364D01*
X394505Y419425D01*
X395079Y420810D01*
Y422310D01*
X394505Y423695D01*
X393444Y424756D01*
X392058Y425330D01*
D02*
G37*
G36*
X382058D02*
X380559D01*
X379173Y424756D01*
X378113Y423695D01*
X377539Y422310D01*
Y420810D01*
X378113Y419425D01*
X379173Y418364D01*
X380559Y417790D01*
X382058D01*
X383444Y418364D01*
X384505Y419425D01*
X385079Y420810D01*
Y422310D01*
X384505Y423695D01*
X383444Y424756D01*
X382058Y425330D01*
D02*
G37*
G36*
X370240D02*
X368740D01*
X367355Y424756D01*
X366294Y423695D01*
X365720Y422310D01*
Y420810D01*
X366294Y419425D01*
X367355Y418364D01*
X368740Y417790D01*
X370240D01*
X371626Y418364D01*
X372686Y419425D01*
X373260Y420810D01*
Y422310D01*
X372686Y423695D01*
X371626Y424756D01*
X370240Y425330D01*
D02*
G37*
G36*
X360240D02*
X358740D01*
X357355Y424756D01*
X356294Y423695D01*
X355720Y422310D01*
Y420810D01*
X356294Y419425D01*
X357355Y418364D01*
X358740Y417790D01*
X360240D01*
X361626Y418364D01*
X362686Y419425D01*
X363260Y420810D01*
Y422310D01*
X362686Y423695D01*
X361626Y424756D01*
X360240Y425330D01*
D02*
G37*
G36*
X285011Y425150D02*
X283512D01*
X282126Y424576D01*
X281066Y423516D01*
X280492Y422130D01*
Y420630D01*
X281066Y419244D01*
X282126Y418184D01*
X283512Y417610D01*
X285011D01*
X286397Y418184D01*
X287458Y419244D01*
X288032Y420630D01*
Y422130D01*
X287458Y423516D01*
X286397Y424576D01*
X285011Y425150D01*
D02*
G37*
G36*
X36991Y428619D02*
X28991D01*
X26544Y428133D01*
X24470Y426747D01*
X23084Y424673D01*
X22598Y422226D01*
X23084Y419780D01*
X24470Y417706D01*
X26544Y416320D01*
X28991Y415834D01*
X36991D01*
X39437Y416320D01*
X41511Y417706D01*
X42897Y419780D01*
X43383Y422226D01*
X42897Y424673D01*
X41511Y426747D01*
X39437Y428133D01*
X36991Y428619D01*
D02*
G37*
G36*
X169216Y417985D02*
X167716D01*
X166331Y417411D01*
X165270Y416350D01*
X164696Y414965D01*
Y413465D01*
X165270Y412079D01*
X166331Y411019D01*
X167716Y410445D01*
X169216D01*
X170602Y411019D01*
X171662Y412079D01*
X172236Y413465D01*
Y414965D01*
X171662Y416350D01*
X170602Y417411D01*
X169216Y417985D01*
D02*
G37*
G36*
X78395Y417897D02*
X76895D01*
X75510Y417323D01*
X74449Y416263D01*
X73875Y414877D01*
Y413378D01*
X74449Y411992D01*
X75510Y410931D01*
X76895Y410358D01*
X78395D01*
X79781Y410931D01*
X80841Y411992D01*
X81415Y413378D01*
Y414877D01*
X80841Y416263D01*
X79781Y417323D01*
X78395Y417897D01*
D02*
G37*
G36*
X392058Y415330D02*
X390559D01*
X389173Y414756D01*
X388113Y413695D01*
X387539Y412310D01*
Y410810D01*
X388113Y409425D01*
X389173Y408364D01*
X390559Y407790D01*
X392058D01*
X393444Y408364D01*
X394505Y409425D01*
X395079Y410810D01*
Y412310D01*
X394505Y413695D01*
X393444Y414756D01*
X392058Y415330D01*
D02*
G37*
G36*
X382058D02*
X380559D01*
X379173Y414756D01*
X378113Y413695D01*
X377539Y412310D01*
Y410810D01*
X378113Y409425D01*
X379173Y408364D01*
X380559Y407790D01*
X382058D01*
X383444Y408364D01*
X384505Y409425D01*
X385079Y410810D01*
Y412310D01*
X384505Y413695D01*
X383444Y414756D01*
X382058Y415330D01*
D02*
G37*
G36*
X370240D02*
X368740D01*
X367355Y414756D01*
X366294Y413695D01*
X365720Y412310D01*
Y410810D01*
X366294Y409425D01*
X367355Y408364D01*
X368740Y407790D01*
X370240D01*
X371626Y408364D01*
X372686Y409425D01*
X373260Y410810D01*
Y412310D01*
X372686Y413695D01*
X371626Y414756D01*
X370240Y415330D01*
D02*
G37*
G36*
X360240D02*
X358740D01*
X357355Y414756D01*
X356294Y413695D01*
X355720Y412310D01*
Y410810D01*
X356294Y409425D01*
X357355Y408364D01*
X358740Y407790D01*
X360240D01*
X361626Y408364D01*
X362686Y409425D01*
X363260Y410810D01*
Y412310D01*
X362686Y413695D01*
X361626Y414756D01*
X360240Y415330D01*
D02*
G37*
G36*
X344920Y414182D02*
X343420D01*
X342034Y413608D01*
X340974Y412548D01*
X340400Y411162D01*
Y409662D01*
X340974Y408277D01*
X342034Y407216D01*
X343420Y406642D01*
X344920D01*
X346306Y407216D01*
X347366Y408277D01*
X347940Y409662D01*
Y411162D01*
X347366Y412548D01*
X346306Y413608D01*
X344920Y414182D01*
D02*
G37*
G36*
X235849Y411993D02*
X234349D01*
X232964Y411419D01*
X231903Y410358D01*
X231329Y408973D01*
Y407473D01*
X231903Y406087D01*
X232964Y405027D01*
X234349Y404453D01*
X235849D01*
X237235Y405027D01*
X238295Y406087D01*
X238869Y407473D01*
Y408973D01*
X238295Y410358D01*
X237235Y411419D01*
X235849Y411993D01*
D02*
G37*
G36*
X66091Y411869D02*
X61491D01*
X59044Y411382D01*
X56970Y409997D01*
X55584Y407923D01*
X55098Y405476D01*
X55584Y403030D01*
X56970Y400956D01*
X59044Y399570D01*
X61491Y399084D01*
X66091D01*
X68537Y399570D01*
X70611Y400956D01*
X71997Y403030D01*
X72484Y405476D01*
X71997Y407923D01*
X70611Y409997D01*
X68537Y411382D01*
X66091Y411869D01*
D02*
G37*
G36*
X19541Y411030D02*
X18041D01*
X16655Y410456D01*
X15595Y409395D01*
X15021Y408010D01*
Y406510D01*
X15595Y405125D01*
X16564Y404155D01*
X15675Y403265D01*
X15101Y401880D01*
Y400380D01*
X15675Y398994D01*
X16735Y397934D01*
X18121Y397360D01*
X19621D01*
X21006Y397934D01*
X22067Y398994D01*
X22641Y400380D01*
Y401880D01*
X22067Y403265D01*
X21097Y404235D01*
X21987Y405125D01*
X22561Y406510D01*
Y408010D01*
X21987Y409395D01*
X20926Y410456D01*
X19541Y411030D01*
D02*
G37*
G36*
X459382Y401609D02*
X457882D01*
X456496Y401035D01*
X455436Y399974D01*
X454862Y398589D01*
Y397089D01*
X455436Y395703D01*
X456496Y394643D01*
X457882Y394069D01*
X459382D01*
X460767Y394643D01*
X461828Y395703D01*
X462402Y397089D01*
Y398589D01*
X461828Y399974D01*
X460767Y401035D01*
X459382Y401609D01*
D02*
G37*
G36*
X95170Y400689D02*
X93670D01*
X92285Y400115D01*
X91224Y399054D01*
X90650Y397669D01*
Y396169D01*
X91224Y394783D01*
X92285Y393723D01*
X93670Y393149D01*
X95170D01*
X96556Y393723D01*
X97616Y394783D01*
X98190Y396169D01*
Y397669D01*
X97616Y399054D01*
X96556Y400115D01*
X95170Y400689D01*
D02*
G37*
G36*
X423773Y398443D02*
X422273D01*
X420888Y397869D01*
X419827Y396808D01*
X419253Y395423D01*
Y393923D01*
X419827Y392537D01*
X420888Y391477D01*
X422273Y390903D01*
X423773D01*
X425159Y391477D01*
X426219Y392537D01*
X426793Y393923D01*
Y395423D01*
X426219Y396808D01*
X425159Y397869D01*
X423773Y398443D01*
D02*
G37*
G36*
X473946Y396234D02*
X472446D01*
X471060Y395660D01*
X470000Y394599D01*
X469426Y393214D01*
Y391714D01*
X470000Y390328D01*
X471060Y389268D01*
X472446Y388694D01*
X473946D01*
X475331Y389268D01*
X476392Y390328D01*
X476966Y391714D01*
Y393214D01*
X476392Y394599D01*
X475331Y395660D01*
X473946Y396234D01*
D02*
G37*
G36*
X236605Y394525D02*
X235105D01*
X233719Y393951D01*
X232659Y392891D01*
X232085Y391505D01*
Y390005D01*
X232659Y388619D01*
X233719Y387559D01*
X235105Y386985D01*
X236605D01*
X237990Y387559D01*
X239051Y388619D01*
X239625Y390005D01*
Y391505D01*
X239051Y392891D01*
X237990Y393951D01*
X236605Y394525D01*
D02*
G37*
G36*
X49232Y392580D02*
X47732D01*
X46347Y392006D01*
X45286Y390945D01*
X44712Y389560D01*
Y388060D01*
X45286Y386674D01*
X46347Y385614D01*
X47732Y385040D01*
X49232D01*
X50618Y385614D01*
X51678Y386674D01*
X52252Y388060D01*
Y389560D01*
X51678Y390945D01*
X50618Y392006D01*
X49232Y392580D01*
D02*
G37*
G36*
X292312Y391289D02*
X290613D01*
X289044Y390639D01*
X287843Y389437D01*
X287193Y387868D01*
Y386169D01*
X287843Y384600D01*
X289044Y383399D01*
X290613Y382749D01*
X292312D01*
X293881Y383399D01*
X295082Y384600D01*
X295733Y386169D01*
Y387868D01*
X295082Y389437D01*
X293881Y390639D01*
X292312Y391289D01*
D02*
G37*
G36*
X164153Y388350D02*
X162653D01*
X161267Y387776D01*
X160207Y386715D01*
X159633Y385330D01*
Y383830D01*
X160207Y382444D01*
X161267Y381384D01*
X162653Y380810D01*
X164153D01*
X165538Y381384D01*
X166599Y382444D01*
X167173Y383830D01*
Y385330D01*
X166599Y386715D01*
X165538Y387776D01*
X164153Y388350D01*
D02*
G37*
G36*
X459080Y387651D02*
X457580D01*
X456195Y387077D01*
X455134Y386017D01*
X454560Y384631D01*
Y383131D01*
X455134Y381746D01*
X456195Y380685D01*
X457580Y380111D01*
X459080D01*
X460466Y380685D01*
X461526Y381746D01*
X462100Y383131D01*
Y384631D01*
X461526Y386017D01*
X460466Y387077D01*
X459080Y387651D01*
D02*
G37*
G36*
X274660Y379226D02*
X273160D01*
X271775Y378652D01*
X270714Y377592D01*
X270140Y376206D01*
Y374706D01*
X270714Y373321D01*
X271775Y372260D01*
X273160Y371686D01*
X274660D01*
X276046Y372260D01*
X277106Y373321D01*
X277680Y374706D01*
Y376206D01*
X277106Y377592D01*
X276046Y378652D01*
X274660Y379226D01*
D02*
G37*
G36*
X190784Y379453D02*
X189285D01*
X187899Y378879D01*
X186838Y377819D01*
X186264Y376433D01*
Y374933D01*
X186838Y373548D01*
X187899Y372487D01*
X189285Y371913D01*
X190784D01*
X192170Y372487D01*
X192698Y373016D01*
X193775Y372296D01*
X193458Y371531D01*
Y370031D01*
X194032Y368645D01*
X195093Y367585D01*
X196478Y367011D01*
X197978D01*
X199364Y367585D01*
X200424Y368645D01*
X200998Y370031D01*
Y370845D01*
X202212Y371666D01*
X202957Y371358D01*
X204456D01*
X205842Y371932D01*
X206902Y372992D01*
X207476Y374378D01*
Y375878D01*
X206902Y377263D01*
X205842Y378324D01*
X204456Y378898D01*
X202957D01*
X201571Y378324D01*
X200510Y377263D01*
X199936Y375878D01*
Y375063D01*
X198723Y374242D01*
X197978Y374551D01*
X196478D01*
X195093Y373977D01*
X194564Y373448D01*
X193487Y374168D01*
X193804Y374933D01*
Y376433D01*
X193231Y377819D01*
X192170Y378879D01*
X190784Y379453D01*
D02*
G37*
G36*
X75613Y378493D02*
X74113D01*
X72727Y377919D01*
X71667Y376859D01*
X71093Y375473D01*
Y373973D01*
X71667Y372588D01*
X72727Y371527D01*
X74113Y370953D01*
X75613D01*
X76998Y371527D01*
X78059Y372588D01*
X78633Y373973D01*
Y375473D01*
X78059Y376859D01*
X76998Y377919D01*
X75613Y378493D01*
D02*
G37*
G36*
X130435Y377086D02*
X128936D01*
X127550Y376512D01*
X126489Y375452D01*
X125916Y374066D01*
Y372566D01*
X126489Y371180D01*
X127550Y370120D01*
X128936Y369546D01*
X130435D01*
X131821Y370120D01*
X132882Y371180D01*
X133456Y372566D01*
Y374066D01*
X132882Y375452D01*
X131821Y376512D01*
X130435Y377086D01*
D02*
G37*
G36*
X215469Y375795D02*
X213969D01*
X212583Y375221D01*
X211523Y374161D01*
X210949Y372775D01*
Y371275D01*
X211523Y369890D01*
X212583Y368829D01*
X213969Y368255D01*
X215469D01*
X216854Y368829D01*
X217915Y369890D01*
X218489Y371275D01*
Y372775D01*
X217915Y374161D01*
X216854Y375221D01*
X215469Y375795D01*
D02*
G37*
G36*
X174414D02*
X172915D01*
X171529Y375221D01*
X170468Y374161D01*
X169895Y372775D01*
Y371275D01*
X170468Y369890D01*
X171529Y368829D01*
X172915Y368255D01*
X174414D01*
X175800Y368829D01*
X176861Y369890D01*
X177435Y371275D01*
Y372775D01*
X176861Y374161D01*
X175800Y375221D01*
X174414Y375795D01*
D02*
G37*
G36*
X292213Y375258D02*
X290713D01*
X289327Y374684D01*
X288267Y373624D01*
X287693Y372238D01*
Y370738D01*
X288267Y369352D01*
X289327Y368292D01*
X290713Y367718D01*
X292213D01*
X293598Y368292D01*
X294659Y369352D01*
X295233Y370738D01*
Y372238D01*
X294659Y373624D01*
X293598Y374684D01*
X292213Y375258D01*
D02*
G37*
G36*
X542781Y372860D02*
X541281D01*
X539896Y372286D01*
X538835Y371226D01*
X538261Y369840D01*
Y368340D01*
X538835Y366955D01*
X539896Y365894D01*
X541281Y365320D01*
X542781D01*
X544166Y365894D01*
X545227Y366955D01*
X545801Y368340D01*
Y369840D01*
X545227Y371226D01*
X544166Y372286D01*
X542781Y372860D01*
D02*
G37*
G36*
X104172Y371833D02*
X102672D01*
X101286Y371259D01*
X100226Y370199D01*
X99652Y368813D01*
Y367313D01*
X100226Y365928D01*
X101286Y364867D01*
X102672Y364293D01*
X104172D01*
X105557Y364867D01*
X106618Y365928D01*
X107192Y367313D01*
Y368813D01*
X106618Y370199D01*
X105557Y371259D01*
X104172Y371833D01*
D02*
G37*
G36*
X205616Y368864D02*
X203917D01*
X202348Y368214D01*
X201147Y367013D01*
X200497Y365443D01*
Y363745D01*
X201147Y362175D01*
X202348Y360974D01*
X203917Y360324D01*
X205616D01*
X207185Y360974D01*
X208387Y362175D01*
X209037Y363745D01*
Y365443D01*
X208387Y367013D01*
X207185Y368214D01*
X205616Y368864D01*
D02*
G37*
G36*
X428621Y375258D02*
X427122D01*
X425736Y374684D01*
X424675Y373623D01*
X424101Y372238D01*
Y370738D01*
X424675Y369352D01*
X425736Y368292D01*
X427122Y367718D01*
X428621D01*
X429081Y367908D01*
X429801Y366832D01*
X429080Y366111D01*
X428507Y364726D01*
Y363226D01*
X429080Y361840D01*
X430141Y360780D01*
X431527Y360206D01*
X433026D01*
X434412Y360780D01*
X435473Y361840D01*
X436046Y363226D01*
Y364726D01*
X435473Y366111D01*
X434412Y367172D01*
X433026Y367746D01*
X431527D01*
X431067Y367555D01*
X430347Y368632D01*
X431068Y369352D01*
X431642Y370738D01*
Y372238D01*
X431068Y373623D01*
X430007Y374684D01*
X428621Y375258D01*
D02*
G37*
G36*
X265486Y366804D02*
X263986D01*
X262600Y366230D01*
X261540Y365169D01*
X260966Y363784D01*
Y362284D01*
X261540Y360898D01*
X262600Y359838D01*
X263986Y359264D01*
X265486D01*
X266872Y359838D01*
X267932Y360898D01*
X268506Y362284D01*
Y363784D01*
X267932Y365169D01*
X266872Y366230D01*
X265486Y366804D01*
D02*
G37*
G36*
X555740Y364450D02*
X554240D01*
X552854Y363876D01*
X551794Y362816D01*
X551220Y361430D01*
Y359930D01*
X551794Y358545D01*
X552854Y357484D01*
X554240Y356910D01*
X555740D01*
X557126Y357484D01*
X558186Y358545D01*
X558760Y359930D01*
Y361430D01*
X558186Y362816D01*
X557126Y363876D01*
X555740Y364450D01*
D02*
G37*
G36*
X216129Y363324D02*
X214629D01*
X213243Y362750D01*
X212183Y361690D01*
X211609Y360304D01*
Y358804D01*
X212183Y357419D01*
X213243Y356358D01*
X214629Y355784D01*
X216129D01*
X217514Y356358D01*
X218575Y357419D01*
X219149Y358804D01*
Y360304D01*
X218575Y361690D01*
X217514Y362750D01*
X216129Y363324D01*
D02*
G37*
G36*
X587490Y363258D02*
X585990D01*
X584604Y362684D01*
X583544Y361623D01*
X582970Y360238D01*
Y358738D01*
X583544Y357352D01*
X584604Y356292D01*
X585990Y355718D01*
X587490D01*
X588876Y356292D01*
X589936Y357352D01*
X590510Y358738D01*
Y360238D01*
X589936Y361623D01*
X588876Y362684D01*
X587490Y363258D01*
D02*
G37*
G36*
X241549Y358895D02*
X240049D01*
X238664Y358321D01*
X237603Y357261D01*
X237029Y355875D01*
Y354375D01*
X237603Y352990D01*
X238664Y351929D01*
X240049Y351355D01*
X241549D01*
X242935Y351929D01*
X243995Y352990D01*
X244569Y354375D01*
Y355875D01*
X243995Y357261D01*
X242935Y358321D01*
X241549Y358895D01*
D02*
G37*
G36*
X17541Y364400D02*
X16041D01*
X14655Y363826D01*
X13595Y362766D01*
X13021Y361380D01*
Y359880D01*
X13595Y358494D01*
X14357Y357733D01*
X13595Y356970D01*
X13021Y355585D01*
Y354085D01*
X13595Y352700D01*
X14655Y351639D01*
X16041Y351065D01*
X17541D01*
X18926Y351639D01*
X19987Y352700D01*
X20561Y354085D01*
Y355585D01*
X19987Y356970D01*
X19225Y357733D01*
X19987Y358494D01*
X20561Y359880D01*
Y361380D01*
X19987Y362766D01*
X18926Y363826D01*
X17541Y364400D01*
D02*
G37*
G36*
X66091Y363369D02*
X61491D01*
X59044Y362882D01*
X56970Y361497D01*
X55584Y359423D01*
X55098Y356976D01*
X55584Y354530D01*
X56970Y352456D01*
X59044Y351070D01*
X61491Y350583D01*
X66091D01*
X68537Y351070D01*
X70611Y352456D01*
X71997Y354530D01*
X72484Y356976D01*
X71997Y359423D01*
X70611Y361497D01*
X68537Y362882D01*
X66091Y363369D01*
D02*
G37*
G36*
X280622Y356680D02*
X279122D01*
X277736Y356106D01*
X276676Y355046D01*
X276102Y353660D01*
Y352160D01*
X276676Y350774D01*
X277736Y349714D01*
X279122Y349140D01*
X280622D01*
X282007Y349714D01*
X283068Y350774D01*
X283642Y352160D01*
Y353660D01*
X283068Y355046D01*
X282007Y356106D01*
X280622Y356680D01*
D02*
G37*
G36*
X147319Y355796D02*
X145819D01*
X144434Y355222D01*
X143373Y354162D01*
X142799Y352776D01*
Y351276D01*
X143373Y349891D01*
X144434Y348830D01*
X145819Y348256D01*
X147319D01*
X148705Y348830D01*
X149765Y349891D01*
X150339Y351276D01*
Y352776D01*
X149765Y354162D01*
X148705Y355222D01*
X147319Y355796D01*
D02*
G37*
G36*
X515731Y345889D02*
X514231D01*
X512845Y345315D01*
X511785Y344255D01*
X511211Y342869D01*
Y341369D01*
X511785Y339984D01*
X512845Y338923D01*
X514231Y338349D01*
X515731D01*
X517116Y338923D01*
X518177Y339984D01*
X518751Y341369D01*
Y342869D01*
X518177Y344255D01*
X517116Y345315D01*
X515731Y345889D01*
D02*
G37*
G36*
X459382Y345872D02*
X457882D01*
X456496Y345298D01*
X455436Y344238D01*
X454862Y342852D01*
Y341352D01*
X455436Y339967D01*
X456496Y338906D01*
X457882Y338332D01*
X459382D01*
X460767Y338906D01*
X461828Y339967D01*
X462402Y341352D01*
Y342852D01*
X461828Y344238D01*
X460767Y345298D01*
X459382Y345872D01*
D02*
G37*
G36*
X36991Y346619D02*
X28991D01*
X26544Y346133D01*
X24470Y344747D01*
X23084Y342673D01*
X22598Y340226D01*
X23084Y337780D01*
X24470Y335706D01*
X26544Y334320D01*
X28991Y333834D01*
X36991D01*
X39437Y334320D01*
X41511Y335706D01*
X42897Y337780D01*
X43383Y340226D01*
X42897Y342673D01*
X41511Y344747D01*
X39437Y346133D01*
X36991Y346619D01*
D02*
G37*
G36*
X222265Y340985D02*
X220765D01*
X219380Y340411D01*
X218319Y339351D01*
X217745Y337965D01*
Y336465D01*
X218319Y335079D01*
X219380Y334019D01*
X220765Y333445D01*
X222265D01*
X223651Y334019D01*
X224711Y335079D01*
X225285Y336465D01*
Y337965D01*
X224711Y339351D01*
X223651Y340411D01*
X222265Y340985D01*
D02*
G37*
G36*
X550660Y334893D02*
X549160D01*
X547775Y334319D01*
X546714Y333258D01*
X546140Y331873D01*
Y330373D01*
X546714Y328987D01*
X547775Y327927D01*
X549160Y327353D01*
X550660D01*
X552046Y327927D01*
X553106Y328987D01*
X553680Y330373D01*
Y331873D01*
X553106Y333258D01*
X552046Y334319D01*
X550660Y334893D01*
D02*
G37*
G36*
X390001Y324949D02*
X388501D01*
X387116Y324375D01*
X386055Y323315D01*
X385481Y321929D01*
Y320429D01*
X386055Y319044D01*
X387116Y317983D01*
X388501Y317409D01*
X390001D01*
X391387Y317983D01*
X392447Y319044D01*
X393021Y320429D01*
Y321929D01*
X392447Y323315D01*
X391387Y324375D01*
X390001Y324949D01*
D02*
G37*
G36*
X380001D02*
X378501D01*
X377116Y324375D01*
X376055Y323315D01*
X375481Y321929D01*
Y320429D01*
X376055Y319044D01*
X377116Y317983D01*
X378501Y317409D01*
X380001D01*
X381387Y317983D01*
X382447Y319044D01*
X383021Y320429D01*
Y321929D01*
X382447Y323315D01*
X381387Y324375D01*
X380001Y324949D01*
D02*
G37*
G36*
X360766D02*
X359266D01*
X357880Y324375D01*
X356820Y323315D01*
X356246Y321929D01*
Y320429D01*
X356820Y319044D01*
X357880Y317983D01*
X359266Y317409D01*
X360766D01*
X362151Y317983D01*
X363212Y319044D01*
X363786Y320429D01*
Y321929D01*
X363212Y323315D01*
X362151Y324375D01*
X360766Y324949D01*
D02*
G37*
G36*
X350766D02*
X349266D01*
X347880Y324375D01*
X346820Y323315D01*
X346246Y321929D01*
Y320429D01*
X346820Y319044D01*
X347880Y317983D01*
X349266Y317409D01*
X350766D01*
X352151Y317983D01*
X353212Y319044D01*
X353786Y320429D01*
Y321929D01*
X353212Y323315D01*
X352151Y324375D01*
X350766Y324949D01*
D02*
G37*
G36*
X569305Y320816D02*
X567805D01*
X566419Y320242D01*
X565359Y319182D01*
X564785Y317796D01*
Y316296D01*
X565359Y314911D01*
X566419Y313850D01*
X567805Y313276D01*
X569305D01*
X570690Y313850D01*
X571751Y314911D01*
X572325Y316296D01*
Y317796D01*
X571751Y319182D01*
X570690Y320242D01*
X569305Y320816D01*
D02*
G37*
G36*
X116834Y320449D02*
X115136D01*
X113566Y319799D01*
X112365Y318598D01*
X111715Y317029D01*
Y315330D01*
X112365Y313761D01*
X113566Y312559D01*
X115136Y311909D01*
X116834D01*
X118404Y312559D01*
X119605Y313761D01*
X120255Y315330D01*
Y317029D01*
X119605Y318598D01*
X118404Y319799D01*
X116834Y320449D01*
D02*
G37*
G36*
X390001Y314949D02*
X388501D01*
X387116Y314375D01*
X386055Y313315D01*
X385481Y311929D01*
Y310429D01*
X386055Y309044D01*
X387116Y307983D01*
X388501Y307409D01*
X390001D01*
X391387Y307983D01*
X392447Y309044D01*
X393021Y310429D01*
Y311929D01*
X392447Y313315D01*
X391387Y314375D01*
X390001Y314949D01*
D02*
G37*
G36*
X380001D02*
X378501D01*
X377116Y314375D01*
X376055Y313315D01*
X375481Y311929D01*
Y310429D01*
X376055Y309044D01*
X377116Y307983D01*
X378501Y307409D01*
X380001D01*
X381387Y307983D01*
X382447Y309044D01*
X383021Y310429D01*
Y311929D01*
X382447Y313315D01*
X381387Y314375D01*
X380001Y314949D01*
D02*
G37*
G36*
X360766D02*
X359266D01*
X357880Y314375D01*
X356820Y313315D01*
X356246Y311929D01*
Y310429D01*
X356820Y309044D01*
X357880Y307983D01*
X359266Y307409D01*
X360766D01*
X362151Y307983D01*
X363212Y309044D01*
X363786Y310429D01*
Y311929D01*
X363212Y313315D01*
X362151Y314375D01*
X360766Y314949D01*
D02*
G37*
G36*
X350766D02*
X349266D01*
X347880Y314375D01*
X346820Y313315D01*
X346246Y311929D01*
Y310429D01*
X346820Y309044D01*
X347880Y307983D01*
X349266Y307409D01*
X350766D01*
X352151Y307983D01*
X353212Y309044D01*
X353786Y310429D01*
Y311929D01*
X353212Y313315D01*
X352151Y314375D01*
X350766Y314949D01*
D02*
G37*
G36*
X459319Y315758D02*
X457621D01*
X456051Y315108D01*
X454850Y313907D01*
X454200Y312337D01*
Y310639D01*
X454850Y309069D01*
X456051Y307868D01*
X457621Y307218D01*
X459319D01*
X460889Y307868D01*
X462090Y309069D01*
X462740Y310639D01*
Y312337D01*
X462090Y313907D01*
X460889Y315108D01*
X459319Y315758D01*
D02*
G37*
G36*
X290865D02*
X289167D01*
X287597Y315108D01*
X286396Y313907D01*
X285746Y312337D01*
Y310639D01*
X286396Y309069D01*
X287597Y307868D01*
X289167Y307218D01*
X290865D01*
X292435Y307868D01*
X293636Y309069D01*
X294286Y310639D01*
Y312337D01*
X293636Y313907D01*
X292435Y315108D01*
X290865Y315758D01*
D02*
G37*
G36*
X147263Y314497D02*
X145763D01*
X144378Y313923D01*
X143317Y312863D01*
X142743Y311477D01*
Y309977D01*
X143317Y308592D01*
X144378Y307531D01*
X145763Y306957D01*
X147263D01*
X148649Y307531D01*
X149709Y308592D01*
X150283Y309977D01*
Y311477D01*
X149709Y312863D01*
X148649Y313923D01*
X147263Y314497D01*
D02*
G37*
G36*
X72454Y306845D02*
X70954D01*
X69568Y306271D01*
X68795Y305498D01*
X68175Y305269D01*
X67225Y305434D01*
X66542Y306117D01*
X65156Y306691D01*
X63657D01*
X62271Y306117D01*
X61210Y305057D01*
X60637Y303671D01*
Y302171D01*
X61210Y300786D01*
X61427Y300569D01*
X61655Y299289D01*
X60595Y298229D01*
X60021Y296843D01*
Y295343D01*
X60595Y293958D01*
X61655Y292897D01*
X63041Y292323D01*
X64541D01*
X65926Y292897D01*
X66312Y293283D01*
X67929Y293462D01*
X69315Y292888D01*
X70815D01*
X72200Y293462D01*
X72448Y293711D01*
X73278Y294506D01*
X74108Y293711D01*
X74356Y293462D01*
X75742Y292888D01*
X77242D01*
X78627Y293462D01*
X79688Y294523D01*
X80262Y295909D01*
Y297408D01*
X79688Y298794D01*
X80596Y299666D01*
X80739Y299725D01*
X81800Y300786D01*
X82374Y302171D01*
Y303671D01*
X81800Y305057D01*
X80739Y306117D01*
X79354Y306691D01*
X77854D01*
X76468Y306117D01*
X76060Y305709D01*
X75062Y305281D01*
X74401Y305709D01*
X73839Y306271D01*
X72454Y306845D01*
D02*
G37*
G36*
X482177Y310895D02*
X480677D01*
X479292Y310321D01*
X478231Y309261D01*
X477657Y307875D01*
Y306375D01*
X478231Y304989D01*
X479292Y303929D01*
X480677Y303355D01*
X482177D01*
X483563Y303929D01*
X484623Y304989D01*
X485197Y306375D01*
Y307875D01*
X484623Y309261D01*
X483563Y310321D01*
X482177Y310895D01*
D02*
G37*
G36*
X466625Y305604D02*
X464926D01*
X463357Y304953D01*
X462155Y303752D01*
X461505Y302183D01*
Y300484D01*
X462155Y298915D01*
X463357Y297714D01*
X464926Y297064D01*
X466625D01*
X468194Y297714D01*
X469395Y298915D01*
X470045Y300484D01*
Y302183D01*
X469395Y303752D01*
X468194Y304953D01*
X466625Y305604D01*
D02*
G37*
G36*
X295731Y303258D02*
X294231D01*
X292845Y302684D01*
X291785Y301623D01*
X291211Y300238D01*
Y298738D01*
X291785Y297353D01*
X292845Y296292D01*
X294231Y295718D01*
X295731D01*
X297116Y296292D01*
X298177Y297353D01*
X298751Y298738D01*
Y300238D01*
X298177Y301623D01*
X297116Y302684D01*
X295731Y303258D01*
D02*
G37*
G36*
X390001Y296400D02*
X388501D01*
X387116Y295826D01*
X386055Y294765D01*
X385481Y293379D01*
Y291880D01*
X386055Y290494D01*
X387116Y289434D01*
X388501Y288860D01*
X390001D01*
X391387Y289434D01*
X392447Y290494D01*
X393021Y291880D01*
Y293379D01*
X392447Y294765D01*
X391387Y295826D01*
X390001Y296400D01*
D02*
G37*
G36*
X380001D02*
X378501D01*
X377116Y295826D01*
X376055Y294765D01*
X375481Y293379D01*
Y291880D01*
X376055Y290494D01*
X377116Y289434D01*
X378501Y288860D01*
X380001D01*
X381387Y289434D01*
X382447Y290494D01*
X383021Y291880D01*
Y293379D01*
X382447Y294765D01*
X381387Y295826D01*
X380001Y296400D01*
D02*
G37*
G36*
X360766D02*
X359266D01*
X357880Y295826D01*
X356820Y294765D01*
X356246Y293379D01*
Y291880D01*
X356820Y290494D01*
X357880Y289434D01*
X359266Y288860D01*
X360766D01*
X362151Y289434D01*
X363212Y290494D01*
X363786Y291880D01*
Y293379D01*
X363212Y294765D01*
X362151Y295826D01*
X360766Y296400D01*
D02*
G37*
G36*
X350766D02*
X349266D01*
X347880Y295826D01*
X346820Y294765D01*
X346246Y293379D01*
Y291880D01*
X346820Y290494D01*
X347880Y289434D01*
X349266Y288860D01*
X350766D01*
X352151Y289434D01*
X353212Y290494D01*
X353786Y291880D01*
Y293379D01*
X353212Y294765D01*
X352151Y295826D01*
X350766Y296400D01*
D02*
G37*
G36*
X290051Y291258D02*
X288552D01*
X287166Y290684D01*
X286105Y289623D01*
X285532Y288238D01*
Y286738D01*
X286105Y285352D01*
X287166Y284292D01*
X288552Y283718D01*
X290051D01*
X291437Y284292D01*
X292498Y285352D01*
X293071Y286738D01*
Y288238D01*
X292498Y289623D01*
X291437Y290684D01*
X290051Y291258D01*
D02*
G37*
G36*
X499170Y296400D02*
X497670D01*
X496284Y295826D01*
X495224Y294765D01*
X494650Y293379D01*
Y291880D01*
X495224Y290494D01*
X496055Y289663D01*
X496029Y288642D01*
X495893Y288221D01*
X495707Y288144D01*
X494646Y287083D01*
X494072Y285698D01*
Y284198D01*
X494646Y282812D01*
X495707Y281752D01*
X497093Y281178D01*
X498592D01*
X499978Y281752D01*
X501039Y282812D01*
X501612Y284198D01*
Y285698D01*
X501039Y287083D01*
X500207Y287915D01*
X500234Y288936D01*
X500369Y289356D01*
X500555Y289434D01*
X501616Y290494D01*
X502190Y291880D01*
Y293379D01*
X501616Y294765D01*
X500555Y295826D01*
X499170Y296400D01*
D02*
G37*
G36*
X134035Y288487D02*
X132535D01*
X131149Y287913D01*
X130089Y286853D01*
X129515Y285467D01*
Y283967D01*
X130089Y282582D01*
X131149Y281521D01*
X132535Y280947D01*
X134035D01*
X135421Y281521D01*
X136481Y282582D01*
X137055Y283967D01*
Y285467D01*
X136481Y286853D01*
X135421Y287913D01*
X134035Y288487D01*
D02*
G37*
G36*
X390001Y286400D02*
X388501D01*
X387116Y285826D01*
X386055Y284765D01*
X385481Y283379D01*
Y281880D01*
X386055Y280494D01*
X387116Y279434D01*
X388501Y278860D01*
X390001D01*
X391387Y279434D01*
X392447Y280494D01*
X393021Y281880D01*
Y283379D01*
X392447Y284765D01*
X391387Y285826D01*
X390001Y286400D01*
D02*
G37*
G36*
X380001D02*
X378501D01*
X377116Y285826D01*
X376055Y284765D01*
X375481Y283379D01*
Y281880D01*
X376055Y280494D01*
X377116Y279434D01*
X378501Y278860D01*
X380001D01*
X381387Y279434D01*
X382447Y280494D01*
X383021Y281880D01*
Y283379D01*
X382447Y284765D01*
X381387Y285826D01*
X380001Y286400D01*
D02*
G37*
G36*
X360766D02*
X359266D01*
X357880Y285826D01*
X356820Y284765D01*
X356246Y283379D01*
Y281880D01*
X356820Y280494D01*
X357880Y279434D01*
X359266Y278860D01*
X360766D01*
X362151Y279434D01*
X363212Y280494D01*
X363786Y281880D01*
Y283379D01*
X363212Y284765D01*
X362151Y285826D01*
X360766Y286400D01*
D02*
G37*
G36*
X350766D02*
X349266D01*
X347880Y285826D01*
X346820Y284765D01*
X346246Y283379D01*
Y281880D01*
X346820Y280494D01*
X347880Y279434D01*
X349266Y278860D01*
X350766D01*
X352151Y279434D01*
X353212Y280494D01*
X353786Y281880D01*
Y283379D01*
X353212Y284765D01*
X352151Y285826D01*
X350766Y286400D01*
D02*
G37*
G36*
X87672Y294485D02*
X86172D01*
X84787Y293911D01*
X83726Y292850D01*
X83152Y291465D01*
Y289965D01*
X83726Y288579D01*
X83611Y288002D01*
X82824Y287676D01*
X81764Y286616D01*
X81190Y285230D01*
Y283730D01*
X81764Y282344D01*
X82824Y281284D01*
X84210Y280710D01*
X85710D01*
X86947Y281222D01*
X87283Y281086D01*
X87469Y280827D01*
X87922Y279794D01*
X87454Y278663D01*
Y277163D01*
X88028Y275777D01*
X89088Y274717D01*
X90474Y274143D01*
X91974D01*
X93360Y274717D01*
X94420Y275777D01*
X94994Y277163D01*
Y278663D01*
X94420Y280049D01*
X93557Y280911D01*
X93360Y281109D01*
X93438Y282451D01*
X93568Y282582D01*
X94142Y283967D01*
Y285467D01*
X93568Y286853D01*
X92508Y287913D01*
X91122Y288487D01*
X90606Y289757D01*
X90692Y289965D01*
Y291465D01*
X90118Y292850D01*
X89058Y293911D01*
X87672Y294485D01*
D02*
G37*
G36*
X567450Y277700D02*
X565950D01*
X564565Y277126D01*
X563504Y276066D01*
X562930Y274680D01*
Y273180D01*
X563504Y271794D01*
X564565Y270734D01*
X565950Y270160D01*
X567450D01*
X568835Y270734D01*
X569896Y271794D01*
X570470Y273180D01*
Y274680D01*
X569896Y276066D01*
X568835Y277126D01*
X567450Y277700D01*
D02*
G37*
G36*
X103628Y281976D02*
X102128D01*
X100743Y281402D01*
X99682Y280341D01*
X99108Y278956D01*
Y277456D01*
X99682Y276070D01*
X100743Y275010D01*
X102128Y274436D01*
Y273207D01*
X100743Y272633D01*
X99682Y271572D01*
X99108Y270187D01*
Y268687D01*
X99682Y267301D01*
X100743Y266241D01*
X102128Y265667D01*
X103628D01*
X105014Y266241D01*
X106074Y267301D01*
X106648Y268687D01*
Y270187D01*
X106074Y271572D01*
X105014Y272633D01*
X103628Y273207D01*
Y274436D01*
X105014Y275010D01*
X106074Y276070D01*
X106648Y277456D01*
Y278956D01*
X106074Y280341D01*
X105014Y281402D01*
X103628Y281976D01*
D02*
G37*
G36*
X495771Y267258D02*
X494272D01*
X492886Y266684D01*
X491825Y265623D01*
X491251Y264238D01*
Y262738D01*
X491825Y261352D01*
X492886Y260292D01*
X494272Y259718D01*
X495771D01*
X497157Y260292D01*
X498218Y261352D01*
X498791Y262738D01*
Y264238D01*
X498218Y265623D01*
X497157Y266684D01*
X495771Y267258D01*
D02*
G37*
G36*
X551111Y261200D02*
X549611D01*
X548225Y260626D01*
X547165Y259566D01*
X546591Y258180D01*
Y256680D01*
X547165Y255294D01*
X548225Y254234D01*
X549611Y253660D01*
X551111D01*
X552496Y254234D01*
X553557Y255294D01*
X554131Y256680D01*
Y258180D01*
X553557Y259566D01*
X552496Y260626D01*
X551111Y261200D01*
D02*
G37*
G36*
X291667Y255758D02*
X289968D01*
X288398Y255108D01*
X287197Y253907D01*
X286547Y252337D01*
Y250639D01*
X287197Y249069D01*
X288398Y247868D01*
X289968Y247218D01*
X291667D01*
X293236Y247868D01*
X294437Y249069D01*
X295087Y250639D01*
Y252337D01*
X294437Y253907D01*
X293236Y255108D01*
X291667Y255758D01*
D02*
G37*
G36*
X459220Y251420D02*
X457720D01*
X456334Y250846D01*
X455274Y249785D01*
X454700Y248400D01*
Y246900D01*
X455274Y245515D01*
X456334Y244454D01*
X457720Y243880D01*
X459220D01*
X460606Y244454D01*
X461666Y245515D01*
X462240Y246900D01*
Y248400D01*
X461666Y249785D01*
X460606Y250846D01*
X459220Y251420D01*
D02*
G37*
G36*
X103882Y252730D02*
X101875D01*
X99937Y252211D01*
X98200Y251208D01*
X96781Y249789D01*
X95778Y248051D01*
X95258Y246113D01*
Y244107D01*
X95778Y242169D01*
X96781Y240431D01*
X98200Y239013D01*
X99937Y238009D01*
X101875Y237490D01*
X103882D01*
X105820Y238009D01*
X107557Y239013D01*
X108976Y240431D01*
X109979Y242169D01*
X110498Y244107D01*
Y246113D01*
X109979Y248051D01*
X108976Y249789D01*
X107557Y251208D01*
X105820Y252211D01*
X103882Y252730D01*
D02*
G37*
G36*
X216825Y227216D02*
X215126D01*
X213557Y226565D01*
X212356Y225364D01*
X211705Y223795D01*
Y222096D01*
X212356Y220527D01*
X213557Y219326D01*
X215126Y218676D01*
X216825D01*
X218394Y219326D01*
X219595Y220527D01*
X220245Y222096D01*
Y223795D01*
X219595Y225364D01*
X218394Y226565D01*
X216825Y227216D01*
D02*
G37*
G36*
X353081Y225512D02*
X351581D01*
X350196Y224938D01*
X349135Y223878D01*
X348561Y222492D01*
Y220992D01*
X349135Y219606D01*
X350196Y218546D01*
X351581Y217972D01*
X353081D01*
X354467Y218546D01*
X355527Y219606D01*
X356101Y220992D01*
Y222492D01*
X355527Y223878D01*
X354467Y224938D01*
X353081Y225512D01*
D02*
G37*
G36*
X340581Y225097D02*
X339081D01*
X337696Y224523D01*
X336635Y223462D01*
X336061Y222077D01*
Y220577D01*
X336635Y219191D01*
X337696Y218131D01*
X339081Y217557D01*
X340581D01*
X341967Y218131D01*
X343027Y219191D01*
X343601Y220577D01*
Y222077D01*
X343027Y223462D01*
X341967Y224523D01*
X340581Y225097D01*
D02*
G37*
G36*
X498260Y223168D02*
X496760D01*
X495374Y222594D01*
X494314Y221533D01*
X493740Y220148D01*
Y218648D01*
X494314Y217262D01*
X495374Y216202D01*
X496760Y215628D01*
X498260D01*
X499645Y216202D01*
X500706Y217262D01*
X501280Y218648D01*
Y220148D01*
X500706Y221533D01*
X499645Y222594D01*
X498260Y223168D01*
D02*
G37*
G36*
X537829Y219162D02*
X536329D01*
X534944Y218588D01*
X533883Y217527D01*
X533309Y216142D01*
Y214642D01*
X533883Y213256D01*
X534944Y212196D01*
X536329Y211622D01*
X537829D01*
X539215Y212196D01*
X540275Y213256D01*
X540849Y214642D01*
Y216142D01*
X540275Y217527D01*
X539215Y218588D01*
X537829Y219162D01*
D02*
G37*
G36*
X366581Y217871D02*
X365081D01*
X363696Y217297D01*
X362635Y216236D01*
X362061Y214850D01*
Y213351D01*
X362635Y211965D01*
X363696Y210905D01*
X365081Y210331D01*
X366581D01*
X367967Y210905D01*
X369027Y211965D01*
X369601Y213351D01*
Y214850D01*
X369027Y216236D01*
X367967Y217297D01*
X366581Y217871D01*
D02*
G37*
G36*
X397608Y216586D02*
X396109D01*
X394723Y216012D01*
X393662Y214952D01*
X393089Y213566D01*
Y212066D01*
X393662Y210681D01*
X394723Y209620D01*
X396109Y209046D01*
X397608D01*
X398994Y209620D01*
X400055Y210681D01*
X400629Y212066D01*
Y213566D01*
X400055Y214952D01*
X398994Y216012D01*
X397608Y216586D01*
D02*
G37*
G36*
X471071Y216425D02*
X469571D01*
X468186Y215851D01*
X467125Y214790D01*
X466551Y213404D01*
Y211905D01*
X467125Y210519D01*
X468186Y209459D01*
X469571Y208885D01*
X471071D01*
X472457Y209459D01*
X473517Y210519D01*
X474091Y211905D01*
Y213404D01*
X473517Y214790D01*
X472457Y215851D01*
X471071Y216425D01*
D02*
G37*
G36*
X252856Y197013D02*
X251157D01*
X249588Y196363D01*
X248386Y195162D01*
X247736Y193592D01*
Y191894D01*
X248386Y190324D01*
X249588Y189123D01*
X251157Y188473D01*
X252856D01*
X254425Y189123D01*
X255626Y190324D01*
X256276Y191894D01*
Y193592D01*
X255626Y195162D01*
X254425Y196363D01*
X252856Y197013D01*
D02*
G37*
G36*
X75342Y189820D02*
X73842D01*
X72456Y189246D01*
X71396Y188186D01*
X71099Y187470D01*
X69725D01*
X69531Y187938D01*
X68470Y188999D01*
X67084Y189573D01*
X65585D01*
X64199Y188999D01*
X63138Y187938D01*
X62564Y186553D01*
Y185053D01*
X63138Y183667D01*
X64199Y182607D01*
X65585Y182033D01*
X67084D01*
X68470Y182607D01*
X69531Y183667D01*
X69827Y184383D01*
X71202D01*
X71396Y183915D01*
X72456Y182854D01*
X73842Y182280D01*
X75342D01*
X76727Y182854D01*
X77788Y183915D01*
X78362Y185300D01*
Y186800D01*
X77788Y188186D01*
X76727Y189246D01*
X75342Y189820D01*
D02*
G37*
G36*
X366306Y194629D02*
X364806D01*
X363420Y194055D01*
X362360Y192995D01*
X361786Y191609D01*
Y190109D01*
X362360Y188724D01*
X363420Y187663D01*
X364806Y187089D01*
X366306D01*
X367692Y187663D01*
X368752Y188724D01*
X369326Y190109D01*
Y191609D01*
X368752Y192995D01*
X367692Y194055D01*
X366306Y194629D01*
D02*
G37*
G36*
X202079Y193990D02*
X200579D01*
X199193Y193416D01*
X198133Y192355D01*
X197559Y190970D01*
Y189470D01*
X198133Y188085D01*
X199193Y187024D01*
X200579Y186450D01*
X202079D01*
X203464Y187024D01*
X204525Y188085D01*
X205099Y189470D01*
Y190970D01*
X204525Y192355D01*
X203464Y193416D01*
X202079Y193990D01*
D02*
G37*
G36*
X555170Y190040D02*
X553670D01*
X552284Y189466D01*
X551224Y188405D01*
X550650Y187020D01*
Y185520D01*
X551224Y184135D01*
X552284Y183074D01*
X553670Y182500D01*
X555170D01*
X556555Y183074D01*
X557616Y184135D01*
X558190Y185520D01*
Y187020D01*
X557616Y188405D01*
X556555Y189466D01*
X555170Y190040D01*
D02*
G37*
G36*
X87207Y189820D02*
X85707D01*
X84321Y189246D01*
X83261Y188186D01*
X82687Y186800D01*
Y185300D01*
X83261Y183915D01*
X84321Y182854D01*
X85707Y182280D01*
X87207D01*
X88592Y182854D01*
X89653Y183915D01*
X90227Y185300D01*
Y186800D01*
X89653Y188186D01*
X88592Y189246D01*
X87207Y189820D01*
D02*
G37*
G36*
X587477Y187047D02*
X585977D01*
X584591Y186473D01*
X583531Y185412D01*
X582957Y184027D01*
Y182527D01*
X583531Y181141D01*
X584591Y180081D01*
X585977Y179507D01*
X587477D01*
X588863Y180081D01*
X589923Y181141D01*
X590497Y182527D01*
Y184027D01*
X589923Y185412D01*
X588863Y186473D01*
X587477Y187047D01*
D02*
G37*
G36*
X45713Y187286D02*
X43418D01*
X41297Y186408D01*
X39674Y184785D01*
X38795Y182664D01*
Y180369D01*
X39674Y178248D01*
X41297Y176625D01*
X43418Y175746D01*
X45713D01*
X47834Y176625D01*
X49457Y178248D01*
X50335Y180369D01*
Y182664D01*
X49457Y184785D01*
X47834Y186408D01*
X45713Y187286D01*
D02*
G37*
G36*
X221783Y175031D02*
X220283D01*
X218898Y174457D01*
X217837Y173397D01*
X217263Y172011D01*
Y170511D01*
X217837Y169125D01*
X218898Y168065D01*
X220283Y167491D01*
X221783D01*
X223169Y168065D01*
X224229Y169125D01*
X224803Y170511D01*
Y172011D01*
X224229Y173397D01*
X223169Y174457D01*
X221783Y175031D01*
D02*
G37*
G36*
X495524Y169632D02*
X494024D01*
X492638Y169058D01*
X491578Y167997D01*
X491004Y166612D01*
Y165112D01*
X491578Y163727D01*
X492638Y162666D01*
X494024Y162092D01*
X495524D01*
X496909Y162666D01*
X497970Y163727D01*
X498544Y165112D01*
Y166612D01*
X497970Y167997D01*
X496909Y169058D01*
X495524Y169632D01*
D02*
G37*
G36*
X139738Y168487D02*
X138238D01*
X136852Y167913D01*
X135792Y166852D01*
X135218Y165467D01*
Y163967D01*
X135792Y162581D01*
X136852Y161521D01*
X138238Y160947D01*
X139738D01*
X141123Y161521D01*
X142184Y162581D01*
X142758Y163967D01*
Y165467D01*
X142184Y166852D01*
X141123Y167913D01*
X139738Y168487D01*
D02*
G37*
G36*
X253432Y165347D02*
X251932D01*
X250546Y164773D01*
X249486Y163713D01*
X248912Y162327D01*
Y160827D01*
X249486Y159441D01*
X250546Y158381D01*
X251932Y157807D01*
X253432D01*
X254817Y158381D01*
X255878Y159441D01*
X256452Y160827D01*
Y162327D01*
X255878Y163713D01*
X254817Y164773D01*
X253432Y165347D01*
D02*
G37*
G36*
X292312Y170320D02*
X290613D01*
X289044Y169670D01*
X287843Y168469D01*
X287193Y166899D01*
Y165201D01*
X287843Y163631D01*
X289044Y162430D01*
X289067Y162420D01*
Y161046D01*
X289044Y161036D01*
X287843Y159835D01*
X287193Y158265D01*
Y156567D01*
X287843Y154997D01*
X289044Y153796D01*
X290613Y153146D01*
X292312D01*
X293881Y153796D01*
X295082Y154997D01*
X295733Y156567D01*
Y158265D01*
X295082Y159835D01*
X293881Y161036D01*
X293858Y161046D01*
Y162420D01*
X293881Y162430D01*
X295082Y163631D01*
X295733Y165201D01*
Y166899D01*
X295082Y168469D01*
X293881Y169670D01*
X292312Y170320D01*
D02*
G37*
G36*
X478231Y159680D02*
X476731D01*
X475345Y159106D01*
X474285Y158046D01*
X473711Y156660D01*
Y155160D01*
X474285Y153775D01*
X475345Y152714D01*
X476731Y152140D01*
X478231D01*
X479616Y152714D01*
X480677Y153775D01*
X481251Y155160D01*
Y156660D01*
X480677Y158046D01*
X479616Y159106D01*
X478231Y159680D01*
D02*
G37*
G36*
X537329Y158282D02*
X535829D01*
X534444Y157708D01*
X533383Y156648D01*
X532809Y155262D01*
Y153762D01*
X533383Y152376D01*
X534444Y151316D01*
X535829Y150742D01*
X537329D01*
X538714Y151316D01*
X539775Y152376D01*
X540349Y153762D01*
Y155262D01*
X539775Y156648D01*
X538714Y157708D01*
X537329Y158282D01*
D02*
G37*
G36*
X364581Y156254D02*
X363081D01*
X361696Y155680D01*
X360635Y154620D01*
X360061Y153234D01*
Y151734D01*
X360635Y150349D01*
X361696Y149288D01*
X363081Y148714D01*
X364581D01*
X365967Y149288D01*
X367027Y150349D01*
X367601Y151734D01*
Y153234D01*
X367027Y154620D01*
X365967Y155680D01*
X364581Y156254D01*
D02*
G37*
G36*
X543095Y148560D02*
X541595D01*
X540209Y147986D01*
X539149Y146925D01*
X538575Y145540D01*
Y144040D01*
X539149Y142654D01*
X540209Y141594D01*
X541595Y141020D01*
X543095D01*
X544481Y141594D01*
X545541Y142654D01*
X546115Y144040D01*
Y145540D01*
X545541Y146925D01*
X544481Y147986D01*
X543095Y148560D01*
D02*
G37*
G36*
X219978Y155070D02*
X218279D01*
X216710Y154420D01*
X215509Y153219D01*
X214859Y151649D01*
Y149951D01*
X215509Y148381D01*
X216710Y147180D01*
X218279Y146530D01*
X219978D01*
X220834Y146884D01*
X221806Y145912D01*
X221463Y145084D01*
Y143584D01*
X222036Y142198D01*
X223097Y141138D01*
X224483Y140564D01*
X225982D01*
X227368Y141138D01*
X228429Y142198D01*
X229003Y143584D01*
Y145084D01*
X228429Y146469D01*
X227368Y147530D01*
X225982Y148104D01*
X224483D01*
X223882Y147855D01*
X222938Y148839D01*
X223399Y149951D01*
Y151649D01*
X222749Y153219D01*
X221548Y154420D01*
X219978Y155070D01*
D02*
G37*
G36*
X202079Y140650D02*
X200579D01*
X199193Y140076D01*
X198133Y139016D01*
X197559Y137630D01*
Y136130D01*
X198133Y134745D01*
X199193Y133684D01*
X200579Y133110D01*
X202079D01*
X203464Y133684D01*
X204525Y134745D01*
X205099Y136130D01*
Y137630D01*
X204525Y139016D01*
X203464Y140076D01*
X202079Y140650D01*
D02*
G37*
G36*
X421637Y133598D02*
X420138D01*
X418752Y133025D01*
X417691Y131964D01*
X417118Y130578D01*
Y129079D01*
X417691Y127693D01*
X418752Y126632D01*
X420138Y126059D01*
X421637D01*
X423023Y126632D01*
X424084Y127693D01*
X424658Y129079D01*
Y130578D01*
X424084Y131964D01*
X423023Y133025D01*
X421637Y133598D01*
D02*
G37*
G36*
X375837Y131132D02*
X374337D01*
X372952Y130558D01*
X371891Y129497D01*
X371317Y128112D01*
Y126612D01*
X371891Y125226D01*
X372952Y124166D01*
X374337Y123592D01*
X375837D01*
X377223Y124166D01*
X378283Y125226D01*
X378857Y126612D01*
Y128112D01*
X378283Y129497D01*
X377223Y130558D01*
X375837Y131132D01*
D02*
G37*
G36*
X242094Y126347D02*
X240594D01*
X239208Y125773D01*
X238148Y124712D01*
X237574Y123327D01*
Y121827D01*
X238148Y120441D01*
X239208Y119381D01*
X240594Y118807D01*
X242094D01*
X243479Y119381D01*
X244540Y120441D01*
X245114Y121827D01*
Y123327D01*
X244540Y124712D01*
X243479Y125773D01*
X242094Y126347D01*
D02*
G37*
G36*
X183024Y116710D02*
X181525D01*
X180139Y116136D01*
X179078Y115075D01*
X178504Y113690D01*
Y112190D01*
X179078Y110804D01*
X180139Y109744D01*
X181525Y109170D01*
X183024D01*
X184410Y109744D01*
X185471Y110804D01*
X186044Y112190D01*
Y113690D01*
X185471Y115075D01*
X184410Y116136D01*
X183024Y116710D01*
D02*
G37*
G36*
X353081Y111275D02*
X351581D01*
X350196Y110701D01*
X349135Y109641D01*
X348561Y108255D01*
Y106755D01*
X349135Y105370D01*
X350196Y104309D01*
X351581Y103735D01*
X353081D01*
X354467Y104309D01*
X355527Y105370D01*
X356101Y106755D01*
Y108255D01*
X355527Y109641D01*
X354467Y110701D01*
X353081Y111275D01*
D02*
G37*
G36*
X543425Y112492D02*
X541925D01*
X540540Y111918D01*
X539479Y110857D01*
X538905Y109472D01*
Y107972D01*
X539479Y106586D01*
X540540Y105526D01*
X541226Y105241D01*
X541460Y103778D01*
X540754Y103072D01*
X540104Y101503D01*
Y99804D01*
X540754Y98235D01*
X541955Y97033D01*
X543524Y96383D01*
X545223D01*
X546792Y97033D01*
X547994Y98235D01*
X548320Y99021D01*
X549511Y98527D01*
X551210D01*
X552779Y99178D01*
X553981Y100379D01*
X554631Y101948D01*
Y103647D01*
X553981Y105216D01*
X552779Y106417D01*
X551210Y107067D01*
X549511D01*
X547942Y106417D01*
X546903Y105378D01*
X546480Y105399D01*
X546001Y106331D01*
X545955Y106790D01*
X546445Y107972D01*
Y109472D01*
X545871Y110857D01*
X544810Y111918D01*
X543425Y112492D01*
D02*
G37*
G36*
X44565Y111399D02*
X42314Y110952D01*
X40406Y109676D01*
X39130Y107768D01*
X38682Y105516D01*
Y97516D01*
X39130Y95265D01*
X40406Y93357D01*
X42314Y92081D01*
X44565Y91633D01*
X46817Y92081D01*
X48725Y93357D01*
X50001Y95265D01*
X50448Y97516D01*
Y105516D01*
X50001Y107768D01*
X48725Y109676D01*
X46817Y110952D01*
X44565Y111399D01*
D02*
G37*
G36*
X274229Y95696D02*
X272729D01*
X271343Y95122D01*
X270283Y94062D01*
X269709Y92676D01*
Y91176D01*
X270283Y89791D01*
X271343Y88730D01*
X272729Y88156D01*
X274229D01*
X275614Y88730D01*
X276675Y89791D01*
X277249Y91176D01*
Y92676D01*
X276675Y94062D01*
X275614Y95122D01*
X274229Y95696D01*
D02*
G37*
G36*
X187344Y89235D02*
X185844D01*
X184458Y88661D01*
X183398Y87601D01*
X182824Y86215D01*
Y84715D01*
X183398Y83330D01*
X184458Y82269D01*
X185844Y81695D01*
X187344D01*
X188729Y82269D01*
X189790Y83330D01*
X190364Y84715D01*
Y86215D01*
X189790Y87601D01*
X188729Y88661D01*
X187344Y89235D01*
D02*
G37*
G36*
X100275Y75260D02*
X98776D01*
X97390Y74686D01*
X96330Y73626D01*
X95756Y72240D01*
Y70740D01*
X96330Y69355D01*
X97390Y68294D01*
X98776Y67720D01*
X100275D01*
X101661Y68294D01*
X102722Y69355D01*
X103296Y70740D01*
Y72240D01*
X102722Y73626D01*
X101661Y74686D01*
X100275Y75260D01*
D02*
G37*
G36*
X86463D02*
X84964D01*
X83578Y74686D01*
X82517Y73626D01*
X81943Y72240D01*
Y70740D01*
X82517Y69355D01*
X83578Y68294D01*
X84964Y67720D01*
X86463D01*
X87849Y68294D01*
X88910Y69355D01*
X89483Y70740D01*
Y72240D01*
X88910Y73626D01*
X87849Y74686D01*
X86463Y75260D01*
D02*
G37*
G36*
X73721D02*
X72221D01*
X70836Y74686D01*
X69775Y73626D01*
X69201Y72240D01*
Y70740D01*
X69775Y69355D01*
X70836Y68294D01*
X72221Y67720D01*
X73721D01*
X75107Y68294D01*
X76167Y69355D01*
X76741Y70740D01*
Y72240D01*
X76167Y73626D01*
X75107Y74686D01*
X73721Y75260D01*
D02*
G37*
G36*
X301581Y68993D02*
X300081D01*
X298696Y68419D01*
X297635Y67358D01*
X297061Y65972D01*
Y64473D01*
X297635Y63087D01*
X298696Y62027D01*
X300081Y61453D01*
X301581D01*
X302967Y62027D01*
X304027Y63087D01*
X304601Y64473D01*
Y65972D01*
X304027Y67358D01*
X302967Y68419D01*
X301581Y68993D01*
D02*
G37*
G36*
X399269Y60621D02*
X397770D01*
X396384Y60047D01*
X395323Y58987D01*
X394749Y57601D01*
Y56101D01*
X395323Y54715D01*
X396384Y53655D01*
X397770Y53081D01*
X399269D01*
X400655Y53655D01*
X401716Y54715D01*
X402289Y56101D01*
Y57601D01*
X401716Y58987D01*
X400655Y60047D01*
X399269Y60621D01*
D02*
G37*
G36*
X222014Y57948D02*
X220515D01*
X219129Y57374D01*
X218068Y56313D01*
X217494Y54928D01*
Y53428D01*
X218068Y52042D01*
X219129Y50982D01*
X220515Y50408D01*
X222014D01*
X223400Y50982D01*
X224461Y52042D01*
X225034Y53428D01*
Y54928D01*
X224461Y56313D01*
X223400Y57374D01*
X222014Y57948D01*
D02*
G37*
G36*
X76492Y39103D02*
X73504Y38809D01*
X70631Y37938D01*
X67984Y36523D01*
X65663Y34618D01*
X63759Y32297D01*
X62344Y29650D01*
X61472Y26777D01*
X61178Y23790D01*
X61472Y20802D01*
X62344Y17929D01*
X63759Y15282D01*
X65663Y12961D01*
X67984Y11057D01*
X70631Y9642D01*
X73504Y8770D01*
X76492Y8476D01*
X79479Y8770D01*
X82352Y9642D01*
X84999Y11057D01*
X87320Y12961D01*
X89225Y15282D01*
X90640Y17929D01*
X91511Y20802D01*
X91805Y23790D01*
X91511Y26777D01*
X90640Y29650D01*
X89225Y32297D01*
X87320Y34618D01*
X84999Y36523D01*
X82352Y37938D01*
X79479Y38809D01*
X76492Y39103D01*
D02*
G37*
%LPD*%
D35*
X102878Y245110D02*
D03*
X231758Y570128D02*
D03*
D103*
X396859Y212816D02*
D03*
X261017Y406821D02*
D03*
X221264Y54178D02*
D03*
X369490Y433734D02*
D03*
X359490D02*
D03*
X369490Y443734D02*
D03*
X359490D02*
D03*
X391309Y433734D02*
D03*
X381309D02*
D03*
X391309Y443734D02*
D03*
X381309D02*
D03*
X369490Y411560D02*
D03*
X359490D02*
D03*
X369490Y421560D02*
D03*
X359490D02*
D03*
X391309Y411560D02*
D03*
X381309D02*
D03*
X391309Y421560D02*
D03*
X381309D02*
D03*
X360016Y311179D02*
D03*
X350016D02*
D03*
X360016Y321179D02*
D03*
X350016D02*
D03*
X389251Y311179D02*
D03*
X379251D02*
D03*
X389251Y321179D02*
D03*
X379251D02*
D03*
X389251Y282630D02*
D03*
X379251D02*
D03*
X389251Y292630D02*
D03*
X379251D02*
D03*
X360016Y282630D02*
D03*
X350016D02*
D03*
X360016Y292630D02*
D03*
X350016D02*
D03*
X423023Y483760D02*
D03*
X415290Y484110D02*
D03*
X406400D02*
D03*
X397510D02*
D03*
X389251Y483760D02*
D03*
X379251Y483897D02*
D03*
X369490Y484110D02*
D03*
X359410D02*
D03*
X348528D02*
D03*
X339831Y483760D02*
D03*
X332740Y484110D02*
D03*
X429163Y492814D02*
D03*
X420467D02*
D03*
X412750D02*
D03*
X401320D02*
D03*
X393700D02*
D03*
X384251Y492760D02*
D03*
X372285Y492814D02*
D03*
X364490D02*
D03*
X353939D02*
D03*
X344170D02*
D03*
X336550D02*
D03*
X328692D02*
D03*
X63791Y296093D02*
D03*
X64407Y302921D02*
D03*
X70065Y296658D02*
D03*
X71704Y303075D02*
D03*
X78604Y302921D02*
D03*
X76492Y296658D02*
D03*
X91224Y277913D02*
D03*
X102878Y278206D02*
D03*
X86922Y290715D02*
D03*
X136930Y550196D02*
D03*
X136904Y557715D02*
D03*
Y565611D02*
D03*
X138349Y572650D02*
D03*
X245149Y557055D02*
D03*
X186789Y581802D02*
D03*
X219020Y544396D02*
D03*
X207164Y544606D02*
D03*
X199677Y544396D02*
D03*
X185650Y544734D02*
D03*
X179041Y544396D02*
D03*
X172031D02*
D03*
X164642D02*
D03*
X157450Y544023D02*
D03*
X238101Y556605D02*
D03*
X219014Y551821D02*
D03*
X203509Y550830D02*
D03*
X195994Y550488D02*
D03*
X182829Y550830D02*
D03*
X175650D02*
D03*
X168305D02*
D03*
X159483D02*
D03*
X42083Y448646D02*
D03*
X52814Y464998D02*
D03*
X48482Y388810D02*
D03*
X146569Y352026D02*
D03*
X71396Y540488D02*
D03*
X60812D02*
D03*
X66104Y535196D02*
D03*
X60812Y529904D02*
D03*
X71396D02*
D03*
X203706Y375128D02*
D03*
X197228Y370781D02*
D03*
X77645Y414128D02*
D03*
X66334Y185803D02*
D03*
X103422Y368063D02*
D03*
X74863Y374723D02*
D03*
X186594Y85465D02*
D03*
X138988Y164717D02*
D03*
X182274Y112940D02*
D03*
X28911Y506641D02*
D03*
X463512Y105507D02*
D03*
X352331Y107505D02*
D03*
X497510Y219398D02*
D03*
X514981Y342119D02*
D03*
X470321Y212654D02*
D03*
X586740Y277055D02*
D03*
X257452Y555017D02*
D03*
X180155Y445450D02*
D03*
X164481Y42794D02*
D03*
X497842Y284948D02*
D03*
X129686Y373316D02*
D03*
X175457Y164003D02*
D03*
X224944Y161131D02*
D03*
X133285Y284717D02*
D03*
X300831Y65223D02*
D03*
X378273Y56851D02*
D03*
X398519D02*
D03*
X49527Y568895D02*
D03*
X45380Y548949D02*
D03*
X36775Y536194D02*
D03*
X34172Y512102D02*
D03*
X492475Y452643D02*
D03*
X591312Y396903D02*
D03*
X473196Y392464D02*
D03*
X146513Y310727D02*
D03*
X233431Y236464D02*
D03*
X423023Y394673D02*
D03*
X94420Y396919D02*
D03*
X235855Y390755D02*
D03*
X214719Y372025D02*
D03*
X190035Y423575D02*
D03*
X281300Y459839D02*
D03*
X203165Y424880D02*
D03*
X327831Y442510D02*
D03*
X284261Y421380D02*
D03*
X215379Y359554D02*
D03*
X190035Y375683D02*
D03*
X235099Y408223D02*
D03*
X264736Y363034D02*
D03*
X279872Y352910D02*
D03*
X273910Y375456D02*
D03*
X240799Y355125D02*
D03*
X221516Y337215D02*
D03*
X344170Y410412D02*
D03*
X173664Y372025D02*
D03*
X168466Y414215D02*
D03*
X163403Y384580D02*
D03*
X291463Y371488D02*
D03*
X159877Y325465D02*
D03*
X433021Y162274D02*
D03*
X230640Y498552D02*
D03*
X171501Y582969D02*
D03*
X537079Y215392D02*
D03*
X432276Y363976D02*
D03*
X458330Y383881D02*
D03*
X481427Y307125D02*
D03*
X542031Y369090D02*
D03*
X427872Y371488D02*
D03*
X477481Y155910D02*
D03*
X18791Y407260D02*
D03*
X18871Y401130D02*
D03*
X16791Y354835D02*
D03*
Y360630D02*
D03*
X458632Y397839D02*
D03*
X458848Y432502D02*
D03*
X428492Y430817D02*
D03*
X190650Y510096D02*
D03*
X102878Y269437D02*
D03*
X237430Y53793D02*
D03*
X430426Y478816D02*
D03*
X458632Y342102D02*
D03*
X495021Y263488D02*
D03*
X225233Y144334D02*
D03*
X201329Y136880D02*
D03*
Y190220D02*
D03*
X161107Y476677D02*
D03*
X99526Y71490D02*
D03*
X72971D02*
D03*
X85713D02*
D03*
X74592Y186050D02*
D03*
X86457D02*
D03*
X184150Y466852D02*
D03*
X192150D02*
D03*
X118324Y453387D02*
D03*
X158362Y445450D02*
D03*
X149980Y445196D02*
D03*
Y453735D02*
D03*
X214150Y469506D02*
D03*
X219720Y462618D02*
D03*
X288266Y458453D02*
D03*
X225285Y469025D02*
D03*
X210734Y462102D02*
D03*
X205907Y469138D02*
D03*
X294981Y299488D02*
D03*
X339831Y221327D02*
D03*
X84960Y284480D02*
D03*
X90372Y284717D02*
D03*
X498420Y292630D02*
D03*
X494774Y165862D02*
D03*
X478870Y165692D02*
D03*
X420887Y129829D02*
D03*
X375087Y127362D02*
D03*
X484614Y218694D02*
D03*
X380811Y117532D02*
D03*
X568555Y119742D02*
D03*
X314962Y222076D02*
D03*
X352331Y221742D02*
D03*
X365556Y190859D02*
D03*
X363831Y152484D02*
D03*
X365831Y214100D02*
D03*
X221033Y171261D02*
D03*
X536579Y154512D02*
D03*
X542675Y108722D02*
D03*
X542345Y144790D02*
D03*
X182968Y161503D02*
D03*
X554990Y360680D02*
D03*
X554420Y186270D02*
D03*
X586727Y183277D02*
D03*
X586740Y359488D02*
D03*
X273479Y91926D02*
D03*
X68698Y461352D02*
D03*
X67817Y450553D02*
D03*
X289301Y287488D02*
D03*
X252682Y161577D02*
D03*
X62603Y506038D02*
D03*
X176579Y155402D02*
D03*
X267340Y10132D02*
D03*
X241344Y122577D02*
D03*
X568555Y317046D02*
D03*
X458470Y247650D02*
D03*
X566700Y273930D02*
D03*
X549910Y331123D02*
D03*
X550361Y257430D02*
D03*
D123*
X44565Y181516D02*
D03*
D124*
Y101516D02*
D03*
D125*
X63791Y356976D02*
D03*
Y405476D02*
D03*
D126*
X32991Y340226D02*
D03*
Y422226D02*
D03*
D127*
X24701Y576475D02*
D03*
X31463Y23875D02*
D03*
X575540Y26964D02*
D03*
X574257Y576580D02*
D03*
D128*
X199267Y443488D02*
D03*
D129*
X37631Y455514D02*
D03*
X204767Y364594D02*
D03*
X115985Y316179D02*
D03*
X26195Y531780D02*
D03*
X106778Y574690D02*
D03*
X215975Y222946D02*
D03*
X550361Y102797D02*
D03*
X67723Y565611D02*
D03*
X122969Y562625D02*
D03*
X129285Y567070D02*
D03*
X544970Y459337D02*
D03*
X525412Y543732D02*
D03*
X588281Y440182D02*
D03*
X575861Y472224D02*
D03*
X291463Y387019D02*
D03*
X465775Y301334D02*
D03*
X587201Y518950D02*
D03*
X544374Y100653D02*
D03*
X573635Y124822D02*
D03*
X219129Y150800D02*
D03*
X290016Y311488D02*
D03*
X458470D02*
D03*
X288276Y215772D02*
D03*
Y225678D02*
D03*
X291463Y157416D02*
D03*
Y166050D02*
D03*
X252006Y192743D02*
D03*
X290817Y251488D02*
D03*
M02*
