G04*
G04 #@! TF.GenerationSoftware,Altium Limited,Altium Designer,23.8.1 (32)*
G04*
G04 Layer_Physical_Order=2*
G04 Layer_Color=36540*
%FSLAX44Y44*%
%MOMM*%
G71*
G04*
G04 #@! TF.SameCoordinates,271CB4FA-4F0A-43F9-8DEE-C87A6A24424C*
G04*
G04*
G04 #@! TF.FilePolarity,Positive*
G04*
G01*
G75*
%ADD35C,1.2700*%
%ADD103C,0.5000*%
%ADD123C,0.9000*%
%ADD124O,0.9000X1.7000*%
%ADD125O,1.4600X1.0000*%
%ADD126O,1.8000X1.0000*%
%ADD127C,3.6000*%
%ADD128C,0.7620*%
%ADD129C,0.6000*%
G36*
X261017Y558580D02*
X259747Y558054D01*
X259587Y558213D01*
X258202Y558787D01*
X256702D01*
X255317Y558213D01*
X254256Y557152D01*
X253682Y555767D01*
Y554267D01*
X254256Y552881D01*
X255317Y551821D01*
X256702Y551247D01*
X258202D01*
X259587Y551821D01*
X259747Y551980D01*
X261017Y551454D01*
Y503235D01*
X261411Y501253D01*
X262534Y499573D01*
X264214Y498450D01*
X266196Y498056D01*
X485831D01*
X487813Y498450D01*
X489493Y499573D01*
X490616Y501253D01*
X491011Y503235D01*
Y594821D01*
X516025D01*
X516213Y593551D01*
X515282Y593268D01*
X512634Y591853D01*
X510314Y589949D01*
X508409Y587628D01*
X506994Y584980D01*
X506123Y582108D01*
X505829Y579120D01*
X506123Y576132D01*
X506994Y573260D01*
X508409Y570612D01*
X510314Y568292D01*
X512634Y566387D01*
X515282Y564972D01*
X518155Y564100D01*
X521142Y563806D01*
X524130Y564100D01*
X527002Y564972D01*
X529650Y566387D01*
X531971Y568292D01*
X533875Y570612D01*
X535290Y573260D01*
X536162Y576132D01*
X536456Y579120D01*
X536162Y582108D01*
X535290Y584980D01*
X533875Y587628D01*
X531971Y589949D01*
X529650Y591853D01*
X527002Y593268D01*
X526071Y593551D01*
X526259Y594821D01*
X564897D01*
X564967Y594473D01*
X564970Y593551D01*
X561973Y591548D01*
X559289Y588864D01*
X557180Y585708D01*
X555727Y582201D01*
X554987Y578478D01*
Y574682D01*
X555727Y570959D01*
X557180Y567452D01*
X559289Y564296D01*
X561973Y561612D01*
X565129Y559503D01*
X568636Y558050D01*
X572359Y557310D01*
X576155D01*
X579878Y558050D01*
X583384Y559503D01*
X586541Y561612D01*
X589225Y564296D01*
X591334Y567452D01*
X592786Y570959D01*
X593527Y574682D01*
Y578478D01*
X592786Y582201D01*
X591334Y585708D01*
X589225Y588864D01*
X586541Y591548D01*
X583544Y593551D01*
X583547Y594473D01*
X583616Y594821D01*
X594821D01*
Y72412D01*
X593551Y72350D01*
X593377Y74108D01*
X592506Y76980D01*
X591091Y79628D01*
X589187Y81948D01*
X586866Y83853D01*
X584218Y85268D01*
X581346Y86139D01*
X578358Y86434D01*
X575370Y86139D01*
X572498Y85268D01*
X569850Y83853D01*
X567529Y81948D01*
X565625Y79628D01*
X564210Y76980D01*
X563339Y74108D01*
X563044Y71120D01*
X563339Y68132D01*
X564210Y65260D01*
X565625Y62612D01*
X567529Y60292D01*
X569850Y58387D01*
X572498Y56972D01*
X575370Y56101D01*
X578358Y55806D01*
X581346Y56101D01*
X584218Y56972D01*
X586866Y58387D01*
X589187Y60292D01*
X591091Y62612D01*
X592506Y65260D01*
X593377Y68132D01*
X593551Y69890D01*
X594821Y69828D01*
Y34090D01*
X593551Y33837D01*
X592617Y36092D01*
X590508Y39248D01*
X587824Y41932D01*
X584668Y44041D01*
X581161Y45493D01*
X577438Y46234D01*
X573642D01*
X569919Y45493D01*
X566412Y44041D01*
X563256Y41932D01*
X560572Y39248D01*
X558463Y36092D01*
X557010Y32585D01*
X556270Y28862D01*
Y25066D01*
X557010Y21343D01*
X558463Y17836D01*
X560572Y14680D01*
X563256Y11996D01*
X566412Y9887D01*
X569919Y8435D01*
X573642Y7694D01*
X577438D01*
X581161Y8435D01*
X584668Y9887D01*
X587824Y11996D01*
X590508Y14680D01*
X592617Y17836D01*
X593551Y20091D01*
X594821Y19838D01*
Y5179D01*
X268300D01*
X268090Y6362D01*
X269475Y6936D01*
X270536Y7997D01*
X271110Y9382D01*
Y10882D01*
X270536Y12268D01*
X269475Y13328D01*
X268090Y13902D01*
X266590D01*
X265204Y13328D01*
X264144Y12268D01*
X263570Y10882D01*
Y9382D01*
X264144Y7997D01*
X265204Y6936D01*
X266590Y6362D01*
X266379Y5179D01*
X40002D01*
X39750Y6449D01*
X40591Y6798D01*
X43747Y8907D01*
X46431Y11591D01*
X48540Y14747D01*
X49993Y18254D01*
X50733Y21977D01*
Y25773D01*
X49993Y29496D01*
X48540Y33003D01*
X46431Y36159D01*
X43747Y38843D01*
X40591Y40952D01*
X37084Y42404D01*
X33361Y43145D01*
X29565D01*
X25843Y42404D01*
X22336Y40952D01*
X19180Y38843D01*
X16495Y36159D01*
X14387Y33003D01*
X12934Y29496D01*
X12193Y25773D01*
Y21977D01*
X12934Y18254D01*
X14387Y14747D01*
X16495Y11591D01*
X19180Y8907D01*
X22336Y6798D01*
X23177Y6449D01*
X22925Y5179D01*
X5179D01*
Y439459D01*
X6449Y439711D01*
X7261Y437753D01*
X9500Y434835D01*
X12418Y432595D01*
X15817Y431188D01*
X19463Y430708D01*
X23110Y431188D01*
X26509Y432595D01*
X29427Y434835D01*
X31666Y437753D01*
X33074Y441151D01*
X33554Y444798D01*
X33074Y448445D01*
X31666Y451843D01*
X29427Y454762D01*
X26509Y457001D01*
X23110Y458409D01*
X19463Y458889D01*
X15817Y458409D01*
X12418Y457001D01*
X9500Y454762D01*
X7261Y451843D01*
X6449Y449885D01*
X5179Y450137D01*
Y569930D01*
X6449Y570183D01*
X7624Y567347D01*
X9733Y564191D01*
X12417Y561507D01*
X15573Y559398D01*
X19080Y557946D01*
X22803Y557205D01*
X26599D01*
X30322Y557946D01*
X33828Y559398D01*
X36985Y561507D01*
X39669Y564191D01*
X41778Y567347D01*
X43230Y570854D01*
X43971Y574577D01*
Y578373D01*
X43230Y582096D01*
X41778Y585603D01*
X39669Y588759D01*
X36985Y591443D01*
X33828Y593552D01*
X33773Y593575D01*
X34021Y594821D01*
X261017Y594821D01*
Y558580D01*
D02*
G37*
%LPC*%
G36*
X187539Y585572D02*
X186039D01*
X184653Y584998D01*
X183593Y583938D01*
X183019Y582552D01*
Y581052D01*
X183593Y579667D01*
X184653Y578606D01*
X186039Y578032D01*
X187539D01*
X188924Y578606D01*
X189985Y579667D01*
X190559Y581052D01*
Y582552D01*
X189985Y583938D01*
X188924Y584998D01*
X187539Y585572D01*
D02*
G37*
G36*
X232762Y577748D02*
X230755D01*
X228817Y577228D01*
X227080Y576225D01*
X225661Y574806D01*
X224658Y573069D01*
X224138Y571131D01*
Y569124D01*
X224658Y567186D01*
X225661Y565449D01*
X227080Y564030D01*
X228817Y563027D01*
X230755Y562508D01*
X232762D01*
X234700Y563027D01*
X236437Y564030D01*
X237856Y565449D01*
X238859Y567186D01*
X239378Y569124D01*
Y571131D01*
X238859Y573069D01*
X237856Y574806D01*
X236437Y576225D01*
X234700Y577228D01*
X232762Y577748D01*
D02*
G37*
G36*
X68572Y569881D02*
X66873D01*
X65304Y569231D01*
X64103Y568030D01*
X63453Y566460D01*
Y564762D01*
X64103Y563192D01*
X65304Y561991D01*
X66873Y561341D01*
X68572D01*
X70141Y561991D01*
X71343Y563192D01*
X71993Y564762D01*
Y566460D01*
X71343Y568030D01*
X70141Y569231D01*
X68572Y569881D01*
D02*
G37*
G36*
X245899Y560825D02*
X244399D01*
X243013Y560251D01*
X242230Y559467D01*
X241887Y559200D01*
X240657Y559381D01*
X240236Y559801D01*
X238851Y560375D01*
X237351D01*
X235965Y559801D01*
X234905Y558741D01*
X234331Y557355D01*
Y555855D01*
X234905Y554470D01*
X235965Y553409D01*
X237351Y552835D01*
X238851D01*
X240236Y553409D01*
X241020Y554193D01*
X241363Y554460D01*
X242593Y554279D01*
X243013Y553859D01*
X244399Y553285D01*
X245899D01*
X247284Y553859D01*
X248345Y554919D01*
X248919Y556305D01*
Y557805D01*
X248345Y559190D01*
X247284Y560251D01*
X245899Y560825D01*
D02*
G37*
G36*
X183579Y554600D02*
X182079D01*
X180693Y554026D01*
X180049Y553381D01*
X179239Y553101D01*
X178430Y553381D01*
X177785Y554026D01*
X176400Y554600D01*
X174900D01*
X173514Y554026D01*
X172752Y553264D01*
X171978Y553079D01*
X171203Y553264D01*
X170441Y554026D01*
X169055Y554600D01*
X167555D01*
X166170Y554026D01*
X165109Y552965D01*
X164535Y551580D01*
Y550080D01*
X163915Y549371D01*
X163392Y549930D01*
X163253Y550259D01*
Y551580D01*
X162679Y552965D01*
X161618Y554026D01*
X160233Y554600D01*
X158733D01*
X157347Y554026D01*
X156287Y552965D01*
X155713Y551580D01*
Y550080D01*
X156287Y548694D01*
X155775Y547410D01*
X155314Y547219D01*
X154254Y546159D01*
X153680Y544773D01*
Y543273D01*
X154254Y541888D01*
X155314Y540827D01*
X156700Y540253D01*
X158200D01*
X159585Y540827D01*
X160403Y541645D01*
X160788Y541872D01*
X161961Y541745D01*
X162507Y541200D01*
X163892Y540626D01*
X165392D01*
X166777Y541200D01*
X167571Y541993D01*
X168336Y542155D01*
X169102Y541993D01*
X169895Y541200D01*
X171281Y540626D01*
X172781D01*
X174166Y541200D01*
X174706Y541740D01*
X175536Y542119D01*
X176365Y541740D01*
X176905Y541200D01*
X178291Y540626D01*
X179791D01*
X181176Y541200D01*
X182237Y542261D01*
X183344Y541708D01*
X183514Y541538D01*
X184900Y540964D01*
X186400D01*
X187785Y541538D01*
X188846Y542598D01*
X189420Y543984D01*
Y545484D01*
X188846Y546870D01*
X187785Y547930D01*
X187097Y548215D01*
X186401Y548526D01*
X186462Y549748D01*
X186599Y550080D01*
Y551580D01*
X186025Y552965D01*
X184964Y554026D01*
X183579Y554600D01*
D02*
G37*
G36*
X204259D02*
X202759D01*
X201374Y554026D01*
X200391Y553043D01*
X200146Y552958D01*
X198912Y552902D01*
X198130Y553684D01*
X196744Y554258D01*
X195245D01*
X193859Y553684D01*
X192798Y552623D01*
X192225Y551238D01*
Y549738D01*
X192798Y548352D01*
X193859Y547292D01*
X195245Y546718D01*
X196032Y545448D01*
X195907Y545146D01*
Y543646D01*
X196481Y542261D01*
X197542Y541200D01*
X198927Y540626D01*
X200427D01*
X201813Y541200D01*
X202737Y542124D01*
X203182Y542249D01*
X204228Y542211D01*
X205029Y541410D01*
X206415Y540836D01*
X207914D01*
X209300Y541410D01*
X210361Y542471D01*
X210935Y543856D01*
Y545356D01*
X210361Y546742D01*
X209300Y547802D01*
X207914Y548376D01*
X207099Y549646D01*
X207279Y550080D01*
Y551580D01*
X206705Y552965D01*
X205645Y554026D01*
X204259Y554600D01*
D02*
G37*
G36*
X139099Y576420D02*
X137599D01*
X136213Y575846D01*
X135153Y574786D01*
X134579Y573400D01*
Y571900D01*
X135153Y570515D01*
X135275Y570392D01*
X134978Y568894D01*
X134769Y568807D01*
X133708Y567747D01*
X133134Y566361D01*
Y564861D01*
X133708Y563476D01*
X134769Y562415D01*
X134925Y562350D01*
Y560975D01*
X134769Y560911D01*
X133708Y559850D01*
X133134Y558465D01*
Y556965D01*
X133708Y555579D01*
X134601Y554686D01*
X134705Y553989D01*
X134612Y553209D01*
X133734Y552331D01*
X133160Y550946D01*
Y549446D01*
X133734Y548060D01*
X134795Y547000D01*
X136180Y546426D01*
X137680D01*
X139066Y547000D01*
X140126Y548060D01*
X140700Y549446D01*
Y550946D01*
X140126Y552331D01*
X139233Y553224D01*
X139129Y553922D01*
X139223Y554701D01*
X140100Y555579D01*
X140674Y556965D01*
Y558465D01*
X140100Y559850D01*
X139040Y560911D01*
X138883Y560975D01*
Y562350D01*
X139040Y562415D01*
X140100Y563476D01*
X140674Y564861D01*
Y566361D01*
X140100Y567747D01*
X139978Y567869D01*
X140275Y569368D01*
X140484Y569454D01*
X141545Y570515D01*
X142119Y571900D01*
Y573400D01*
X141545Y574786D01*
X140484Y575846D01*
X139099Y576420D01*
D02*
G37*
G36*
X46129Y552719D02*
X44630D01*
X43244Y552145D01*
X42183Y551084D01*
X41610Y549698D01*
Y548199D01*
X42183Y546813D01*
X43244Y545752D01*
X44630Y545178D01*
X46129D01*
X47515Y545752D01*
X48576Y546813D01*
X49149Y548199D01*
Y549698D01*
X48576Y551084D01*
X47515Y552145D01*
X46129Y552719D01*
D02*
G37*
G36*
X219764Y555591D02*
X218264D01*
X216879Y555017D01*
X215818Y553956D01*
X215244Y552571D01*
Y551071D01*
X215818Y549685D01*
X216638Y548865D01*
X216783Y548114D01*
X216641Y547349D01*
X215824Y546532D01*
X215250Y545146D01*
Y543646D01*
X215824Y542261D01*
X216884Y541200D01*
X218270Y540626D01*
X219770D01*
X221155Y541200D01*
X222216Y542261D01*
X222790Y543646D01*
Y545146D01*
X222216Y546532D01*
X221396Y547352D01*
X221250Y548103D01*
X221393Y548868D01*
X222210Y549685D01*
X222784Y551071D01*
Y552571D01*
X222210Y553956D01*
X221150Y555017D01*
X219764Y555591D01*
D02*
G37*
G36*
X526262Y548002D02*
X524563D01*
X522994Y547352D01*
X521792Y546151D01*
X521142Y544581D01*
Y542883D01*
X521792Y541313D01*
X522994Y540112D01*
X524563Y539462D01*
X526262D01*
X527831Y540112D01*
X529032Y541313D01*
X529682Y542883D01*
Y544581D01*
X529032Y546151D01*
X527831Y547352D01*
X526262Y548002D01*
D02*
G37*
G36*
X37525Y539964D02*
X36025D01*
X34639Y539390D01*
X33579Y538330D01*
X33005Y536944D01*
Y535444D01*
X33579Y534058D01*
X34639Y532998D01*
X36025Y532424D01*
X37525D01*
X38910Y532998D01*
X39971Y534058D01*
X40545Y535444D01*
Y536944D01*
X39971Y538330D01*
X38910Y539390D01*
X37525Y539964D01*
D02*
G37*
G36*
X191400Y513866D02*
X189900D01*
X188514Y513292D01*
X187454Y512232D01*
X186880Y510846D01*
Y509346D01*
X187454Y507961D01*
X188514Y506900D01*
X189900Y506326D01*
X191400D01*
X192785Y506900D01*
X193846Y507961D01*
X194420Y509346D01*
Y510846D01*
X193846Y512232D01*
X192785Y513292D01*
X191400Y513866D01*
D02*
G37*
G36*
X34922Y515872D02*
X33422D01*
X32036Y515298D01*
X30976Y514238D01*
X30402Y512852D01*
Y511479D01*
X30141Y511103D01*
X29417Y510411D01*
X28161D01*
X26776Y509837D01*
X25715Y508777D01*
X25141Y507391D01*
Y505891D01*
X25715Y504506D01*
X26776Y503445D01*
X28161Y502871D01*
X29661D01*
X31047Y503445D01*
X32107Y504506D01*
X32681Y505891D01*
Y507264D01*
X32943Y507641D01*
X33666Y508332D01*
X34922D01*
X36307Y508906D01*
X37368Y509966D01*
X37942Y511352D01*
Y512852D01*
X37368Y514238D01*
X36307Y515298D01*
X34922Y515872D01*
D02*
G37*
G36*
X63353Y509808D02*
X61853D01*
X60467Y509234D01*
X59407Y508173D01*
X58833Y506788D01*
Y505288D01*
X59407Y503902D01*
X60467Y502842D01*
X61853Y502268D01*
X63353D01*
X64738Y502842D01*
X65799Y503902D01*
X66373Y505288D01*
Y506788D01*
X65799Y508173D01*
X64738Y509234D01*
X63353Y509808D01*
D02*
G37*
G36*
X231390Y502322D02*
X229890D01*
X228504Y501748D01*
X227444Y500687D01*
X226870Y499302D01*
Y497802D01*
X227444Y496416D01*
X228504Y495356D01*
X229890Y494782D01*
X231390D01*
X232775Y495356D01*
X233836Y496416D01*
X234410Y497802D01*
Y499302D01*
X233836Y500687D01*
X232775Y501748D01*
X231390Y502322D01*
D02*
G37*
G36*
X161857Y480447D02*
X160357D01*
X158972Y479874D01*
X157911Y478813D01*
X157337Y477427D01*
Y475928D01*
X157911Y474542D01*
X158972Y473481D01*
X160357Y472907D01*
X161857D01*
X163242Y473481D01*
X164303Y474542D01*
X164877Y475928D01*
Y477427D01*
X164303Y478813D01*
X163242Y479874D01*
X161857Y480447D01*
D02*
G37*
G36*
X545819Y463607D02*
X544121D01*
X542551Y462957D01*
X541350Y461756D01*
X540700Y460186D01*
Y458488D01*
X541350Y456918D01*
X542551Y455717D01*
X544121Y455067D01*
X545819D01*
X547389Y455717D01*
X548590Y456918D01*
X549240Y458488D01*
Y460186D01*
X548590Y461756D01*
X547389Y462957D01*
X545819Y463607D01*
D02*
G37*
G36*
X493225Y456413D02*
X491725D01*
X490339Y455839D01*
X489279Y454779D01*
X488705Y453393D01*
Y451893D01*
X489279Y450508D01*
X490339Y449447D01*
X491725Y448873D01*
X493225D01*
X494610Y449447D01*
X495671Y450508D01*
X496245Y451893D01*
Y453393D01*
X495671Y454779D01*
X494610Y455839D01*
X493225Y456413D01*
D02*
G37*
G36*
X68567Y454323D02*
X67067D01*
X65682Y453749D01*
X64621Y452688D01*
X64047Y451303D01*
Y449803D01*
X64621Y448417D01*
X65682Y447357D01*
X67067Y446783D01*
X68567D01*
X69953Y447357D01*
X71013Y448417D01*
X71587Y449803D01*
Y451303D01*
X71013Y452688D01*
X69953Y453749D01*
X68567Y454323D01*
D02*
G37*
G36*
X38480Y459784D02*
X36782D01*
X35212Y459134D01*
X34011Y457933D01*
X33361Y456364D01*
Y454665D01*
X34011Y453096D01*
X35212Y451894D01*
X36782Y451244D01*
X37704D01*
X38567Y450010D01*
X38313Y449396D01*
Y447896D01*
X38887Y446511D01*
X39947Y445450D01*
X41333Y444876D01*
X42833D01*
X44218Y445450D01*
X45279Y446511D01*
X45853Y447896D01*
Y449396D01*
X45279Y450782D01*
X44218Y451842D01*
X42833Y452416D01*
X42240D01*
X42225Y452426D01*
X41496Y453686D01*
X41901Y454665D01*
Y456364D01*
X41251Y457933D01*
X40050Y459134D01*
X38480Y459784D01*
D02*
G37*
G36*
X180905Y449220D02*
X179405D01*
X178020Y448646D01*
X176959Y447586D01*
X176385Y446200D01*
Y444700D01*
X176959Y443315D01*
X178020Y442254D01*
X179405Y441680D01*
X180905D01*
X182291Y442254D01*
X183351Y443315D01*
X183925Y444700D01*
Y446200D01*
X183351Y447586D01*
X182291Y448646D01*
X180905Y449220D01*
D02*
G37*
G36*
X328581Y446280D02*
X327081D01*
X325696Y445706D01*
X324635Y444645D01*
X324061Y443260D01*
Y441760D01*
X324635Y440374D01*
X325696Y439314D01*
X327081Y438740D01*
X328581D01*
X329967Y439314D01*
X331027Y440374D01*
X331601Y441760D01*
Y443260D01*
X331027Y444645D01*
X329967Y445706D01*
X328581Y446280D01*
D02*
G37*
G36*
X200278Y448568D02*
X198257D01*
X196390Y447794D01*
X194961Y446366D01*
X194187Y444498D01*
Y442477D01*
X194961Y440610D01*
X196390Y439181D01*
X198257Y438408D01*
X200278D01*
X202145Y439181D01*
X203574Y440610D01*
X204347Y442477D01*
Y444498D01*
X203574Y446366D01*
X202145Y447794D01*
X200278Y448568D01*
D02*
G37*
G36*
X589130Y444452D02*
X587431D01*
X585862Y443802D01*
X584661Y442601D01*
X584011Y441031D01*
Y439333D01*
X584661Y437763D01*
X585862Y436562D01*
X587431Y435912D01*
X589130D01*
X590699Y436562D01*
X591901Y437763D01*
X592551Y439333D01*
Y441031D01*
X591901Y442601D01*
X590699Y443802D01*
X589130Y444452D01*
D02*
G37*
G36*
X459598Y436272D02*
X458098D01*
X456712Y435699D01*
X455652Y434638D01*
X455078Y433252D01*
Y431753D01*
X455652Y430367D01*
X456712Y429306D01*
X458098Y428732D01*
X459598D01*
X460984Y429306D01*
X462044Y430367D01*
X462618Y431753D01*
Y433252D01*
X462044Y434638D01*
X460984Y435699D01*
X459598Y436272D01*
D02*
G37*
G36*
X429242Y434587D02*
X427742D01*
X426357Y434013D01*
X425296Y432953D01*
X424722Y431567D01*
Y430067D01*
X425296Y428682D01*
X426357Y427621D01*
X427742Y427047D01*
X429242D01*
X430628Y427621D01*
X431688Y428682D01*
X432262Y430067D01*
Y431567D01*
X431688Y432953D01*
X430628Y434013D01*
X429242Y434587D01*
D02*
G37*
G36*
X36991Y429319D02*
X34261D01*
Y423496D01*
X43916D01*
X43842Y424062D01*
X43133Y425773D01*
X42006Y427242D01*
X40537Y428369D01*
X38826Y429077D01*
X36991Y429319D01*
D02*
G37*
G36*
X31721D02*
X28991D01*
X27155Y429077D01*
X25444Y428369D01*
X23975Y427242D01*
X22848Y425773D01*
X22140Y424062D01*
X22065Y423496D01*
X31721D01*
Y429319D01*
D02*
G37*
G36*
X203914Y428650D02*
X202415D01*
X201029Y428076D01*
X199968Y427015D01*
X199394Y425630D01*
Y424130D01*
X199968Y422744D01*
X201029Y421684D01*
X202415Y421110D01*
X203914D01*
X205300Y421684D01*
X206360Y422744D01*
X206935Y424130D01*
Y425630D01*
X206360Y427015D01*
X205300Y428076D01*
X203914Y428650D01*
D02*
G37*
G36*
X190784Y427345D02*
X189285D01*
X187899Y426771D01*
X186838Y425711D01*
X186264Y424325D01*
Y422825D01*
X186838Y421440D01*
X187899Y420379D01*
X189285Y419805D01*
X190784D01*
X192170Y420379D01*
X193231Y421440D01*
X193804Y422825D01*
Y424325D01*
X193231Y425711D01*
X192170Y426771D01*
X190784Y427345D01*
D02*
G37*
G36*
X285011Y425150D02*
X283512D01*
X282126Y424576D01*
X281066Y423516D01*
X280492Y422130D01*
Y420630D01*
X281066Y419244D01*
X282126Y418184D01*
X283512Y417610D01*
X285011D01*
X286397Y418184D01*
X287458Y419244D01*
X288032Y420630D01*
Y422130D01*
X287458Y423516D01*
X286397Y424576D01*
X285011Y425150D01*
D02*
G37*
G36*
X43916Y420956D02*
X34261D01*
Y415134D01*
X36991D01*
X38826Y415375D01*
X40537Y416084D01*
X42006Y417211D01*
X43133Y418680D01*
X43842Y420391D01*
X43916Y420956D01*
D02*
G37*
G36*
X31721D02*
X22065D01*
X22140Y420391D01*
X22848Y418680D01*
X23975Y417211D01*
X25444Y416084D01*
X27155Y415375D01*
X28991Y415134D01*
X31721D01*
Y420956D01*
D02*
G37*
G36*
X169216Y417985D02*
X167716D01*
X166331Y417411D01*
X165270Y416350D01*
X164696Y414965D01*
Y413465D01*
X165270Y412079D01*
X166331Y411019D01*
X167716Y410445D01*
X169216D01*
X170602Y411019D01*
X171662Y412079D01*
X172236Y413465D01*
Y414965D01*
X171662Y416350D01*
X170602Y417411D01*
X169216Y417985D01*
D02*
G37*
G36*
X78395Y417897D02*
X76895D01*
X75510Y417323D01*
X74449Y416263D01*
X73875Y414877D01*
Y413378D01*
X74449Y411992D01*
X75510Y410931D01*
X76895Y410358D01*
X78395D01*
X79781Y410931D01*
X80841Y411992D01*
X81415Y413378D01*
Y414877D01*
X80841Y416263D01*
X79781Y417323D01*
X78395Y417897D01*
D02*
G37*
G36*
X66091Y412569D02*
X65061D01*
Y406746D01*
X73016D01*
X72942Y407312D01*
X72233Y409023D01*
X71106Y410492D01*
X69637Y411619D01*
X67926Y412327D01*
X66091Y412569D01*
D02*
G37*
G36*
X62521D02*
X61491D01*
X59655Y412327D01*
X57944Y411619D01*
X56475Y410492D01*
X55348Y409023D01*
X54640Y407312D01*
X54565Y406746D01*
X62521D01*
Y412569D01*
D02*
G37*
G36*
X344920Y414182D02*
X343420D01*
X342034Y413608D01*
X340974Y412548D01*
X340400Y411162D01*
Y409662D01*
X340974Y408277D01*
X342034Y407216D01*
X343420Y406642D01*
X344920D01*
X346306Y407216D01*
X347366Y408277D01*
X347940Y409662D01*
Y411162D01*
X347366Y412548D01*
X346306Y413608D01*
X344920Y414182D01*
D02*
G37*
G36*
X235849Y411993D02*
X234349D01*
X232964Y411419D01*
X231903Y410358D01*
X231329Y408973D01*
Y407473D01*
X231903Y406087D01*
X232964Y405027D01*
X234349Y404453D01*
X235849D01*
X237235Y405027D01*
X238295Y406087D01*
X238869Y407473D01*
Y408973D01*
X238295Y410358D01*
X237235Y411419D01*
X235849Y411993D01*
D02*
G37*
G36*
X261767Y410591D02*
X260267D01*
X258881Y410017D01*
X257821Y408957D01*
X257247Y407571D01*
Y406071D01*
X257821Y404686D01*
X258881Y403625D01*
X260267Y403051D01*
X261767D01*
X263152Y403625D01*
X264213Y404686D01*
X264787Y406071D01*
Y407571D01*
X264213Y408957D01*
X263152Y410017D01*
X261767Y410591D01*
D02*
G37*
G36*
X73016Y404206D02*
X65061D01*
Y398384D01*
X66091D01*
X67926Y398625D01*
X69637Y399334D01*
X71106Y400461D01*
X72233Y401930D01*
X72942Y403641D01*
X73016Y404206D01*
D02*
G37*
G36*
X62521D02*
X54565D01*
X54640Y403641D01*
X55348Y401930D01*
X56475Y400461D01*
X57944Y399334D01*
X59655Y398625D01*
X61491Y398384D01*
X62521D01*
Y404206D01*
D02*
G37*
G36*
X459382Y401609D02*
X457882D01*
X456496Y401035D01*
X455436Y399974D01*
X454862Y398589D01*
Y397089D01*
X455436Y395703D01*
X456496Y394643D01*
X457882Y394069D01*
X459382D01*
X460767Y394643D01*
X461828Y395703D01*
X462402Y397089D01*
Y398589D01*
X461828Y399974D01*
X460767Y401035D01*
X459382Y401609D01*
D02*
G37*
G36*
X423773Y398443D02*
X422273D01*
X420888Y397869D01*
X419827Y396808D01*
X419253Y395423D01*
Y393923D01*
X419827Y392537D01*
X420888Y391477D01*
X422273Y390903D01*
X423773D01*
X425159Y391477D01*
X426219Y392537D01*
X426793Y393923D01*
Y395423D01*
X426219Y396808D01*
X425159Y397869D01*
X423773Y398443D01*
D02*
G37*
G36*
X473946Y396234D02*
X472446D01*
X471060Y395660D01*
X470000Y394599D01*
X469426Y393214D01*
Y391714D01*
X470000Y390328D01*
X471060Y389268D01*
X472446Y388694D01*
X473946D01*
X475331Y389268D01*
X476392Y390328D01*
X476966Y391714D01*
Y393214D01*
X476392Y394599D01*
X475331Y395660D01*
X473946Y396234D01*
D02*
G37*
G36*
X236605Y394525D02*
X235105D01*
X233719Y393951D01*
X232659Y392891D01*
X232085Y391505D01*
Y390005D01*
X232659Y388619D01*
X233719Y387559D01*
X235105Y386985D01*
X236605D01*
X237990Y387559D01*
X239051Y388619D01*
X239625Y390005D01*
Y391505D01*
X239051Y392891D01*
X237990Y393951D01*
X236605Y394525D01*
D02*
G37*
G36*
X292312Y391289D02*
X290613D01*
X289044Y390639D01*
X287843Y389437D01*
X287193Y387868D01*
Y386169D01*
X287843Y384600D01*
X289044Y383399D01*
X290613Y382749D01*
X292312D01*
X293881Y383399D01*
X295082Y384600D01*
X295733Y386169D01*
Y387868D01*
X295082Y389437D01*
X293881Y390639D01*
X292312Y391289D01*
D02*
G37*
G36*
X164153Y388350D02*
X162653D01*
X161267Y387776D01*
X160207Y386715D01*
X159633Y385330D01*
Y383830D01*
X160207Y382444D01*
X161267Y381384D01*
X162653Y380810D01*
X164153D01*
X165538Y381384D01*
X166599Y382444D01*
X167173Y383830D01*
Y385330D01*
X166599Y386715D01*
X165538Y387776D01*
X164153Y388350D01*
D02*
G37*
G36*
X459080Y387651D02*
X457580D01*
X456195Y387077D01*
X455134Y386017D01*
X454560Y384631D01*
Y383131D01*
X455134Y381746D01*
X456195Y380685D01*
X457580Y380111D01*
X459080D01*
X460466Y380685D01*
X461526Y381746D01*
X462100Y383131D01*
Y384631D01*
X461526Y386017D01*
X460466Y387077D01*
X459080Y387651D01*
D02*
G37*
G36*
X75613Y378493D02*
X74113D01*
X72727Y377919D01*
X71667Y376859D01*
X71093Y375473D01*
Y373973D01*
X71667Y372588D01*
X72727Y371527D01*
X74113Y370953D01*
X75613D01*
X76998Y371527D01*
X78059Y372588D01*
X78633Y373973D01*
Y375473D01*
X78059Y376859D01*
X76998Y377919D01*
X75613Y378493D01*
D02*
G37*
G36*
X215469Y375795D02*
X213969D01*
X212583Y375221D01*
X211523Y374161D01*
X210949Y372775D01*
Y371275D01*
X211523Y369890D01*
X212583Y368829D01*
X213969Y368255D01*
X215469D01*
X216854Y368829D01*
X217915Y369890D01*
X218489Y371275D01*
Y372775D01*
X217915Y374161D01*
X216854Y375221D01*
X215469Y375795D01*
D02*
G37*
G36*
X174414D02*
X172915D01*
X171529Y375221D01*
X170468Y374161D01*
X169895Y372775D01*
Y371275D01*
X170468Y369890D01*
X171529Y368829D01*
X172915Y368255D01*
X174414D01*
X175800Y368829D01*
X176861Y369890D01*
X177435Y371275D01*
Y372775D01*
X176861Y374161D01*
X175800Y375221D01*
X174414Y375795D01*
D02*
G37*
G36*
X190784Y379453D02*
X189285D01*
X187899Y378879D01*
X186838Y377819D01*
X186264Y376433D01*
Y374933D01*
X186838Y373548D01*
X187899Y372487D01*
X189285Y371913D01*
X190784D01*
X192170Y372487D01*
X192698Y373016D01*
X193775Y372296D01*
X193458Y371531D01*
Y370031D01*
X194032Y368645D01*
X195093Y367585D01*
X196478Y367011D01*
X197978D01*
X199364Y367585D01*
X200424Y368645D01*
X200998Y370031D01*
Y371531D01*
X200424Y372916D01*
X199364Y373977D01*
X197978Y374551D01*
X196478D01*
X195093Y373977D01*
X194564Y373448D01*
X193487Y374168D01*
X193804Y374933D01*
Y376433D01*
X193231Y377819D01*
X192170Y378879D01*
X190784Y379453D01*
D02*
G37*
G36*
X542781Y372860D02*
X541281D01*
X539896Y372286D01*
X538835Y371226D01*
X538261Y369840D01*
Y368340D01*
X538835Y366955D01*
X539896Y365894D01*
X541281Y365320D01*
X542781D01*
X544166Y365894D01*
X545227Y366955D01*
X545801Y368340D01*
Y369840D01*
X545227Y371226D01*
X544166Y372286D01*
X542781Y372860D01*
D02*
G37*
G36*
X104172Y371833D02*
X102672D01*
X101286Y371259D01*
X100226Y370199D01*
X99652Y368813D01*
Y367313D01*
X100226Y365928D01*
X101286Y364867D01*
X102672Y364293D01*
X104172D01*
X105557Y364867D01*
X106618Y365928D01*
X107192Y367313D01*
Y368813D01*
X106618Y370199D01*
X105557Y371259D01*
X104172Y371833D01*
D02*
G37*
G36*
X205616Y368864D02*
X203917D01*
X202348Y368214D01*
X201147Y367013D01*
X200497Y365443D01*
Y363745D01*
X201147Y362175D01*
X202348Y360974D01*
X203917Y360324D01*
X205616D01*
X207185Y360974D01*
X208387Y362175D01*
X209037Y363745D01*
Y365443D01*
X208387Y367013D01*
X207185Y368214D01*
X205616Y368864D01*
D02*
G37*
G36*
X433026Y367746D02*
X431527D01*
X430141Y367172D01*
X429080Y366111D01*
X428507Y364726D01*
Y363226D01*
X429080Y361840D01*
X430141Y360780D01*
X431527Y360206D01*
X433026D01*
X434412Y360780D01*
X435473Y361840D01*
X436046Y363226D01*
Y364726D01*
X435473Y366111D01*
X434412Y367172D01*
X433026Y367746D01*
D02*
G37*
G36*
X265486Y366804D02*
X263986D01*
X262600Y366230D01*
X261540Y365169D01*
X260966Y363784D01*
Y362284D01*
X261540Y360898D01*
X262600Y359838D01*
X263986Y359264D01*
X265486D01*
X266872Y359838D01*
X267932Y360898D01*
X268506Y362284D01*
Y363784D01*
X267932Y365169D01*
X266872Y366230D01*
X265486Y366804D01*
D02*
G37*
G36*
X66091Y364069D02*
X65061D01*
Y358246D01*
X73016D01*
X72942Y358812D01*
X72233Y360523D01*
X71106Y361992D01*
X69637Y363119D01*
X67926Y363827D01*
X66091Y364069D01*
D02*
G37*
G36*
X62521D02*
X61491D01*
X59655Y363827D01*
X57944Y363119D01*
X56475Y361992D01*
X55348Y360523D01*
X54640Y358812D01*
X54565Y358246D01*
X62521D01*
Y364069D01*
D02*
G37*
G36*
X555740Y364450D02*
X554240D01*
X552854Y363876D01*
X551794Y362816D01*
X551220Y361430D01*
Y359930D01*
X551794Y358545D01*
X552854Y357484D01*
X554240Y356910D01*
X555740D01*
X557126Y357484D01*
X558186Y358545D01*
X558760Y359930D01*
Y361430D01*
X558186Y362816D01*
X557126Y363876D01*
X555740Y364450D01*
D02*
G37*
G36*
X216129Y363324D02*
X214629D01*
X213243Y362750D01*
X212183Y361690D01*
X211609Y360304D01*
Y358804D01*
X212183Y357419D01*
X213243Y356358D01*
X214629Y355784D01*
X216129D01*
X217514Y356358D01*
X218575Y357419D01*
X219149Y358804D01*
Y360304D01*
X218575Y361690D01*
X217514Y362750D01*
X216129Y363324D01*
D02*
G37*
G36*
X73016Y355706D02*
X65061D01*
Y349884D01*
X66091D01*
X67926Y350125D01*
X69637Y350834D01*
X71106Y351961D01*
X72233Y353430D01*
X72942Y355141D01*
X73016Y355706D01*
D02*
G37*
G36*
X62521D02*
X54565D01*
X54640Y355141D01*
X55348Y353430D01*
X56475Y351961D01*
X57944Y350834D01*
X59655Y350125D01*
X61491Y349884D01*
X62521D01*
Y355706D01*
D02*
G37*
G36*
X280622Y356680D02*
X279122D01*
X277736Y356106D01*
X276676Y355046D01*
X276102Y353660D01*
Y352160D01*
X276676Y350774D01*
X277736Y349714D01*
X279122Y349140D01*
X280622D01*
X282007Y349714D01*
X283068Y350774D01*
X283642Y352160D01*
Y353660D01*
X283068Y355046D01*
X282007Y356106D01*
X280622Y356680D01*
D02*
G37*
G36*
X147319Y355796D02*
X145819D01*
X144434Y355222D01*
X143373Y354162D01*
X142799Y352776D01*
Y351276D01*
X143373Y349891D01*
X144434Y348830D01*
X145819Y348256D01*
X147319D01*
X148705Y348830D01*
X149765Y349891D01*
X150339Y351276D01*
Y352776D01*
X149765Y354162D01*
X148705Y355222D01*
X147319Y355796D01*
D02*
G37*
G36*
X36991Y347319D02*
X34261D01*
Y341496D01*
X43916D01*
X43842Y342062D01*
X43133Y343773D01*
X42006Y345242D01*
X40537Y346369D01*
X38826Y347077D01*
X36991Y347319D01*
D02*
G37*
G36*
X31721D02*
X28991D01*
X27155Y347077D01*
X25444Y346369D01*
X23975Y345242D01*
X22848Y343773D01*
X22140Y342062D01*
X22065Y341496D01*
X31721D01*
Y347319D01*
D02*
G37*
G36*
X459382Y345872D02*
X457882D01*
X456496Y345298D01*
X455436Y344238D01*
X454862Y342852D01*
Y341352D01*
X455436Y339967D01*
X456496Y338906D01*
X457882Y338332D01*
X459382D01*
X460767Y338906D01*
X461828Y339967D01*
X462402Y341352D01*
Y342852D01*
X461828Y344238D01*
X460767Y345298D01*
X459382Y345872D01*
D02*
G37*
G36*
X222265Y340985D02*
X220765D01*
X219380Y340411D01*
X218319Y339351D01*
X217745Y337965D01*
Y336465D01*
X218319Y335079D01*
X219380Y334019D01*
X220765Y333445D01*
X222265D01*
X223651Y334019D01*
X224711Y335079D01*
X225285Y336465D01*
Y337965D01*
X224711Y339351D01*
X223651Y340411D01*
X222265Y340985D01*
D02*
G37*
G36*
X43916Y338956D02*
X34261D01*
Y333134D01*
X36991D01*
X38826Y333375D01*
X40537Y334084D01*
X42006Y335211D01*
X43133Y336680D01*
X43842Y338391D01*
X43916Y338956D01*
D02*
G37*
G36*
X31721D02*
X22065D01*
X22140Y338391D01*
X22848Y336680D01*
X23975Y335211D01*
X25444Y334084D01*
X27155Y333375D01*
X28991Y333134D01*
X31721D01*
Y338956D01*
D02*
G37*
G36*
X160627Y329235D02*
X159128D01*
X157742Y328661D01*
X156681Y327600D01*
X156107Y326214D01*
Y324715D01*
X156681Y323329D01*
X157742Y322268D01*
X159128Y321694D01*
X160627D01*
X162013Y322268D01*
X163073Y323329D01*
X163647Y324715D01*
Y326214D01*
X163073Y327600D01*
X162013Y328661D01*
X160627Y329235D01*
D02*
G37*
G36*
X459319Y315758D02*
X457621D01*
X456051Y315108D01*
X454850Y313907D01*
X454200Y312337D01*
Y310639D01*
X454850Y309069D01*
X456051Y307868D01*
X457621Y307218D01*
X459319D01*
X460889Y307868D01*
X462090Y309069D01*
X462740Y310639D01*
Y312337D01*
X462090Y313907D01*
X460889Y315108D01*
X459319Y315758D01*
D02*
G37*
G36*
X290865D02*
X289167D01*
X287597Y315108D01*
X286396Y313907D01*
X285746Y312337D01*
Y310639D01*
X286396Y309069D01*
X287597Y307868D01*
X289167Y307218D01*
X290865D01*
X292435Y307868D01*
X293636Y309069D01*
X294286Y310639D01*
Y312337D01*
X293636Y313907D01*
X292435Y315108D01*
X290865Y315758D01*
D02*
G37*
G36*
X147263Y314497D02*
X145763D01*
X144378Y313923D01*
X143317Y312863D01*
X142743Y311477D01*
Y309977D01*
X143317Y308592D01*
X144378Y307531D01*
X145763Y306957D01*
X147263D01*
X148649Y307531D01*
X149709Y308592D01*
X150283Y309977D01*
Y311477D01*
X149709Y312863D01*
X148649Y313923D01*
X147263Y314497D01*
D02*
G37*
G36*
X466625Y305604D02*
X464926D01*
X463357Y304953D01*
X462155Y303752D01*
X461505Y302183D01*
Y300484D01*
X462155Y298915D01*
X463357Y297714D01*
X464926Y297064D01*
X466625D01*
X468194Y297714D01*
X469395Y298915D01*
X470045Y300484D01*
Y302183D01*
X469395Y303752D01*
X468194Y304953D01*
X466625Y305604D01*
D02*
G37*
G36*
X295731Y303258D02*
X294231D01*
X292845Y302684D01*
X291785Y301623D01*
X291211Y300238D01*
Y298738D01*
X291785Y297353D01*
X292845Y296292D01*
X294231Y295718D01*
X295731D01*
X297116Y296292D01*
X298177Y297353D01*
X298751Y298738D01*
Y300238D01*
X298177Y301623D01*
X297116Y302684D01*
X295731Y303258D01*
D02*
G37*
G36*
X499170Y296400D02*
X497670D01*
X496284Y295826D01*
X495224Y294765D01*
X494650Y293379D01*
Y291880D01*
X495224Y290494D01*
X496284Y289434D01*
X497670Y288860D01*
X499170D01*
X500555Y289434D01*
X501616Y290494D01*
X502190Y291880D01*
Y293379D01*
X501616Y294765D01*
X500555Y295826D01*
X499170Y296400D01*
D02*
G37*
G36*
X134035Y288487D02*
X132535D01*
X131149Y287913D01*
X130089Y286853D01*
X129515Y285467D01*
Y283967D01*
X130089Y282582D01*
X131149Y281521D01*
X132535Y280947D01*
X134035D01*
X135421Y281521D01*
X136481Y282582D01*
X137055Y283967D01*
Y285467D01*
X136481Y286853D01*
X135421Y287913D01*
X134035Y288487D01*
D02*
G37*
G36*
X587490Y280825D02*
X585990D01*
X584604Y280252D01*
X583544Y279191D01*
X582970Y277805D01*
Y276306D01*
X583544Y274920D01*
X584604Y273859D01*
X585990Y273285D01*
X587490D01*
X588876Y273859D01*
X589936Y274920D01*
X590510Y276306D01*
Y277805D01*
X589936Y279191D01*
X588876Y280252D01*
X587490Y280825D01*
D02*
G37*
G36*
X103628Y273207D02*
X102128D01*
X100743Y272633D01*
X99682Y271572D01*
X99108Y270187D01*
Y268687D01*
X99682Y267301D01*
X100743Y266241D01*
X102128Y265667D01*
X103628D01*
X105014Y266241D01*
X106074Y267301D01*
X106648Y268687D01*
Y270187D01*
X106074Y271572D01*
X105014Y272633D01*
X103628Y273207D01*
D02*
G37*
G36*
X495771Y267258D02*
X494272D01*
X492886Y266684D01*
X491825Y265623D01*
X491251Y264238D01*
Y262738D01*
X491825Y261352D01*
X492886Y260292D01*
X494272Y259718D01*
X495771D01*
X497157Y260292D01*
X498218Y261352D01*
X498791Y262738D01*
Y264238D01*
X498218Y265623D01*
X497157Y266684D01*
X495771Y267258D01*
D02*
G37*
G36*
X103882Y252730D02*
X101875D01*
X99937Y252211D01*
X98200Y251208D01*
X96781Y249789D01*
X95778Y248051D01*
X95258Y246113D01*
Y244107D01*
X95778Y242169D01*
X96781Y240431D01*
X98200Y239013D01*
X99937Y238009D01*
X101875Y237490D01*
X103882D01*
X105820Y238009D01*
X107557Y239013D01*
X108976Y240431D01*
X109979Y242169D01*
X110498Y244107D01*
Y246113D01*
X109979Y248051D01*
X108976Y249789D01*
X107557Y251208D01*
X105820Y252211D01*
X103882Y252730D01*
D02*
G37*
G36*
X234181Y240234D02*
X232681D01*
X231295Y239660D01*
X230235Y238600D01*
X229661Y237214D01*
Y235714D01*
X230235Y234329D01*
X231295Y233268D01*
X232681Y232694D01*
X234181D01*
X235566Y233268D01*
X236627Y234329D01*
X237201Y235714D01*
Y237214D01*
X236627Y238600D01*
X235566Y239660D01*
X234181Y240234D01*
D02*
G37*
G36*
X289125Y229948D02*
X287427D01*
X285857Y229298D01*
X284656Y228097D01*
X284006Y226528D01*
Y224829D01*
X284656Y223260D01*
X285857Y222059D01*
X287427Y221408D01*
X289125D01*
X290695Y222059D01*
X291896Y223260D01*
X292546Y224829D01*
Y226528D01*
X291896Y228097D01*
X290695Y229298D01*
X289125Y229948D01*
D02*
G37*
G36*
X216825Y227216D02*
X215126D01*
X213557Y226565D01*
X212356Y225364D01*
X211705Y223795D01*
Y222096D01*
X212356Y220527D01*
X213557Y219326D01*
X215126Y218676D01*
X216825D01*
X218394Y219326D01*
X219595Y220527D01*
X220245Y222096D01*
Y223795D01*
X219595Y225364D01*
X218394Y226565D01*
X216825Y227216D01*
D02*
G37*
G36*
X315711Y225846D02*
X314212D01*
X312826Y225272D01*
X311766Y224212D01*
X311192Y222826D01*
Y221326D01*
X311766Y219940D01*
X312826Y218880D01*
X314212Y218306D01*
X315711D01*
X317097Y218880D01*
X318158Y219940D01*
X318732Y221326D01*
Y222826D01*
X318158Y224212D01*
X317097Y225272D01*
X315711Y225846D01*
D02*
G37*
G36*
X353081Y225512D02*
X351581D01*
X350196Y224938D01*
X349135Y223878D01*
X348561Y222492D01*
Y220992D01*
X349135Y219606D01*
X350196Y218546D01*
X351581Y217972D01*
X353081D01*
X354467Y218546D01*
X355527Y219606D01*
X356101Y220992D01*
Y222492D01*
X355527Y223878D01*
X354467Y224938D01*
X353081Y225512D01*
D02*
G37*
G36*
X340581Y225097D02*
X339081D01*
X337696Y224523D01*
X336635Y223462D01*
X336061Y222077D01*
Y220577D01*
X336635Y219191D01*
X337696Y218131D01*
X339081Y217557D01*
X340581D01*
X341967Y218131D01*
X343027Y219191D01*
X343601Y220577D01*
Y222077D01*
X343027Y223462D01*
X341967Y224523D01*
X340581Y225097D01*
D02*
G37*
G36*
X485364Y222464D02*
X483864D01*
X482478Y221890D01*
X481418Y220830D01*
X480844Y219444D01*
Y217944D01*
X481418Y216558D01*
X482478Y215498D01*
X483864Y214924D01*
X485364D01*
X486749Y215498D01*
X487810Y216558D01*
X488384Y217944D01*
Y219444D01*
X487810Y220830D01*
X486749Y221890D01*
X485364Y222464D01*
D02*
G37*
G36*
X537829Y219162D02*
X536329D01*
X534944Y218588D01*
X533883Y217527D01*
X533309Y216142D01*
Y214642D01*
X533883Y213256D01*
X534944Y212196D01*
X536329Y211622D01*
X537829D01*
X539215Y212196D01*
X540275Y213256D01*
X540849Y214642D01*
Y216142D01*
X540275Y217527D01*
X539215Y218588D01*
X537829Y219162D01*
D02*
G37*
G36*
X289125Y220042D02*
X287427D01*
X285857Y219392D01*
X284656Y218191D01*
X284006Y216622D01*
Y214923D01*
X284656Y213354D01*
X285857Y212153D01*
X287427Y211502D01*
X289125D01*
X290695Y212153D01*
X291896Y213354D01*
X292546Y214923D01*
Y216622D01*
X291896Y218191D01*
X290695Y219392D01*
X289125Y220042D01*
D02*
G37*
G36*
X366581Y217871D02*
X365081D01*
X363696Y217297D01*
X362635Y216236D01*
X362061Y214850D01*
Y213351D01*
X362635Y211965D01*
X363696Y210905D01*
X365081Y210331D01*
X366581D01*
X367967Y210905D01*
X369027Y211965D01*
X369601Y213351D01*
Y214850D01*
X369027Y216236D01*
X367967Y217297D01*
X366581Y217871D01*
D02*
G37*
G36*
X252856Y197013D02*
X251157D01*
X249588Y196363D01*
X248386Y195162D01*
X247736Y193592D01*
Y191894D01*
X248386Y190324D01*
X249588Y189123D01*
X251157Y188473D01*
X252856D01*
X254425Y189123D01*
X255626Y190324D01*
X256276Y191894D01*
Y193592D01*
X255626Y195162D01*
X254425Y196363D01*
X252856Y197013D01*
D02*
G37*
G36*
X366306Y194629D02*
X364806D01*
X363420Y194055D01*
X362360Y192995D01*
X361786Y191609D01*
Y190109D01*
X362360Y188724D01*
X363420Y187663D01*
X364806Y187089D01*
X366306D01*
X367692Y187663D01*
X368752Y188724D01*
X369326Y190109D01*
Y191609D01*
X368752Y192995D01*
X367692Y194055D01*
X366306Y194629D01*
D02*
G37*
G36*
X555170Y190040D02*
X553670D01*
X552284Y189466D01*
X551224Y188405D01*
X550650Y187020D01*
Y185520D01*
X551224Y184135D01*
X552284Y183074D01*
X553670Y182500D01*
X555170D01*
X556555Y183074D01*
X557616Y184135D01*
X558190Y185520D01*
Y187020D01*
X557616Y188405D01*
X556555Y189466D01*
X555170Y190040D01*
D02*
G37*
G36*
X45713Y187286D02*
X43418D01*
X41297Y186408D01*
X39674Y184785D01*
X38795Y182664D01*
Y180369D01*
X39674Y178248D01*
X41297Y176625D01*
X43418Y175746D01*
X45713D01*
X47834Y176625D01*
X49457Y178248D01*
X50335Y180369D01*
Y182664D01*
X49457Y184785D01*
X47834Y186408D01*
X45713Y187286D01*
D02*
G37*
G36*
X221783Y175031D02*
X220283D01*
X218898Y174457D01*
X217837Y173397D01*
X217263Y172011D01*
Y170511D01*
X217837Y169125D01*
X218898Y168065D01*
X220283Y167491D01*
X221783D01*
X223169Y168065D01*
X224229Y169125D01*
X224803Y170511D01*
Y172011D01*
X224229Y173397D01*
X223169Y174457D01*
X221783Y175031D01*
D02*
G37*
G36*
X479620Y169462D02*
X478120D01*
X476735Y168888D01*
X475674Y167827D01*
X475100Y166442D01*
Y164942D01*
X475674Y163556D01*
X476735Y162496D01*
X478120Y161922D01*
X479620D01*
X481006Y162496D01*
X482066Y163556D01*
X482640Y164942D01*
Y166442D01*
X482066Y167827D01*
X481006Y168888D01*
X479620Y169462D01*
D02*
G37*
G36*
X433770Y166045D02*
X432271D01*
X430885Y165471D01*
X429824Y164410D01*
X429250Y163024D01*
Y161525D01*
X429824Y160139D01*
X430885Y159079D01*
X432271Y158504D01*
X433770D01*
X435156Y159079D01*
X436217Y160139D01*
X436791Y161525D01*
Y163024D01*
X436217Y164410D01*
X435156Y165471D01*
X433770Y166045D01*
D02*
G37*
G36*
X253432Y165347D02*
X251932D01*
X250546Y164773D01*
X249486Y163713D01*
X248912Y162327D01*
Y160827D01*
X249486Y159441D01*
X250546Y158381D01*
X251932Y157807D01*
X253432D01*
X254817Y158381D01*
X255878Y159441D01*
X256452Y160827D01*
Y162327D01*
X255878Y163713D01*
X254817Y164773D01*
X253432Y165347D01*
D02*
G37*
G36*
X176207Y167773D02*
X174707D01*
X173322Y167199D01*
X172261Y166138D01*
X171687Y164753D01*
Y163253D01*
X172261Y161868D01*
X173322Y160807D01*
X174707Y160233D01*
X175072D01*
X175324Y158963D01*
X174444Y158598D01*
X173383Y157538D01*
X172809Y156152D01*
Y154652D01*
X173383Y153267D01*
X174444Y152206D01*
X175829Y151632D01*
X177329D01*
X178715Y152206D01*
X179775Y153267D01*
X180349Y154652D01*
Y156152D01*
X179775Y157538D01*
X178715Y158598D01*
X177329Y159172D01*
X176965D01*
X176712Y160442D01*
X177593Y160807D01*
X177928Y161143D01*
X179198Y160753D01*
X179772Y159368D01*
X180833Y158307D01*
X182218Y157733D01*
X183718D01*
X185104Y158307D01*
X186164Y159368D01*
X186738Y160753D01*
Y162253D01*
X186164Y163638D01*
X185104Y164699D01*
X183718Y165273D01*
X182218D01*
X180833Y164699D01*
X180497Y164364D01*
X179227Y164753D01*
X178653Y166138D01*
X177593Y167199D01*
X176207Y167773D01*
D02*
G37*
G36*
X225694Y164901D02*
X224194D01*
X222809Y164327D01*
X221748Y163266D01*
X221174Y161880D01*
Y160381D01*
X221748Y158995D01*
X222809Y157935D01*
X224194Y157361D01*
X225694D01*
X227080Y157935D01*
X228140Y158995D01*
X228714Y160381D01*
Y161880D01*
X228140Y163266D01*
X227080Y164327D01*
X225694Y164901D01*
D02*
G37*
G36*
X537329Y158282D02*
X535829D01*
X534444Y157708D01*
X533383Y156648D01*
X532809Y155262D01*
Y153762D01*
X533383Y152376D01*
X534444Y151316D01*
X535829Y150742D01*
X537329D01*
X538714Y151316D01*
X539775Y152376D01*
X540349Y153762D01*
Y155262D01*
X539775Y156648D01*
X538714Y157708D01*
X537329Y158282D01*
D02*
G37*
G36*
X364581Y156254D02*
X363081D01*
X361696Y155680D01*
X360635Y154620D01*
X360061Y153234D01*
Y151734D01*
X360635Y150349D01*
X361696Y149288D01*
X363081Y148714D01*
X364581D01*
X365967Y149288D01*
X367027Y150349D01*
X367601Y151734D01*
Y153234D01*
X367027Y154620D01*
X365967Y155680D01*
X364581Y156254D01*
D02*
G37*
G36*
X543095Y148560D02*
X541595D01*
X540209Y147986D01*
X539149Y146925D01*
X538575Y145540D01*
Y144040D01*
X539149Y142654D01*
X540209Y141594D01*
X541595Y141020D01*
X543095D01*
X544481Y141594D01*
X545541Y142654D01*
X546115Y144040D01*
Y145540D01*
X545541Y146925D01*
X544481Y147986D01*
X543095Y148560D01*
D02*
G37*
G36*
X219978Y155070D02*
X218279D01*
X216710Y154420D01*
X215509Y153219D01*
X214859Y151649D01*
Y149951D01*
X215509Y148381D01*
X216710Y147180D01*
X218279Y146530D01*
X219978D01*
X220834Y146884D01*
X221806Y145912D01*
X221463Y145084D01*
Y143584D01*
X222036Y142198D01*
X223097Y141138D01*
X224483Y140564D01*
X225982D01*
X227368Y141138D01*
X228429Y142198D01*
X229003Y143584D01*
Y145084D01*
X228429Y146469D01*
X227368Y147530D01*
X225982Y148104D01*
X224483D01*
X223882Y147855D01*
X222938Y148839D01*
X223399Y149951D01*
Y151649D01*
X222749Y153219D01*
X221548Y154420D01*
X219978Y155070D01*
D02*
G37*
G36*
X574484Y129092D02*
X572786D01*
X571216Y128442D01*
X570015Y127241D01*
X569365Y125671D01*
Y124685D01*
X569328Y123958D01*
X568192Y123512D01*
X567805D01*
X566419Y122938D01*
X565359Y121877D01*
X564785Y120492D01*
Y118992D01*
X565359Y117606D01*
X566419Y116546D01*
X567805Y115972D01*
X569305D01*
X570690Y116546D01*
X571751Y117606D01*
X572325Y118992D01*
Y119379D01*
X572771Y120515D01*
X573498Y120552D01*
X574484D01*
X576054Y121202D01*
X577255Y122403D01*
X577905Y123973D01*
Y125671D01*
X577255Y127241D01*
X576054Y128442D01*
X574484Y129092D01*
D02*
G37*
G36*
X381561Y121302D02*
X380061D01*
X378675Y120728D01*
X377615Y119668D01*
X377041Y118282D01*
Y116782D01*
X377615Y115396D01*
X378675Y114336D01*
X380061Y113762D01*
X381561D01*
X382947Y114336D01*
X384007Y115396D01*
X384581Y116782D01*
Y118282D01*
X384007Y119668D01*
X382947Y120728D01*
X381561Y121302D01*
D02*
G37*
G36*
X543425Y112492D02*
X541925D01*
X540540Y111918D01*
X539479Y110857D01*
X538905Y109472D01*
Y107972D01*
X539479Y106586D01*
X540540Y105526D01*
X541925Y104952D01*
X543425D01*
X544810Y105526D01*
X545871Y106586D01*
X546445Y107972D01*
Y109472D01*
X545871Y110857D01*
X544810Y111918D01*
X543425Y112492D01*
D02*
G37*
G36*
X353081Y111275D02*
X351581D01*
X350196Y110701D01*
X349135Y109641D01*
X348561Y108255D01*
Y106755D01*
X349135Y105370D01*
X350196Y104309D01*
X351581Y103735D01*
X353081D01*
X354467Y104309D01*
X355527Y105370D01*
X356101Y106755D01*
Y108255D01*
X355527Y109641D01*
X354467Y110701D01*
X353081Y111275D01*
D02*
G37*
G36*
X464262Y109277D02*
X462762D01*
X461376Y108703D01*
X460316Y107643D01*
X459742Y106257D01*
Y104757D01*
X460316Y103372D01*
X461376Y102311D01*
X462762Y101737D01*
X464262D01*
X465647Y102311D01*
X466708Y103372D01*
X467282Y104757D01*
Y106257D01*
X466708Y107643D01*
X465647Y108703D01*
X464262Y109277D01*
D02*
G37*
G36*
X44565Y111399D02*
X42314Y110952D01*
X40406Y109676D01*
X39130Y107768D01*
X38682Y105516D01*
Y97516D01*
X39130Y95265D01*
X40406Y93357D01*
X42314Y92081D01*
X44565Y91633D01*
X46817Y92081D01*
X48725Y93357D01*
X50001Y95265D01*
X50448Y97516D01*
Y105516D01*
X50001Y107768D01*
X48725Y109676D01*
X46817Y110952D01*
X44565Y111399D01*
D02*
G37*
G36*
X274229Y95696D02*
X272729D01*
X271343Y95122D01*
X270283Y94062D01*
X269709Y92676D01*
Y91176D01*
X270283Y89791D01*
X271343Y88730D01*
X272729Y88156D01*
X274229D01*
X275614Y88730D01*
X276675Y89791D01*
X277249Y91176D01*
Y92676D01*
X276675Y94062D01*
X275614Y95122D01*
X274229Y95696D01*
D02*
G37*
G36*
X187344Y89235D02*
X185844D01*
X184458Y88661D01*
X183398Y87601D01*
X182824Y86215D01*
Y84715D01*
X183398Y83330D01*
X184458Y82269D01*
X185844Y81695D01*
X187344D01*
X188729Y82269D01*
X189790Y83330D01*
X190364Y84715D01*
Y86215D01*
X189790Y87601D01*
X188729Y88661D01*
X187344Y89235D01*
D02*
G37*
G36*
X301581Y68993D02*
X300081D01*
X298696Y68419D01*
X297635Y67358D01*
X297061Y65972D01*
Y64473D01*
X297635Y63087D01*
X298696Y62027D01*
X300081Y61453D01*
X301581D01*
X302967Y62027D01*
X304027Y63087D01*
X304601Y64473D01*
Y65972D01*
X304027Y67358D01*
X302967Y68419D01*
X301581Y68993D01*
D02*
G37*
G36*
X379023Y60621D02*
X377523D01*
X376137Y60047D01*
X375077Y58987D01*
X374503Y57601D01*
Y56101D01*
X375077Y54715D01*
X376137Y53655D01*
X377523Y53081D01*
X379023D01*
X380408Y53655D01*
X381469Y54715D01*
X382043Y56101D01*
Y57601D01*
X381469Y58987D01*
X380408Y60047D01*
X379023Y60621D01*
D02*
G37*
G36*
X238180Y57562D02*
X236680D01*
X235294Y56989D01*
X234234Y55928D01*
X233660Y54542D01*
Y53043D01*
X234234Y51657D01*
X235294Y50596D01*
X236680Y50023D01*
X238180D01*
X239565Y50596D01*
X240626Y51657D01*
X241200Y53043D01*
Y54542D01*
X240626Y55928D01*
X239565Y56989D01*
X238180Y57562D01*
D02*
G37*
G36*
X165231Y46564D02*
X163731D01*
X162346Y45990D01*
X161285Y44929D01*
X160711Y43544D01*
Y42044D01*
X161285Y40658D01*
X162346Y39598D01*
X163731Y39024D01*
X165231D01*
X166617Y39598D01*
X167677Y40658D01*
X168251Y42044D01*
Y43544D01*
X167677Y44929D01*
X166617Y45990D01*
X165231Y46564D01*
D02*
G37*
G36*
X76492Y39103D02*
X73504Y38809D01*
X70631Y37938D01*
X67984Y36523D01*
X65663Y34618D01*
X63759Y32297D01*
X62344Y29650D01*
X61472Y26777D01*
X61178Y23790D01*
X61472Y20802D01*
X62344Y17929D01*
X63759Y15282D01*
X65663Y12961D01*
X67984Y11057D01*
X70631Y9642D01*
X73504Y8770D01*
X76492Y8476D01*
X79479Y8770D01*
X82352Y9642D01*
X84999Y11057D01*
X87320Y12961D01*
X89225Y15282D01*
X90640Y17929D01*
X91511Y20802D01*
X91805Y23790D01*
X91511Y26777D01*
X90640Y29650D01*
X89225Y32297D01*
X87320Y34618D01*
X84999Y36523D01*
X82352Y37938D01*
X79479Y38809D01*
X76492Y39103D01*
D02*
G37*
%LPD*%
D35*
X102878Y245110D02*
D03*
X231758Y570128D02*
D03*
D103*
X396859Y212816D02*
D03*
X261017Y406821D02*
D03*
X221264Y54178D02*
D03*
X369490Y433734D02*
D03*
X359490D02*
D03*
X369490Y443734D02*
D03*
X359490D02*
D03*
X391309Y433734D02*
D03*
X381309D02*
D03*
X391309Y443734D02*
D03*
X381309D02*
D03*
X369490Y411560D02*
D03*
X359490D02*
D03*
X369490Y421560D02*
D03*
X359490D02*
D03*
X391309Y411560D02*
D03*
X381309D02*
D03*
X391309Y421560D02*
D03*
X381309D02*
D03*
X360016Y311179D02*
D03*
X350016D02*
D03*
X360016Y321179D02*
D03*
X350016D02*
D03*
X389251Y311179D02*
D03*
X379251D02*
D03*
X389251Y321179D02*
D03*
X379251D02*
D03*
X389251Y282630D02*
D03*
X379251D02*
D03*
X389251Y292630D02*
D03*
X379251D02*
D03*
X360016Y282630D02*
D03*
X350016D02*
D03*
X360016Y292630D02*
D03*
X350016D02*
D03*
X423023Y483760D02*
D03*
X415290Y484110D02*
D03*
X406400D02*
D03*
X397510D02*
D03*
X389251Y483760D02*
D03*
X379251Y483897D02*
D03*
X369490Y484110D02*
D03*
X359410D02*
D03*
X348528D02*
D03*
X339831Y483760D02*
D03*
X332740Y484110D02*
D03*
X429163Y492814D02*
D03*
X420467D02*
D03*
X412750D02*
D03*
X401320D02*
D03*
X393700D02*
D03*
X384251Y492760D02*
D03*
X372285Y492814D02*
D03*
X364490D02*
D03*
X353939D02*
D03*
X344170D02*
D03*
X336550D02*
D03*
X328692D02*
D03*
X63791Y296093D02*
D03*
X64407Y302921D02*
D03*
X70065Y296658D02*
D03*
X71704Y303075D02*
D03*
X78604Y302921D02*
D03*
X76492Y296658D02*
D03*
X91224Y277913D02*
D03*
X102878Y278206D02*
D03*
X86922Y290715D02*
D03*
X136930Y550196D02*
D03*
X136904Y557715D02*
D03*
Y565611D02*
D03*
X138349Y572650D02*
D03*
X245149Y557055D02*
D03*
X186789Y581802D02*
D03*
X219020Y544396D02*
D03*
X207164Y544606D02*
D03*
X199677Y544396D02*
D03*
X185650Y544734D02*
D03*
X179041Y544396D02*
D03*
X172031D02*
D03*
X164642D02*
D03*
X157450Y544023D02*
D03*
X238101Y556605D02*
D03*
X219014Y551821D02*
D03*
X203509Y550830D02*
D03*
X195994Y550488D02*
D03*
X182829Y550830D02*
D03*
X175650D02*
D03*
X168305D02*
D03*
X159483D02*
D03*
X42083Y448646D02*
D03*
X52814Y464998D02*
D03*
X48482Y388810D02*
D03*
X146569Y352026D02*
D03*
X71396Y540488D02*
D03*
X60812D02*
D03*
X66104Y535196D02*
D03*
X60812Y529904D02*
D03*
X71396D02*
D03*
X203706Y375128D02*
D03*
X197228Y370781D02*
D03*
X77645Y414128D02*
D03*
X66334Y185803D02*
D03*
X103422Y368063D02*
D03*
X74863Y374723D02*
D03*
X186594Y85465D02*
D03*
X138988Y164717D02*
D03*
X182274Y112940D02*
D03*
X28911Y506641D02*
D03*
X463512Y105507D02*
D03*
X352331Y107505D02*
D03*
X497510Y219398D02*
D03*
X514981Y342119D02*
D03*
X470321Y212654D02*
D03*
X586740Y277055D02*
D03*
X257452Y555017D02*
D03*
X180155Y445450D02*
D03*
X164481Y42794D02*
D03*
X497842Y284948D02*
D03*
X129686Y373316D02*
D03*
X175457Y164003D02*
D03*
X224944Y161131D02*
D03*
X133285Y284717D02*
D03*
X300831Y65223D02*
D03*
X378273Y56851D02*
D03*
X398519D02*
D03*
X49527Y568895D02*
D03*
X45380Y548949D02*
D03*
X36775Y536194D02*
D03*
X34172Y512102D02*
D03*
X492475Y452643D02*
D03*
X591312Y396903D02*
D03*
X473196Y392464D02*
D03*
X146513Y310727D02*
D03*
X233431Y236464D02*
D03*
X423023Y394673D02*
D03*
X94420Y396919D02*
D03*
X235855Y390755D02*
D03*
X214719Y372025D02*
D03*
X190035Y423575D02*
D03*
X281300Y459839D02*
D03*
X203165Y424880D02*
D03*
X327831Y442510D02*
D03*
X284261Y421380D02*
D03*
X215379Y359554D02*
D03*
X190035Y375683D02*
D03*
X235099Y408223D02*
D03*
X264736Y363034D02*
D03*
X279872Y352910D02*
D03*
X273910Y375456D02*
D03*
X240799Y355125D02*
D03*
X221516Y337215D02*
D03*
X344170Y410412D02*
D03*
X173664Y372025D02*
D03*
X168466Y414215D02*
D03*
X163403Y384580D02*
D03*
X291463Y371488D02*
D03*
X159877Y325465D02*
D03*
X433021Y162274D02*
D03*
X230640Y498552D02*
D03*
X171501Y582969D02*
D03*
X537079Y215392D02*
D03*
X432276Y363976D02*
D03*
X458330Y383881D02*
D03*
X481427Y307125D02*
D03*
X542031Y369090D02*
D03*
X427872Y371488D02*
D03*
X477481Y155910D02*
D03*
X18791Y407260D02*
D03*
X18871Y401130D02*
D03*
X16791Y354835D02*
D03*
Y360630D02*
D03*
X458632Y397839D02*
D03*
X458848Y432502D02*
D03*
X428492Y430817D02*
D03*
X190650Y510096D02*
D03*
X102878Y269437D02*
D03*
X237430Y53793D02*
D03*
X430426Y478816D02*
D03*
X458632Y342102D02*
D03*
X495021Y263488D02*
D03*
X225233Y144334D02*
D03*
X201329Y136880D02*
D03*
Y190220D02*
D03*
X161107Y476677D02*
D03*
X99526Y71490D02*
D03*
X72971D02*
D03*
X85713D02*
D03*
X74592Y186050D02*
D03*
X86457D02*
D03*
X184150Y466852D02*
D03*
X192150D02*
D03*
X118324Y453387D02*
D03*
X158362Y445450D02*
D03*
X149980Y445196D02*
D03*
Y453735D02*
D03*
X214150Y469506D02*
D03*
X219720Y462618D02*
D03*
X288266Y458453D02*
D03*
X225285Y469025D02*
D03*
X210734Y462102D02*
D03*
X205907Y469138D02*
D03*
X294981Y299488D02*
D03*
X339831Y221327D02*
D03*
X84960Y284480D02*
D03*
X90372Y284717D02*
D03*
X498420Y292630D02*
D03*
X494774Y165862D02*
D03*
X478870Y165692D02*
D03*
X420887Y129829D02*
D03*
X375087Y127362D02*
D03*
X484614Y218694D02*
D03*
X380811Y117532D02*
D03*
X568555Y119742D02*
D03*
X314962Y222076D02*
D03*
X352331Y221742D02*
D03*
X365556Y190859D02*
D03*
X363831Y152484D02*
D03*
X365831Y214100D02*
D03*
X221033Y171261D02*
D03*
X536579Y154512D02*
D03*
X542675Y108722D02*
D03*
X542345Y144790D02*
D03*
X182968Y161503D02*
D03*
X554990Y360680D02*
D03*
X554420Y186270D02*
D03*
X586727Y183277D02*
D03*
X586740Y359488D02*
D03*
X273479Y91926D02*
D03*
X68698Y461352D02*
D03*
X67817Y450553D02*
D03*
X289301Y287488D02*
D03*
X252682Y161577D02*
D03*
X62603Y506038D02*
D03*
X176579Y155402D02*
D03*
X267340Y10132D02*
D03*
X241344Y122577D02*
D03*
X568555Y317046D02*
D03*
X458470Y247650D02*
D03*
X566700Y273930D02*
D03*
X549910Y331123D02*
D03*
X550361Y257430D02*
D03*
D123*
X44565Y181516D02*
D03*
D124*
Y101516D02*
D03*
D125*
X63791Y356976D02*
D03*
Y405476D02*
D03*
D126*
X32991Y340226D02*
D03*
Y422226D02*
D03*
D127*
X24701Y576475D02*
D03*
X31463Y23875D02*
D03*
X575540Y26964D02*
D03*
X574257Y576580D02*
D03*
D128*
X199267Y443488D02*
D03*
D129*
X37631Y455514D02*
D03*
X204767Y364594D02*
D03*
X115985Y316179D02*
D03*
X26195Y531780D02*
D03*
X106778Y574690D02*
D03*
X215975Y222946D02*
D03*
X550361Y102797D02*
D03*
X67723Y565611D02*
D03*
X122969Y562625D02*
D03*
X129285Y567070D02*
D03*
X544970Y459337D02*
D03*
X525412Y543732D02*
D03*
X588281Y440182D02*
D03*
X575861Y472224D02*
D03*
X291463Y387019D02*
D03*
X465775Y301334D02*
D03*
X587201Y518950D02*
D03*
X544374Y100653D02*
D03*
X573635Y124822D02*
D03*
X219129Y150800D02*
D03*
X290016Y311488D02*
D03*
X458470D02*
D03*
X288276Y215772D02*
D03*
Y225678D02*
D03*
X291463Y157416D02*
D03*
Y166050D02*
D03*
X252006Y192743D02*
D03*
X290817Y251488D02*
D03*
M02*
