G04*
G04 #@! TF.GenerationSoftware,Altium Limited,Altium Designer,23.8.1 (32)*
G04*
G04 Layer_Color=8388736*
%FSLAX44Y44*%
%MOMM*%
G71*
G04*
G04 #@! TF.SameCoordinates,271CB4FA-4F0A-43F9-8DEE-C87A6A24424C*
G04*
G04*
G04 #@! TF.FilePolarity,Negative*
G04*
G01*
G75*
G04:AMPARAMS|DCode=27|XSize=0.966mm|YSize=0.2393mm|CornerRadius=0.0598mm|HoleSize=0mm|Usage=FLASHONLY|Rotation=0.000|XOffset=0mm|YOffset=0mm|HoleType=Round|Shape=RoundedRectangle|*
%AMROUNDEDRECTD27*
21,1,0.9660,0.1196,0,0,0.0*
21,1,0.8464,0.2393,0,0,0.0*
1,1,0.1196,0.4232,-0.0598*
1,1,0.1196,-0.4232,-0.0598*
1,1,0.1196,-0.4232,0.0598*
1,1,0.1196,0.4232,0.0598*
%
%ADD27ROUNDEDRECTD27*%
G04:AMPARAMS|DCode=28|XSize=0.2393mm|YSize=0.966mm|CornerRadius=0.0598mm|HoleSize=0mm|Usage=FLASHONLY|Rotation=0.000|XOffset=0mm|YOffset=0mm|HoleType=Round|Shape=RoundedRectangle|*
%AMROUNDEDRECTD28*
21,1,0.2393,0.8464,0,0,0.0*
21,1,0.1196,0.9660,0,0,0.0*
1,1,0.1196,0.0598,-0.4232*
1,1,0.1196,-0.0598,-0.4232*
1,1,0.1196,-0.0598,0.4232*
1,1,0.1196,0.0598,0.4232*
%
%ADD28ROUNDEDRECTD28*%
G04:AMPARAMS|DCode=50|XSize=0.3mm|YSize=0.63mm|CornerRadius=0.03mm|HoleSize=0mm|Usage=FLASHONLY|Rotation=90.000|XOffset=0mm|YOffset=0mm|HoleType=Round|Shape=RoundedRectangle|*
%AMROUNDEDRECTD50*
21,1,0.3000,0.5700,0,0,90.0*
21,1,0.2400,0.6300,0,0,90.0*
1,1,0.0600,0.2850,0.1200*
1,1,0.0600,0.2850,-0.1200*
1,1,0.0600,-0.2850,-0.1200*
1,1,0.0600,-0.2850,0.1200*
%
%ADD50ROUNDEDRECTD50*%
G04:AMPARAMS|DCode=51|XSize=3.3mm|YSize=0.45mm|CornerRadius=0.045mm|HoleSize=0mm|Usage=FLASHONLY|Rotation=90.000|XOffset=0mm|YOffset=0mm|HoleType=Round|Shape=RoundedRectangle|*
%AMROUNDEDRECTD51*
21,1,3.3000,0.3600,0,0,90.0*
21,1,3.2100,0.4500,0,0,90.0*
1,1,0.0900,0.1800,1.6050*
1,1,0.0900,0.1800,-1.6050*
1,1,0.0900,-0.1800,-1.6050*
1,1,0.0900,-0.1800,1.6050*
%
%ADD51ROUNDEDRECTD51*%
%ADD53R,1.1000X1.9000*%
G04:AMPARAMS|DCode=54|XSize=0.25mm|YSize=0.575mm|CornerRadius=0.0313mm|HoleSize=0mm|Usage=FLASHONLY|Rotation=0.000|XOffset=0mm|YOffset=0mm|HoleType=Round|Shape=RoundedRectangle|*
%AMROUNDEDRECTD54*
21,1,0.2500,0.5125,0,0,0.0*
21,1,0.1875,0.5750,0,0,0.0*
1,1,0.0625,0.0938,-0.2563*
1,1,0.0625,-0.0938,-0.2563*
1,1,0.0625,-0.0938,0.2563*
1,1,0.0625,0.0938,0.2563*
%
%ADD54ROUNDEDRECTD54*%
G04:AMPARAMS|DCode=55|XSize=0.675mm|YSize=0.25mm|CornerRadius=0.0313mm|HoleSize=0mm|Usage=FLASHONLY|Rotation=0.000|XOffset=0mm|YOffset=0mm|HoleType=Round|Shape=RoundedRectangle|*
%AMROUNDEDRECTD55*
21,1,0.6750,0.1875,0,0,0.0*
21,1,0.6125,0.2500,0,0,0.0*
1,1,0.0625,0.3063,-0.0938*
1,1,0.0625,-0.3063,-0.0938*
1,1,0.0625,-0.3063,0.0938*
1,1,0.0625,0.3063,0.0938*
%
%ADD55ROUNDEDRECTD55*%
G04:AMPARAMS|DCode=58|XSize=1.8016mm|YSize=1.9016mm|CornerRadius=0.2633mm|HoleSize=0mm|Usage=FLASHONLY|Rotation=270.000|XOffset=0mm|YOffset=0mm|HoleType=Round|Shape=RoundedRectangle|*
%AMROUNDEDRECTD58*
21,1,1.8016,1.3750,0,0,270.0*
21,1,1.2750,1.9016,0,0,270.0*
1,1,0.5266,-0.6875,-0.6375*
1,1,0.5266,-0.6875,0.6375*
1,1,0.5266,0.6875,0.6375*
1,1,0.5266,0.6875,-0.6375*
%
%ADD58ROUNDEDRECTD58*%
G04:AMPARAMS|DCode=59|XSize=0.8016mm|YSize=2.0016mm|CornerRadius=0.1383mm|HoleSize=0mm|Usage=FLASHONLY|Rotation=270.000|XOffset=0mm|YOffset=0mm|HoleType=Round|Shape=RoundedRectangle|*
%AMROUNDEDRECTD59*
21,1,0.8016,1.7250,0,0,270.0*
21,1,0.5250,2.0016,0,0,270.0*
1,1,0.2766,-0.8625,-0.2625*
1,1,0.2766,-0.8625,0.2625*
1,1,0.2766,0.8625,0.2625*
1,1,0.2766,0.8625,-0.2625*
%
%ADD59ROUNDEDRECTD59*%
G04:AMPARAMS|DCode=60|XSize=1.5016mm|YSize=2.7016mm|CornerRadius=0.2258mm|HoleSize=0mm|Usage=FLASHONLY|Rotation=270.000|XOffset=0mm|YOffset=0mm|HoleType=Round|Shape=RoundedRectangle|*
%AMROUNDEDRECTD60*
21,1,1.5016,2.2500,0,0,270.0*
21,1,1.0500,2.7016,0,0,270.0*
1,1,0.4516,-1.1250,-0.5250*
1,1,0.4516,-1.1250,0.5250*
1,1,0.4516,1.1250,0.5250*
1,1,0.4516,1.1250,-0.5250*
%
%ADD60ROUNDEDRECTD60*%
G04:AMPARAMS|DCode=61|XSize=1.7016mm|YSize=3.1016mm|CornerRadius=0.2508mm|HoleSize=0mm|Usage=FLASHONLY|Rotation=180.000|XOffset=0mm|YOffset=0mm|HoleType=Round|Shape=RoundedRectangle|*
%AMROUNDEDRECTD61*
21,1,1.7016,2.6000,0,0,180.0*
21,1,1.2000,3.1016,0,0,180.0*
1,1,0.5016,-0.6000,1.3000*
1,1,0.5016,0.6000,1.3000*
1,1,0.5016,0.6000,-1.3000*
1,1,0.5016,-0.6000,-1.3000*
%
%ADD61ROUNDEDRECTD61*%
G04:AMPARAMS|DCode=62|XSize=1.1016mm|YSize=5.6016mm|CornerRadius=0.1758mm|HoleSize=0mm|Usage=FLASHONLY|Rotation=180.000|XOffset=0mm|YOffset=0mm|HoleType=Round|Shape=RoundedRectangle|*
%AMROUNDEDRECTD62*
21,1,1.1016,5.2500,0,0,180.0*
21,1,0.7500,5.6016,0,0,180.0*
1,1,0.3516,-0.3750,2.6250*
1,1,0.3516,0.3750,2.6250*
1,1,0.3516,0.3750,-2.6250*
1,1,0.3516,-0.3750,-2.6250*
%
%ADD62ROUNDEDRECTD62*%
G04:AMPARAMS|DCode=63|XSize=1.1016mm|YSize=1.2016mm|CornerRadius=0.1758mm|HoleSize=0mm|Usage=FLASHONLY|Rotation=90.000|XOffset=0mm|YOffset=0mm|HoleType=Round|Shape=RoundedRectangle|*
%AMROUNDEDRECTD63*
21,1,1.1016,0.8500,0,0,90.0*
21,1,0.7500,1.2016,0,0,90.0*
1,1,0.3516,0.4250,0.3750*
1,1,0.3516,0.4250,-0.3750*
1,1,0.3516,-0.4250,-0.3750*
1,1,0.3516,-0.4250,0.3750*
%
%ADD63ROUNDEDRECTD63*%
G04:AMPARAMS|DCode=64|XSize=1.6016mm|YSize=3.5016mm|CornerRadius=0.2383mm|HoleSize=0mm|Usage=FLASHONLY|Rotation=180.000|XOffset=0mm|YOffset=0mm|HoleType=Round|Shape=RoundedRectangle|*
%AMROUNDEDRECTD64*
21,1,1.6016,3.0250,0,0,180.0*
21,1,1.1250,3.5016,0,0,180.0*
1,1,0.4766,-0.5625,1.5125*
1,1,0.4766,0.5625,1.5125*
1,1,0.4766,0.5625,-1.5125*
1,1,0.4766,-0.5625,-1.5125*
%
%ADD64ROUNDEDRECTD64*%
G04:AMPARAMS|DCode=65|XSize=1.1016mm|YSize=3.6016mm|CornerRadius=0.1758mm|HoleSize=0mm|Usage=FLASHONLY|Rotation=180.000|XOffset=0mm|YOffset=0mm|HoleType=Round|Shape=RoundedRectangle|*
%AMROUNDEDRECTD65*
21,1,1.1016,3.2500,0,0,180.0*
21,1,0.7500,3.6016,0,0,180.0*
1,1,0.3516,-0.3750,1.6250*
1,1,0.3516,0.3750,1.6250*
1,1,0.3516,0.3750,-1.6250*
1,1,0.3516,-0.3750,-1.6250*
%
%ADD65ROUNDEDRECTD65*%
%ADD66R,1.3000X0.8000*%
%ADD67R,0.8000X1.3000*%
%ADD68R,2.1000X2.1000*%
%ADD69C,2.5400*%
G04:AMPARAMS|DCode=70|XSize=1.6637mm|YSize=1.6637mm|CornerRadius=0.0499mm|HoleSize=0mm|Usage=FLASHONLY|Rotation=0.000|XOffset=0mm|YOffset=0mm|HoleType=Round|Shape=RoundedRectangle|*
%AMROUNDEDRECTD70*
21,1,1.6637,1.5639,0,0,0.0*
21,1,1.5639,1.6637,0,0,0.0*
1,1,0.0998,0.7819,-0.7819*
1,1,0.0998,-0.7819,-0.7819*
1,1,0.0998,-0.7819,0.7819*
1,1,0.0998,0.7819,0.7819*
%
%ADD70ROUNDEDRECTD70*%
%ADD71R,2.6016X1.4766*%
%ADD72R,1.8516X0.5016*%
G04:AMPARAMS|DCode=73|XSize=1.0922mm|YSize=1.1938mm|CornerRadius=0.2985mm|HoleSize=0mm|Usage=FLASHONLY|Rotation=180.000|XOffset=0mm|YOffset=0mm|HoleType=Round|Shape=RoundedRectangle|*
%AMROUNDEDRECTD73*
21,1,1.0922,0.5969,0,0,180.0*
21,1,0.4953,1.1938,0,0,180.0*
1,1,0.5969,-0.2477,0.2985*
1,1,0.5969,0.2477,0.2985*
1,1,0.5969,0.2477,-0.2985*
1,1,0.5969,-0.2477,-0.2985*
%
%ADD73ROUNDEDRECTD73*%
G04:AMPARAMS|DCode=74|XSize=0.8016mm|YSize=0.7016mm|CornerRadius=0.2008mm|HoleSize=0mm|Usage=FLASHONLY|Rotation=270.000|XOffset=0mm|YOffset=0mm|HoleType=Round|Shape=RoundedRectangle|*
%AMROUNDEDRECTD74*
21,1,0.8016,0.3000,0,0,270.0*
21,1,0.4000,0.7016,0,0,270.0*
1,1,0.4016,-0.1500,-0.2000*
1,1,0.4016,-0.1500,0.2000*
1,1,0.4016,0.1500,0.2000*
1,1,0.4016,0.1500,-0.2000*
%
%ADD74ROUNDEDRECTD74*%
G04:AMPARAMS|DCode=75|XSize=0.8016mm|YSize=1.1016mm|CornerRadius=0.2258mm|HoleSize=0mm|Usage=FLASHONLY|Rotation=270.000|XOffset=0mm|YOffset=0mm|HoleType=Round|Shape=RoundedRectangle|*
%AMROUNDEDRECTD75*
21,1,0.8016,0.6500,0,0,270.0*
21,1,0.3500,1.1016,0,0,270.0*
1,1,0.4516,-0.3250,-0.1750*
1,1,0.4516,-0.3250,0.1750*
1,1,0.4516,0.3250,0.1750*
1,1,0.4516,0.3250,-0.1750*
%
%ADD75ROUNDEDRECTD75*%
G04:AMPARAMS|DCode=76|XSize=1.1016mm|YSize=1.2016mm|CornerRadius=0.1758mm|HoleSize=0mm|Usage=FLASHONLY|Rotation=180.000|XOffset=0mm|YOffset=0mm|HoleType=Round|Shape=RoundedRectangle|*
%AMROUNDEDRECTD76*
21,1,1.1016,0.8500,0,0,180.0*
21,1,0.7500,1.2016,0,0,180.0*
1,1,0.3516,-0.3750,0.4250*
1,1,0.3516,0.3750,0.4250*
1,1,0.3516,0.3750,-0.4250*
1,1,0.3516,-0.3750,-0.4250*
%
%ADD76ROUNDEDRECTD76*%
%ADD77C,1.3716*%
G04:AMPARAMS|DCode=78|XSize=1.6016mm|YSize=1.4016mm|CornerRadius=0.2133mm|HoleSize=0mm|Usage=FLASHONLY|Rotation=90.000|XOffset=0mm|YOffset=0mm|HoleType=Round|Shape=RoundedRectangle|*
%AMROUNDEDRECTD78*
21,1,1.6016,0.9750,0,0,90.0*
21,1,1.1750,1.4016,0,0,90.0*
1,1,0.4266,0.4875,0.5875*
1,1,0.4266,0.4875,-0.5875*
1,1,0.4266,-0.4875,-0.5875*
1,1,0.4266,-0.4875,0.5875*
%
%ADD78ROUNDEDRECTD78*%
%ADD79R,0.7516X1.1516*%
G04:AMPARAMS|DCode=80|XSize=1.0016mm|YSize=0.9016mm|CornerRadius=0.1508mm|HoleSize=0mm|Usage=FLASHONLY|Rotation=180.000|XOffset=0mm|YOffset=0mm|HoleType=Round|Shape=RoundedRectangle|*
%AMROUNDEDRECTD80*
21,1,1.0016,0.6000,0,0,180.0*
21,1,0.7000,0.9016,0,0,180.0*
1,1,0.3016,-0.3500,0.3000*
1,1,0.3016,0.3500,0.3000*
1,1,0.3016,0.3500,-0.3000*
1,1,0.3016,-0.3500,-0.3000*
%
%ADD80ROUNDEDRECTD80*%
G04:AMPARAMS|DCode=81|XSize=0.65mm|YSize=0.25mm|CornerRadius=0.0625mm|HoleSize=0mm|Usage=FLASHONLY|Rotation=90.000|XOffset=0mm|YOffset=0mm|HoleType=Round|Shape=RoundedRectangle|*
%AMROUNDEDRECTD81*
21,1,0.6500,0.1250,0,0,90.0*
21,1,0.5250,0.2500,0,0,90.0*
1,1,0.1250,0.0625,0.2625*
1,1,0.1250,0.0625,-0.2625*
1,1,0.1250,-0.0625,-0.2625*
1,1,0.1250,-0.0625,0.2625*
%
%ADD81ROUNDEDRECTD81*%
G04:AMPARAMS|DCode=82|XSize=1.1016mm|YSize=5.6016mm|CornerRadius=0.1758mm|HoleSize=0mm|Usage=FLASHONLY|Rotation=90.000|XOffset=0mm|YOffset=0mm|HoleType=Round|Shape=RoundedRectangle|*
%AMROUNDEDRECTD82*
21,1,1.1016,5.2500,0,0,90.0*
21,1,0.7500,5.6016,0,0,90.0*
1,1,0.3516,2.6250,0.3750*
1,1,0.3516,2.6250,-0.3750*
1,1,0.3516,-2.6250,-0.3750*
1,1,0.3516,-2.6250,0.3750*
%
%ADD82ROUNDEDRECTD82*%
G04:AMPARAMS|DCode=83|XSize=1.7016mm|YSize=3.1016mm|CornerRadius=0.2508mm|HoleSize=0mm|Usage=FLASHONLY|Rotation=90.000|XOffset=0mm|YOffset=0mm|HoleType=Round|Shape=RoundedRectangle|*
%AMROUNDEDRECTD83*
21,1,1.7016,2.6000,0,0,90.0*
21,1,1.2000,3.1016,0,0,90.0*
1,1,0.5016,1.3000,0.6000*
1,1,0.5016,1.3000,-0.6000*
1,1,0.5016,-1.3000,-0.6000*
1,1,0.5016,-1.3000,0.6000*
%
%ADD83ROUNDEDRECTD83*%
G04:AMPARAMS|DCode=84|XSize=2.0016mm|YSize=1.3016mm|CornerRadius=0.2008mm|HoleSize=0mm|Usage=FLASHONLY|Rotation=90.000|XOffset=0mm|YOffset=0mm|HoleType=Round|Shape=RoundedRectangle|*
%AMROUNDEDRECTD84*
21,1,2.0016,0.9000,0,0,90.0*
21,1,1.6000,1.3016,0,0,90.0*
1,1,0.4016,0.4500,0.8000*
1,1,0.4016,0.4500,-0.8000*
1,1,0.4016,-0.4500,-0.8000*
1,1,0.4016,-0.4500,0.8000*
%
%ADD84ROUNDEDRECTD84*%
G04:AMPARAMS|DCode=85|XSize=0.9144mm|YSize=1.1176mm|CornerRadius=0.254mm|HoleSize=0mm|Usage=FLASHONLY|Rotation=270.000|XOffset=0mm|YOffset=0mm|HoleType=Round|Shape=RoundedRectangle|*
%AMROUNDEDRECTD85*
21,1,0.9144,0.6096,0,0,270.0*
21,1,0.4064,1.1176,0,0,270.0*
1,1,0.5080,-0.3048,-0.2032*
1,1,0.5080,-0.3048,0.2032*
1,1,0.5080,0.3048,0.2032*
1,1,0.5080,0.3048,-0.2032*
%
%ADD85ROUNDEDRECTD85*%
G04:AMPARAMS|DCode=86|XSize=0.9144mm|YSize=1.1176mm|CornerRadius=0.254mm|HoleSize=0mm|Usage=FLASHONLY|Rotation=0.000|XOffset=0mm|YOffset=0mm|HoleType=Round|Shape=RoundedRectangle|*
%AMROUNDEDRECTD86*
21,1,0.9144,0.6096,0,0,0.0*
21,1,0.4064,1.1176,0,0,0.0*
1,1,0.5080,0.2032,-0.3048*
1,1,0.5080,-0.2032,-0.3048*
1,1,0.5080,-0.2032,0.3048*
1,1,0.5080,0.2032,0.3048*
%
%ADD86ROUNDEDRECTD86*%
G04:AMPARAMS|DCode=87|XSize=1.6016mm|YSize=1.4016mm|CornerRadius=0.2133mm|HoleSize=0mm|Usage=FLASHONLY|Rotation=180.000|XOffset=0mm|YOffset=0mm|HoleType=Round|Shape=RoundedRectangle|*
%AMROUNDEDRECTD87*
21,1,1.6016,0.9750,0,0,180.0*
21,1,1.1750,1.4016,0,0,180.0*
1,1,0.4266,-0.5875,0.4875*
1,1,0.4266,0.5875,0.4875*
1,1,0.4266,0.5875,-0.4875*
1,1,0.4266,-0.5875,-0.4875*
%
%ADD87ROUNDEDRECTD87*%
G04:AMPARAMS|DCode=88|XSize=1.1116mm|YSize=1.5716mm|CornerRadius=0.1771mm|HoleSize=0mm|Usage=FLASHONLY|Rotation=90.000|XOffset=0mm|YOffset=0mm|HoleType=Round|Shape=RoundedRectangle|*
%AMROUNDEDRECTD88*
21,1,1.1116,1.2175,0,0,90.0*
21,1,0.7575,1.5716,0,0,90.0*
1,1,0.3541,0.6088,0.3787*
1,1,0.3541,0.6088,-0.3787*
1,1,0.3541,-0.6088,-0.3787*
1,1,0.3541,-0.6088,0.3787*
%
%ADD88ROUNDEDRECTD88*%
G04:AMPARAMS|DCode=89|XSize=1.6016mm|YSize=1.4016mm|CornerRadius=0.3758mm|HoleSize=0mm|Usage=FLASHONLY|Rotation=90.000|XOffset=0mm|YOffset=0mm|HoleType=Round|Shape=RoundedRectangle|*
%AMROUNDEDRECTD89*
21,1,1.6016,0.6500,0,0,90.0*
21,1,0.8500,1.4016,0,0,90.0*
1,1,0.7516,0.3250,0.4250*
1,1,0.7516,0.3250,-0.4250*
1,1,0.7516,-0.3250,-0.4250*
1,1,0.7516,-0.3250,0.4250*
%
%ADD89ROUNDEDRECTD89*%
G04:AMPARAMS|DCode=90|XSize=0.8415mm|YSize=2.8915mm|CornerRadius=0.2358mm|HoleSize=0mm|Usage=FLASHONLY|Rotation=270.000|XOffset=0mm|YOffset=0mm|HoleType=Round|Shape=RoundedRectangle|*
%AMROUNDEDRECTD90*
21,1,0.8415,2.4200,0,0,270.0*
21,1,0.3700,2.8915,0,0,270.0*
1,1,0.4716,-1.2100,-0.1850*
1,1,0.4716,-1.2100,0.1850*
1,1,0.4716,1.2100,0.1850*
1,1,0.4716,1.2100,-0.1850*
%
%ADD90ROUNDEDRECTD90*%
G04:AMPARAMS|DCode=91|XSize=2.3016mm|YSize=2.8016mm|CornerRadius=0.3258mm|HoleSize=0mm|Usage=FLASHONLY|Rotation=90.000|XOffset=0mm|YOffset=0mm|HoleType=Round|Shape=RoundedRectangle|*
%AMROUNDEDRECTD91*
21,1,2.3016,2.1500,0,0,90.0*
21,1,1.6500,2.8016,0,0,90.0*
1,1,0.6516,1.0750,0.8250*
1,1,0.6516,1.0750,-0.8250*
1,1,0.6516,-1.0750,-0.8250*
1,1,0.6516,-1.0750,0.8250*
%
%ADD91ROUNDEDRECTD91*%
G04:AMPARAMS|DCode=92|XSize=1.0922mm|YSize=1.1938mm|CornerRadius=0.2985mm|HoleSize=0mm|Usage=FLASHONLY|Rotation=90.000|XOffset=0mm|YOffset=0mm|HoleType=Round|Shape=RoundedRectangle|*
%AMROUNDEDRECTD92*
21,1,1.0922,0.5969,0,0,90.0*
21,1,0.4953,1.1938,0,0,90.0*
1,1,0.5969,0.2985,0.2477*
1,1,0.5969,0.2985,-0.2477*
1,1,0.5969,-0.2985,-0.2477*
1,1,0.5969,-0.2985,0.2477*
%
%ADD92ROUNDEDRECTD92*%
G04:AMPARAMS|DCode=93|XSize=0.3516mm|YSize=0.6016mm|CornerRadius=0.1008mm|HoleSize=0mm|Usage=FLASHONLY|Rotation=180.000|XOffset=0mm|YOffset=0mm|HoleType=Round|Shape=RoundedRectangle|*
%AMROUNDEDRECTD93*
21,1,0.3516,0.4000,0,0,180.0*
21,1,0.1500,0.6016,0,0,180.0*
1,1,0.2016,-0.0750,0.2000*
1,1,0.2016,0.0750,0.2000*
1,1,0.2016,0.0750,-0.2000*
1,1,0.2016,-0.0750,-0.2000*
%
%ADD93ROUNDEDRECTD93*%
G04:AMPARAMS|DCode=94|XSize=1.0016mm|YSize=1.7016mm|CornerRadius=0.1003mm|HoleSize=0mm|Usage=FLASHONLY|Rotation=90.000|XOffset=0mm|YOffset=0mm|HoleType=Round|Shape=RoundedRectangle|*
%AMROUNDEDRECTD94*
21,1,1.0016,1.5010,0,0,90.0*
21,1,0.8010,1.7016,0,0,90.0*
1,1,0.2006,0.7505,0.4005*
1,1,0.2006,0.7505,-0.4005*
1,1,0.2006,-0.7505,-0.4005*
1,1,0.2006,-0.7505,0.4005*
%
%ADD94ROUNDEDRECTD94*%
%ADD95R,1.1516X0.7516*%
%ADD96C,1.0016*%
%ADD97O,1.0016X1.8016*%
%ADD98O,1.5616X1.1016*%
%ADD99O,1.9016X1.1016*%
%ADD100C,3.7016*%
%ADD101C,0.8636*%
%ADD102C,0.6016*%
%ADD103C,0.5000*%
%ADD104C,0.6400*%
G36*
X215676Y585519D02*
Y579423D01*
X201389D01*
Y591615D01*
X215676D01*
Y585519D01*
D02*
G37*
G36*
X258131Y575041D02*
Y570405D01*
X245939D01*
Y575041D01*
Y584693D01*
X258131D01*
Y575041D01*
D02*
G37*
G36*
X247245Y540098D02*
Y530447D01*
X235053D01*
Y540098D01*
Y544734D01*
X247245D01*
Y540098D01*
D02*
G37*
G36*
X22255Y493973D02*
Y489337D01*
X10063D01*
Y493973D01*
Y503625D01*
X22255D01*
Y493973D01*
D02*
G37*
G36*
X45348Y482267D02*
Y477632D01*
X33156D01*
Y482267D01*
Y491920D01*
X45348D01*
Y482267D01*
D02*
G37*
G36*
X59658Y450276D02*
Y440624D01*
X47466D01*
Y450276D01*
Y454911D01*
X59658D01*
Y450276D01*
D02*
G37*
G36*
X96109Y428325D02*
Y422229D01*
X81821D01*
Y434421D01*
X96109D01*
Y428325D01*
D02*
G37*
G36*
X39751Y429716D02*
X40011Y429696D01*
X40271Y429666D01*
X40531Y429616D01*
X40781Y429556D01*
X41041Y429486D01*
X41281Y429396D01*
X41521Y429296D01*
X41761Y429186D01*
X41991Y429056D01*
X42211Y428916D01*
X42431Y428776D01*
X42641Y428616D01*
X42841Y428446D01*
X43031Y428266D01*
X43211Y428076D01*
X43381Y427876D01*
X43541Y427666D01*
X43681Y427446D01*
X43821Y427226D01*
X43951Y426996D01*
X44061Y426756D01*
X44161Y426516D01*
X44251Y426276D01*
X44321Y426016D01*
X44381Y425766D01*
X44431Y425506D01*
X44461Y425246D01*
X44481Y424986D01*
X44491Y424726D01*
Y421226D01*
X54437D01*
Y400976D01*
X39491D01*
Y404976D01*
X39481Y405316D01*
X39451Y405656D01*
X39411Y405996D01*
X39351Y406326D01*
X39271Y406656D01*
X39171Y406986D01*
X39061Y407306D01*
X38931Y407616D01*
X38781Y407926D01*
X38621Y408226D01*
X38441Y408516D01*
X38251Y408796D01*
X38041Y409066D01*
X37821Y409326D01*
X37591Y409576D01*
X37341Y409806D01*
X37081Y410026D01*
X36811Y410236D01*
X36531Y410426D01*
X36241Y410606D01*
X35941Y410766D01*
X35631Y410916D01*
X35321Y411046D01*
X35001Y411156D01*
X34671Y411256D01*
X34341Y411336D01*
X34011Y411396D01*
X33671Y411436D01*
X33331Y411466D01*
X32991Y411476D01*
X21491D01*
Y424726D01*
X21501Y424986D01*
X21521Y425246D01*
X21551Y425506D01*
X21601Y425766D01*
X21661Y426016D01*
X21731Y426276D01*
X21821Y426516D01*
X21921Y426756D01*
X22031Y426996D01*
X22161Y427226D01*
X22301Y427446D01*
X22441Y427666D01*
X22601Y427876D01*
X22771Y428076D01*
X22951Y428266D01*
X23141Y428446D01*
X23341Y428616D01*
X23551Y428776D01*
X23771Y428916D01*
X23991Y429056D01*
X24221Y429186D01*
X24461Y429296D01*
X24701Y429396D01*
X24941Y429486D01*
X25201Y429556D01*
X25451Y429616D01*
X25711Y429666D01*
X25971Y429696D01*
X26231Y429716D01*
X26491Y429726D01*
X39491D01*
X39751Y429716D01*
D02*
G37*
G36*
X72091Y399226D02*
X55491D01*
Y421226D01*
X72091D01*
Y399226D01*
D02*
G37*
G36*
X227236Y403143D02*
Y393491D01*
X215044D01*
Y403143D01*
Y407778D01*
X227236D01*
Y403143D01*
D02*
G37*
G36*
X205329Y390628D02*
X185429D01*
X180329Y395728D01*
Y407628D01*
X205329D01*
Y390628D01*
D02*
G37*
G36*
X548771Y386346D02*
Y381711D01*
X536579D01*
Y386346D01*
Y395998D01*
X548771D01*
Y386346D01*
D02*
G37*
G36*
X72091Y341226D02*
X55491D01*
Y363226D01*
X72091D01*
Y341226D01*
D02*
G37*
G36*
X54282D02*
X44491D01*
Y337726D01*
X44481Y337466D01*
X44461Y337206D01*
X44431Y336946D01*
X44381Y336686D01*
X44321Y336436D01*
X44251Y336176D01*
X44161Y335936D01*
X44061Y335696D01*
X43951Y335456D01*
X43821Y335226D01*
X43681Y335006D01*
X43541Y334786D01*
X43381Y334576D01*
X43211Y334376D01*
X43031Y334186D01*
X42841Y334006D01*
X42641Y333836D01*
X42431Y333676D01*
X42211Y333536D01*
X41991Y333396D01*
X41761Y333266D01*
X41521Y333156D01*
X41281Y333056D01*
X41041Y332966D01*
X40781Y332896D01*
X40531Y332836D01*
X40271Y332786D01*
X40011Y332756D01*
X39751Y332736D01*
X39491Y332726D01*
X26491D01*
X26231Y332736D01*
X25971Y332756D01*
X25711Y332786D01*
X25451Y332836D01*
X25201Y332896D01*
X24941Y332966D01*
X24701Y333056D01*
X24461Y333156D01*
X24221Y333266D01*
X23991Y333396D01*
X23771Y333536D01*
X23551Y333676D01*
X23341Y333836D01*
X23141Y334006D01*
X22951Y334186D01*
X22771Y334376D01*
X22601Y334576D01*
X22441Y334786D01*
X22301Y335006D01*
X22161Y335226D01*
X22031Y335456D01*
X21921Y335696D01*
X21821Y335936D01*
X21731Y336176D01*
X21661Y336436D01*
X21601Y336686D01*
X21551Y336946D01*
X21521Y337206D01*
X21501Y337466D01*
X21491Y337726D01*
Y350976D01*
X32991D01*
X33331Y350986D01*
X33671Y351016D01*
X34011Y351056D01*
X34341Y351116D01*
X34671Y351196D01*
X35001Y351296D01*
X35321Y351406D01*
X35631Y351536D01*
X35941Y351686D01*
X36241Y351846D01*
X36531Y352026D01*
X36811Y352216D01*
X37081Y352426D01*
X37341Y352646D01*
X37591Y352876D01*
X37821Y353126D01*
X38041Y353386D01*
X38251Y353656D01*
X38441Y353936D01*
X38621Y354226D01*
X38781Y354526D01*
X38931Y354836D01*
X39061Y355146D01*
X39171Y355466D01*
X39271Y355796D01*
X39351Y356126D01*
X39411Y356456D01*
X39451Y356796D01*
X39481Y357136D01*
X39491Y357476D01*
Y361476D01*
X54282D01*
Y341226D01*
D02*
G37*
G36*
X282927Y332478D02*
X268639D01*
Y338574D01*
Y344670D01*
X282927D01*
Y332478D01*
D02*
G37*
G36*
X592836Y296507D02*
Y291872D01*
X580644D01*
Y296507D01*
Y306159D01*
X592836D01*
Y296507D01*
D02*
G37*
G36*
X543691Y233584D02*
Y228948D01*
X531499D01*
Y233584D01*
Y243235D01*
X543691D01*
Y233584D01*
D02*
G37*
G36*
X249380Y170612D02*
X235093D01*
Y176708D01*
Y182804D01*
X249380D01*
Y170612D01*
D02*
G37*
G36*
X252134Y139954D02*
X237847D01*
Y146050D01*
Y152146D01*
X252134D01*
Y139954D01*
D02*
G37*
G36*
X521263Y116186D02*
X506976D01*
Y122282D01*
Y128378D01*
X521263D01*
Y116186D01*
D02*
G37*
G36*
X450974D02*
X436687D01*
Y122282D01*
Y128378D01*
X450974D01*
Y116186D01*
D02*
G37*
G36*
X195781Y55399D02*
X195805Y55301D01*
X195830Y55082D01*
X195878Y54961D01*
X195927Y54669D01*
X195866Y54608D01*
X195769Y54583D01*
X195720Y54608D01*
X195659Y54669D01*
X195635Y54717D01*
X195586Y54766D01*
X195525Y54875D01*
X195477Y54900D01*
X195404Y54973D01*
X195233Y55046D01*
X195136Y55070D01*
X194942Y55046D01*
X194722Y54924D01*
X194637Y54839D01*
X194613Y54669D01*
X194674Y54510D01*
X194722Y54486D01*
X194771Y54413D01*
X194869Y54389D01*
X195039Y54316D01*
X195136Y54291D01*
X195392Y54255D01*
X195489Y54231D01*
X195696Y54170D01*
X195830Y54133D01*
X195939Y54072D01*
X196110Y53975D01*
X196243Y53841D01*
X196329Y53610D01*
X196353Y53513D01*
X196365Y53379D01*
X196292Y53209D01*
X196243Y53087D01*
X196207Y53026D01*
X196170Y53014D01*
X196146Y52965D01*
X196061Y52880D01*
X196012Y52856D01*
X195866Y52758D01*
X195769Y52734D01*
X195599Y52661D01*
X195355Y52637D01*
X194954Y52649D01*
X194905Y52600D01*
X194881Y52552D01*
X194747Y52515D01*
X194650Y52539D01*
X194613Y52673D01*
X194589Y52819D01*
X194540Y52941D01*
X194516Y53111D01*
X194491Y53306D01*
X194528Y53342D01*
X194625Y53367D01*
X194722Y53342D01*
X194808Y53209D01*
X194917Y53075D01*
X194990Y53002D01*
X195148Y52941D01*
X195258Y52904D01*
X195550Y52929D01*
X195769Y53050D01*
X195805Y53111D01*
X195818Y53123D01*
X195878Y53233D01*
X195854Y53403D01*
X195744Y53537D01*
X195696Y53586D01*
X195574Y53610D01*
X195452Y53659D01*
X195355Y53683D01*
X195051Y53720D01*
X194954Y53744D01*
X194795Y53805D01*
X194662Y53841D01*
X194479Y53951D01*
X194431Y53975D01*
X194297Y54109D01*
X194175Y54377D01*
X194151Y54644D01*
X194175Y54717D01*
X194199Y54839D01*
X194248Y54888D01*
X194321Y55009D01*
X194431Y55119D01*
X194479Y55143D01*
X194528Y55192D01*
X194759Y55277D01*
X194893Y55313D01*
X195209Y55338D01*
X195380Y55313D01*
X195477Y55338D01*
X195550Y55435D01*
X195708Y55447D01*
X195781Y55399D01*
D02*
G37*
G36*
X190854Y53999D02*
X190890Y53963D01*
X190914Y53817D01*
X190963Y53768D01*
X191012Y53647D01*
X191036Y53549D01*
X191133Y53330D01*
X191121Y53245D01*
X191000Y53196D01*
X190902Y53221D01*
X190781Y53367D01*
X190707Y53440D01*
X190464Y53537D01*
X190367Y53561D01*
X190209Y53525D01*
X189977Y53415D01*
X189917Y53330D01*
X189868Y53282D01*
X189844Y53184D01*
X189868Y53014D01*
X190002Y52880D01*
X190160Y52819D01*
X190282Y52795D01*
X190854Y52783D01*
X190878D01*
X191121Y52758D01*
X191340Y52710D01*
X191389Y52661D01*
X191486Y52637D01*
X191571Y52576D01*
X191596Y52527D01*
X191693Y52430D01*
X191754Y52272D01*
X191790Y52162D01*
X191815Y52016D01*
X191790Y51943D01*
X191766Y51846D01*
X191644Y51627D01*
X191596Y51578D01*
X191571Y51530D01*
X191535Y51493D01*
X191486Y51469D01*
X191389Y51371D01*
X191292Y51347D01*
X191243Y51298D01*
X191194Y51274D01*
X191121Y51250D01*
X191024Y51225D01*
X190854Y51177D01*
X190756Y51152D01*
X190562Y51128D01*
X190488Y51006D01*
X190367Y50958D01*
X190294Y50982D01*
X190233Y51043D01*
X190184Y51165D01*
X190160Y51262D01*
X190111Y51311D01*
X190087Y51408D01*
X190038Y51530D01*
X189990Y51578D01*
X189965Y51676D01*
X190099Y51809D01*
X190196Y51785D01*
X190221Y51736D01*
X190270Y51712D01*
X190306Y51676D01*
X190330Y51627D01*
X190367Y51590D01*
X190488Y51517D01*
X190610Y51469D01*
X191048Y51493D01*
X191121Y51566D01*
X191243Y51639D01*
X191352Y51797D01*
X191328Y52016D01*
X191255Y52089D01*
X191231Y52138D01*
X191121Y52174D01*
X191024Y52199D01*
X190221Y52223D01*
X190148Y52247D01*
X189990Y52284D01*
X189868Y52308D01*
X189722Y52406D01*
X189637Y52466D01*
X189600Y52503D01*
X189576Y52552D01*
X189503Y52625D01*
X189479Y52722D01*
X189406Y52892D01*
X189430Y53184D01*
X189576Y53452D01*
X189685Y53561D01*
X189734Y53586D01*
X189880Y53683D01*
X190196Y53805D01*
X190537Y53829D01*
X190598Y53866D01*
X190671Y53987D01*
X190707Y54024D01*
X190854Y53999D01*
D02*
G37*
G36*
X204079Y55764D02*
X204103Y55666D01*
X204188Y55435D01*
X204212Y55289D01*
X204237Y55167D01*
X204285Y55046D01*
X204322Y54912D01*
X204358Y54705D01*
X204419Y54547D01*
X204444Y54450D01*
X204480Y54267D01*
X204529Y54145D01*
X204553Y54024D01*
X204577Y53878D01*
X204626Y53756D01*
X204663Y53622D01*
X204687Y53452D01*
X204711Y53330D01*
X204748Y53294D01*
X204869Y53245D01*
X204906Y53209D01*
X204882Y53014D01*
X204529Y53002D01*
X204456Y53026D01*
X204212Y53050D01*
X204139Y53075D01*
X203969Y53099D01*
X203908Y53136D01*
X203884Y53209D01*
X203945Y53318D01*
X204066Y53367D01*
X204103Y53476D01*
X204079Y53768D01*
X204042Y53829D01*
X203920Y53878D01*
X203385Y53926D01*
X203239Y53902D01*
X203178Y53841D01*
X203154Y53744D01*
X203081Y53622D01*
X203044Y53537D01*
X203093Y53464D01*
X203239Y53440D01*
X203276Y53403D01*
X203251Y53257D01*
X203215Y53196D01*
X202643Y53233D01*
X202497Y53257D01*
X202448Y53306D01*
X202473Y53452D01*
X202558Y53537D01*
X202692Y53598D01*
X202716Y53647D01*
X202789Y53720D01*
X202850Y53853D01*
X202862Y53866D01*
X203543Y55253D01*
X203592Y55301D01*
X203665Y55496D01*
X203714Y55545D01*
X203774Y55703D01*
X203823Y55776D01*
X203993Y55800D01*
X204079Y55764D01*
D02*
G37*
G36*
X208446Y54851D02*
X208665Y54754D01*
X208848Y54717D01*
X208982Y54656D01*
X209176Y54608D01*
X209213Y54571D01*
X209189Y54425D01*
X209079Y54389D01*
X208982Y54364D01*
X208933Y54340D01*
X208872Y54279D01*
X208775Y54060D01*
X208738Y53878D01*
X208678Y53744D01*
X208653Y53647D01*
X208617Y53488D01*
X208556Y53355D01*
X208532Y53257D01*
X208495Y53099D01*
X208434Y52965D01*
X208386Y52746D01*
X208288Y52527D01*
X208313Y52430D01*
X208446Y52393D01*
X208544Y52369D01*
X208714Y52296D01*
X209079Y52320D01*
X209152Y52393D01*
X209201Y52418D01*
X209237Y52454D01*
X209310Y52576D01*
X209395Y52734D01*
X209493Y52710D01*
X209554Y52673D01*
X209578Y52576D01*
X209554Y52454D01*
X209481Y52284D01*
X209456Y52187D01*
X209359Y51943D01*
X209335Y51870D01*
X209298Y51834D01*
X209152Y51858D01*
X208982Y51931D01*
X208824Y51968D01*
X208702Y52016D01*
X208592Y52053D01*
X208434Y52089D01*
X208349Y52126D01*
X208227Y52174D01*
X208045Y52211D01*
X207911Y52272D01*
X207656Y52333D01*
X207461Y52430D01*
X207449Y52491D01*
X207498Y52612D01*
X207570Y52637D01*
X207717Y52661D01*
X207789Y52734D01*
X207802Y52746D01*
X207850Y52917D01*
X207923Y53087D01*
X207948Y53184D01*
X207984Y53342D01*
X208045Y53476D01*
X208069Y53574D01*
X208094Y53695D01*
X208167Y53866D01*
X208215Y54085D01*
X208288Y54255D01*
X208361Y54523D01*
X208276Y54608D01*
X208179Y54632D01*
X208142Y54742D01*
X208227Y54875D01*
X208446Y54851D01*
D02*
G37*
G36*
X213921Y52685D02*
X214031Y52625D01*
X214055Y52527D01*
X213994Y51907D01*
X213970Y51761D01*
X213946Y51639D01*
X213909Y51311D01*
X213873Y50933D01*
X213848Y50787D01*
X213824Y50666D01*
X213800Y50471D01*
X213775Y50252D01*
X213751Y50155D01*
X213739Y50143D01*
X213812Y50021D01*
X213885Y49948D01*
X213861Y49851D01*
X213812Y49802D01*
X213788Y49753D01*
X213678Y49741D01*
X213581Y49838D01*
X213483Y49863D01*
X213337Y49960D01*
X213264Y49984D01*
X213118Y50082D01*
X213021Y50106D01*
X212960Y50167D01*
X212936Y50264D01*
X212985Y50362D01*
X212997Y50374D01*
X213070Y50398D01*
X213191Y50422D01*
X213252Y50483D01*
X213301Y50654D01*
X213313Y50812D01*
X213264Y50885D01*
X213143Y50933D01*
X213094Y50982D01*
X212936Y51043D01*
X212778Y51128D01*
X212607Y51201D01*
X212388Y51031D01*
X212303Y50970D01*
X212279Y50897D01*
X212340Y50812D01*
X212388Y50787D01*
X212425Y50702D01*
X212315Y50544D01*
X212169Y50568D01*
X212096Y50641D01*
X211938Y50702D01*
X211877Y50763D01*
X211780Y50787D01*
X211671Y50873D01*
X211646Y50970D01*
X211707Y51079D01*
X211804Y51104D01*
X212023Y51128D01*
X212072Y51177D01*
X212121Y51201D01*
X212194Y51274D01*
X212242Y51298D01*
X212413Y51469D01*
X212461Y51493D01*
X212680Y51712D01*
X212729Y51736D01*
X212924Y51931D01*
X212972Y51955D01*
X213070Y52053D01*
X213118Y52077D01*
X213240Y52199D01*
X213289Y52223D01*
X213483Y52418D01*
X213532Y52442D01*
X213727Y52637D01*
X213775Y52661D01*
X213824Y52710D01*
X213921Y52685D01*
D02*
G37*
G36*
X186437Y51773D02*
X186486Y51651D01*
X186461Y51554D01*
X186388Y51432D01*
X186413Y51311D01*
X186510Y51140D01*
X186559Y51092D01*
X186656Y50921D01*
X186826Y50654D01*
X186851Y50605D01*
X186899Y50556D01*
X186997Y50386D01*
X187155Y50155D01*
X187191Y50070D01*
X187264Y49997D01*
X187289Y49899D01*
X187362Y49826D01*
X187386Y49778D01*
X187447Y49717D01*
X187581Y49826D01*
X187642Y49838D01*
X187727Y49778D01*
X187775Y49656D01*
X187666Y49522D01*
X187544Y49449D01*
X187398Y49352D01*
X187349Y49327D01*
X187301Y49279D01*
X187131Y49181D01*
X186985Y49084D01*
X186863Y49108D01*
X186802Y49169D01*
X186826Y49291D01*
X186899Y49364D01*
X186924Y49486D01*
X186826Y49632D01*
X186729Y49802D01*
X186559Y50070D01*
X186534Y50118D01*
X186461Y50191D01*
X186437Y50264D01*
X186388Y50313D01*
X186364Y50362D01*
X186242Y50532D01*
Y50556D01*
X186072Y50824D01*
X186048Y50873D01*
X185999Y50921D01*
X185902Y51092D01*
X185816Y51128D01*
X185719Y51031D01*
X185622Y51055D01*
X185537Y51140D01*
X185525Y51201D01*
X185646Y51347D01*
X185768Y51420D01*
X185938Y51517D01*
X185987Y51566D01*
X186157Y51663D01*
X186206Y51712D01*
X186279Y51736D01*
X186401Y51785D01*
X186437Y51773D01*
D02*
G37*
G36*
X217669Y50179D02*
X217742Y50106D01*
X217790Y50082D01*
X217876Y50021D01*
X217888Y49984D01*
X217936Y49960D01*
X218034Y49863D01*
X218082Y49838D01*
X218180Y49741D01*
X218228Y49717D01*
X218362Y49607D01*
X218447Y49546D01*
X218703Y49291D01*
X218727Y49242D01*
X218800Y49169D01*
X218825Y49072D01*
X218898Y48950D01*
X218922Y48853D01*
X218898Y48561D01*
X218752Y48318D01*
X218618Y48184D01*
X218569Y48159D01*
X218520Y48111D01*
X218423Y48086D01*
X218131Y48038D01*
X218034Y48062D01*
X217876Y48099D01*
X217839Y48111D01*
X217778Y48074D01*
X217790Y47843D01*
X217766Y47551D01*
X217754Y47101D01*
X217827Y46979D01*
X217803Y46882D01*
X217742Y46797D01*
X217596Y46821D01*
X217559Y46858D01*
X217547Y46894D01*
X217498Y46918D01*
X217413Y46979D01*
X217401Y47016D01*
X217352Y47040D01*
X217243Y47150D01*
X217194Y47271D01*
X217219Y47369D01*
X217243Y47612D01*
X217267Y47685D01*
X217292Y47928D01*
X217316Y48318D01*
X217292Y48415D01*
X217255Y48451D01*
X217133Y48427D01*
X217109Y48403D01*
X217097Y48391D01*
X217048Y48342D01*
X217024Y48293D01*
X216927Y48196D01*
X216902Y48147D01*
X216781Y48026D01*
X216756Y47977D01*
X216732Y47904D01*
X216768Y47867D01*
X216890Y47794D01*
X216927Y47709D01*
X216890Y47648D01*
X216854Y47636D01*
X216829Y47588D01*
X216793Y47551D01*
X216720Y47575D01*
X216586Y47685D01*
X216549Y47721D01*
X216501Y47746D01*
X216403Y47843D01*
X216355Y47867D01*
X216257Y47965D01*
X216209Y47989D01*
X216148Y48026D01*
X216124Y48074D01*
X216038Y48135D01*
X215953Y48220D01*
X215978Y48318D01*
X216063Y48403D01*
X216136Y48378D01*
X216257Y48330D01*
X216379Y48403D01*
X216586Y48610D01*
X216610Y48658D01*
X216708Y48756D01*
X216732Y48804D01*
X216829Y48902D01*
X216854Y48950D01*
X216927Y49023D01*
X216951Y49072D01*
X217048Y49169D01*
X217073Y49218D01*
X217170Y49315D01*
X217194Y49364D01*
X217292Y49461D01*
X217316Y49510D01*
X217413Y49607D01*
X217438Y49656D01*
X217559Y49778D01*
X217535Y49924D01*
X217498Y49960D01*
X217450Y49984D01*
X217438Y50070D01*
X217535Y50167D01*
X217547Y50203D01*
X217669Y50179D01*
D02*
G37*
G36*
X182386Y48670D02*
X182422Y48634D01*
X182446Y48537D01*
X182422Y48488D01*
X182373Y48366D01*
X182398Y48269D01*
X182471Y48196D01*
X182495Y48147D01*
X182617Y48026D01*
X182641Y47977D01*
X182690Y47953D01*
X182714Y47904D01*
X182933Y47685D01*
X182957Y47636D01*
X183176Y47417D01*
X183201Y47369D01*
X183420Y47150D01*
X183444Y47101D01*
X183566Y46979D01*
X183578Y46943D01*
X183626Y46918D01*
X183675Y46870D01*
X183773Y46894D01*
X184125Y47247D01*
X184198Y47417D01*
X184174Y47636D01*
X184065Y47843D01*
X184028Y47855D01*
X184004Y47928D01*
X184113Y48062D01*
X184186Y48086D01*
X184271Y48001D01*
X184284Y47965D01*
X184332Y47940D01*
X184393Y47855D01*
X184466Y47782D01*
X184490Y47734D01*
X184588Y47636D01*
X184612Y47588D01*
X184709Y47490D01*
X184722Y47429D01*
X184661Y47344D01*
X184478Y47162D01*
X184429Y47137D01*
X184210Y46918D01*
X184162Y46894D01*
X183943Y46675D01*
X183894Y46651D01*
X183846Y46578D01*
X183797Y46554D01*
X183578Y46334D01*
X183529Y46310D01*
X183480Y46237D01*
X183432Y46213D01*
X183335Y46115D01*
X183237Y46140D01*
X183176Y46201D01*
X183201Y46395D01*
X183225Y46468D01*
X183164Y46626D01*
X183055Y46736D01*
X183030Y46785D01*
X182957Y46833D01*
X182933Y46882D01*
X182714Y47101D01*
X182690Y47150D01*
X182617Y47198D01*
X182592Y47247D01*
X182373Y47466D01*
X182349Y47515D01*
X182130Y47734D01*
X182106Y47782D01*
X182008Y47880D01*
X181984Y47928D01*
X181899Y47965D01*
X181814Y47904D01*
X181801Y47867D01*
X181704Y47843D01*
X181656Y47867D01*
X181570Y47953D01*
X181546Y48026D01*
X181583Y48086D01*
X181631Y48111D01*
X181728Y48208D01*
X181777Y48232D01*
X181814Y48269D01*
X181826Y48305D01*
X181850D01*
X181862Y48318D01*
X182094Y48549D01*
X182142Y48573D01*
X182264Y48695D01*
X182386Y48670D01*
D02*
G37*
G36*
X202704Y46213D02*
X202874Y46140D01*
X203069Y46091D01*
X203203Y46055D01*
X203409Y45994D01*
X203568Y45957D01*
X203701Y45921D01*
X203896Y45872D01*
X204152Y45811D01*
X204249Y45787D01*
X204383Y45750D01*
X204541Y45714D01*
X204699Y45653D01*
X204955Y45592D01*
X205113Y45531D01*
X205283Y45507D01*
X205526Y45434D01*
X205916Y45337D01*
X206086Y45288D01*
X206244Y45252D01*
X206451Y45191D01*
X206707Y45130D01*
X206828Y45081D01*
X206926Y45057D01*
X207047Y45008D01*
X207084Y44972D01*
X207132Y44947D01*
X207242Y44862D01*
X207266Y44814D01*
X207315Y44765D01*
X207364Y44643D01*
X207339Y44278D01*
X207266Y44205D01*
X207242Y44157D01*
X207157Y44071D01*
X207108Y44047D01*
X206938Y43974D01*
X206840Y43950D01*
X206780Y43938D01*
X206585Y43986D01*
X206463Y44011D01*
X206366Y44035D01*
X206086Y44120D01*
X205904Y44157D01*
X205770Y44193D01*
X205575Y44242D01*
X205417Y44278D01*
X205283Y44315D01*
X205113Y44363D01*
X205015Y44339D01*
X204979Y44303D01*
X204942Y44169D01*
X204869Y43877D01*
X204809Y43670D01*
X204760Y43451D01*
X204736Y43378D01*
X204760Y43281D01*
X204821Y43220D01*
X204955Y43183D01*
X205052Y43159D01*
X205210Y43098D01*
X205344Y43062D01*
X205502Y43001D01*
X205745Y42903D01*
X205916Y42830D01*
X206427Y42587D01*
X206987Y42295D01*
X207327Y42100D01*
X207473Y42003D01*
X207644Y41906D01*
X207814Y41784D01*
X207935Y41711D01*
X207984Y41663D01*
X208106Y41589D01*
X208276Y41468D01*
X208325Y41444D01*
X208459Y41334D01*
X208544Y41273D01*
X208592Y41224D01*
X208641Y41200D01*
X208690Y41151D01*
X208738Y41127D01*
X208884Y40981D01*
X209006Y40908D01*
X209055Y40859D01*
X209103Y40835D01*
X209517Y40422D01*
X209566Y40397D01*
X209639Y40324D01*
X209687Y40300D01*
X209846Y40142D01*
X209870Y40093D01*
X210089Y39874D01*
X210101Y39838D01*
X210150Y39813D01*
X210211Y39728D01*
X210381Y39558D01*
X210405Y39509D01*
X210503Y39412D01*
X210527Y39363D01*
X210649Y39241D01*
X210673Y39193D01*
X210746Y39120D01*
X210770Y39071D01*
X210843Y38998D01*
X210868Y38949D01*
X211160Y38560D01*
X211208Y38511D01*
X211281Y38390D01*
X211452Y38122D01*
X211525Y38000D01*
X211622Y37830D01*
X211719Y37684D01*
X211744Y37635D01*
X211792Y37587D01*
X211841Y37465D01*
X211987Y37197D01*
X212279Y36589D01*
X212498Y36127D01*
X212583Y35896D01*
X212644Y35737D01*
X212741Y35421D01*
X212802Y35263D01*
X212863Y35056D01*
X212936Y34886D01*
X212985Y34691D01*
X213058Y34448D01*
X213082Y34350D01*
X213118Y34144D01*
X213167Y33949D01*
X213191Y33827D01*
X213289Y33243D01*
X213313Y33049D01*
X213337Y32805D01*
X213362Y32659D01*
X213386Y32538D01*
X213410Y32197D01*
X213435Y31637D01*
X213447Y31090D01*
X213423Y31017D01*
X213398Y30189D01*
X213374Y30116D01*
X213337Y29885D01*
X213313Y29642D01*
X213289Y29447D01*
X213264Y29301D01*
X213240Y29179D01*
X213167Y28742D01*
X213118Y28547D01*
X213094Y28425D01*
X213070Y28279D01*
X213045Y28182D01*
X212960Y27902D01*
X212899Y27744D01*
X212863Y27610D01*
X212839Y27513D01*
X212790Y27391D01*
X212741Y27221D01*
X212680Y27062D01*
X212632Y26941D01*
X212559Y26746D01*
X212437Y26430D01*
X212315Y26162D01*
X212279Y26126D01*
X212242Y25992D01*
X212206Y25955D01*
X211744Y25055D01*
X211695Y25006D01*
X211598Y24836D01*
X211476Y24617D01*
X211306Y24349D01*
X211281Y24301D01*
X211233Y24252D01*
X211160Y24130D01*
X211087Y24057D01*
X211062Y24009D01*
X210989Y23936D01*
X210965Y23887D01*
X210843Y23717D01*
X210819Y23668D01*
X210746Y23595D01*
X210722Y23546D01*
X210624Y23449D01*
X210600Y23400D01*
X210503Y23303D01*
X210478Y23254D01*
X210381Y23157D01*
X210357Y23108D01*
X210308Y23084D01*
X210284Y23035D01*
X210040Y22792D01*
X210016Y22743D01*
X209967Y22719D01*
X209943Y22670D01*
X209821Y22549D01*
X209797Y22500D01*
X209712Y22439D01*
X209541Y22269D01*
X209493Y22245D01*
X209079Y21831D01*
X209030Y21806D01*
X208897Y21697D01*
X208811Y21636D01*
X208763Y21588D01*
X208714Y21563D01*
X208617Y21466D01*
X208568Y21442D01*
X208519Y21393D01*
X208471Y21369D01*
X208422Y21320D01*
X208373Y21295D01*
X208325Y21247D01*
X208276Y21223D01*
X207935Y20979D01*
X207887Y20955D01*
X207838Y20906D01*
X207789Y20882D01*
X207595Y20760D01*
X207546Y20736D01*
X207400Y20638D01*
X207351Y20614D01*
X207206Y20517D01*
X207084Y20444D01*
X206670Y20225D01*
X206305Y20055D01*
X206086Y19957D01*
X205575Y19714D01*
X205478Y19690D01*
X205320Y19629D01*
X205113Y19568D01*
X204991Y19519D01*
X204687Y19410D01*
X204553Y19373D01*
X204395Y19337D01*
X204273Y19288D01*
X204139Y19252D01*
X203945Y19203D01*
X203860Y19142D01*
X203884Y18947D01*
X203933Y18899D01*
X203981Y18728D01*
X204079Y18509D01*
X204103Y18412D01*
X204176Y18242D01*
X204285Y17938D01*
X204346Y17731D01*
X204444Y17512D01*
X204504Y17354D01*
X204541Y17317D01*
X204577Y17183D01*
X204626Y17062D01*
X204687Y16903D01*
X204711Y16806D01*
X204784Y16636D01*
X204821Y16502D01*
X204906Y16295D01*
X205088Y15820D01*
X205149Y15687D01*
X205174Y15589D01*
X205247Y15419D01*
X205307Y15261D01*
X205344Y15127D01*
X205368Y14932D01*
X205344Y14859D01*
X205198Y14592D01*
X205015Y14482D01*
X204918Y14458D01*
X204553Y14482D01*
X204334Y14653D01*
X204200Y14957D01*
X204139Y15115D01*
X204042Y15382D01*
X203981Y15541D01*
X203933Y15662D01*
X203860Y15833D01*
X203677Y16307D01*
X203616Y16514D01*
X203495Y16830D01*
X203422Y17001D01*
X203336Y17232D01*
X203300Y17268D01*
X203263Y17402D01*
X203190Y17597D01*
X203093Y17865D01*
X203044Y17986D01*
X203020Y18083D01*
X202959Y18217D01*
X202935Y18315D01*
X202874Y18473D01*
X202838Y18509D01*
X202801Y18643D01*
X202740Y18777D01*
X202655Y18935D01*
X202570Y18947D01*
X202241Y18911D01*
X201852Y18886D01*
X201366Y18838D01*
X199979Y18862D01*
X199905Y18886D01*
X199455Y18923D01*
X199139Y18972D01*
X198896Y18996D01*
X198579Y19045D01*
X198385Y19093D01*
X198239Y19118D01*
X197995Y19166D01*
X197861Y19203D01*
X197764Y19227D01*
X197606Y19264D01*
X197484Y19312D01*
X197375Y19349D01*
X197278Y19373D01*
X197034Y19470D01*
X196876Y19507D01*
X196754Y19556D01*
X196657Y19580D01*
X196389Y19677D01*
X196195Y19750D01*
X196061Y19811D01*
X195550Y20055D01*
X195452Y20079D01*
X195136Y20249D01*
X194966Y20347D01*
X194747Y20468D01*
X194698Y20517D01*
X194284Y20736D01*
X193980Y20943D01*
X193944Y20979D01*
X193822Y21052D01*
X193773Y21101D01*
X193652Y21174D01*
X193603Y21223D01*
X193482Y21295D01*
X193263Y21442D01*
X193116Y21417D01*
X193068Y21369D01*
X193019Y21344D01*
X192897Y21223D01*
X192849Y21198D01*
X192800Y21149D01*
X192752Y21125D01*
X192618Y21016D01*
X192508Y20906D01*
X192460Y20882D01*
X192362Y20784D01*
X192313Y20760D01*
X192265Y20712D01*
X192216Y20687D01*
X192167Y20638D01*
X192119Y20614D01*
X192046Y20541D01*
X191997Y20517D01*
X191851Y20371D01*
X191803Y20347D01*
X191705Y20249D01*
X191656Y20225D01*
X191608Y20176D01*
X191559Y20152D01*
X191486Y20079D01*
X191437Y20055D01*
X191364Y19981D01*
X191316Y19957D01*
X191170Y19811D01*
X191121Y19787D01*
X191048Y19714D01*
X191000Y19690D01*
X190866Y19580D01*
X190805Y19519D01*
X190756Y19495D01*
X190659Y19397D01*
X190610Y19373D01*
X190488Y19252D01*
X190440Y19227D01*
X190306Y19118D01*
X190270Y19081D01*
X190221Y19057D01*
X190148Y18984D01*
X190099Y18959D01*
X190087Y18947D01*
X190075Y18935D01*
X190026Y18886D01*
X189977Y18862D01*
X189904Y18789D01*
X189856Y18765D01*
X189758Y18668D01*
X189540Y18570D01*
X189442Y18546D01*
X189223Y18570D01*
X188992Y18728D01*
X188968Y18777D01*
X188919Y18826D01*
X188858Y18984D01*
X188834Y19081D01*
X188822Y19142D01*
X188846Y19215D01*
X188895Y19337D01*
X188968Y19458D01*
X189016Y19507D01*
X189041Y19556D01*
X189077Y19592D01*
X189126Y19617D01*
X189223Y19714D01*
X189272Y19738D01*
X189345Y19811D01*
X189394Y19835D01*
X189540Y19981D01*
X189588Y20006D01*
X189661Y20079D01*
X189710Y20103D01*
X189758Y20152D01*
X189807Y20176D01*
X189904Y20273D01*
X189953Y20298D01*
X190026Y20371D01*
X190075Y20395D01*
X190124Y20444D01*
X190172Y20468D01*
X190318Y20614D01*
X190367Y20638D01*
X190464Y20736D01*
X190513Y20760D01*
X190647Y20870D01*
X190793Y20991D01*
X190829Y21028D01*
X190878Y21052D01*
X191024Y21198D01*
X191073Y21223D01*
X191206Y21332D01*
X191292Y21393D01*
X191340Y21442D01*
X191389Y21466D01*
X191511Y21588D01*
X191559Y21612D01*
X191656Y21709D01*
X191705Y21734D01*
X191778Y21806D01*
X191827Y21831D01*
X191961Y21940D01*
X192046Y22025D01*
X192094Y22050D01*
X192192Y22147D01*
X192241Y22171D01*
X192301Y22232D01*
X192228Y22354D01*
X191912Y22670D01*
X191888Y22719D01*
X191401Y23206D01*
X191377Y23254D01*
X191328Y23303D01*
X191304Y23352D01*
X191255Y23400D01*
X191231Y23449D01*
X191182Y23498D01*
X191158Y23546D01*
X191036Y23668D01*
X191012Y23717D01*
X190963Y23765D01*
X190939Y23814D01*
X190890Y23863D01*
X190866Y23911D01*
X190817Y23960D01*
X190793Y24009D01*
X190683Y24142D01*
X190598Y24276D01*
X190501Y24447D01*
X190428Y24520D01*
X190330Y24690D01*
X190209Y24885D01*
X190111Y25055D01*
X189990Y25250D01*
X189503Y26247D01*
X189381Y26515D01*
X189260Y26831D01*
X189187Y27002D01*
X189138Y27172D01*
X189016Y27488D01*
X188992Y27634D01*
X188943Y27756D01*
X188919Y27853D01*
X188883Y28012D01*
X188834Y28133D01*
X188797Y28267D01*
X188761Y28425D01*
X188700Y28632D01*
X188651Y28973D01*
X188627Y29070D01*
X188578Y29362D01*
X188554Y29532D01*
X188530Y29630D01*
X188493Y29885D01*
X188469Y30201D01*
X188444Y30712D01*
X188432Y31941D01*
X188457Y32014D01*
X188481Y32720D01*
X188505Y32793D01*
X188530Y33036D01*
X188554Y33207D01*
X188578Y33450D01*
X188639Y33730D01*
X188712Y34095D01*
X188773Y34302D01*
X188834Y34581D01*
X188870Y34691D01*
X188919Y34886D01*
X188980Y35044D01*
X189138Y35543D01*
X189162Y35640D01*
X189260Y35883D01*
X189296Y36017D01*
X189333Y36054D01*
X189394Y36212D01*
X189503Y36394D01*
X189527Y36492D01*
X189625Y36711D01*
X189746Y36978D01*
X189917Y37295D01*
X190014Y37465D01*
X190063Y37514D01*
X190282Y37927D01*
X190403Y38122D01*
X190428Y38171D01*
X190537Y38305D01*
X190622Y38438D01*
X190671Y38487D01*
X190695Y38536D01*
X190939Y38876D01*
X190963Y38925D01*
X191012Y38974D01*
X191036Y39022D01*
X191133Y39120D01*
X191158Y39168D01*
X191231Y39241D01*
X191255Y39290D01*
X191377Y39412D01*
X191401Y39460D01*
X191523Y39582D01*
X191547Y39631D01*
X191790Y39874D01*
X191815Y39923D01*
X191936Y40044D01*
X191961Y40093D01*
X192046Y40178D01*
X192082Y40190D01*
X192094Y40227D01*
X192143Y40251D01*
X192265Y40373D01*
X192313Y40397D01*
X192752Y40835D01*
X192800Y40859D01*
X192873Y40932D01*
X192922Y40957D01*
X193056Y41066D01*
X193092Y41103D01*
X193141Y41127D01*
X193214Y41200D01*
X193263Y41224D01*
X193335Y41297D01*
X193384Y41322D01*
X193518Y41431D01*
X193627Y41516D01*
X193676Y41541D01*
X193810Y41650D01*
X193895Y41687D01*
X194212Y41906D01*
X194260Y41930D01*
X194406Y42027D01*
X194479Y42052D01*
X194528Y42100D01*
X194698Y42198D01*
X194966Y42368D01*
X195063Y42392D01*
X196012Y42855D01*
X196231Y42952D01*
X196329Y42976D01*
X196499Y43049D01*
X197071Y43256D01*
X197204Y43293D01*
X197363Y43329D01*
X197484Y43378D01*
X197618Y43414D01*
X197776Y43451D01*
X197898Y43500D01*
X198020Y43524D01*
X198117Y43548D01*
X198239Y43573D01*
X198336Y43597D01*
X198458Y43621D01*
X198944Y43694D01*
X199066Y43719D01*
X199212Y43743D01*
X199407Y43767D01*
X200124Y43804D01*
X200222Y43828D01*
X200757Y43852D01*
X201828Y43828D01*
X201901Y43804D01*
X202388Y43779D01*
X202460Y43755D01*
X202826Y43731D01*
X202899Y43706D01*
X203069Y43682D01*
X203166Y43658D01*
X203336Y43633D01*
X203495Y43597D01*
X203555Y43585D01*
X203641Y43670D01*
X203677Y43828D01*
X203714Y43962D01*
X203762Y44157D01*
X203799Y44290D01*
X203835Y44400D01*
X203872Y44558D01*
X203884Y44643D01*
X203847Y44704D01*
X203507Y44801D01*
X203227Y44862D01*
X203020Y44923D01*
X202862Y44960D01*
X202765Y44984D01*
X202607Y45045D01*
X202448Y45081D01*
X202254Y45154D01*
X202132Y45203D01*
X202096Y45239D01*
X202047Y45264D01*
X201962Y45349D01*
X201889Y45519D01*
X201864Y45690D01*
X201913Y45909D01*
X202071Y46115D01*
X202120Y46140D01*
X202169Y46188D01*
X202339Y46237D01*
X202704Y46213D01*
D02*
G37*
G36*
X221708Y46432D02*
X221793Y46298D01*
X221842Y46249D01*
X221866Y46201D01*
X221939Y46128D01*
X221964Y46079D01*
X222073Y45945D01*
X222110Y45836D01*
X222085Y45714D01*
X222037Y45665D01*
X222012Y45617D01*
X221964Y45568D01*
X221939Y45471D01*
X221866Y45398D01*
X221574Y44887D01*
X221526Y44838D01*
Y44814D01*
X221307Y44449D01*
X221209Y44278D01*
X221161Y44230D01*
X221088Y44108D01*
X221063Y44035D01*
X221173Y44023D01*
X221392Y44120D01*
X221562Y44144D01*
X221732Y44217D01*
X221830Y44242D01*
X221964Y44278D01*
X222000Y44315D01*
X222158Y44351D01*
X222280Y44376D01*
X222414Y44436D01*
X222511Y44461D01*
X222669Y44497D01*
X222803Y44558D01*
X222900Y44582D01*
X223071Y44607D01*
X223119Y44582D01*
X223156Y44546D01*
X223180Y44497D01*
X223253Y44424D01*
X223278Y44376D01*
X223351Y44303D01*
X223375Y44254D01*
X223448Y44181D01*
X223472Y44132D01*
X223582Y43998D01*
X223594Y43938D01*
X223533Y43877D01*
X223484Y43852D01*
X223411Y43828D01*
X223290Y43901D01*
X223180Y43913D01*
X223059Y43865D01*
X222973Y43779D01*
X222925Y43755D01*
X222827Y43658D01*
X222779Y43633D01*
X222706Y43560D01*
X222657Y43536D01*
X222560Y43439D01*
X222511Y43414D01*
X222414Y43317D01*
X222365Y43293D01*
X222268Y43195D01*
X222219Y43171D01*
X222122Y43074D01*
X222073Y43049D01*
X221976Y42952D01*
X221927Y42928D01*
X221830Y42830D01*
X221781Y42806D01*
X221647Y42672D01*
X221769Y42502D01*
X221708Y42392D01*
X221586Y42344D01*
X221538Y42368D01*
X221477Y42429D01*
X221453Y42478D01*
X221380Y42551D01*
X221355Y42599D01*
X221282Y42672D01*
X221258Y42721D01*
X221148Y42855D01*
X221088Y42940D01*
X221039Y42989D01*
X220966Y43135D01*
X221075Y43244D01*
X221197Y43220D01*
X221319Y43171D01*
X221465Y43195D01*
X221562Y43293D01*
X221611Y43317D01*
X221684Y43390D01*
X221732Y43414D01*
X221866Y43524D01*
X221903Y43560D01*
X221951Y43585D01*
X221976Y43633D01*
X222024Y43658D01*
X222122Y43755D01*
X222170Y43779D01*
X222268Y43877D01*
X222316Y43901D01*
X222389Y43974D01*
X222438Y43998D01*
X222499Y44059D01*
X222487Y44120D01*
X222268Y44096D01*
X222097Y44023D01*
X222000Y43998D01*
X221866Y43962D01*
X221732Y43901D01*
X221550Y43865D01*
X221428Y43816D01*
X221319Y43779D01*
X221100Y43731D01*
X220929Y43658D01*
X220747Y43621D01*
X220710Y43585D01*
X220613Y43560D01*
X220564Y43585D01*
X220431Y43719D01*
X220406Y43767D01*
X220370Y43852D01*
X220455Y44011D01*
X220479Y44059D01*
X220528Y44108D01*
X220650Y44327D01*
X220747Y44497D01*
X220869Y44716D01*
X221063Y45057D01*
X221112Y45106D01*
X221209Y45276D01*
X221258Y45325D01*
X221282Y45373D01*
X221355Y45446D01*
X221343Y45531D01*
X221221Y45458D01*
X221088Y45349D01*
X221051Y45312D01*
X221002Y45288D01*
X220869Y45179D01*
X220783Y45118D01*
X220735Y45069D01*
X220686Y45045D01*
X220552Y44935D01*
X220370Y44801D01*
X220321Y44777D01*
X220248Y44704D01*
X220199Y44680D01*
X220163Y44643D01*
X220260Y44473D01*
X220285Y44400D01*
X220224Y44339D01*
X220175Y44315D01*
X220102Y44290D01*
X220029Y44315D01*
X219968Y44376D01*
X219944Y44424D01*
X219871Y44497D01*
X219847Y44546D01*
X219774Y44619D01*
X219749Y44668D01*
X219640Y44801D01*
X219603Y44838D01*
X219628Y44960D01*
X219688Y45020D01*
X219761Y45045D01*
X219907Y44947D01*
X220053Y44972D01*
X220126Y45045D01*
X220248Y45118D01*
X220297Y45166D01*
X220418Y45239D01*
X220467Y45288D01*
X220552Y45325D01*
X220577Y45373D01*
X220710Y45458D01*
X220759Y45507D01*
X220881Y45580D01*
X220929Y45629D01*
X220978Y45653D01*
X221051Y45726D01*
X221100Y45750D01*
X221234Y45860D01*
X221367Y45945D01*
X221416Y45994D01*
X221501Y46030D01*
X221550Y46152D01*
X221453Y46298D01*
X221526Y46420D01*
X221635Y46456D01*
X221708Y46432D01*
D02*
G37*
G36*
X179563Y45215D02*
X179685Y45166D01*
X179733Y45142D01*
X179757Y45118D01*
X179770Y45106D01*
X179891Y44984D01*
X179964Y44692D01*
X179940Y44449D01*
X180001Y44436D01*
X180220Y44582D01*
X180512Y44655D01*
X180658Y44631D01*
X180731Y44607D01*
X180853Y44534D01*
X180901Y44485D01*
X180950Y44461D01*
X181059Y44351D01*
X181108Y44230D01*
X181157Y44059D01*
X181132Y43767D01*
X181084Y43646D01*
X181059Y43548D01*
X180986Y43475D01*
X180913Y43354D01*
X180439Y42709D01*
X180402Y42672D01*
X180378Y42624D01*
X180256Y42453D01*
X180232Y42405D01*
X180147Y42368D01*
X180037Y42453D01*
X180013Y42551D01*
X180037Y42648D01*
X180013Y42770D01*
X179952Y42830D01*
X179904Y42855D01*
X179806Y42952D01*
X179685Y43025D01*
X179636Y43074D01*
X179587Y43098D01*
X179514Y43171D01*
X179466Y43195D01*
X179076Y43487D01*
X179028Y43536D01*
X178906Y43609D01*
X178602Y43840D01*
X178541Y43901D01*
X178456Y43913D01*
X178407Y43889D01*
X178346Y43779D01*
X178176Y43804D01*
X178115Y43913D01*
X178139Y44011D01*
X178188Y44059D01*
X178212Y44108D01*
X178285Y44181D01*
X178310Y44230D01*
X178383Y44303D01*
X178456Y44424D01*
X178504Y44473D01*
X178577Y44595D01*
X178626Y44643D01*
X178650Y44692D01*
X178723Y44765D01*
X178748Y44814D01*
X178857Y44947D01*
X178955Y45045D01*
X179003Y45069D01*
X179149Y45166D01*
X179393Y45239D01*
X179563Y45215D01*
D02*
G37*
G36*
X195769Y49084D02*
X196280Y49060D01*
X196353Y49035D01*
X196645Y49011D01*
X196888Y48914D01*
X197034Y48889D01*
X197204Y48816D01*
X197302Y48792D01*
X197570Y48670D01*
X197934Y48476D01*
X198105Y48378D01*
X198153Y48330D01*
X198202Y48305D01*
X198275Y48232D01*
X198445Y48135D01*
X198494Y48086D01*
X198543Y48062D01*
X198762Y47843D01*
X198811Y47819D01*
X198871Y47734D01*
X199163Y47442D01*
X199188Y47393D01*
X199309Y47223D01*
X199334Y47174D01*
X199407Y47101D01*
X199480Y46979D01*
X199577Y46833D01*
X199601Y46785D01*
X199638Y46724D01*
X199650Y46712D01*
X199674Y46614D01*
X199845Y46249D01*
X199954Y45945D01*
X199991Y45836D01*
X200027Y45677D01*
X200051Y45580D01*
X200088Y45471D01*
X200064Y45227D01*
X199966Y45057D01*
X199893Y44984D01*
X199881Y44947D01*
X199832Y44923D01*
X199613Y44826D01*
X199078Y44801D01*
X198616Y44777D01*
X198409Y44741D01*
X198214Y44716D01*
X197995Y44692D01*
X197679Y44643D01*
X197582Y44619D01*
X197338Y44570D01*
X197241Y44546D01*
X197132Y44509D01*
X197034Y44485D01*
X196864Y44461D01*
X196766Y44436D01*
X196645Y44388D01*
X196548Y44363D01*
X196158Y44242D01*
X196061Y44217D01*
X195939Y44169D01*
X195842Y44144D01*
X195647Y44071D01*
X195525Y44023D01*
X195209Y43877D01*
X194990Y43779D01*
X194832Y43719D01*
X194479Y43536D01*
X194163Y43366D01*
X193993Y43268D01*
X193944Y43220D01*
X193676Y43074D01*
X193482Y42952D01*
X193433Y42928D01*
X193263Y42806D01*
X193214Y42782D01*
X193141Y42709D01*
X193092Y42684D01*
X193043Y42636D01*
X192995Y42611D01*
X192946Y42563D01*
X192897Y42538D01*
X192849Y42490D01*
X192800Y42465D01*
X192581Y42295D01*
X192362Y42149D01*
X192167Y42100D01*
X191924Y42125D01*
X191705Y42295D01*
X191644Y42380D01*
X191596Y42429D01*
X191547Y42551D01*
X191377Y42916D01*
X191352Y43013D01*
X191255Y43329D01*
X191218Y43487D01*
X191158Y43694D01*
X191121Y43974D01*
X191097Y44266D01*
X191085Y44862D01*
X191109Y44935D01*
X191133Y45325D01*
X191158Y45398D01*
X191182Y45544D01*
X191231Y45665D01*
X191267Y45872D01*
X191437Y46359D01*
X191498Y46493D01*
X191523Y46541D01*
X191669Y46809D01*
X191717Y46858D01*
X191742Y46931D01*
X191863Y47101D01*
X191888Y47150D01*
X191936Y47198D01*
X192034Y47369D01*
X192082Y47417D01*
X192107Y47466D01*
X192423Y47782D01*
X192447Y47831D01*
X192533Y47892D01*
X192727Y48086D01*
X192776Y48111D01*
X193263Y48451D01*
X193311Y48476D01*
X193360Y48524D01*
X193676Y48670D01*
X193895Y48768D01*
X194126Y48853D01*
X194236Y48889D01*
X194333Y48914D01*
X194467Y48950D01*
X194625Y49011D01*
X194869Y49035D01*
X195173Y49072D01*
X195696Y49108D01*
X195769Y49084D01*
D02*
G37*
G36*
X212632Y44680D02*
X212705Y44655D01*
X212899Y44631D01*
X212972Y44607D01*
X213204Y44570D01*
X213325Y44522D01*
X213459Y44485D01*
X213556Y44461D01*
X213800Y44363D01*
X213958Y44303D01*
X214250Y44157D01*
X214432Y44071D01*
X214481Y44023D01*
X214603Y43950D01*
X214651Y43901D01*
X214773Y43828D01*
X215077Y43597D01*
X215114Y43560D01*
X215162Y43536D01*
X215467Y43232D01*
X215491Y43183D01*
X215661Y43013D01*
X215686Y42964D01*
X215783Y42867D01*
X215807Y42818D01*
X215929Y42648D01*
X215953Y42599D01*
X216197Y42161D01*
X216367Y41796D01*
X216428Y41638D01*
X216464Y41504D01*
X216489Y41407D01*
X216562Y41164D01*
X216610Y40823D01*
X216635Y40726D01*
X216671Y40349D01*
X216683Y39923D01*
X216659Y39850D01*
X216622Y39472D01*
X216598Y39351D01*
X216549Y39059D01*
X216489Y38852D01*
X216464Y38755D01*
X216403Y38596D01*
X216367Y38463D01*
X216318Y38341D01*
X216172Y38073D01*
X215929Y37635D01*
X215698Y37331D01*
X215661Y37295D01*
X215637Y37246D01*
X215564Y37173D01*
X215540Y37124D01*
X215162Y36747D01*
X215114Y36723D01*
X214919Y36528D01*
X214797Y36455D01*
X214627Y36333D01*
X214578Y36309D01*
X214311Y36188D01*
X214019Y36212D01*
X213812Y36346D01*
X213788Y36394D01*
X213715Y36467D01*
X213569Y36808D01*
X213508Y36966D01*
X213471Y37003D01*
X213386Y37234D01*
X213350Y37270D01*
X213325Y37368D01*
X212912Y38171D01*
X212814Y38341D01*
X212717Y38487D01*
X212693Y38536D01*
X212595Y38682D01*
X212571Y38730D01*
X212328Y39095D01*
X212279Y39144D01*
X212255Y39193D01*
X212182Y39266D01*
X212157Y39314D01*
X211865Y39704D01*
X211756Y39838D01*
X211695Y39923D01*
X211549Y40069D01*
X211525Y40117D01*
X211330Y40312D01*
X211318Y40349D01*
X211281Y40361D01*
X211269Y40373D01*
X211233Y40409D01*
X211208Y40458D01*
X210928Y40738D01*
X210880Y40762D01*
X210831Y40835D01*
X210782Y40859D01*
X210661Y40981D01*
X210612Y41006D01*
X210478Y41139D01*
X210466Y41176D01*
X210417Y41200D01*
X210320Y41297D01*
X210271Y41322D01*
X210138Y41431D01*
X210028Y41516D01*
X209979Y41541D01*
X209906Y41614D01*
X209858Y41638D01*
X209760Y41736D01*
X209712Y41760D01*
X209578Y41869D01*
X209383Y41991D01*
X209140Y42137D01*
X208884Y42319D01*
X208751Y42429D01*
X208653Y42575D01*
X208617Y42709D01*
X208605Y42867D01*
X208629Y42940D01*
X208653Y43037D01*
X208811Y43268D01*
X208860Y43293D01*
X208921Y43354D01*
X208933Y43390D01*
X208982Y43414D01*
X209225Y43658D01*
X209274Y43682D01*
X209322Y43731D01*
X209444Y43804D01*
X209493Y43852D01*
X209614Y43925D01*
X209663Y43974D01*
X209712Y43998D01*
X209906Y44120D01*
X210223Y44266D01*
X210393Y44339D01*
X210612Y44436D01*
X210709Y44461D01*
X210843Y44497D01*
X210965Y44546D01*
X211099Y44582D01*
X211306Y44619D01*
X211427Y44643D01*
X211756Y44680D01*
X211999Y44704D01*
X212632Y44680D01*
D02*
G37*
G36*
X187301Y40908D02*
X187471Y40811D01*
X187532Y40750D01*
X187556Y40701D01*
X187605Y40653D01*
X187654Y40482D01*
X187678Y40385D01*
X187654Y40288D01*
X187617Y40154D01*
X187581Y40069D01*
X187435Y39801D01*
X187240Y39460D01*
X187191Y39412D01*
X186997Y39071D01*
X186340Y37733D01*
X186096Y37100D01*
X186072Y37027D01*
X185975Y36808D01*
X185902Y36638D01*
X185877Y36540D01*
X185780Y36224D01*
X185731Y36029D01*
X185634Y35713D01*
X185573Y35555D01*
X185537Y35421D01*
X185512Y35251D01*
X185415Y34934D01*
X185391Y34764D01*
X185366Y34667D01*
X185318Y34496D01*
X185269Y34204D01*
X185245Y34034D01*
X185220Y33937D01*
X185196Y33766D01*
X185159Y33486D01*
X185135Y33268D01*
X185111Y33146D01*
X185086Y33000D01*
X185062Y32489D01*
X185038Y32051D01*
X185014Y30275D01*
X184904Y30068D01*
X184795Y29958D01*
X184746Y29934D01*
X184697Y29885D01*
X184503Y29836D01*
X184259Y29861D01*
X184089Y29983D01*
X184028Y30019D01*
X183906Y30287D01*
X183882Y30603D01*
X183906Y32477D01*
X183931Y32550D01*
X183955Y33085D01*
X183979Y33158D01*
X184004Y33474D01*
X184028Y33645D01*
X184065Y33876D01*
X184077Y33961D01*
Y33985D01*
X184101Y34083D01*
X184125Y34399D01*
X184223Y34788D01*
X184247Y34959D01*
X184344Y35275D01*
X184381Y35506D01*
X184405Y35603D01*
X184466Y35810D01*
X184563Y36127D01*
X184612Y36297D01*
X184685Y36540D01*
X184709Y36638D01*
X184746Y36772D01*
X184807Y36930D01*
X184843Y37064D01*
X184953Y37319D01*
X185050Y37538D01*
X185111Y37696D01*
X185208Y37964D01*
X185293Y38171D01*
X185318Y38268D01*
X185488Y38584D01*
X185756Y39144D01*
X186035Y39692D01*
X186072Y39704D01*
X186242Y40020D01*
X186340Y40166D01*
X186510Y40482D01*
X186559Y40531D01*
X186583Y40604D01*
X186693Y40738D01*
X186790Y40835D01*
X186838Y40859D01*
X187009Y40932D01*
X187301Y40908D01*
D02*
G37*
G36*
X190391Y41249D02*
X190562Y41151D01*
X190671Y41042D01*
X190768Y40823D01*
X190744Y40507D01*
X190647Y40361D01*
X190622Y40312D01*
X190549Y40239D01*
X190525Y40190D01*
X190428Y40093D01*
X190403Y40044D01*
X190306Y39947D01*
X190282Y39898D01*
X190209Y39825D01*
X190184Y39777D01*
X190075Y39643D01*
X189600Y38974D01*
X189576Y38925D01*
X189479Y38779D01*
X189454Y38730D01*
X189406Y38682D01*
X189381Y38633D01*
X189260Y38463D01*
X189041Y38049D01*
X188968Y37927D01*
X188846Y37708D01*
X188481Y36954D01*
X188432Y36832D01*
X188408Y36735D01*
X188213Y36321D01*
X188092Y36005D01*
X188055Y35871D01*
X187994Y35713D01*
X187946Y35543D01*
X187873Y35299D01*
X187824Y35105D01*
X187775Y34983D01*
X187727Y34788D01*
X187690Y34655D01*
X187654Y34545D01*
X187629Y34448D01*
X187568Y34192D01*
X187544Y34095D01*
X187520Y33949D01*
X187495Y33730D01*
X187471Y33584D01*
X187423Y33340D01*
X187398Y33122D01*
X187374Y32854D01*
X187337Y32525D01*
X187313Y32282D01*
X187289Y31674D01*
X187313Y30189D01*
X187337Y30116D01*
X187386Y29581D01*
X187447Y29179D01*
X187471Y29058D01*
X187508Y28729D01*
X187483Y28340D01*
X187374Y28206D01*
X187349Y28157D01*
X187301Y28133D01*
X187033Y28012D01*
X186790Y28036D01*
X186619Y28133D01*
X186486Y28267D01*
X186437Y28389D01*
X186388Y28583D01*
X186315Y29094D01*
X186267Y29386D01*
X186242Y29484D01*
X186206Y29983D01*
X186182Y30250D01*
X186157Y30712D01*
X186145Y31966D01*
X186169Y32039D01*
X186206Y32659D01*
X186230Y32951D01*
X186279Y33340D01*
X186327Y33657D01*
X186474Y34533D01*
X186498Y34630D01*
X186559Y34788D01*
X186595Y34995D01*
X186619Y35092D01*
X186680Y35251D01*
X186717Y35409D01*
X186765Y35531D01*
X186863Y35920D01*
X187009Y36333D01*
X187106Y36601D01*
X187167Y36759D01*
X187191Y36857D01*
X187240Y36905D01*
X187325Y37136D01*
X187386Y37270D01*
X187435Y37392D01*
X187508Y37562D01*
X187629Y37830D01*
X187702Y37952D01*
X188043Y38609D01*
X188140Y38779D01*
X188262Y38998D01*
X188311Y39047D01*
X188335Y39095D01*
X188457Y39290D01*
X188481Y39339D01*
X188530Y39387D01*
X188651Y39606D01*
X188883Y39911D01*
X188968Y40044D01*
X189016Y40093D01*
X189089Y40215D01*
X189138Y40288D01*
X189150Y40300D01*
X189211Y40385D01*
X189260Y40434D01*
X189284Y40482D01*
X189357Y40555D01*
X189381Y40604D01*
X189503Y40726D01*
X189527Y40774D01*
X189600Y40847D01*
X189625Y40896D01*
X189698Y40969D01*
X189722Y41018D01*
X189904Y41200D01*
X190002Y41224D01*
X190124Y41273D01*
X190391Y41249D01*
D02*
G37*
G36*
X217620Y32781D02*
X217693Y32708D01*
X217742Y32683D01*
X217876Y32550D01*
X217973Y32306D01*
Y32258D01*
Y32233D01*
X217997Y31187D01*
X217973Y30433D01*
X217949Y30360D01*
X217912Y29910D01*
X217888Y29593D01*
X217863Y29350D01*
X217815Y29058D01*
X217790Y28936D01*
X217766Y28742D01*
X217730Y28413D01*
X217705Y28316D01*
X217669Y28133D01*
X217620Y27841D01*
X217547Y27549D01*
X217523Y27403D01*
X217474Y27208D01*
X217438Y27075D01*
X217377Y26819D01*
X217328Y26697D01*
X217292Y26564D01*
X217206Y26332D01*
X217158Y26138D01*
X217073Y25858D01*
X217048Y25761D01*
X217012Y25627D01*
X216951Y25493D01*
X216890Y25335D01*
X216829Y25201D01*
X216768Y25043D01*
X216732Y25006D01*
X216695Y24873D01*
X216647Y24751D01*
X216586Y24593D01*
X216513Y24422D01*
X216452Y24264D01*
X216306Y23972D01*
X216245Y23863D01*
X215734Y22865D01*
X215661Y22792D01*
X215637Y22695D01*
X215564Y22622D01*
X215369Y22257D01*
X215272Y22086D01*
X215138Y21904D01*
X215089Y21879D01*
X215016Y21806D01*
X214846Y21758D01*
X214749Y21734D01*
X214554Y21758D01*
X214335Y21879D01*
X214274Y21940D01*
X214177Y22159D01*
X214153Y22330D01*
X214177Y22427D01*
X214250Y22597D01*
X214420Y22914D01*
X214469Y22962D01*
X214664Y23303D01*
X214834Y23571D01*
X214956Y23838D01*
X215126Y24155D01*
X215418Y24763D01*
X215515Y24982D01*
X215588Y25177D01*
X215661Y25347D01*
X215722Y25505D01*
X215759Y25542D01*
X215795Y25675D01*
X215880Y25882D01*
X215941Y26040D01*
X215978Y26174D01*
X216002Y26272D01*
X216124Y26661D01*
X216160Y26795D01*
X216221Y26953D01*
X216245Y27050D01*
X216318Y27221D01*
X216367Y27513D01*
X216464Y27902D01*
X216549Y28279D01*
X216574Y28401D01*
X216598Y28595D01*
X216671Y29058D01*
X216695Y29253D01*
X216720Y29471D01*
X216744Y29618D01*
X216781Y29946D01*
X216805Y30335D01*
X216829Y30652D01*
X216854Y32404D01*
X216951Y32550D01*
X216975Y32598D01*
X217109Y32732D01*
X217158Y32757D01*
X217231Y32781D01*
X217328Y32805D01*
X217620Y32781D01*
D02*
G37*
G36*
X215089Y34606D02*
X215260Y34509D01*
X215296Y34472D01*
X215321Y34423D01*
X215369Y34375D01*
X215418Y34253D01*
X215467Y34058D01*
X215503Y33851D01*
X215527Y33705D01*
X215552Y33511D01*
X215600Y33219D01*
X215625Y33024D01*
X215649Y32732D01*
X215673Y32392D01*
X215698Y31856D01*
X215710Y30895D01*
X215686Y30822D01*
X215661Y30141D01*
Y30116D01*
X215637Y29800D01*
X215613Y29630D01*
X215588Y29532D01*
X215540Y29119D01*
X215503Y28912D01*
X215454Y28668D01*
X215406Y28352D01*
X215381Y28231D01*
X215333Y28036D01*
X215308Y27914D01*
X215284Y27768D01*
X215223Y27561D01*
X215199Y27464D01*
X215162Y27330D01*
X215102Y27196D01*
X215053Y27002D01*
X215004Y26880D01*
X214956Y26685D01*
X214895Y26527D01*
X214773Y26186D01*
X214737Y26053D01*
X214676Y25894D01*
X214615Y25761D01*
X214566Y25639D01*
X214396Y25274D01*
X214347Y25152D01*
X214323Y25104D01*
X214250Y24933D01*
X213958Y24374D01*
X213593Y23717D01*
X213496Y23546D01*
X213447Y23498D01*
X213423Y23449D01*
X213301Y23279D01*
X213277Y23230D01*
X213179Y23084D01*
X213155Y23035D01*
X213033Y22865D01*
X212559Y22220D01*
X212522Y22184D01*
X212498Y22135D01*
X212388Y22001D01*
X212267Y21855D01*
X212157Y21746D01*
X212133Y21697D01*
X212060Y21624D01*
X212036Y21575D01*
X211950Y21490D01*
X211731Y21393D01*
X211415Y21417D01*
X211245Y21514D01*
X211135Y21624D01*
X211087Y21746D01*
X211038Y21916D01*
X211062Y22111D01*
X211160Y22281D01*
X211208Y22330D01*
X211233Y22378D01*
X211342Y22512D01*
X211427Y22597D01*
X211452Y22646D01*
X211561Y22780D01*
X211622Y22865D01*
X211695Y22938D01*
X211719Y22987D01*
X211792Y23060D01*
X211817Y23108D01*
X212182Y23619D01*
X212206Y23668D01*
X212255Y23717D01*
X212328Y23838D01*
X212376Y23887D01*
X212474Y24057D01*
X212620Y24301D01*
X212766Y24568D01*
X212863Y24714D01*
X212887Y24787D01*
X212936Y24836D01*
X213204Y25396D01*
X213569Y26199D01*
X213642Y26369D01*
X213690Y26539D01*
X213763Y26710D01*
X213788Y26807D01*
X213848Y26965D01*
X213909Y27172D01*
X213946Y27306D01*
X214007Y27440D01*
X214043Y27598D01*
X214092Y27720D01*
X214128Y27853D01*
X214189Y28109D01*
X214238Y28303D01*
X214262Y28425D01*
X214311Y28693D01*
X214457Y29569D01*
X214505Y30055D01*
X214530Y30347D01*
X214554Y30615D01*
X214578Y31029D01*
X214591Y31771D01*
X214566Y31844D01*
X214542Y32428D01*
X214518Y32501D01*
X214457Y33219D01*
X214432Y33316D01*
X214408Y33438D01*
X214372Y33766D01*
X214347Y33864D01*
X214323Y34131D01*
X214347Y34204D01*
X214408Y34362D01*
X214493Y34448D01*
X214518Y34496D01*
X214554Y34533D01*
X214724Y34606D01*
X214822Y34630D01*
X215089Y34606D01*
D02*
G37*
G36*
X186838Y14944D02*
X187106Y14774D01*
X187155Y14750D01*
X187204Y14701D01*
X187325Y14653D01*
X187398Y14579D01*
X187495Y14555D01*
X187568Y14482D01*
X187909Y14288D01*
X187958Y14239D01*
X188079Y14190D01*
X188153Y14117D01*
X188274Y14068D01*
X188323Y14020D01*
X188493Y13922D01*
X188578Y13837D01*
X188554Y13716D01*
X188432Y13545D01*
X188408Y13472D01*
X188311Y13326D01*
X188238Y13205D01*
X188201Y13168D01*
X188055Y13192D01*
X188019Y13302D01*
X188092Y13472D01*
X188116Y13643D01*
X188079Y13825D01*
X187885Y14020D01*
X187787Y14068D01*
X187629Y13910D01*
X187605Y13813D01*
X187532Y13740D01*
X187337Y13399D01*
X187289Y13351D01*
X187240Y13229D01*
X187167Y13156D01*
X187143Y13059D01*
X187070Y12986D01*
X186875Y12645D01*
X186826Y12596D01*
X186729Y12426D01*
X186705Y12353D01*
X186717Y12268D01*
X186875Y12183D01*
X186851Y12085D01*
X186790Y11976D01*
X186717Y11952D01*
X186449Y12122D01*
X186327Y12195D01*
X186157Y12292D01*
X186145Y12304D01*
X186108Y12341D01*
X185938Y12438D01*
X185877Y12475D01*
X185853Y12548D01*
X185938Y12657D01*
X186035Y12681D01*
X186133Y12657D01*
X186206Y12681D01*
X186315Y12767D01*
X186413Y12937D01*
X186461Y12986D01*
X186486Y13059D01*
X186534Y13107D01*
X186632Y13278D01*
X186753Y13497D01*
X186802Y13545D01*
X186997Y13886D01*
X187167Y14154D01*
X187191Y14202D01*
X187240Y14251D01*
X187264Y14348D01*
X187240Y14397D01*
X187179Y14458D01*
X187045Y14494D01*
X186936Y14531D01*
X186790Y14506D01*
X186619Y14409D01*
X186425Y14215D01*
X186352Y14239D01*
X186291Y14300D01*
X186267Y14373D01*
X186364Y14519D01*
X186388Y14567D01*
X186437Y14616D01*
X186534Y14786D01*
X186656Y14957D01*
X186693Y14993D01*
X186753Y15005D01*
X186838Y14944D01*
D02*
G37*
G36*
X214262Y14677D02*
X214311Y14628D01*
X214359Y14604D01*
X214408Y14555D01*
X214457Y14531D01*
X214542Y14397D01*
X214615Y14227D01*
X214591Y13886D01*
X214542Y13837D01*
X214518Y13789D01*
X214469Y13740D01*
X214481Y13655D01*
X214870Y13679D01*
X214943Y13655D01*
X215102Y13618D01*
X215187Y13533D01*
X215235Y13509D01*
X215296Y13448D01*
X215321Y13399D01*
X215418Y13253D01*
X215442Y13010D01*
X215418Y12718D01*
X215296Y12548D01*
X215272Y12499D01*
X215175Y12402D01*
X215162Y12365D01*
X215114Y12341D01*
X215016Y12243D01*
X214895Y12170D01*
X214554Y12025D01*
X214384Y12000D01*
X214189Y12025D01*
X214019Y12146D01*
X213982Y12158D01*
X213958Y12207D01*
X213909Y12256D01*
X213897Y12414D01*
X213909Y12426D01*
X213934Y12548D01*
X214140Y12633D01*
X214311Y12536D01*
X214347Y12499D01*
X214384Y12365D01*
X214505Y12316D01*
X214578Y12341D01*
X214700Y12365D01*
X214797Y12463D01*
X214846Y12487D01*
X214907Y12572D01*
X214956Y12694D01*
X214931Y12986D01*
X214858Y13059D01*
X214785Y13180D01*
X214737Y13205D01*
X214712Y13253D01*
X214554Y13314D01*
X214457Y13339D01*
X214286Y13314D01*
X214067Y13192D01*
X213994Y13168D01*
X213921Y13192D01*
X213885Y13229D01*
X213861Y13326D01*
X213873Y13387D01*
X213994Y13460D01*
X214104Y13570D01*
X214153Y13691D01*
X214177Y13886D01*
X214153Y13959D01*
X214104Y14081D01*
X214055Y14129D01*
X214031Y14178D01*
X213970Y14239D01*
X213921Y14263D01*
X213873Y14312D01*
X213775Y14336D01*
X213629Y14312D01*
X213508Y14190D01*
X213459Y14166D01*
X213423Y14032D01*
X213496Y13910D01*
X213569Y13837D01*
X213581Y13704D01*
X213556Y13606D01*
X213508Y13533D01*
X213410Y13509D01*
X213216Y13533D01*
X213131Y13618D01*
X213082Y13740D01*
X213106Y14081D01*
X213204Y14227D01*
X213264Y14336D01*
X213313Y14361D01*
X213362Y14433D01*
X213483Y14506D01*
X213532Y14555D01*
X213690Y14616D01*
X213727Y14653D01*
X213824Y14677D01*
X214067Y14701D01*
X214262Y14677D01*
D02*
G37*
G36*
X191170Y12657D02*
X191340Y12584D01*
X191474Y12548D01*
X191583Y12487D01*
X191681Y12463D01*
X191839Y12402D01*
X191875Y12365D01*
X192094Y12316D01*
X192265Y12243D01*
X192423Y12183D01*
X192557Y12122D01*
X192691Y12085D01*
X192715Y12012D01*
X192691Y11915D01*
X192666Y11842D01*
X192642Y11745D01*
X192581Y11587D01*
X192508Y11416D01*
X192411Y11392D01*
X192301Y11477D01*
X192326Y11745D01*
X192301Y11818D01*
X192277Y11866D01*
X192167Y12000D01*
X191900Y12122D01*
X191656Y12098D01*
X191620Y12061D01*
X191559Y11903D01*
X191498Y11793D01*
X191450Y11599D01*
X191401Y11550D01*
X191377Y11453D01*
X191401Y11355D01*
X191437Y11319D01*
X191596Y11282D01*
X191754Y11270D01*
X191815Y11331D01*
X191839Y11477D01*
X191875Y11514D01*
X191997Y11489D01*
X192082Y11404D01*
X192094Y11343D01*
X192058Y11209D01*
X191961Y10990D01*
X191936Y10893D01*
X191839Y10674D01*
X191815Y10625D01*
X191778Y10589D01*
X191681Y10613D01*
X191620Y10674D01*
X191596Y10771D01*
X191571Y10966D01*
X191486Y11051D01*
X191316Y11100D01*
X191267Y11076D01*
X191231Y11039D01*
X191133Y10820D01*
X191109Y10674D01*
X191060Y10625D01*
X191012Y10455D01*
X190987Y10406D01*
X190939Y10285D01*
X190975Y10248D01*
X191243Y10127D01*
X191364Y10102D01*
X191486Y10053D01*
X191571Y10041D01*
X191669Y10066D01*
X191863Y10187D01*
X191888Y10236D01*
X191936Y10285D01*
X191961Y10333D01*
X191997Y10370D01*
X192009Y10382D01*
X192094Y10394D01*
X192204Y10309D01*
X192167Y10175D01*
X192058Y9920D01*
X192034Y9822D01*
X191912Y9603D01*
X191851Y9591D01*
X191681Y9664D01*
X191583Y9689D01*
X191462Y9762D01*
X191304Y9798D01*
X191048Y9908D01*
X190951Y9932D01*
X190781Y10005D01*
X190683Y10029D01*
X190464Y10127D01*
X190330Y10163D01*
X190221Y10224D01*
X190099Y10273D01*
X190087Y10382D01*
X190148Y10443D01*
X190245Y10467D01*
X190403Y10504D01*
X190525Y10698D01*
X190549Y10796D01*
X190647Y11015D01*
X190671Y11112D01*
X190768Y11355D01*
X190793Y11453D01*
X190890Y11672D01*
X190926Y11805D01*
X190987Y11915D01*
X191012Y12012D01*
X191073Y12170D01*
X191109Y12207D01*
X191133Y12304D01*
X191109Y12353D01*
X191073Y12390D01*
X190914Y12475D01*
X190939Y12596D01*
X190975Y12657D01*
X191073Y12681D01*
X191170Y12657D01*
D02*
G37*
G36*
X210174Y12779D02*
X210211Y12742D01*
X210284Y12572D01*
X210320Y12438D01*
X210357Y12402D01*
X210405Y12280D01*
X210442Y12146D01*
X210478Y12110D01*
X210527Y11939D01*
X210624Y11720D01*
X210685Y11562D01*
X210722Y11526D01*
X210758Y11392D01*
X210807Y11270D01*
X210843Y11234D01*
X210880Y11076D01*
X210965Y10917D01*
X210989Y10820D01*
X211050Y10662D01*
X211147Y10613D01*
X211220Y10686D01*
X211342Y10662D01*
X211403Y10528D01*
X211379Y10431D01*
X211342Y10394D01*
X211245Y10370D01*
X211123Y10321D01*
X210953Y10248D01*
X210831Y10200D01*
X210661Y10127D01*
X210563Y10102D01*
X210466Y10053D01*
X210405Y10114D01*
X210381Y10236D01*
X210490Y10370D01*
X210527Y10479D01*
X210490Y10638D01*
X210405Y10844D01*
X210357Y10966D01*
X210284Y11136D01*
X210235Y11258D01*
X210223Y11270D01*
X210162Y11428D01*
X210138Y11526D01*
X210089Y11574D01*
X210040Y11745D01*
X209906Y12000D01*
X209833Y11976D01*
X209797Y11939D01*
X209724Y11818D01*
X209639Y11708D01*
X209456Y11793D01*
X209481Y11964D01*
X209554Y12037D01*
X209748Y12377D01*
X209821Y12499D01*
X209846Y12548D01*
X209894Y12596D01*
X209919Y12645D01*
X209979Y12730D01*
X210028Y12754D01*
X210077Y12803D01*
X210174Y12779D01*
D02*
G37*
G36*
X203397Y10869D02*
X203422Y10771D01*
X203397Y10674D01*
X203361Y10638D01*
X203239Y10565D01*
X203203Y10528D01*
X203178Y10431D01*
X203203Y10041D01*
X203227Y9968D01*
X203251Y9652D01*
X203276Y9482D01*
X203300Y8898D01*
X203324Y8825D01*
X203349Y8606D01*
X203458Y8569D01*
X203592Y8557D01*
X203616Y8460D01*
X203592Y8314D01*
X203555Y8277D01*
X202631Y8253D01*
X202570Y8314D01*
X202594Y8460D01*
X202631Y8496D01*
X202752Y8545D01*
X202789Y8581D01*
X202813Y8679D01*
X202789Y9360D01*
X202765Y9433D01*
X202728Y9737D01*
X202704Y9980D01*
X202655Y10102D01*
X202607Y10078D01*
X202570Y9968D01*
X202533Y9786D01*
X202485Y9664D01*
X202460Y9567D01*
X202436Y9445D01*
X202351Y9238D01*
X202314Y9080D01*
X202278Y8995D01*
X202229Y8873D01*
X202205Y8703D01*
X202132Y8533D01*
X202108Y8435D01*
X202071Y8302D01*
X202035Y8265D01*
X202010Y8216D01*
X201974Y8180D01*
X201877Y8156D01*
X201682Y8180D01*
X201645Y8216D01*
X201524Y8484D01*
X201280Y8995D01*
X201159Y9263D01*
X201134Y9311D01*
X201037Y9530D01*
X200964Y9701D01*
X200940Y9798D01*
X200915Y9920D01*
X200879Y9956D01*
X200842Y9920D01*
X200818Y9822D01*
X200854Y9129D01*
X200903Y8496D01*
X200952Y8448D01*
X201147Y8423D01*
X201171Y8326D01*
X201183Y8241D01*
X201122Y8156D01*
X200404Y8143D01*
X200331Y8192D01*
X200307Y8289D01*
X200368Y8375D01*
X200441Y8399D01*
X200550Y8508D01*
X200575Y8606D01*
X200538Y9470D01*
X200514Y9908D01*
X200490Y10418D01*
X200441Y10467D01*
X200258Y10479D01*
X200210Y10625D01*
X200295Y10735D01*
X200879Y10759D01*
X200952Y10783D01*
X201037Y10747D01*
X201061Y10698D01*
X201159Y10528D01*
X201220Y10370D01*
X201280Y10260D01*
X201305Y10163D01*
X201329Y10114D01*
X201402Y9993D01*
X201439Y9859D01*
X201499Y9798D01*
X201536Y9664D01*
X201621Y9506D01*
X201694Y9311D01*
X201767Y9141D01*
X201913Y8873D01*
X201925Y8861D01*
X201950Y8886D01*
X201974D01*
X202022Y9153D01*
X202071Y9275D01*
X202144Y9543D01*
X202205Y9676D01*
X202266Y9932D01*
X202327Y10066D01*
X202375Y10285D01*
X202448Y10455D01*
X202497Y10674D01*
X202619Y10844D01*
X202959Y10869D01*
X203251Y10893D01*
X203336Y10905D01*
X203397Y10869D01*
D02*
G37*
G36*
X196572Y11173D02*
X196608Y11136D01*
X196633Y10966D01*
X196657Y10820D01*
X196706Y10698D01*
X196730Y10528D01*
X196766Y10321D01*
X196803Y10187D01*
X196852Y9993D01*
X196876Y9749D01*
X196925Y9628D01*
X196949Y9530D01*
X197010Y9178D01*
X197046Y9044D01*
X197071Y8946D01*
X197095Y8679D01*
X197132Y8642D01*
X197229Y8618D01*
X197278Y8594D01*
X197290Y8460D01*
X197204Y8375D01*
X196840Y8399D01*
X196766Y8423D01*
X196572Y8472D01*
X196304Y8521D01*
X196268Y8557D01*
X196292Y8703D01*
X196329Y8740D01*
X196426Y8764D01*
X196487Y8825D01*
X196511Y8995D01*
X196487Y9092D01*
X196462Y9214D01*
X196402Y9275D01*
X196353Y9299D01*
X196329D01*
X196085Y9324D01*
X195830Y9360D01*
X195672Y9372D01*
X195586Y9287D01*
X195538Y9165D01*
X195465Y9092D01*
X195440Y8995D01*
X195501Y8934D01*
X195623Y8910D01*
X195647Y8813D01*
X195623Y8691D01*
X195574Y8642D01*
X195331Y8667D01*
X195258Y8691D01*
X195088Y8715D01*
X194881Y8752D01*
X194832Y8849D01*
X194917Y9007D01*
X195124Y9117D01*
X195148Y9165D01*
X195221Y9238D01*
X195246Y9311D01*
X195294Y9360D01*
X195343Y9482D01*
X195367Y9530D01*
X195440Y9603D01*
X195465Y9701D01*
X195562Y9847D01*
X195635Y9968D01*
X195878Y10406D01*
X195976Y10577D01*
X196219Y11015D01*
X196304Y11173D01*
X196402Y11197D01*
X196572Y11173D01*
D02*
G37*
%LPC*%
G36*
X203799Y54973D02*
X203726Y54948D01*
X203665Y54888D01*
X203616Y54717D01*
X203592Y54669D01*
X203519Y54547D01*
X203495Y54450D01*
X203470Y54425D01*
Y54401D01*
X203422Y54352D01*
X203397Y54255D01*
X203422Y54206D01*
X203458Y54170D01*
X203933Y54158D01*
X203969Y54243D01*
X203945Y54340D01*
X203884Y54498D01*
X203835Y54839D01*
X203811Y54936D01*
X203799Y54973D01*
D02*
G37*
G36*
X213508Y52028D02*
X213483D01*
X213447Y52016D01*
X213423Y51968D01*
X213325Y51919D01*
X213301Y51870D01*
X213118Y51688D01*
X213082Y51676D01*
X213058Y51627D01*
X212912Y51505D01*
X212863Y51457D01*
X212875Y51371D01*
X213033Y51311D01*
X213070Y51274D01*
X213289Y51177D01*
X213374Y51189D01*
X213398Y51286D01*
X213423Y51530D01*
X213447Y51627D01*
X213471Y51870D01*
X213520Y51992D01*
X213508Y52028D01*
D02*
G37*
G36*
X218107Y49449D02*
X217985Y49425D01*
X217936Y49376D01*
X217888Y49352D01*
X217766Y49206D01*
X217705Y49121D01*
X217632Y49048D01*
X217608Y48999D01*
X217535Y48926D01*
X217511Y48877D01*
X217413Y48780D01*
X217401Y48719D01*
X217462Y48634D01*
X217523Y48573D01*
X217535Y48561D01*
X217669Y48476D01*
X217742Y48451D01*
X217839Y48427D01*
X218082Y48451D01*
X218180Y48549D01*
X218228Y48573D01*
X218289Y48658D01*
X218362Y48731D01*
X218460Y48950D01*
X218435Y49121D01*
X218387Y49169D01*
X218362Y49218D01*
X218253Y49352D01*
X218107Y49449D01*
D02*
G37*
G36*
X200343Y42709D02*
X200271Y42684D01*
X199638Y42660D01*
X199565Y42636D01*
X199139Y42575D01*
X199017Y42551D01*
X198725Y42502D01*
X198628Y42478D01*
X198579Y42429D01*
X198604Y42186D01*
X198628Y42113D01*
X198701Y41845D01*
X198725Y41748D01*
X198762Y41614D01*
X198823Y41407D01*
X198798Y41018D01*
X198750Y40969D01*
X198725Y40920D01*
X198664Y40835D01*
X198616Y40811D01*
X198567Y40762D01*
X198445Y40714D01*
X198275Y40689D01*
X198093Y40726D01*
X197971Y40774D01*
X197801Y40945D01*
X197703Y41164D01*
X197655Y41358D01*
X197582Y41626D01*
X197533Y41821D01*
X197496Y41954D01*
X197472Y42052D01*
X197423Y42125D01*
X197253Y42100D01*
X197132Y42052D01*
X196754Y41918D01*
X196657Y41894D01*
X196535Y41845D01*
X196402Y41784D01*
X195647Y41419D01*
X195331Y41249D01*
X195161Y41151D01*
X195112Y41103D01*
X194601Y40811D01*
X194552Y40762D01*
X194503Y40738D01*
X194333Y40616D01*
X194284Y40592D01*
X194163Y40470D01*
X194114Y40446D01*
X194065Y40397D01*
X193944Y40324D01*
X193895Y40276D01*
X193773Y40202D01*
X193725Y40154D01*
X193676Y40129D01*
X193506Y39959D01*
X193457Y39935D01*
X193372Y39850D01*
X193348Y39752D01*
X193433Y39643D01*
X193482Y39618D01*
X193591Y39509D01*
X193615Y39460D01*
X193871Y39205D01*
X193920Y39181D01*
X193956Y39144D01*
X193968Y39107D01*
X194017Y39083D01*
X194053Y39047D01*
X194078Y38998D01*
X194151Y38925D01*
X194224Y38682D01*
X194199Y38390D01*
X194078Y38219D01*
X193993Y38134D01*
X193944Y38110D01*
X193822Y38061D01*
X193652Y38037D01*
X193494Y38073D01*
X193250Y38219D01*
X192958Y38511D01*
X192946Y38548D01*
X192910Y38560D01*
X192897Y38596D01*
X192849Y38621D01*
X192557Y38913D01*
X192460Y38937D01*
X192374Y38852D01*
X192350Y38803D01*
X192301Y38755D01*
X192277Y38706D01*
X192131Y38560D01*
X192107Y38511D01*
X191985Y38390D01*
X191961Y38341D01*
X191851Y38207D01*
X191790Y38122D01*
X191620Y37903D01*
X191523Y37733D01*
X191401Y37562D01*
X191377Y37514D01*
X191255Y37319D01*
X191182Y37197D01*
X191060Y37027D01*
X190549Y35981D01*
X190428Y35713D01*
X190245Y35238D01*
X190160Y34959D01*
X190136Y34886D01*
X190196Y34801D01*
X190574Y34715D01*
X190707Y34679D01*
X190866Y34642D01*
X190963Y34618D01*
X191170Y34557D01*
X191292Y34509D01*
X191340Y34460D01*
X191389Y34436D01*
X191498Y34326D01*
X191571Y34156D01*
X191596Y34058D01*
X191571Y33815D01*
X191474Y33669D01*
X191450Y33620D01*
X191413Y33584D01*
X191364Y33560D01*
X191316Y33511D01*
X191121Y33462D01*
X191012Y33450D01*
X190866Y33474D01*
X190622Y33523D01*
X190525Y33547D01*
X190391Y33584D01*
X190294Y33608D01*
X190136Y33645D01*
X190038Y33669D01*
X189929Y33705D01*
X189832Y33681D01*
X189795Y33645D01*
X189746Y33353D01*
X189710Y33122D01*
X189637Y32683D01*
X189613Y32464D01*
X189588Y31881D01*
X189564Y31491D01*
X189552Y31211D01*
X189576Y31138D01*
X189613Y30177D01*
X189637Y29958D01*
X189661Y29836D01*
X189710Y29544D01*
X189746Y29216D01*
X189771Y29119D01*
X189844Y28997D01*
X189953Y28985D01*
X190075Y29034D01*
X190233Y29070D01*
X190330Y29094D01*
X190464Y29131D01*
X190659Y29179D01*
X190793Y29216D01*
X190890Y29240D01*
X191145Y29253D01*
X191413Y29107D01*
X191474Y29046D01*
X191571Y28827D01*
X191596Y28729D01*
X191571Y28510D01*
X191401Y28291D01*
X191316Y28206D01*
X191145Y28133D01*
X191048Y28109D01*
X190781Y28036D01*
X190683Y28012D01*
X190403Y27951D01*
X190270Y27914D01*
X190148Y27841D01*
X190136Y27756D01*
X190184Y27634D01*
X190391Y27062D01*
X190452Y26904D01*
X190549Y26685D01*
X191085Y25639D01*
X191133Y25590D01*
X191206Y25469D01*
X191304Y25298D01*
X191474Y25031D01*
X191498Y24982D01*
X191547Y24933D01*
X191571Y24885D01*
X191730Y24653D01*
X191790Y24568D01*
X191888Y24471D01*
X191912Y24422D01*
X192082Y24203D01*
X192180Y24106D01*
X192204Y24057D01*
X192301Y23960D01*
X192326Y23911D01*
X192399Y23838D01*
X192423Y23790D01*
X192557Y23777D01*
X192642Y23863D01*
X192666Y23911D01*
X192752Y23972D01*
X193311Y24532D01*
X193360Y24556D01*
X193530Y24629D01*
X193627Y24653D01*
X193871Y24629D01*
X194041Y24532D01*
X194126Y24447D01*
X194151Y24398D01*
X194199Y24276D01*
X194224Y24179D01*
X194199Y23887D01*
X194041Y23656D01*
X193993Y23583D01*
X193944Y23558D01*
X193348Y22962D01*
X193372Y22865D01*
X193482Y22755D01*
X193530Y22731D01*
X193749Y22512D01*
X193871Y22439D01*
X193920Y22390D01*
X193968Y22366D01*
X194017Y22318D01*
X194065Y22293D01*
X194187Y22171D01*
X194236Y22147D01*
X194284Y22099D01*
X194333Y22074D01*
X194795Y21782D01*
X194844Y21758D01*
X194893Y21709D01*
X195014Y21636D01*
X195246Y21478D01*
X195367Y21429D01*
X195525Y21344D01*
X196036Y21101D01*
X196085Y21077D01*
X196207Y21003D01*
X196474Y20882D01*
X196633Y20821D01*
X196754Y20772D01*
X196852Y20748D01*
X197046Y20675D01*
X197314Y20578D01*
X197399Y20566D01*
X197460Y20626D01*
X197484Y20724D01*
X197533Y20894D01*
X197570Y21052D01*
X197594Y21149D01*
X197655Y21356D01*
X197691Y21514D01*
X197740Y21636D01*
X197861Y21831D01*
X197934Y21904D01*
X198105Y21977D01*
X198202Y22001D01*
X198470Y21977D01*
X198701Y21819D01*
X198725Y21770D01*
X198823Y21551D01*
X198798Y21186D01*
X198750Y21064D01*
X198725Y20967D01*
X198689Y20809D01*
X198664Y20712D01*
X198628Y20578D01*
X198591Y20419D01*
X198579Y20261D01*
X198640Y20201D01*
X198969Y20164D01*
X199553Y20067D01*
X199869Y20042D01*
X200258Y20018D01*
X200575Y19994D01*
X201292Y19981D01*
X201366Y20006D01*
X202083Y20042D01*
X202351Y20067D01*
X202667Y20115D01*
X202959Y20164D01*
X203203Y20188D01*
X203251Y20213D01*
X203276Y20310D01*
X203251Y20480D01*
X203227Y20553D01*
X203130Y20943D01*
X203081Y21113D01*
X203032Y21308D01*
X203057Y21673D01*
X203178Y21843D01*
X203239Y21904D01*
X203458Y22001D01*
X203774Y21977D01*
X203945Y21879D01*
X204054Y21770D01*
X204127Y21600D01*
X204176Y21429D01*
X204225Y21235D01*
X204298Y20967D01*
X204322Y20870D01*
X204358Y20687D01*
X204395Y20602D01*
X204456Y20541D01*
X204577Y20566D01*
X204626Y20614D01*
X204723Y20638D01*
X204882Y20699D01*
X205295Y20845D01*
X205490Y20918D01*
X205733Y21040D01*
X205770Y21077D01*
X205891Y21125D01*
X206646Y21514D01*
X206877Y21673D01*
X207072Y21794D01*
X207315Y21940D01*
X207400Y22001D01*
X207631Y22159D01*
X207717Y22220D01*
X207789Y22293D01*
X207838Y22318D01*
X207911Y22390D01*
X207960Y22415D01*
X208033Y22488D01*
X208081Y22512D01*
X208154Y22585D01*
X208203Y22610D01*
X208349Y22755D01*
X208398Y22780D01*
X208507Y22889D01*
X208483Y22987D01*
X208373Y23096D01*
X208325Y23121D01*
X208264Y23206D01*
X207887Y23583D01*
X207850Y23595D01*
X207826Y23644D01*
X207729Y23741D01*
X207631Y23960D01*
X207607Y24130D01*
X207644Y24288D01*
X207765Y24483D01*
X207814Y24532D01*
X207862Y24556D01*
X207911Y24605D01*
X208069Y24641D01*
X208276Y24653D01*
X208349Y24629D01*
X208568Y24508D01*
X209298Y23777D01*
X209444Y23802D01*
X209505Y23887D01*
X209578Y23960D01*
X209602Y24009D01*
X209700Y24106D01*
X209724Y24155D01*
X209797Y24228D01*
X209821Y24276D01*
X209931Y24410D01*
X209992Y24495D01*
X210065Y24568D01*
X210089Y24617D01*
X210138Y24641D01*
X210235Y24812D01*
X210405Y25079D01*
X210430Y25128D01*
X210478Y25177D01*
X210576Y25347D01*
X210673Y25493D01*
X210697Y25542D01*
X210746Y25590D01*
X211281Y26637D01*
X211354Y26807D01*
X211415Y26965D01*
X211452Y27075D01*
X211549Y27318D01*
X211585Y27452D01*
X211634Y27573D01*
X211695Y27732D01*
X211671Y27878D01*
X211537Y27914D01*
X211366Y27963D01*
X211269Y27987D01*
X210989Y28048D01*
X210782Y28109D01*
X210649Y28145D01*
X210442Y28279D01*
X210405Y28316D01*
X210381Y28364D01*
X210332Y28413D01*
X210284Y28535D01*
X210308Y28924D01*
X210466Y29131D01*
X210515Y29155D01*
X210734Y29253D01*
X211026Y29228D01*
X211099Y29204D01*
X211488Y29107D01*
X211658Y29058D01*
X211817Y29021D01*
X211950Y28985D01*
X212023Y29009D01*
X212084Y29167D01*
X212121Y29423D01*
X212157Y29751D01*
X212218Y30031D01*
X212242Y30226D01*
X212267Y30786D01*
X212279Y31917D01*
X212255Y31990D01*
X212230Y32647D01*
X212218Y32659D01*
X212206Y32671D01*
X212169Y32903D01*
X212145Y33122D01*
X212096Y33438D01*
X212072Y33584D01*
X212036Y33669D01*
X211999Y33705D01*
X211853Y33681D01*
X211780Y33657D01*
X211585Y33608D01*
X211427Y33572D01*
X211293Y33535D01*
X211099Y33486D01*
X210916Y33450D01*
X210758Y33438D01*
X210685Y33462D01*
X210527Y33523D01*
X210442Y33584D01*
X210381Y33645D01*
X210357Y33693D01*
X210284Y33864D01*
X210308Y34229D01*
X210466Y34436D01*
X210515Y34460D01*
X210563Y34509D01*
X210734Y34557D01*
X210977Y34630D01*
X211172Y34679D01*
X211306Y34715D01*
X211403Y34740D01*
X211525Y34764D01*
X211622Y34788D01*
X211719Y34861D01*
X211683Y35020D01*
X211658Y35117D01*
X211598Y35251D01*
X211561Y35385D01*
X211512Y35506D01*
X211452Y35664D01*
X211354Y35883D01*
X211306Y36005D01*
X211281Y36054D01*
X211208Y36224D01*
X211184Y36273D01*
X211062Y36492D01*
X210795Y37003D01*
X210697Y37173D01*
X210649Y37222D01*
X210551Y37392D01*
X210344Y37696D01*
X210174Y37964D01*
X210113Y38049D01*
X210065Y38098D01*
X210040Y38146D01*
X209992Y38195D01*
X209967Y38244D01*
X209870Y38341D01*
X209846Y38390D01*
X209736Y38523D01*
X209700Y38560D01*
X209675Y38609D01*
X209481Y38803D01*
X209456Y38852D01*
X209395Y38913D01*
X209274Y38888D01*
X208568Y38183D01*
X208519Y38159D01*
X208373Y38061D01*
X208276Y38037D01*
X207960Y38061D01*
X207729Y38219D01*
X207631Y38390D01*
X207607Y38560D01*
X207631Y38803D01*
X207680Y38852D01*
X207753Y38974D01*
X208288Y39509D01*
X208313Y39558D01*
X208349Y39594D01*
X208398Y39618D01*
X208507Y39728D01*
X208483Y39825D01*
X208446Y39886D01*
X208398Y39911D01*
X208300Y40008D01*
X208252Y40032D01*
X208203Y40081D01*
X208154Y40105D01*
X207984Y40276D01*
X207935Y40300D01*
X207887Y40349D01*
X207838Y40373D01*
X207704Y40482D01*
X207668Y40519D01*
X207619Y40543D01*
X207546Y40616D01*
X207376Y40714D01*
X207206Y40835D01*
X207035Y40932D01*
X206768Y41103D01*
X206719Y41127D01*
X206646Y41200D01*
X205453Y41784D01*
X205234Y41881D01*
X205101Y41918D01*
X204967Y41979D01*
X204869Y42003D01*
X204638Y42088D01*
X204529Y42125D01*
X204407Y42100D01*
X204371Y42064D01*
X204334Y41906D01*
X204285Y41663D01*
X204225Y41456D01*
X204188Y41297D01*
X204164Y41200D01*
X204091Y41006D01*
X204030Y40920D01*
X203945Y40811D01*
X203896Y40786D01*
X203726Y40714D01*
X203628Y40689D01*
X203385Y40714D01*
X203154Y40872D01*
X203057Y41018D01*
X203032Y41188D01*
X203057Y41529D01*
X203081Y41602D01*
X203130Y41772D01*
X203203Y42064D01*
X203251Y42234D01*
X203276Y42405D01*
X203251Y42453D01*
X203215Y42490D01*
X202546Y42599D01*
X202351Y42624D01*
X202205Y42648D01*
X201937Y42672D01*
X201475Y42697D01*
X200343Y42709D01*
D02*
G37*
%LPD*%
G36*
X202801Y38499D02*
X202923Y38475D01*
X202996Y38402D01*
X203044Y38377D01*
X203154Y38268D01*
X203227Y38098D01*
X203251Y38000D01*
X203227Y37733D01*
X203203Y37660D01*
X203130Y37368D01*
X203081Y37197D01*
X203032Y37003D01*
X202959Y36735D01*
X202935Y36638D01*
X202899Y36479D01*
X202850Y36358D01*
X202813Y36224D01*
X202777Y36066D01*
X202716Y35859D01*
X202667Y35664D01*
X202594Y35421D01*
X202533Y35141D01*
X202497Y35007D01*
X202473Y34910D01*
X202436Y34752D01*
X202351Y34472D01*
X202314Y34314D01*
X202266Y34192D01*
X202217Y33997D01*
X202193Y33876D01*
X202132Y33718D01*
X202096Y33535D01*
X202071Y33438D01*
X202035Y33304D01*
X201962Y33012D01*
X201913Y32842D01*
X201901Y32781D01*
X201937Y32696D01*
X201974Y32659D01*
X202022Y32635D01*
X202278Y32379D01*
X202302Y32331D01*
X202351Y32282D01*
X202375Y32233D01*
X202424Y32185D01*
X202546Y31868D01*
X202570Y31771D01*
X202607Y31540D01*
X202619Y31138D01*
X202594Y31065D01*
X202558Y30834D01*
X202485Y30640D01*
X202400Y30457D01*
X202351Y30408D01*
X202327Y30360D01*
X202229Y30262D01*
X202205Y30214D01*
X201998Y30007D01*
X201950Y29983D01*
X201816Y29873D01*
X201658Y29788D01*
X201426Y29703D01*
X201329Y29678D01*
X201183Y29654D01*
X200684Y29642D01*
X200611Y29666D01*
X200465Y29690D01*
X200343Y29739D01*
X200307Y29751D01*
X200295Y29764D01*
X200198Y29788D01*
X200027Y29885D01*
X199954Y29958D01*
X199905Y29983D01*
X199772Y30092D01*
X199650Y30214D01*
X199626Y30262D01*
X199553Y30335D01*
X199528Y30384D01*
X199407Y30554D01*
X199334Y30725D01*
X199285Y30895D01*
X199249Y31053D01*
X199224Y31151D01*
X199163Y31236D01*
X199030Y31272D01*
X198871Y31309D01*
X198664Y31370D01*
X198385Y31430D01*
X198178Y31491D01*
X198020Y31528D01*
X197740Y31613D01*
X197582Y31649D01*
X197460Y31698D01*
X197326Y31734D01*
X197071Y31795D01*
X196937Y31832D01*
X196779Y31868D01*
X196681Y31893D01*
X196548Y31929D01*
X196450Y31953D01*
X196292Y32014D01*
X196255Y32051D01*
X196134Y32124D01*
X196110Y32173D01*
X196061Y32197D01*
X196000Y32355D01*
X195976Y32452D01*
X195963Y32586D01*
X195988Y32683D01*
X196073Y32866D01*
X196134Y32927D01*
X196182Y32951D01*
X196255Y33024D01*
X196353Y33049D01*
X196426Y33073D01*
X196815Y33049D01*
X196888Y33024D01*
X196985Y33000D01*
X197253Y32927D01*
X197351Y32903D01*
X197484Y32866D01*
X197691Y32805D01*
X197849Y32769D01*
X197971Y32720D01*
X198166Y32671D01*
X198287Y32647D01*
X198567Y32562D01*
X198725Y32525D01*
X198823Y32501D01*
X198957Y32464D01*
X199054Y32440D01*
X199236Y32404D01*
X199334Y32379D01*
X199468Y32318D01*
X199589Y32392D01*
X199699Y32501D01*
X199723Y32550D01*
X199808Y32635D01*
X199857Y32659D01*
X199954Y32757D01*
X200003Y32781D01*
X200198Y32903D01*
X200331Y32939D01*
X200490Y33000D01*
X200721Y33036D01*
X200794Y33085D01*
X200842Y33255D01*
X200915Y33523D01*
X200940Y33620D01*
X200976Y33779D01*
X201037Y33985D01*
X201061Y34083D01*
X201098Y34216D01*
X201159Y34375D01*
X201220Y34655D01*
X201280Y34813D01*
X201317Y34995D01*
X201341Y35092D01*
X201378Y35226D01*
X201402Y35324D01*
X201439Y35457D01*
X201511Y35749D01*
X201536Y35871D01*
X201560Y35968D01*
X201621Y36175D01*
X201670Y36370D01*
X201743Y36540D01*
X201803Y36796D01*
X201840Y36930D01*
X201864Y37027D01*
X201925Y37283D01*
X201962Y37416D01*
X202010Y37611D01*
X202083Y37879D01*
X202120Y38037D01*
X202169Y38159D01*
X202205Y38195D01*
X202278Y38317D01*
X202388Y38426D01*
X202558Y38499D01*
X202728Y38523D01*
X202801Y38499D01*
D02*
G37*
%LPC*%
G36*
X201000Y31905D02*
X200733Y31881D01*
X200562Y31783D01*
X200453Y31674D01*
X200380Y31503D01*
X200368Y31442D01*
X200356Y31430D01*
X200380Y31163D01*
X200538Y30931D01*
X200684Y30834D01*
X200879Y30786D01*
X201122Y30810D01*
X201292Y30931D01*
X201402Y31041D01*
X201451Y31163D01*
X201475Y31260D01*
X201451Y31552D01*
X201353Y31722D01*
X201268Y31807D01*
X201098Y31881D01*
X201000Y31905D01*
D02*
G37*
G36*
X179247Y44728D02*
X179028Y44704D01*
X178869Y44546D01*
X178845Y44449D01*
X178869Y44327D01*
X178906Y44290D01*
X178918Y44278D01*
X178955Y44242D01*
X179003Y44217D01*
X179076Y44144D01*
X179125Y44120D01*
X179259Y44011D01*
X179344Y43950D01*
X179393Y43901D01*
X179514Y43925D01*
X179575Y43986D01*
X179599Y44059D01*
X179672Y44181D01*
X179648Y44424D01*
X179575Y44497D01*
X179551Y44546D01*
X179417Y44680D01*
X179247Y44728D01*
D02*
G37*
G36*
X180196Y44169D02*
X180074Y44120D01*
X179952Y44047D01*
X179843Y43938D01*
X179818Y43889D01*
X179709Y43755D01*
X179697Y43694D01*
X179733Y43658D01*
X179782Y43633D01*
X179855Y43560D01*
X179977Y43487D01*
X180025Y43439D01*
X180147Y43366D01*
X180220Y43293D01*
X180268Y43268D01*
X180341Y43195D01*
X180439Y43171D01*
X180500Y43208D01*
X180573Y43329D01*
X180621Y43378D01*
X180646Y43451D01*
X180694Y43500D01*
X180743Y43694D01*
X180707Y43852D01*
X180646Y43913D01*
X180621Y43962D01*
X180487Y44096D01*
X180378Y44132D01*
X180366Y44144D01*
X180196Y44169D01*
D02*
G37*
G36*
X195306Y47965D02*
X195233Y47940D01*
X195039Y47916D01*
X194966Y47892D01*
X194869Y47867D01*
X194613Y47807D01*
X194370Y47709D01*
X194236Y47648D01*
X194114Y47600D01*
X193798Y47429D01*
X193664Y47320D01*
X193518Y47223D01*
X193482Y47186D01*
X193433Y47162D01*
X193287Y47016D01*
X193250Y47004D01*
X193226Y46955D01*
X192983Y46712D01*
X192958Y46663D01*
X192885Y46590D01*
X192812Y46468D01*
X192654Y46237D01*
X192545Y46030D01*
X192496Y45909D01*
X192423Y45738D01*
X192399Y45641D01*
X192326Y45398D01*
X192301Y45227D01*
X192277Y45130D01*
X192241Y44899D01*
X192216Y44631D01*
X192204Y44424D01*
X192228Y44351D01*
X192265Y44071D01*
X192313Y43779D01*
X192338Y43682D01*
X192386Y43633D01*
X192508Y43658D01*
X192557Y43706D01*
X192605Y43731D01*
X192910Y43938D01*
X192971Y43998D01*
X193092Y44071D01*
X193360Y44217D01*
X193701Y44412D01*
X193920Y44534D01*
X194528Y44826D01*
X194747Y44923D01*
X194905Y44984D01*
X195306Y45166D01*
X195331D01*
X195343Y45179D01*
X195440Y45203D01*
X195599Y45264D01*
X195696Y45288D01*
X196085Y45410D01*
X196402Y45507D01*
X196657Y45568D01*
X196864Y45629D01*
X197144Y45690D01*
X197278Y45726D01*
X197448Y45750D01*
X197983Y45848D01*
X198300Y45872D01*
X198628Y45909D01*
X198701Y45957D01*
X198677Y46103D01*
X198628Y46152D01*
X198458Y46468D01*
X198409Y46517D01*
X198385Y46566D01*
X198275Y46699D01*
X198214Y46760D01*
X198190Y46809D01*
X197861Y47137D01*
X197813Y47162D01*
X197715Y47259D01*
X197667Y47283D01*
X197618Y47332D01*
X197570Y47356D01*
X197521Y47405D01*
X197399Y47478D01*
X197034Y47648D01*
X196985Y47673D01*
X196815Y47746D01*
X196718Y47770D01*
X196548Y47843D01*
X196268Y47904D01*
X196170Y47928D01*
X196024Y47953D01*
X195306Y47965D01*
D02*
G37*
G36*
X212072Y43560D02*
X211999Y43536D01*
X211488Y43512D01*
X211366Y43463D01*
X211269Y43439D01*
X211111Y43402D01*
X211026Y43366D01*
X210904Y43317D01*
X210746Y43256D01*
X210709Y43220D01*
X210612Y43195D01*
X210503Y43135D01*
X210490Y43122D01*
X210223Y42976D01*
X210162Y42940D01*
X210186Y42818D01*
X210223Y42782D01*
X210271Y42757D01*
X210320Y42709D01*
X210369Y42684D01*
X210588Y42514D01*
X210819Y42356D01*
X210953Y42222D01*
X210989Y42210D01*
X211014Y42161D01*
X211099Y42100D01*
X211147Y42052D01*
X211196Y42027D01*
X211245Y41979D01*
X211293Y41954D01*
X211366Y41881D01*
X211415Y41857D01*
X212157Y41115D01*
X212182Y41066D01*
X212449Y40799D01*
X212474Y40750D01*
X212595Y40628D01*
X212620Y40580D01*
X212668Y40531D01*
X212693Y40482D01*
X212814Y40361D01*
X212839Y40312D01*
X212948Y40178D01*
X213009Y40093D01*
X213082Y40020D01*
X213106Y39971D01*
X213228Y39801D01*
X213252Y39752D01*
X213593Y39266D01*
X213617Y39217D01*
X213739Y39022D01*
X213763Y38974D01*
X213934Y38657D01*
X213982Y38609D01*
X214104Y38390D01*
X214250Y38073D01*
X214372Y37806D01*
X214432Y37696D01*
X214530Y37720D01*
X214615Y37806D01*
X214639Y37854D01*
X214810Y38025D01*
X214834Y38073D01*
X214956Y38244D01*
X214980Y38292D01*
X215077Y38438D01*
X215248Y38755D01*
X215296Y38876D01*
X215321Y38974D01*
X215369Y39095D01*
X215418Y39266D01*
X215491Y39679D01*
X215515Y39850D01*
X215491Y40653D01*
X215467Y40726D01*
X215442Y40823D01*
X215381Y41103D01*
X215357Y41200D01*
X215284Y41395D01*
X215175Y41650D01*
X215150Y41699D01*
X215102Y41748D01*
X214980Y41967D01*
X214858Y42137D01*
X214834Y42186D01*
X214664Y42405D01*
X214481Y42587D01*
X214432Y42611D01*
X214189Y42855D01*
X214140Y42879D01*
X214092Y42928D01*
X213921Y43025D01*
X213702Y43147D01*
X213386Y43293D01*
X213264Y43341D01*
X213094Y43414D01*
X212912Y43451D01*
X212778Y43487D01*
X212680Y43512D01*
X212364Y43536D01*
X212072Y43560D01*
D02*
G37*
G36*
X196231Y10443D02*
X196170Y10431D01*
X196146Y10382D01*
Y10358D01*
X196122Y10260D01*
X195976Y9993D01*
X195866Y9786D01*
X195830Y9774D01*
X195854Y9652D01*
X196000Y9628D01*
X196268Y9555D01*
X196304Y9543D01*
X196389Y9603D01*
X196353Y9859D01*
X196329Y9956D01*
X196292Y10090D01*
X196268Y10406D01*
X196231Y10443D01*
D02*
G37*
%LPD*%
D27*
X51373Y542696D02*
D03*
Y537696D02*
D03*
Y532696D02*
D03*
Y527696D02*
D03*
X80834D02*
D03*
Y532696D02*
D03*
Y537696D02*
D03*
Y542696D02*
D03*
D28*
X58604Y520465D02*
D03*
X63604D02*
D03*
X68604D02*
D03*
X73604D02*
D03*
Y549926D02*
D03*
X68604D02*
D03*
X63604D02*
D03*
X58604D02*
D03*
D50*
X193729Y181050D02*
D03*
Y176050D02*
D03*
Y171050D02*
D03*
Y166050D02*
D03*
Y161050D02*
D03*
Y156050D02*
D03*
Y151050D02*
D03*
Y146050D02*
D03*
X208929Y181050D02*
D03*
Y176050D02*
D03*
Y171050D02*
D03*
Y166050D02*
D03*
Y161050D02*
D03*
Y156050D02*
D03*
Y151050D02*
D03*
Y146050D02*
D03*
D51*
X201329Y163550D02*
D03*
D53*
X454571Y189282D02*
D03*
X429571D02*
D03*
D54*
X514470Y351748D02*
D03*
X519470D02*
D03*
X524470D02*
D03*
X529470D02*
D03*
Y305498D02*
D03*
X524470D02*
D03*
X519470D02*
D03*
X514470D02*
D03*
D55*
X506345Y306123D02*
D03*
Y311123D02*
D03*
Y316123D02*
D03*
Y321123D02*
D03*
Y326123D02*
D03*
Y331123D02*
D03*
Y336123D02*
D03*
Y341123D02*
D03*
Y346123D02*
D03*
Y351123D02*
D03*
X537595Y346123D02*
D03*
Y341123D02*
D03*
Y336123D02*
D03*
Y331123D02*
D03*
Y326123D02*
D03*
Y321123D02*
D03*
Y316123D02*
D03*
Y311123D02*
D03*
Y306123D02*
D03*
Y351123D02*
D03*
D58*
X144565Y213016D02*
D03*
Y58016D02*
D03*
D59*
X155065Y197516D02*
D03*
Y186516D02*
D03*
Y175516D02*
D03*
Y164516D02*
D03*
Y153516D02*
D03*
Y142516D02*
D03*
Y131516D02*
D03*
Y120516D02*
D03*
Y109516D02*
D03*
D60*
X48565Y210516D02*
D03*
Y53516D02*
D03*
D61*
X256687Y255469D02*
D03*
X188687D02*
D03*
X568232Y529110D02*
D03*
X500232D02*
D03*
D62*
X232687Y277969D02*
D03*
X212687D02*
D03*
X544231Y506610D02*
D03*
X524231D02*
D03*
D63*
X426075Y212978D02*
D03*
X409075D02*
D03*
X118102Y585036D02*
D03*
X135102D02*
D03*
X95776Y331097D02*
D03*
X112776D02*
D03*
X171031Y428875D02*
D03*
X154031D02*
D03*
X462321Y212654D02*
D03*
X445321D02*
D03*
D64*
X441007Y24648D02*
D03*
X548007D02*
D03*
X421381Y24082D02*
D03*
X314381D02*
D03*
D65*
X524507Y82148D02*
D03*
X504507D02*
D03*
X484507D02*
D03*
X464507D02*
D03*
X337881Y81582D02*
D03*
X357881D02*
D03*
X377881D02*
D03*
X397881D02*
D03*
D66*
X442869Y251488D02*
D03*
Y263488D02*
D03*
Y275488D02*
D03*
Y287488D02*
D03*
Y299488D02*
D03*
Y311488D02*
D03*
Y323488D02*
D03*
Y335488D02*
D03*
Y347488D02*
D03*
Y359488D02*
D03*
Y371488D02*
D03*
Y383488D02*
D03*
Y395488D02*
D03*
Y407488D02*
D03*
Y419488D02*
D03*
Y431488D02*
D03*
Y443488D02*
D03*
Y455488D02*
D03*
Y467488D02*
D03*
Y479488D02*
D03*
X308869Y479488D02*
D03*
Y467488D02*
D03*
Y455488D02*
D03*
Y443488D02*
D03*
Y431488D02*
D03*
Y419488D02*
D03*
Y407488D02*
D03*
Y395488D02*
D03*
Y383488D02*
D03*
Y371488D02*
D03*
Y359488D02*
D03*
Y347488D02*
D03*
Y335488D02*
D03*
Y323488D02*
D03*
Y311488D02*
D03*
Y299488D02*
D03*
Y287488D02*
D03*
Y275488D02*
D03*
Y263488D02*
D03*
Y251488D02*
D03*
D67*
X315831Y237076D02*
D03*
X327831D02*
D03*
X339831D02*
D03*
X351831D02*
D03*
X363831D02*
D03*
X375831D02*
D03*
X387831D02*
D03*
X399831D02*
D03*
X411831D02*
D03*
X423831D02*
D03*
X435831D02*
D03*
D68*
X355016Y287630D02*
D03*
X384251D02*
D03*
Y316179D02*
D03*
X355016D02*
D03*
X386309Y416560D02*
D03*
X364490D02*
D03*
Y438734D02*
D03*
X386309D02*
D03*
D69*
X578358Y71120D02*
D03*
X19463Y444798D02*
D03*
X76492Y23790D02*
D03*
X521142Y579120D02*
D03*
D70*
X66104Y535196D02*
D03*
D71*
X30991Y371851D02*
D03*
Y390601D02*
D03*
D72*
X61741Y394226D02*
D03*
Y387726D02*
D03*
Y381226D02*
D03*
Y374726D02*
D03*
Y368226D02*
D03*
D73*
X131364Y335226D02*
D03*
Y352226D02*
D03*
X554990Y136779D02*
D03*
Y119780D02*
D03*
X386237Y154550D02*
D03*
Y137550D02*
D03*
X409576Y155882D02*
D03*
Y138882D02*
D03*
X237430Y85465D02*
D03*
Y68465D02*
D03*
X267340Y39638D02*
D03*
Y22638D02*
D03*
X515582Y179187D02*
D03*
Y196187D02*
D03*
X473710Y231530D02*
D03*
Y248530D02*
D03*
X510401Y247768D02*
D03*
Y230768D02*
D03*
X485140Y295988D02*
D03*
Y278988D02*
D03*
X587201Y490130D02*
D03*
Y507130D02*
D03*
X129284Y299179D02*
D03*
Y316179D02*
D03*
X106142Y474257D02*
D03*
Y491257D02*
D03*
X87013Y477035D02*
D03*
Y494035D02*
D03*
X57891Y477352D02*
D03*
Y494352D02*
D03*
X14325Y545335D02*
D03*
Y528335D02*
D03*
X201349Y85465D02*
D03*
Y102465D02*
D03*
X479120Y178782D02*
D03*
Y195782D02*
D03*
D74*
X99634Y383491D02*
D03*
X80634D02*
D03*
Y403491D02*
D03*
D75*
X97634D02*
D03*
D76*
X491674Y248530D02*
D03*
Y231530D02*
D03*
X116318Y409257D02*
D03*
Y426257D02*
D03*
X95929Y572150D02*
D03*
Y589150D02*
D03*
X116135Y373053D02*
D03*
Y390053D02*
D03*
X227484Y371762D02*
D03*
Y354762D02*
D03*
X219129Y68465D02*
D03*
Y85465D02*
D03*
X176579Y124473D02*
D03*
Y141473D02*
D03*
X497047Y196187D02*
D03*
Y179187D02*
D03*
X550361Y286640D02*
D03*
Y269640D02*
D03*
X566700Y303140D02*
D03*
Y286140D02*
D03*
X486214Y322473D02*
D03*
Y339473D02*
D03*
X568555Y346123D02*
D03*
Y329123D02*
D03*
X586740Y346123D02*
D03*
Y329123D02*
D03*
D77*
X511302Y421145D02*
D03*
X577176Y106640D02*
D03*
X570459Y224135D02*
D03*
X154482Y295063D02*
D03*
X517885Y144790D02*
D03*
X496577Y393665D02*
D03*
X581660Y138374D02*
D03*
X471170Y366839D02*
D03*
X528145Y447524D02*
D03*
X474425Y419671D02*
D03*
X244197Y446267D02*
D03*
X270417Y432504D02*
D03*
X158958Y25919D02*
D03*
X96713Y303366D02*
D03*
X467863Y451154D02*
D03*
X290817Y40154D02*
D03*
X292213Y98270D02*
D03*
X347880Y121531D02*
D03*
X236502Y39375D02*
D03*
X187068Y204028D02*
D03*
X177329Y65972D02*
D03*
X237574Y201399D02*
D03*
X247901Y321179D02*
D03*
X510401Y270734D02*
D03*
X239391Y509250D02*
D03*
X102878Y245110D02*
D03*
X231758Y570128D02*
D03*
D78*
X56459Y582461D02*
D03*
X75459D02*
D03*
X444012Y150892D02*
D03*
X463012D02*
D03*
X172031Y572150D02*
D03*
X153031D02*
D03*
X85460Y449060D02*
D03*
X104460D02*
D03*
D79*
X569240Y369090D02*
D03*
Y410590D02*
D03*
X590740D02*
D03*
Y369090D02*
D03*
X565240Y162528D02*
D03*
Y204028D02*
D03*
X586740D02*
D03*
Y162528D02*
D03*
D80*
X557257Y448441D02*
D03*
X577257Y457941D02*
D03*
Y438941D02*
D03*
D81*
X181579Y383628D02*
D03*
X186079D02*
D03*
X190579D02*
D03*
X195079D02*
D03*
X199579D02*
D03*
X204079D02*
D03*
Y414628D02*
D03*
X199579D02*
D03*
X195079D02*
D03*
X190579D02*
D03*
X186079D02*
D03*
X181579D02*
D03*
D82*
X53991Y280393D02*
D03*
Y260393D02*
D03*
D83*
X31491Y304393D02*
D03*
Y236393D02*
D03*
D84*
X163165Y344670D02*
D03*
X204165D02*
D03*
D85*
X221140Y391078D02*
D03*
Y408223D02*
D03*
X252035Y587106D02*
D03*
Y569961D02*
D03*
X241149Y528033D02*
D03*
Y545178D02*
D03*
X586740Y308573D02*
D03*
Y291427D02*
D03*
X542675Y398411D02*
D03*
Y381266D02*
D03*
X537595Y245648D02*
D03*
Y228503D02*
D03*
X16158Y506038D02*
D03*
Y488893D02*
D03*
X39252Y477188D02*
D03*
Y494333D02*
D03*
X53562Y455356D02*
D03*
Y438211D02*
D03*
D86*
X218089Y585519D02*
D03*
X200944D02*
D03*
X504562Y122282D02*
D03*
X521707D02*
D03*
X434273D02*
D03*
X451418D02*
D03*
X235434Y146050D02*
D03*
X252579D02*
D03*
X249825Y176708D02*
D03*
X232680D02*
D03*
X266226Y338574D02*
D03*
X283371D02*
D03*
X98522Y428325D02*
D03*
X81377D02*
D03*
D87*
X275047Y407044D02*
D03*
Y388044D02*
D03*
X240800Y469316D02*
D03*
Y488316D02*
D03*
X134390Y470052D02*
D03*
Y451052D02*
D03*
X264736Y469506D02*
D03*
Y488506D02*
D03*
D88*
X249706Y395283D02*
D03*
Y375683D02*
D03*
X272090Y57365D02*
D03*
Y76965D02*
D03*
X409576Y174345D02*
D03*
Y193945D02*
D03*
X386309Y193849D02*
D03*
Y174249D02*
D03*
X106892Y531196D02*
D03*
Y511596D02*
D03*
X129953Y531196D02*
D03*
Y511596D02*
D03*
D89*
X108911Y351386D02*
D03*
X89911D02*
D03*
D90*
X335280Y149732D02*
D03*
X294640D02*
D03*
X335280Y162432D02*
D03*
Y175132D02*
D03*
X294640D02*
D03*
X335280Y187832D02*
D03*
X294640D02*
D03*
X335280Y200532D02*
D03*
X294640D02*
D03*
D91*
X213650Y521760D02*
D03*
X162650D02*
D03*
D92*
X190035Y569610D02*
D03*
X207034D02*
D03*
X409576Y117532D02*
D03*
X392575D02*
D03*
X134250Y389762D02*
D03*
X151250D02*
D03*
X134750Y406315D02*
D03*
X151750D02*
D03*
X121944Y547696D02*
D03*
X104944D02*
D03*
D93*
X180650Y457352D02*
D03*
X185650D02*
D03*
X190650D02*
D03*
X195650D02*
D03*
Y476352D02*
D03*
X190650D02*
D03*
X185650D02*
D03*
X180650D02*
D03*
D94*
X188150Y466852D02*
D03*
D95*
X260629Y123282D02*
D03*
X219129D02*
D03*
Y101782D02*
D03*
X260629D02*
D03*
D96*
X44565Y181516D02*
D03*
D97*
Y101516D02*
D03*
D98*
X63791Y356976D02*
D03*
Y405476D02*
D03*
D99*
X32991Y340226D02*
D03*
Y422226D02*
D03*
D100*
X24701Y576475D02*
D03*
X31463Y23875D02*
D03*
X575540Y26964D02*
D03*
X574257Y576580D02*
D03*
D101*
X199267Y443488D02*
D03*
D102*
X261017Y406821D02*
D03*
X221264Y54178D02*
D03*
X369490Y433734D02*
D03*
X359490D02*
D03*
X369490Y443734D02*
D03*
X359490D02*
D03*
X391309Y433734D02*
D03*
X381309D02*
D03*
X391309Y443734D02*
D03*
X381309D02*
D03*
X369490Y411560D02*
D03*
X359490D02*
D03*
X369490Y421560D02*
D03*
X359490D02*
D03*
X391309Y411560D02*
D03*
X381309D02*
D03*
X391309Y421560D02*
D03*
X381309D02*
D03*
X360016Y311179D02*
D03*
X350016D02*
D03*
X360016Y321179D02*
D03*
X350016D02*
D03*
X389251Y311179D02*
D03*
X379251D02*
D03*
X389251Y321179D02*
D03*
X379251D02*
D03*
X389251Y282630D02*
D03*
X379251D02*
D03*
X389251Y292630D02*
D03*
X379251D02*
D03*
X360016Y282630D02*
D03*
X350016D02*
D03*
X360016Y292630D02*
D03*
X350016D02*
D03*
X423023Y483760D02*
D03*
X415290Y484110D02*
D03*
X406400D02*
D03*
X397510D02*
D03*
X389251Y483760D02*
D03*
X379251Y483897D02*
D03*
X369490Y484110D02*
D03*
X359410D02*
D03*
X348528D02*
D03*
X339831Y483760D02*
D03*
X332740Y484110D02*
D03*
X429163Y492814D02*
D03*
X420467D02*
D03*
X412750D02*
D03*
X401320D02*
D03*
X393700D02*
D03*
X384251Y492760D02*
D03*
X372285Y492814D02*
D03*
X364490D02*
D03*
X353939D02*
D03*
X344170D02*
D03*
X336550D02*
D03*
X328692D02*
D03*
X136930Y550196D02*
D03*
X136904Y557715D02*
D03*
Y565611D02*
D03*
X138349Y572650D02*
D03*
X245149Y557055D02*
D03*
X186789Y581802D02*
D03*
X219020Y544396D02*
D03*
X207164Y544606D02*
D03*
X199677Y544396D02*
D03*
X185650Y544734D02*
D03*
X179041Y544396D02*
D03*
X172031D02*
D03*
X164642D02*
D03*
X157450Y544023D02*
D03*
X238101Y556605D02*
D03*
X219014Y551821D02*
D03*
X203509Y550830D02*
D03*
X195994Y550488D02*
D03*
X182829Y550830D02*
D03*
X175650D02*
D03*
X168305D02*
D03*
X159483D02*
D03*
X42083Y448646D02*
D03*
X52814Y464998D02*
D03*
X146569Y352026D02*
D03*
X203706Y375128D02*
D03*
X197228Y370781D02*
D03*
X77645Y414128D02*
D03*
X103422Y368063D02*
D03*
X74863Y374723D02*
D03*
X138988Y164717D02*
D03*
X182274Y112940D02*
D03*
X28911Y506641D02*
D03*
X463512Y105507D02*
D03*
X514981Y342119D02*
D03*
X586740Y277055D02*
D03*
X180155Y445450D02*
D03*
X164481Y42794D02*
D03*
X497842Y284948D02*
D03*
X129686Y373316D02*
D03*
X175457Y164003D02*
D03*
X224944Y161131D02*
D03*
X133285Y284717D02*
D03*
X378273Y56851D02*
D03*
X398519D02*
D03*
X45380Y548949D02*
D03*
X36775Y536194D02*
D03*
X34172Y512102D02*
D03*
X591312Y396903D02*
D03*
X473196Y392464D02*
D03*
X423023Y394673D02*
D03*
X94420Y396919D02*
D03*
X235855Y390755D02*
D03*
X214719Y372025D02*
D03*
X190035Y423575D02*
D03*
X281300Y459839D02*
D03*
X203165Y424880D02*
D03*
X327831Y442510D02*
D03*
X284261Y421380D02*
D03*
X215379Y359554D02*
D03*
X190035Y375683D02*
D03*
X235099Y408223D02*
D03*
X264736Y363034D02*
D03*
X279872Y352910D02*
D03*
X273910Y375456D02*
D03*
X221516Y337215D02*
D03*
X344170Y410412D02*
D03*
X173664Y372025D02*
D03*
X168466Y414215D02*
D03*
X163403Y384580D02*
D03*
X291463Y371488D02*
D03*
X159877Y325465D02*
D03*
X433021Y162274D02*
D03*
X171501Y582969D02*
D03*
X537079Y215392D02*
D03*
X481427Y307125D02*
D03*
X542031Y369090D02*
D03*
X427872Y371488D02*
D03*
X102878Y269437D02*
D03*
X237430Y53793D02*
D03*
X430426Y478816D02*
D03*
X294981Y299488D02*
D03*
X494774Y165862D02*
D03*
X478870Y165692D02*
D03*
X420887Y129829D02*
D03*
X375087Y127362D02*
D03*
X484614Y218694D02*
D03*
X380811Y117532D02*
D03*
X568555Y119742D02*
D03*
X314962Y222076D02*
D03*
X352331Y221742D02*
D03*
X365556Y190859D02*
D03*
X363831Y152484D02*
D03*
X365831Y214100D02*
D03*
X221033Y171261D02*
D03*
X536579Y154512D02*
D03*
X542675Y108722D02*
D03*
X542345Y144790D02*
D03*
X182968Y161503D02*
D03*
X554990Y360680D02*
D03*
X554420Y186270D02*
D03*
X586727Y183277D02*
D03*
X586740Y359488D02*
D03*
X273479Y91926D02*
D03*
X68698Y461352D02*
D03*
X67817Y450553D02*
D03*
X289301Y287488D02*
D03*
X252682Y161577D02*
D03*
X62603Y506038D02*
D03*
X176579Y155402D02*
D03*
X267340Y10132D02*
D03*
X241344Y122577D02*
D03*
X568555Y317046D02*
D03*
X458470Y247650D02*
D03*
X566700Y273930D02*
D03*
X549910Y331123D02*
D03*
X550361Y257430D02*
D03*
D103*
X71396Y540488D02*
D03*
X60812D02*
D03*
X66104Y535196D02*
D03*
X60812Y529904D02*
D03*
X71396D02*
D03*
D104*
X184150Y466852D02*
D03*
X192150D02*
D03*
M02*
