G04*
G04 #@! TF.GenerationSoftware,Altium Limited,Altium Designer,23.8.1 (32)*
G04*
G04 Layer_Color=32896*
%FSLAX44Y44*%
%MOMM*%
G71*
G04*
G04 #@! TF.SameCoordinates,271CB4FA-4F0A-43F9-8DEE-C87A6A24424C*
G04*
G04*
G04 #@! TF.FilePolarity,Positive*
G04*
G01*
G75*
%ADD11C,0.2000*%
%ADD113C,0.2540*%
G36*
X165581Y292507D02*
X165756D01*
Y292157D01*
X165931D01*
Y291807D01*
X166106D01*
Y291458D01*
X166281D01*
Y291108D01*
X166455D01*
Y290758D01*
X166630D01*
Y290408D01*
X166805D01*
Y290058D01*
X166980D01*
Y289708D01*
X167155D01*
Y289533D01*
X167330D01*
Y289359D01*
X167505D01*
Y289009D01*
X166281D01*
Y289359D01*
X166630D01*
Y289708D01*
X166455D01*
Y290058D01*
X165231D01*
Y289883D01*
X165056D01*
Y289359D01*
Y289184D01*
X165231D01*
Y289009D01*
X165406D01*
Y288834D01*
X164881D01*
Y288659D01*
X163832D01*
Y289009D01*
X164006D01*
Y289184D01*
X164181D01*
Y289883D01*
X164356D01*
Y290408D01*
X164531D01*
Y291108D01*
X164706D01*
Y291807D01*
X164881D01*
Y292507D01*
X165056D01*
Y292857D01*
X165581D01*
Y292507D01*
D02*
G37*
G36*
X178001Y292157D02*
X179051D01*
Y291982D01*
X179401D01*
Y291807D01*
X179576D01*
Y291633D01*
X179750D01*
Y291458D01*
X179925D01*
Y290583D01*
X179750D01*
Y290233D01*
X179576D01*
Y290058D01*
X179226D01*
Y289883D01*
X178701D01*
Y289708D01*
X177826D01*
Y289533D01*
X177476D01*
Y289184D01*
X177301D01*
Y289009D01*
X177476D01*
Y288659D01*
X177826D01*
Y288484D01*
X178526D01*
Y288659D01*
X178701D01*
Y288834D01*
X178876D01*
Y289009D01*
X179051D01*
Y289184D01*
X179401D01*
Y288484D01*
X179226D01*
Y287959D01*
X178876D01*
Y288134D01*
X177651D01*
Y288309D01*
X177301D01*
Y288484D01*
X176952D01*
Y288659D01*
X176777D01*
Y289009D01*
X176602D01*
Y289533D01*
X176777D01*
Y289883D01*
X176952D01*
Y290058D01*
X177127D01*
Y290233D01*
X177301D01*
Y290408D01*
X177826D01*
Y290583D01*
X178701D01*
Y290758D01*
X179051D01*
Y290933D01*
X179226D01*
Y291458D01*
X179051D01*
Y291633D01*
X178701D01*
Y291807D01*
X178351D01*
Y291633D01*
X178001D01*
Y291458D01*
X177826D01*
Y291283D01*
X177651D01*
Y291108D01*
X177301D01*
Y291633D01*
X177476D01*
Y292332D01*
X178001D01*
Y292157D01*
D02*
G37*
G36*
X158933Y291283D02*
Y291108D01*
X158758D01*
Y290408D01*
X158933D01*
Y289708D01*
X159108D01*
Y289184D01*
X159283D01*
Y288659D01*
X159458D01*
Y288309D01*
X159633D01*
Y288134D01*
X159983D01*
Y287784D01*
X159808D01*
Y287609D01*
X159283D01*
Y287434D01*
X158583D01*
Y287259D01*
X158059D01*
Y287084D01*
X157534D01*
Y286909D01*
X157184D01*
Y287259D01*
X157009D01*
Y287784D01*
X156834D01*
Y288134D01*
X157009D01*
Y288309D01*
X157184D01*
Y287959D01*
X157359D01*
Y287784D01*
X157534D01*
Y287609D01*
X158408D01*
Y287784D01*
X158758D01*
Y288134D01*
X158583D01*
Y288834D01*
X158408D01*
Y289359D01*
X158234D01*
Y289883D01*
X158059D01*
Y290408D01*
X157884D01*
Y290758D01*
X157359D01*
Y291108D01*
X157884D01*
Y291283D01*
X158408D01*
Y291458D01*
X158933D01*
Y291283D01*
D02*
G37*
G36*
X191646Y286735D02*
X191996D01*
Y286560D01*
X192171D01*
Y286385D01*
X192521D01*
Y286210D01*
X192696D01*
Y286035D01*
X192871D01*
Y285860D01*
X192696D01*
Y285685D01*
X192521D01*
Y285860D01*
X192346D01*
Y285685D01*
X192171D01*
Y285510D01*
X191996D01*
Y285160D01*
X191821D01*
Y284985D01*
X191646D01*
Y284635D01*
X191471D01*
Y284285D01*
X191296D01*
Y284111D01*
X191121D01*
Y283761D01*
X190946D01*
Y283586D01*
X190771D01*
Y283236D01*
X190946D01*
Y282886D01*
X190422D01*
Y283061D01*
X190072D01*
Y283236D01*
X189897D01*
Y283411D01*
X189547D01*
Y283936D01*
X189897D01*
Y283761D01*
X190072D01*
Y283936D01*
X190247D01*
Y284285D01*
X190422D01*
Y284460D01*
X190596D01*
Y284810D01*
X190771D01*
Y284985D01*
X190946D01*
Y285335D01*
X191121D01*
Y285510D01*
X191296D01*
Y285860D01*
X191471D01*
Y286210D01*
X191646D01*
Y286385D01*
X191471D01*
Y286909D01*
X191646D01*
Y286735D01*
D02*
G37*
G36*
X185173Y290058D02*
X185348D01*
Y289883D01*
X186048D01*
Y289708D01*
X186398D01*
Y289533D01*
X186748D01*
Y289359D01*
X186923D01*
Y289009D01*
X187098D01*
Y288309D01*
X186923D01*
Y287959D01*
X186748D01*
Y287784D01*
X186398D01*
Y287609D01*
X185873D01*
Y287434D01*
X184299D01*
Y287259D01*
X184124D01*
Y286735D01*
X184299D01*
Y286560D01*
X184474D01*
Y286385D01*
X185523D01*
Y286560D01*
X185698D01*
Y286735D01*
X185873D01*
Y286909D01*
X186048D01*
Y286735D01*
X186223D01*
Y286560D01*
X186048D01*
Y286035D01*
X185873D01*
Y285685D01*
X185698D01*
Y285510D01*
X185523D01*
Y285685D01*
X185348D01*
Y285860D01*
X184824D01*
Y286035D01*
X184299D01*
Y286210D01*
X183949D01*
Y286385D01*
X183774D01*
Y286560D01*
X183599D01*
Y286909D01*
X183424D01*
Y287434D01*
X183599D01*
Y287959D01*
X183774D01*
Y288134D01*
X184124D01*
Y288309D01*
X185873D01*
Y288484D01*
X186223D01*
Y288659D01*
X186398D01*
Y289184D01*
X186223D01*
Y289359D01*
X185873D01*
Y289533D01*
X185348D01*
Y289359D01*
X184998D01*
Y289184D01*
X184824D01*
Y289009D01*
X184474D01*
Y289359D01*
X184649D01*
Y289883D01*
X184824D01*
Y290233D01*
X185173D01*
Y290058D01*
D02*
G37*
G36*
X150536Y288134D02*
X150711D01*
Y287959D01*
X150886D01*
Y287784D01*
X151061D01*
Y287609D01*
X151236D01*
Y287434D01*
X151411D01*
Y287259D01*
X151761D01*
Y287084D01*
X151936D01*
Y286909D01*
X152111D01*
Y286735D01*
X152286D01*
Y286560D01*
X152461D01*
Y286385D01*
X152636D01*
Y286210D01*
X152811D01*
Y286035D01*
X152986D01*
Y285860D01*
X153685D01*
Y285335D01*
X153336D01*
Y285160D01*
X152986D01*
Y284985D01*
X152636D01*
Y285335D01*
X152811D01*
Y285685D01*
X152636D01*
Y285860D01*
X151936D01*
Y285685D01*
X151586D01*
Y285510D01*
X151236D01*
Y284985D01*
X151411D01*
Y284810D01*
X151761D01*
Y284285D01*
X151411D01*
Y284111D01*
X151061D01*
Y283936D01*
X150711D01*
Y283761D01*
X150536D01*
Y283936D01*
X150362D01*
Y284111D01*
X150536D01*
Y285335D01*
X150362D01*
Y286735D01*
X150187D01*
Y288134D01*
X150362D01*
Y288309D01*
X150536D01*
Y288134D01*
D02*
G37*
G36*
X144939Y284285D02*
X145114D01*
Y284111D01*
X144939D01*
Y283761D01*
X145114D01*
Y283411D01*
X145288D01*
Y283236D01*
X145463D01*
Y283061D01*
X145638D01*
Y282886D01*
X145813D01*
Y282711D01*
X145988D01*
Y282361D01*
X146163D01*
Y282186D01*
X146338D01*
Y282011D01*
X146513D01*
Y281836D01*
X146688D01*
Y281661D01*
X147038D01*
Y281836D01*
X147213D01*
Y281661D01*
X147388D01*
Y281486D01*
X147213D01*
Y281311D01*
X147038D01*
Y281137D01*
X146688D01*
Y280962D01*
X146513D01*
Y280787D01*
X146338D01*
Y280612D01*
X146163D01*
Y280437D01*
X145988D01*
Y280612D01*
X145813D01*
Y280962D01*
X146163D01*
Y281137D01*
X145988D01*
Y281311D01*
X145813D01*
Y281661D01*
X145638D01*
Y281836D01*
X145288D01*
Y280437D01*
X145463D01*
Y279912D01*
X145288D01*
Y279737D01*
X145114D01*
Y279562D01*
X144939D01*
Y279387D01*
X144589D01*
Y279562D01*
X144414D01*
Y279737D01*
X144589D01*
Y281311D01*
X143364D01*
Y281486D01*
X143189D01*
Y281661D01*
X143014D01*
Y282011D01*
X142839D01*
Y282711D01*
X143014D01*
Y283061D01*
X143189D01*
Y283236D01*
X143364D01*
Y283411D01*
X143539D01*
Y283586D01*
X143714D01*
Y283761D01*
X144064D01*
Y283936D01*
X144239D01*
Y284111D01*
X144414D01*
Y284285D01*
X144589D01*
Y284460D01*
X144939D01*
Y284285D01*
D02*
G37*
G36*
X197944Y282011D02*
X198119D01*
Y281836D01*
X198293D01*
Y281661D01*
X198468D01*
Y281486D01*
X198643D01*
Y281311D01*
X198818D01*
Y281137D01*
X198643D01*
Y280962D01*
X198468D01*
Y281137D01*
X198119D01*
Y280962D01*
X197944D01*
Y280612D01*
X197769D01*
Y280437D01*
X197594D01*
Y280262D01*
X197419D01*
Y280087D01*
X197244D01*
Y279912D01*
X197069D01*
Y279737D01*
X196894D01*
Y279562D01*
X196719D01*
Y279387D01*
X196544D01*
Y279212D01*
X196369D01*
Y278338D01*
X196019D01*
Y278513D01*
X195844D01*
Y278687D01*
X195669D01*
Y278862D01*
X195495D01*
Y279037D01*
X195320D01*
Y279212D01*
X195145D01*
Y279387D01*
X194970D01*
Y279562D01*
X194795D01*
Y279737D01*
X194620D01*
Y279912D01*
X194445D01*
Y280087D01*
X194095D01*
Y280437D01*
X194270D01*
Y280787D01*
X194445D01*
Y280962D01*
X194620D01*
Y281137D01*
X194795D01*
Y281311D01*
X194970D01*
Y281137D01*
X195145D01*
Y280962D01*
X194970D01*
Y280612D01*
X194795D01*
Y280262D01*
X194970D01*
Y279912D01*
X195145D01*
Y279737D01*
X195320D01*
Y279562D01*
X195495D01*
Y279387D01*
X195669D01*
Y279562D01*
X195844D01*
Y279737D01*
X196019D01*
Y279912D01*
X196194D01*
Y280087D01*
X196369D01*
Y280437D01*
X196544D01*
Y280612D01*
X196719D01*
Y280787D01*
X196894D01*
Y280962D01*
X197069D01*
Y281137D01*
X197244D01*
Y281311D01*
X197419D01*
Y281486D01*
X197594D01*
Y281836D01*
X197419D01*
Y282011D01*
X197594D01*
Y282186D01*
X197944D01*
Y282011D01*
D02*
G37*
G36*
X202142Y276938D02*
X202492D01*
Y276763D01*
X202842D01*
Y276588D01*
X203017D01*
Y276238D01*
X203192D01*
Y276063D01*
X203367D01*
Y275889D01*
X203542D01*
Y275539D01*
X203717D01*
Y275364D01*
X203891D01*
Y274839D01*
X203542D01*
Y275014D01*
X203192D01*
Y274839D01*
X203017D01*
Y274664D01*
X202667D01*
Y274489D01*
X202492D01*
Y274314D01*
X202317D01*
Y274139D01*
X201967D01*
Y273964D01*
X201792D01*
Y273789D01*
X201617D01*
Y273614D01*
X201267D01*
Y273440D01*
X201092D01*
Y272740D01*
X200743D01*
Y273090D01*
X200568D01*
Y273265D01*
X200393D01*
Y273440D01*
X200218D01*
Y273789D01*
X200043D01*
Y273964D01*
X199868D01*
Y274139D01*
X199693D01*
Y274489D01*
X199518D01*
Y274839D01*
X199343D01*
Y275364D01*
X199518D01*
Y275714D01*
X199693D01*
Y275889D01*
X199868D01*
Y276063D01*
X200218D01*
Y276238D01*
X200393D01*
Y276063D01*
X200917D01*
Y275889D01*
X201267D01*
Y276763D01*
X201442D01*
Y276938D01*
X201967D01*
Y277113D01*
X202142D01*
Y276938D01*
D02*
G37*
G36*
X138991Y278163D02*
X139166D01*
Y277988D01*
X139516D01*
Y277813D01*
X139691D01*
Y277638D01*
X139866D01*
Y277463D01*
X140215D01*
Y277288D01*
X140390D01*
Y277113D01*
X140565D01*
Y276938D01*
X140915D01*
Y276763D01*
X141090D01*
Y276588D01*
X141440D01*
Y276763D01*
X141790D01*
Y276238D01*
X141615D01*
Y276063D01*
X141440D01*
Y275889D01*
X141265D01*
Y275714D01*
X140740D01*
Y275889D01*
X140915D01*
Y276238D01*
X140740D01*
Y276413D01*
X140565D01*
Y276588D01*
X140215D01*
Y276763D01*
X140041D01*
Y276938D01*
X139866D01*
Y277113D01*
X139691D01*
Y277288D01*
X139341D01*
Y277463D01*
X139166D01*
Y277288D01*
X139341D01*
Y277113D01*
X139516D01*
Y276763D01*
X139691D01*
Y276588D01*
X139866D01*
Y276238D01*
X140041D01*
Y275889D01*
X140215D01*
Y275539D01*
X140390D01*
Y275364D01*
X140565D01*
Y275014D01*
X140740D01*
Y274839D01*
X140565D01*
Y274664D01*
X140390D01*
Y274489D01*
X140215D01*
Y274664D01*
X139691D01*
Y274839D01*
X138991D01*
Y275014D01*
X138466D01*
Y275189D01*
X137941D01*
Y275364D01*
X137416D01*
Y275189D01*
X137766D01*
Y275014D01*
X137941D01*
Y274839D01*
X138116D01*
Y274664D01*
X138291D01*
Y274489D01*
X138466D01*
Y274314D01*
X138816D01*
Y274139D01*
X138991D01*
Y273964D01*
X139691D01*
Y273614D01*
X139516D01*
Y273440D01*
X139341D01*
Y273090D01*
X139166D01*
Y272915D01*
X138991D01*
Y272740D01*
X138641D01*
Y273090D01*
X138816D01*
Y273265D01*
X138641D01*
Y273440D01*
X138466D01*
Y273614D01*
X138116D01*
Y273789D01*
X137941D01*
Y273964D01*
X137766D01*
Y274139D01*
X137591D01*
Y274314D01*
X137416D01*
Y274489D01*
X137067D01*
Y274664D01*
X136892D01*
Y274839D01*
X136717D01*
Y275014D01*
X136192D01*
Y274839D01*
X136017D01*
Y275014D01*
X135842D01*
Y275189D01*
X136017D01*
Y275539D01*
X136192D01*
Y275714D01*
X136367D01*
Y275889D01*
X136542D01*
Y276063D01*
X137067D01*
Y275889D01*
X137766D01*
Y275714D01*
X138291D01*
Y275539D01*
X138816D01*
Y275364D01*
X139341D01*
Y275189D01*
X139691D01*
Y275364D01*
X139516D01*
Y275539D01*
X139341D01*
Y275889D01*
X139166D01*
Y276238D01*
X138991D01*
Y276413D01*
X138816D01*
Y276763D01*
X138641D01*
Y277113D01*
X138466D01*
Y277288D01*
X138291D01*
Y277638D01*
X138116D01*
Y278163D01*
X138291D01*
Y278338D01*
X138466D01*
Y278687D01*
X138641D01*
Y278862D01*
X138991D01*
Y278163D01*
D02*
G37*
G36*
X178176Y282711D02*
X179401D01*
Y282536D01*
X179925D01*
Y282361D01*
X180450D01*
Y282186D01*
X180800D01*
Y282011D01*
X181150D01*
Y281836D01*
X181500D01*
Y281661D01*
X181675D01*
Y281486D01*
X181850D01*
Y281311D01*
X182200D01*
Y281137D01*
X182374D01*
Y280962D01*
X182549D01*
Y280787D01*
X182724D01*
Y280612D01*
X182899D01*
Y280437D01*
X183074D01*
Y280087D01*
X183249D01*
Y279912D01*
X183424D01*
Y279562D01*
X183599D01*
Y279387D01*
X183774D01*
Y279037D01*
X183949D01*
Y278687D01*
X184124D01*
Y278163D01*
X184299D01*
Y277463D01*
X184474D01*
Y274489D01*
X184299D01*
Y273964D01*
X184124D01*
Y273440D01*
X183949D01*
Y273090D01*
X183774D01*
Y272740D01*
X183599D01*
Y272565D01*
X183424D01*
Y272390D01*
X182549D01*
Y272565D01*
X182200D01*
Y272740D01*
X182025D01*
Y272915D01*
X181850D01*
Y273090D01*
X181500D01*
Y273265D01*
X181325D01*
Y273440D01*
X181150D01*
Y273614D01*
X180800D01*
Y273789D01*
X180450D01*
Y273964D01*
X180275D01*
Y274139D01*
X179925D01*
Y274314D01*
X179576D01*
Y274489D01*
X179226D01*
Y274664D01*
X178876D01*
Y274839D01*
X178526D01*
Y275014D01*
X178176D01*
Y275189D01*
X177651D01*
Y275364D01*
X177301D01*
Y275539D01*
X176602D01*
Y275714D01*
X176077D01*
Y275889D01*
X175377D01*
Y276063D01*
X174677D01*
Y276238D01*
X173453D01*
Y276413D01*
X171529D01*
Y276588D01*
X171354D01*
Y276763D01*
X171179D01*
Y277113D01*
X171004D01*
Y277463D01*
X171179D01*
Y278163D01*
X171354D01*
Y278687D01*
X171529D01*
Y279037D01*
X171703D01*
Y279387D01*
X171879D01*
Y279562D01*
X172053D01*
Y279912D01*
X172228D01*
Y280087D01*
X172403D01*
Y280437D01*
X172578D01*
Y280612D01*
X172753D01*
Y280787D01*
X172928D01*
Y280962D01*
X173103D01*
Y281137D01*
X173278D01*
Y281311D01*
X173628D01*
Y281486D01*
X173803D01*
Y281661D01*
X173978D01*
Y281836D01*
X174328D01*
Y282011D01*
X174677D01*
Y282186D01*
X175027D01*
Y282361D01*
X175552D01*
Y282536D01*
X176077D01*
Y282711D01*
X177301D01*
Y282886D01*
X178176D01*
Y282711D01*
D02*
G37*
G36*
X154035Y276063D02*
X154910D01*
Y275889D01*
X155435D01*
Y275714D01*
X155785D01*
Y275539D01*
X156134D01*
Y275364D01*
X156484D01*
Y275189D01*
X156659D01*
Y275014D01*
X157009D01*
Y274839D01*
X157184D01*
Y274664D01*
X157534D01*
Y274489D01*
X157709D01*
Y274314D01*
X157884D01*
Y274139D01*
X158059D01*
Y273789D01*
X158234D01*
Y272915D01*
X158059D01*
Y272740D01*
X157884D01*
Y272565D01*
X157709D01*
Y272390D01*
X157359D01*
Y272215D01*
X157009D01*
Y272040D01*
X156834D01*
Y271865D01*
X156484D01*
Y271690D01*
X156309D01*
Y271515D01*
X156134D01*
Y271340D01*
X155960D01*
Y271165D01*
X155610D01*
Y270990D01*
X155435D01*
Y270816D01*
X155260D01*
Y270641D01*
X155085D01*
Y270466D01*
X154910D01*
Y270291D01*
X154735D01*
Y270116D01*
X154560D01*
Y269941D01*
X154385D01*
Y269766D01*
X154210D01*
Y269591D01*
X154035D01*
Y269416D01*
X153860D01*
Y269241D01*
X153685D01*
Y269066D01*
X153510D01*
Y268716D01*
X153336D01*
Y268541D01*
X153160D01*
Y268366D01*
X152986D01*
Y268016D01*
X152811D01*
Y267842D01*
X152636D01*
Y267667D01*
X152461D01*
Y267317D01*
X152286D01*
Y266967D01*
X152111D01*
Y266792D01*
X151936D01*
Y266442D01*
X151761D01*
Y266092D01*
X151586D01*
Y265742D01*
X151411D01*
Y265392D01*
X151236D01*
Y265043D01*
X151061D01*
Y264693D01*
X150886D01*
Y264168D01*
X150711D01*
Y263818D01*
X150536D01*
Y263643D01*
X150187D01*
Y263468D01*
X149487D01*
Y263643D01*
X149312D01*
Y263818D01*
X148962D01*
Y263993D01*
X148787D01*
Y264168D01*
X148612D01*
Y264343D01*
X148437D01*
Y264518D01*
X148262D01*
Y264693D01*
X148087D01*
Y264868D01*
X147913D01*
Y265043D01*
X147738D01*
Y265218D01*
X147563D01*
Y265392D01*
X147388D01*
Y265742D01*
X147213D01*
Y266092D01*
X147038D01*
Y266267D01*
X146863D01*
Y266617D01*
X146688D01*
Y267142D01*
X146513D01*
Y267667D01*
X146338D01*
Y268716D01*
X146163D01*
Y269941D01*
X146338D01*
Y271165D01*
X146513D01*
Y271690D01*
X146688D01*
Y272040D01*
X146863D01*
Y272390D01*
X147038D01*
Y272740D01*
X147213D01*
Y273090D01*
X147388D01*
Y273440D01*
X147563D01*
Y273614D01*
X147738D01*
Y273789D01*
X147913D01*
Y273964D01*
X148087D01*
Y274139D01*
X148262D01*
Y274314D01*
X148437D01*
Y274489D01*
X148612D01*
Y274664D01*
X148787D01*
Y274839D01*
X148962D01*
Y275014D01*
X149312D01*
Y275189D01*
X149487D01*
Y275364D01*
X149837D01*
Y275539D01*
X150187D01*
Y275714D01*
X150711D01*
Y275889D01*
X151236D01*
Y276063D01*
X151936D01*
Y276238D01*
X154035D01*
Y276063D01*
D02*
G37*
G36*
X190771Y270466D02*
X191121D01*
Y270116D01*
X191296D01*
Y269941D01*
X191471D01*
Y269591D01*
X191646D01*
Y269241D01*
X191821D01*
Y269066D01*
X191996D01*
Y268716D01*
X192171D01*
Y268366D01*
X192346D01*
Y268016D01*
X192521D01*
Y267667D01*
X192696D01*
Y267317D01*
X192871D01*
Y266967D01*
X193046D01*
Y266617D01*
X193220D01*
Y266267D01*
X193395D01*
Y265742D01*
X193570D01*
Y265392D01*
X193745D01*
Y264868D01*
X193920D01*
Y264343D01*
X194095D01*
Y263818D01*
X194270D01*
Y263118D01*
X194445D01*
Y262594D01*
X194620D01*
Y261894D01*
X194795D01*
Y261019D01*
X194970D01*
Y259970D01*
X195145D01*
Y258570D01*
X195320D01*
Y254547D01*
X195145D01*
Y254197D01*
X194970D01*
Y254022D01*
X194095D01*
Y254197D01*
X193745D01*
Y254547D01*
X193570D01*
Y258920D01*
X193395D01*
Y260145D01*
X193220D01*
Y261194D01*
X193046D01*
Y261894D01*
X192871D01*
Y262594D01*
X192696D01*
Y263118D01*
X192521D01*
Y263818D01*
X192346D01*
Y264343D01*
X192171D01*
Y264693D01*
X191996D01*
Y265043D01*
X191821D01*
Y265567D01*
X191646D01*
Y266092D01*
X191471D01*
Y266442D01*
X191296D01*
Y266617D01*
X191121D01*
Y266967D01*
X190946D01*
Y267492D01*
X190771D01*
Y267842D01*
X190596D01*
Y268016D01*
X190422D01*
Y268366D01*
X190247D01*
Y268716D01*
X190072D01*
Y268891D01*
X189897D01*
Y269241D01*
X189722D01*
Y270291D01*
X189897D01*
Y270466D01*
X190247D01*
Y270641D01*
X190771D01*
Y270466D01*
D02*
G37*
G36*
X186048Y270990D02*
X186398D01*
Y270816D01*
X186573D01*
Y270641D01*
X186748D01*
Y270466D01*
X186923D01*
Y270116D01*
X187098D01*
Y269941D01*
X187273D01*
Y269766D01*
X187448D01*
Y269416D01*
X187623D01*
Y269241D01*
X187798D01*
Y269066D01*
X187972D01*
Y268716D01*
X188147D01*
Y268541D01*
X188322D01*
Y268192D01*
X188497D01*
Y268016D01*
X188672D01*
Y267667D01*
X188847D01*
Y267317D01*
X189022D01*
Y267142D01*
X189197D01*
Y266792D01*
X189372D01*
Y266442D01*
X189547D01*
Y266092D01*
X189722D01*
Y265742D01*
X189897D01*
Y265392D01*
X190072D01*
Y264868D01*
X190247D01*
Y264518D01*
X190422D01*
Y263993D01*
X190596D01*
Y263643D01*
X190771D01*
Y263118D01*
X190946D01*
Y262419D01*
X191121D01*
Y261894D01*
X191296D01*
Y261194D01*
X191471D01*
Y260319D01*
X191646D01*
Y259270D01*
X191821D01*
Y257346D01*
X191996D01*
Y255071D01*
X191821D01*
Y253147D01*
X191646D01*
Y252097D01*
X191471D01*
Y251573D01*
X191296D01*
Y251398D01*
X190946D01*
Y251223D01*
X190422D01*
Y251398D01*
X190072D01*
Y251748D01*
X189897D01*
Y252972D01*
X190072D01*
Y254372D01*
X190247D01*
Y258045D01*
X190072D01*
Y259445D01*
X189897D01*
Y260494D01*
X189722D01*
Y261194D01*
X189547D01*
Y261719D01*
X189372D01*
Y261894D01*
Y262419D01*
X189197D01*
Y262943D01*
X189022D01*
Y263468D01*
X188847D01*
Y263818D01*
X188672D01*
Y264343D01*
X188497D01*
Y264693D01*
X188322D01*
Y265043D01*
X188147D01*
Y265392D01*
X187972D01*
Y265742D01*
X187798D01*
Y266092D01*
X187623D01*
Y266442D01*
X187448D01*
Y266792D01*
X187273D01*
Y266967D01*
X187098D01*
Y267317D01*
X186923D01*
Y267492D01*
X186748D01*
Y267842D01*
X186573D01*
Y268016D01*
X186398D01*
Y268366D01*
X186223D01*
Y268541D01*
X186048D01*
Y268716D01*
X185873D01*
Y269066D01*
X185698D01*
Y269241D01*
X185523D01*
Y269416D01*
X185348D01*
Y269591D01*
X185173D01*
Y269941D01*
X184998D01*
Y270641D01*
X185173D01*
Y270816D01*
X185348D01*
Y270990D01*
X185698D01*
Y271165D01*
X186048D01*
Y270990D01*
D02*
G37*
G36*
X145463Y258220D02*
X145813D01*
Y257870D01*
X145988D01*
Y253847D01*
X146163D01*
Y252622D01*
X146338D01*
Y251573D01*
X146513D01*
Y250698D01*
X146688D01*
Y249998D01*
X146863D01*
Y249473D01*
X147038D01*
Y248949D01*
X147213D01*
Y248249D01*
X147388D01*
Y247899D01*
X147563D01*
Y247374D01*
X147738D01*
Y247024D01*
X147913D01*
Y246500D01*
X148087D01*
Y246150D01*
X148262D01*
Y245800D01*
X148437D01*
Y245450D01*
X148612D01*
Y245100D01*
X148787D01*
Y244750D01*
X148962D01*
Y244400D01*
X149137D01*
Y244226D01*
X149312D01*
Y243876D01*
X149487D01*
Y243701D01*
X149662D01*
Y243351D01*
X149837D01*
Y243001D01*
X150012D01*
Y242651D01*
Y242476D01*
X149837D01*
Y242126D01*
X149662D01*
Y241951D01*
X149312D01*
Y241776D01*
X148962D01*
Y241951D01*
X148612D01*
Y242126D01*
X148437D01*
Y242301D01*
X148262D01*
Y242651D01*
X148087D01*
Y243001D01*
X147913D01*
Y243176D01*
X147738D01*
Y243526D01*
X147563D01*
Y243701D01*
X147388D01*
Y244051D01*
X147213D01*
Y244575D01*
X147038D01*
Y244925D01*
X146863D01*
Y245100D01*
X146688D01*
Y245450D01*
X146513D01*
Y245975D01*
X146338D01*
Y246325D01*
X146163D01*
Y246849D01*
X145988D01*
Y247199D01*
X145813D01*
Y247549D01*
X145638D01*
Y248249D01*
X145463D01*
Y248774D01*
X145288D01*
Y249299D01*
X145114D01*
Y249998D01*
X144939D01*
Y250698D01*
X144764D01*
Y251573D01*
X144589D01*
Y252797D01*
X144414D01*
Y254372D01*
X144239D01*
Y257870D01*
X144414D01*
Y258045D01*
X144589D01*
Y258220D01*
X144764D01*
Y258395D01*
X145463D01*
Y258220D01*
D02*
G37*
G36*
X149137Y261019D02*
X149487D01*
Y260844D01*
X149662D01*
Y259270D01*
X149487D01*
Y257521D01*
X149312D01*
Y255071D01*
X149487D01*
Y253322D01*
X149662D01*
Y252272D01*
X149837D01*
Y251398D01*
X150012D01*
Y250698D01*
X150187D01*
Y250173D01*
X150362D01*
Y249648D01*
X150536D01*
Y249124D01*
X150711D01*
Y248599D01*
X150886D01*
Y248249D01*
X151061D01*
Y247899D01*
X151236D01*
Y247549D01*
X151411D01*
Y247199D01*
X151586D01*
Y246849D01*
X151761D01*
Y246500D01*
X151936D01*
Y246150D01*
X152111D01*
Y245800D01*
X152286D01*
Y245450D01*
X152461D01*
Y245275D01*
X152636D01*
Y244925D01*
X152811D01*
Y244750D01*
X152986D01*
Y244400D01*
X153160D01*
Y244226D01*
X153336D01*
Y244051D01*
X153510D01*
Y243701D01*
X153685D01*
Y243526D01*
X153860D01*
Y243351D01*
X154035D01*
Y243001D01*
X154210D01*
Y242826D01*
X154385D01*
Y242651D01*
X154560D01*
Y242301D01*
X154735D01*
Y242126D01*
X154560D01*
Y241602D01*
X154385D01*
Y241427D01*
X154035D01*
Y241252D01*
X153510D01*
Y241427D01*
X153336D01*
Y241602D01*
X153160D01*
Y241776D01*
X152986D01*
Y241951D01*
X152811D01*
Y242126D01*
X152636D01*
Y242301D01*
X152461D01*
Y242476D01*
X152286D01*
Y242826D01*
X152111D01*
Y243001D01*
X151936D01*
Y243351D01*
X151761D01*
Y243526D01*
X151586D01*
Y243701D01*
X151411D01*
Y244051D01*
X151236D01*
Y244400D01*
X151061D01*
Y244575D01*
X150886D01*
Y244925D01*
X150711D01*
Y245100D01*
X150536D01*
Y245450D01*
X150362D01*
Y245800D01*
X150187D01*
Y246150D01*
X150012D01*
Y246500D01*
X149837D01*
Y246849D01*
X149662D01*
Y247199D01*
X149487D01*
Y247724D01*
X149312D01*
Y248074D01*
X149137D01*
Y248599D01*
X148962D01*
Y248949D01*
X148787D01*
Y249648D01*
X148612D01*
Y250173D01*
X148437D01*
Y250698D01*
X148262D01*
Y251398D01*
X148087D01*
Y252447D01*
X147913D01*
Y253497D01*
X147738D01*
Y254547D01*
Y254722D01*
Y259095D01*
X147913D01*
Y260145D01*
X148087D01*
Y260844D01*
X148262D01*
Y261019D01*
X148612D01*
Y261194D01*
X149137D01*
Y261019D01*
D02*
G37*
G36*
X168030Y278338D02*
X168205D01*
Y278163D01*
X168380D01*
Y277288D01*
X168205D01*
Y277113D01*
X168030D01*
Y276938D01*
X167680D01*
Y276763D01*
X167155D01*
Y276588D01*
X166455D01*
Y276413D01*
X165756D01*
Y276238D01*
X165406D01*
Y275539D01*
X165581D01*
Y275014D01*
X165756D01*
Y274664D01*
X166805D01*
Y274839D01*
X168555D01*
Y275014D01*
X170829D01*
Y274839D01*
X172578D01*
Y274664D01*
X173628D01*
Y274489D01*
X174328D01*
Y274314D01*
X175027D01*
Y274139D01*
X175552D01*
Y273964D01*
X176077D01*
Y273789D01*
X176602D01*
Y273614D01*
X176952D01*
Y273440D01*
X177476D01*
Y273265D01*
X177826D01*
Y273090D01*
X178176D01*
Y272915D01*
X178526D01*
Y272740D01*
X178876D01*
Y272565D01*
X179226D01*
Y272390D01*
X179401D01*
Y272215D01*
X179750D01*
Y272040D01*
X179925D01*
Y271865D01*
X180275D01*
Y271690D01*
X180450D01*
Y271515D01*
X180800D01*
Y271340D01*
X180975D01*
Y271165D01*
X181150D01*
Y270990D01*
X181500D01*
Y270816D01*
X181675D01*
Y270641D01*
X181850D01*
Y270466D01*
X182025D01*
Y270291D01*
X182200D01*
Y270116D01*
X182549D01*
Y269941D01*
X182724D01*
Y269766D01*
X182899D01*
Y269591D01*
X183074D01*
Y269416D01*
X183249D01*
Y269241D01*
X183424D01*
Y269066D01*
X183599D01*
Y268716D01*
X183774D01*
Y268541D01*
X183949D01*
Y268366D01*
X184124D01*
Y268192D01*
X184299D01*
Y268016D01*
X184474D01*
Y267842D01*
X184649D01*
Y267492D01*
X184824D01*
Y267317D01*
X184998D01*
Y266967D01*
X185173D01*
Y266792D01*
X185348D01*
Y266617D01*
X185523D01*
Y266267D01*
X185698D01*
Y266092D01*
X185873D01*
Y265742D01*
X186048D01*
Y265392D01*
X186223D01*
Y265043D01*
X186398D01*
Y264868D01*
X186573D01*
Y264343D01*
X186748D01*
Y263993D01*
X186923D01*
Y263643D01*
X187098D01*
Y263293D01*
X187273D01*
Y262768D01*
X187448D01*
Y262244D01*
X187623D01*
Y261719D01*
X187798D01*
Y261194D01*
X187972D01*
Y260494D01*
X188147D01*
Y259620D01*
X188322D01*
Y258395D01*
X188497D01*
Y254022D01*
X188322D01*
Y252972D01*
X188147D01*
Y251923D01*
X187972D01*
Y251398D01*
X187798D01*
Y250698D01*
X187623D01*
Y250173D01*
X187448D01*
Y249648D01*
X187273D01*
Y249299D01*
X187098D01*
Y248774D01*
X186923D01*
Y248424D01*
X186748D01*
Y248074D01*
X186573D01*
Y247724D01*
X186398D01*
Y247374D01*
X186223D01*
Y247024D01*
X186048D01*
Y246675D01*
X185873D01*
Y246500D01*
X185698D01*
Y246150D01*
X185523D01*
Y245975D01*
X185348D01*
Y245625D01*
X185173D01*
Y245450D01*
X184998D01*
Y245100D01*
X184824D01*
Y244925D01*
X184649D01*
Y244750D01*
X184474D01*
Y244400D01*
X184299D01*
Y244226D01*
X184124D01*
Y244051D01*
X183949D01*
Y243876D01*
X183774D01*
Y243701D01*
X183599D01*
Y243526D01*
X183424D01*
Y243351D01*
X183249D01*
Y243001D01*
X182899D01*
Y242826D01*
X182724D01*
Y242476D01*
X182899D01*
Y242301D01*
X183074D01*
Y242126D01*
X183424D01*
Y241951D01*
X183599D01*
Y241776D01*
X183774D01*
Y241602D01*
X183949D01*
Y241427D01*
X184299D01*
Y241252D01*
X184474D01*
Y241077D01*
X184649D01*
Y240902D01*
X184824D01*
Y240727D01*
X184998D01*
Y240552D01*
X185348D01*
Y240377D01*
X185523D01*
Y240202D01*
X185698D01*
Y240027D01*
X185873D01*
Y239852D01*
X186223D01*
Y239677D01*
X186398D01*
Y239502D01*
X186573D01*
Y239327D01*
X186748D01*
Y239152D01*
X186923D01*
Y238978D01*
X187273D01*
Y238803D01*
X187448D01*
Y238628D01*
X187623D01*
Y238453D01*
X187798D01*
Y238103D01*
X187972D01*
Y237753D01*
X187798D01*
Y237403D01*
X187623D01*
Y237228D01*
X187448D01*
Y237053D01*
X186748D01*
Y237228D01*
X186398D01*
Y237403D01*
X186223D01*
Y237578D01*
X186048D01*
Y237753D01*
X185873D01*
Y237928D01*
X185523D01*
Y238103D01*
X185348D01*
Y238278D01*
X185173D01*
Y238453D01*
X184998D01*
Y238628D01*
X184824D01*
Y238803D01*
X184474D01*
Y238978D01*
X184299D01*
Y239152D01*
X184124D01*
Y239327D01*
X183949D01*
Y239502D01*
X183599D01*
Y239677D01*
X183424D01*
Y239852D01*
X183249D01*
Y240027D01*
X183074D01*
Y240202D01*
X182724D01*
Y240377D01*
X182549D01*
Y240552D01*
X182374D01*
Y240727D01*
X182200D01*
Y240902D01*
X182025D01*
Y241077D01*
X181675D01*
Y241252D01*
X181500D01*
Y241427D01*
X181150D01*
Y241252D01*
X180975D01*
Y241077D01*
X180625D01*
Y240902D01*
X180450D01*
Y240727D01*
X180275D01*
Y240552D01*
X179925D01*
Y240377D01*
X179576D01*
Y240202D01*
X179401D01*
Y240027D01*
X179051D01*
Y239852D01*
X178701D01*
Y239677D01*
X178526D01*
Y239502D01*
X178176D01*
Y239327D01*
X177651D01*
Y239152D01*
X177301D01*
Y238978D01*
X176952D01*
Y238803D01*
X176427D01*
Y238628D01*
X175902D01*
Y238453D01*
X175377D01*
Y238278D01*
X174852D01*
Y238103D01*
X174328D01*
Y237928D01*
X173453D01*
Y237753D01*
X172228D01*
Y237578D01*
X167155D01*
Y237403D01*
X166980D01*
Y236878D01*
X166805D01*
Y236528D01*
X166630D01*
Y236004D01*
X166455D01*
Y235479D01*
X166281D01*
Y235129D01*
X166106D01*
Y234604D01*
X165931D01*
Y234254D01*
X165756D01*
Y233729D01*
X165581D01*
Y233205D01*
X165406D01*
Y232855D01*
X165231D01*
Y232330D01*
X165056D01*
Y231805D01*
X164881D01*
Y231455D01*
X164706D01*
Y231105D01*
X164356D01*
Y230931D01*
X163657D01*
Y231105D01*
X163307D01*
Y231455D01*
X163132D01*
Y232155D01*
X163307D01*
Y232505D01*
X163482D01*
Y233030D01*
X163657D01*
Y233380D01*
X163832D01*
Y233904D01*
X164006D01*
Y234429D01*
X164181D01*
Y234779D01*
X164356D01*
Y235304D01*
X164531D01*
Y235654D01*
X164706D01*
Y236178D01*
X164881D01*
Y236703D01*
X165056D01*
Y237228D01*
X165231D01*
Y237578D01*
X165406D01*
Y238103D01*
X164706D01*
Y238278D01*
X164181D01*
Y238453D01*
X163657D01*
Y238628D01*
X163132D01*
Y238803D01*
X162607D01*
Y238978D01*
X162257D01*
Y239152D01*
X161907D01*
Y239327D01*
X161557D01*
Y239502D01*
X161208D01*
Y239677D01*
X160858D01*
Y239852D01*
X160508D01*
Y240027D01*
X160333D01*
Y240202D01*
X159983D01*
Y240377D01*
X159633D01*
Y240552D01*
X159458D01*
Y240727D01*
X159108D01*
Y240902D01*
X158933D01*
Y241077D01*
X158583D01*
Y241252D01*
X158408D01*
Y241427D01*
X158234D01*
Y241602D01*
X158059D01*
Y241776D01*
X157709D01*
Y241951D01*
X157534D01*
Y242126D01*
X157359D01*
Y242301D01*
X157184D01*
Y242476D01*
X157009D01*
Y242651D01*
X156834D01*
Y242826D01*
X156659D01*
Y243001D01*
X156484D01*
Y243176D01*
X156309D01*
Y243351D01*
X156134D01*
Y243526D01*
X155960D01*
Y243701D01*
X155785D01*
Y243876D01*
X155610D01*
Y244051D01*
X155435D01*
Y244226D01*
X155260D01*
Y244575D01*
X155085D01*
Y244750D01*
X154910D01*
Y244925D01*
X154735D01*
Y245275D01*
X154560D01*
Y245450D01*
X154385D01*
Y245625D01*
X154210D01*
Y245975D01*
X154035D01*
Y246150D01*
X153860D01*
Y246500D01*
X153685D01*
Y246849D01*
X153510D01*
Y247024D01*
X153336D01*
Y247374D01*
X153160D01*
Y247724D01*
X152986D01*
Y248074D01*
X152811D01*
Y248424D01*
X152636D01*
Y248949D01*
X152461D01*
Y249299D01*
X152286D01*
Y249823D01*
X152111D01*
Y250348D01*
X151936D01*
Y250873D01*
X151761D01*
Y251398D01*
X151586D01*
Y252272D01*
X151411D01*
Y253147D01*
X151236D01*
Y254372D01*
X151061D01*
Y258045D01*
X151236D01*
Y259270D01*
X151411D01*
Y260319D01*
X151586D01*
Y261019D01*
X151761D01*
Y261544D01*
X151936D01*
Y262069D01*
X152111D01*
Y262594D01*
X152286D01*
Y263118D01*
X152461D01*
Y263643D01*
X152636D01*
Y263993D01*
X152811D01*
Y264343D01*
X152986D01*
Y264693D01*
X153160D01*
Y265043D01*
X153336D01*
Y265392D01*
X153510D01*
Y265742D01*
X153685D01*
Y265917D01*
X153860D01*
Y266267D01*
X154035D01*
Y266442D01*
X154210D01*
Y266792D01*
X154385D01*
Y266967D01*
X154560D01*
Y267317D01*
X154735D01*
Y267492D01*
X154910D01*
Y267667D01*
X155085D01*
Y268016D01*
X155260D01*
Y268192D01*
X155435D01*
Y268366D01*
X155610D01*
Y268541D01*
X155785D01*
Y268716D01*
X155960D01*
Y268891D01*
X156134D01*
Y269066D01*
X156309D01*
Y269416D01*
X156484D01*
Y269591D01*
X156659D01*
Y269766D01*
X157009D01*
Y269941D01*
X157184D01*
Y270116D01*
X157359D01*
Y270291D01*
X157534D01*
Y270466D01*
X157709D01*
Y270641D01*
X157884D01*
Y270816D01*
X158059D01*
Y270990D01*
X158408D01*
Y271165D01*
X158583D01*
Y271340D01*
X158758D01*
Y271515D01*
X159108D01*
Y271690D01*
X159283D01*
Y271865D01*
X159633D01*
Y272040D01*
X159808D01*
Y272215D01*
X160158D01*
Y272390D01*
X160508D01*
Y272565D01*
X160683D01*
Y272740D01*
X161033D01*
Y272915D01*
X161382D01*
Y273090D01*
X161732D01*
Y273265D01*
X162257D01*
Y273440D01*
X162607D01*
Y273614D01*
X162957D01*
Y273789D01*
X163482D01*
Y273964D01*
X164006D01*
Y274139D01*
X164181D01*
Y274314D01*
X164006D01*
Y275014D01*
X163832D01*
Y275539D01*
X163657D01*
Y275714D01*
X163132D01*
Y275539D01*
X162432D01*
Y275364D01*
X161732D01*
Y275189D01*
X161033D01*
Y275014D01*
X160858D01*
Y275189D01*
X160508D01*
Y275364D01*
X160333D01*
Y275539D01*
X160158D01*
Y276413D01*
X160333D01*
Y276588D01*
X160683D01*
Y276763D01*
X161033D01*
Y276938D01*
X161732D01*
Y277113D01*
X162432D01*
Y277288D01*
X163132D01*
Y277463D01*
X163657D01*
Y277638D01*
X164356D01*
Y277813D01*
X165056D01*
Y277988D01*
X165756D01*
Y278163D01*
X166281D01*
Y278338D01*
X166980D01*
Y278513D01*
X168030D01*
Y278338D01*
D02*
G37*
G36*
X191121Y231630D02*
X191296D01*
Y231455D01*
X191471D01*
Y231105D01*
X191646D01*
Y230581D01*
X191471D01*
Y230756D01*
X191296D01*
Y230931D01*
X190946D01*
Y231105D01*
X190596D01*
Y230931D01*
X190247D01*
Y230581D01*
X190422D01*
Y230406D01*
X190596D01*
Y230056D01*
X190771D01*
Y229706D01*
X190946D01*
Y229531D01*
X191121D01*
Y229181D01*
X191296D01*
Y228831D01*
X191471D01*
Y228656D01*
X191646D01*
Y228307D01*
X192346D01*
Y227957D01*
X192171D01*
Y227782D01*
X191996D01*
Y227607D01*
X191646D01*
Y227432D01*
X191296D01*
Y227257D01*
X190946D01*
Y227432D01*
X190771D01*
Y227607D01*
X191121D01*
Y227957D01*
X190946D01*
Y228132D01*
X190771D01*
Y228481D01*
X190596D01*
Y228831D01*
X190422D01*
Y229006D01*
X190247D01*
Y229356D01*
X190072D01*
Y229706D01*
X189897D01*
Y229881D01*
X189722D01*
Y230231D01*
X189547D01*
Y230406D01*
X189372D01*
Y230231D01*
X189197D01*
Y230056D01*
X189022D01*
Y229006D01*
X188847D01*
Y229181D01*
X188672D01*
Y229356D01*
X188497D01*
Y229706D01*
X188322D01*
Y230056D01*
X188497D01*
Y230231D01*
X188672D01*
Y230406D01*
X189022D01*
Y230581D01*
X189197D01*
Y230756D01*
X189547D01*
Y230931D01*
X189897D01*
Y231105D01*
X190072D01*
Y231280D01*
X190422D01*
Y231455D01*
X190771D01*
Y231630D01*
X190946D01*
Y231805D01*
X191121D01*
Y231630D01*
D02*
G37*
G36*
X150711Y231105D02*
X151061D01*
Y230931D01*
X151236D01*
Y230756D01*
X151411D01*
Y230406D01*
X151586D01*
Y229706D01*
X151411D01*
Y229531D01*
X150886D01*
Y230056D01*
X151061D01*
Y230581D01*
X150886D01*
Y230756D01*
X150362D01*
Y230581D01*
X150187D01*
Y230406D01*
X150012D01*
Y229531D01*
X150187D01*
Y229356D01*
X150362D01*
Y229006D01*
X150012D01*
Y229181D01*
X149137D01*
Y229006D01*
X148962D01*
Y228831D01*
X148787D01*
Y228132D01*
X148962D01*
Y227957D01*
X149137D01*
Y227782D01*
X149662D01*
Y228132D01*
X150362D01*
Y227607D01*
X150187D01*
Y227432D01*
X150012D01*
Y227257D01*
X149312D01*
Y227432D01*
X148962D01*
Y227607D01*
X148612D01*
Y227782D01*
X148437D01*
Y227957D01*
X148262D01*
Y228307D01*
X148087D01*
Y229181D01*
X148262D01*
Y229531D01*
X148437D01*
Y229706D01*
X149487D01*
Y230056D01*
X149312D01*
Y230756D01*
X149487D01*
Y231105D01*
X149662D01*
Y231280D01*
X150711D01*
Y231105D01*
D02*
G37*
G36*
X156134Y228307D02*
X156309D01*
Y228132D01*
X156484D01*
Y227957D01*
Y227782D01*
X156659D01*
Y227607D01*
X156834D01*
Y227257D01*
X157009D01*
Y226907D01*
X156659D01*
Y227082D01*
X156484D01*
Y227257D01*
X156309D01*
Y227082D01*
X156134D01*
Y226557D01*
X155960D01*
Y226207D01*
X155785D01*
Y225683D01*
X155610D01*
Y225333D01*
X155435D01*
Y224808D01*
X155610D01*
Y224283D01*
X155435D01*
Y224458D01*
X154910D01*
Y224633D01*
X154560D01*
Y224808D01*
X154210D01*
Y224983D01*
X154035D01*
Y225158D01*
X154210D01*
Y225333D01*
X154385D01*
Y225158D01*
X154560D01*
Y225333D01*
X154735D01*
Y225683D01*
X154910D01*
Y226207D01*
X155085D01*
Y226557D01*
X155260D01*
Y227082D01*
X155435D01*
Y227432D01*
X155610D01*
Y227957D01*
X155785D01*
Y228307D01*
X155960D01*
Y228481D01*
X156134D01*
Y228307D01*
D02*
G37*
G36*
X184649Y228132D02*
X184824D01*
Y227957D01*
X184649D01*
Y227782D01*
X184474D01*
Y227432D01*
X184649D01*
Y227082D01*
X184824D01*
Y226557D01*
X184998D01*
Y226032D01*
X185173D01*
Y225683D01*
X185348D01*
Y225158D01*
X185523D01*
Y224983D01*
X186048D01*
Y224633D01*
X185698D01*
Y224458D01*
X185348D01*
Y224283D01*
X184824D01*
Y224108D01*
X184299D01*
Y223933D01*
X183949D01*
Y223758D01*
X183424D01*
Y223583D01*
X183249D01*
Y223933D01*
X183074D01*
Y224283D01*
X182899D01*
Y224808D01*
X183249D01*
Y224633D01*
X183424D01*
Y224458D01*
X183599D01*
Y224283D01*
X184124D01*
Y224458D01*
X184474D01*
Y224633D01*
X184824D01*
Y224808D01*
X184649D01*
Y225158D01*
X184474D01*
Y225683D01*
X184299D01*
Y225857D01*
X183949D01*
Y225683D01*
X183774D01*
Y225158D01*
X183424D01*
Y225508D01*
X183249D01*
Y225857D01*
X183074D01*
Y226557D01*
X183424D01*
Y226207D01*
X184124D01*
Y226557D01*
X183949D01*
Y227082D01*
X183774D01*
Y227432D01*
X183074D01*
Y227257D01*
X182899D01*
Y227082D01*
X182724D01*
Y226382D01*
X182374D01*
Y226732D01*
X182200D01*
Y227257D01*
X182025D01*
Y227432D01*
X182549D01*
Y227607D01*
X182899D01*
Y227782D01*
X183424D01*
Y227957D01*
X183949D01*
Y228132D01*
X184299D01*
Y228307D01*
X184649D01*
Y228132D01*
D02*
G37*
G36*
X176777Y225683D02*
X176952D01*
Y225508D01*
X177127D01*
Y225158D01*
X177301D01*
Y224808D01*
X177476D01*
Y224458D01*
X177651D01*
Y224283D01*
X177826D01*
Y223933D01*
X178001D01*
Y223583D01*
X178176D01*
Y223233D01*
X178351D01*
Y223058D01*
X178526D01*
Y222883D01*
X178701D01*
Y222709D01*
X178876D01*
Y222359D01*
X178176D01*
Y222184D01*
X177826D01*
Y222359D01*
X177651D01*
Y222709D01*
X178001D01*
Y222883D01*
X177826D01*
Y223233D01*
X177651D01*
Y223408D01*
X177476D01*
Y223233D01*
X176602D01*
Y223058D01*
X176427D01*
Y222359D01*
X176777D01*
Y222009D01*
X176077D01*
Y221834D01*
X175202D01*
Y222184D01*
X175552D01*
Y222883D01*
X175727D01*
Y223758D01*
X175902D01*
Y224633D01*
X176077D01*
Y225508D01*
X176252D01*
Y226032D01*
X176777D01*
Y225683D01*
D02*
G37*
G36*
X166281Y225508D02*
X167330D01*
Y225333D01*
X167505D01*
Y224808D01*
X167680D01*
Y224283D01*
X167855D01*
Y223583D01*
X168030D01*
Y223058D01*
X168205D01*
Y222534D01*
X168380D01*
Y222883D01*
X168555D01*
Y223233D01*
X168730D01*
Y223583D01*
X168905D01*
Y223933D01*
X169079D01*
Y224458D01*
X169254D01*
Y224808D01*
X169429D01*
Y225158D01*
X169604D01*
Y225333D01*
X170829D01*
Y224983D01*
X170479D01*
Y223583D01*
X170304D01*
Y222009D01*
X170479D01*
Y221834D01*
X170654D01*
Y221484D01*
X169429D01*
Y222009D01*
X169779D01*
Y222359D01*
X169954D01*
Y224108D01*
X169779D01*
Y223758D01*
X169604D01*
Y223583D01*
Y223408D01*
Y223233D01*
X169429D01*
Y222883D01*
X169254D01*
Y222534D01*
X169079D01*
Y222184D01*
X168905D01*
Y221834D01*
X168730D01*
Y221484D01*
X168205D01*
Y221659D01*
X168030D01*
Y222184D01*
X167855D01*
Y222709D01*
X167680D01*
Y223233D01*
X167505D01*
Y223933D01*
X167330D01*
Y224458D01*
X167155D01*
Y223583D01*
X166980D01*
Y222009D01*
X167330D01*
Y221659D01*
X165756D01*
Y222184D01*
X166281D01*
Y224283D01*
X166455D01*
Y225158D01*
X166106D01*
Y225683D01*
X166281D01*
Y225508D01*
D02*
G37*
G36*
X563638Y66813D02*
X563597D01*
Y66291D01*
X563557D01*
Y65888D01*
X563517D01*
Y65567D01*
X563477D01*
Y65285D01*
X563437D01*
Y65004D01*
X563396D01*
Y64803D01*
X563356D01*
Y64561D01*
X563316D01*
Y64360D01*
X563276D01*
Y64199D01*
X563235D01*
Y63998D01*
X563195D01*
Y63837D01*
X563155D01*
Y63677D01*
X563115D01*
Y63516D01*
X563074D01*
Y63395D01*
X563034D01*
Y63234D01*
X562994D01*
Y63113D01*
X562954D01*
Y62953D01*
X562914D01*
Y62832D01*
X562873D01*
Y62711D01*
X562833D01*
Y62591D01*
X562793D01*
Y62470D01*
X562753D01*
Y62349D01*
X562713D01*
Y62229D01*
X562672D01*
Y62108D01*
X562632D01*
Y61987D01*
X562592D01*
Y61907D01*
X562552D01*
Y61786D01*
X562511D01*
Y61706D01*
X562471D01*
Y61585D01*
X562431D01*
Y61505D01*
X562391D01*
Y61384D01*
X562351D01*
Y61304D01*
X562310D01*
Y61183D01*
X562270D01*
Y61103D01*
X562230D01*
Y61022D01*
X562190D01*
Y60942D01*
X562150D01*
Y60821D01*
X562109D01*
Y60741D01*
X562069D01*
Y60660D01*
X562029D01*
Y60580D01*
X561989D01*
Y60499D01*
X561949D01*
Y60419D01*
X561908D01*
Y60339D01*
X561868D01*
Y60258D01*
X561828D01*
Y60178D01*
X561788D01*
Y60097D01*
X561747D01*
Y60017D01*
X561707D01*
Y59936D01*
X561667D01*
Y59856D01*
X561627D01*
Y59776D01*
X561586D01*
Y59695D01*
X561546D01*
Y59615D01*
X561506D01*
Y59534D01*
X561466D01*
Y59494D01*
X561426D01*
Y59413D01*
X561385D01*
Y59333D01*
X561345D01*
Y59253D01*
X561305D01*
Y59212D01*
X561265D01*
Y59132D01*
X561225D01*
Y59052D01*
X561184D01*
Y59011D01*
X561144D01*
Y58931D01*
X561104D01*
Y58850D01*
X561064D01*
Y58810D01*
X561023D01*
Y58730D01*
X560983D01*
Y58649D01*
X560943D01*
Y58609D01*
X560903D01*
Y58529D01*
X560863D01*
Y58488D01*
X560822D01*
Y58408D01*
X560782D01*
Y58368D01*
X560742D01*
Y58287D01*
X560702D01*
Y58207D01*
X560662D01*
Y58167D01*
X560621D01*
Y58086D01*
X560581D01*
Y58046D01*
X560541D01*
Y58006D01*
X560501D01*
Y57926D01*
X560460D01*
Y57885D01*
X560420D01*
Y57805D01*
X560380D01*
Y57765D01*
X560340D01*
Y57684D01*
X560300D01*
Y57644D01*
X560259D01*
Y57604D01*
X560219D01*
Y57523D01*
X560179D01*
Y57483D01*
X560139D01*
Y57403D01*
X560098D01*
Y57362D01*
X560058D01*
Y57322D01*
X560018D01*
Y57242D01*
X559978D01*
Y57202D01*
X559938D01*
Y57161D01*
X559897D01*
Y57081D01*
X559857D01*
Y57041D01*
X559817D01*
Y57000D01*
X559777D01*
Y56920D01*
X559737D01*
Y56880D01*
X559696D01*
Y56840D01*
X559656D01*
Y56799D01*
X559616D01*
Y56719D01*
X559576D01*
Y56679D01*
X559535D01*
Y56639D01*
X559495D01*
Y56598D01*
X559455D01*
Y56518D01*
X559415D01*
Y56478D01*
X559375D01*
Y56438D01*
X559334D01*
Y56397D01*
X559294D01*
Y56357D01*
X559254D01*
Y56277D01*
X559214D01*
Y56236D01*
X559174D01*
Y56196D01*
X559133D01*
Y56156D01*
X559093D01*
Y56116D01*
X559053D01*
Y56035D01*
X559013D01*
Y55995D01*
X558972D01*
Y55955D01*
X558932D01*
Y55915D01*
X558892D01*
Y55874D01*
X558852D01*
Y55834D01*
X558812D01*
Y55794D01*
X558771D01*
Y55714D01*
X558731D01*
Y55673D01*
X558691D01*
Y55633D01*
X558651D01*
Y55593D01*
X558610D01*
Y55553D01*
X558570D01*
Y55512D01*
X558530D01*
Y55472D01*
X558490D01*
Y55432D01*
X558450D01*
Y55392D01*
X558409D01*
Y55352D01*
X558369D01*
Y55311D01*
X558329D01*
Y55271D01*
X558289D01*
Y55191D01*
X558248D01*
Y55150D01*
X558208D01*
Y55110D01*
X558168D01*
Y55070D01*
X558128D01*
Y55030D01*
X558088D01*
Y54990D01*
X558047D01*
Y54949D01*
X558007D01*
Y54909D01*
X557967D01*
Y54869D01*
X557927D01*
Y54829D01*
X557887D01*
Y54789D01*
X557846D01*
Y54748D01*
X557806D01*
Y54708D01*
X557766D01*
Y54668D01*
X557726D01*
Y54628D01*
X557686D01*
Y54587D01*
X557645D01*
Y54547D01*
X557605D01*
Y54507D01*
X557565D01*
Y54467D01*
X557525D01*
Y54427D01*
X557484D01*
Y54386D01*
X557444D01*
Y54346D01*
X557364D01*
Y54306D01*
X557323D01*
Y54266D01*
X557283D01*
Y54226D01*
X557243D01*
Y54185D01*
X557203D01*
Y54145D01*
X557163D01*
Y54105D01*
X557122D01*
Y54065D01*
X557082D01*
Y54025D01*
X557042D01*
Y53984D01*
X557002D01*
Y53944D01*
X556962D01*
Y53904D01*
X556921D01*
Y53864D01*
X556841D01*
Y53823D01*
X556801D01*
Y53783D01*
X556760D01*
Y53743D01*
X556720D01*
Y53703D01*
X556680D01*
Y53663D01*
X556640D01*
Y53622D01*
X556600D01*
Y53582D01*
X556559D01*
Y53542D01*
X556479D01*
Y53502D01*
X556439D01*
Y53461D01*
X556399D01*
Y53421D01*
X556358D01*
Y53381D01*
X556318D01*
Y53341D01*
X556278D01*
Y53301D01*
X556198D01*
Y53260D01*
X556157D01*
Y53220D01*
X556117D01*
Y53180D01*
X556077D01*
Y53140D01*
X556037D01*
Y53099D01*
X555956D01*
Y53059D01*
X555916D01*
Y53019D01*
X555876D01*
Y52979D01*
X555835D01*
Y52939D01*
X555755D01*
Y52898D01*
X555715D01*
Y52858D01*
X555675D01*
Y52818D01*
X555634D01*
Y52778D01*
X555554D01*
Y52737D01*
X555514D01*
Y52697D01*
X555474D01*
Y52657D01*
X555433D01*
Y52617D01*
X555353D01*
Y52577D01*
X555313D01*
Y52536D01*
X555272D01*
Y52496D01*
X555192D01*
Y52456D01*
X555152D01*
Y52416D01*
X555112D01*
Y52376D01*
X555031D01*
Y52335D01*
X554991D01*
Y52295D01*
X554951D01*
Y52255D01*
X554870D01*
Y52215D01*
X554830D01*
Y52175D01*
X554790D01*
Y52134D01*
X554710D01*
Y52094D01*
X554669D01*
Y52054D01*
X554589D01*
Y52014D01*
X554549D01*
Y51973D01*
X554508D01*
Y51933D01*
X554428D01*
Y51893D01*
X554388D01*
Y51853D01*
X554307D01*
Y51813D01*
X554267D01*
Y51772D01*
X554227D01*
Y51732D01*
X554146D01*
Y51692D01*
X554106D01*
Y51652D01*
X554026D01*
Y51611D01*
X553986D01*
Y51571D01*
X553905D01*
Y51531D01*
X553865D01*
Y51491D01*
X553784D01*
Y51451D01*
X553744D01*
Y51410D01*
X553664D01*
Y51370D01*
X553624D01*
Y51330D01*
X553543D01*
Y51290D01*
X553503D01*
Y51249D01*
X553423D01*
Y51209D01*
X553382D01*
Y51169D01*
X553302D01*
Y51129D01*
X553262D01*
Y51089D01*
X553181D01*
Y51048D01*
X553101D01*
Y51008D01*
X553061D01*
Y50968D01*
X552980D01*
Y50928D01*
X552940D01*
Y50888D01*
X552859D01*
Y50847D01*
X552779D01*
Y50807D01*
X552739D01*
Y50767D01*
X552658D01*
Y50727D01*
X552578D01*
Y50686D01*
X552538D01*
Y50646D01*
X552457D01*
Y50606D01*
X552377D01*
Y50566D01*
X552337D01*
Y50526D01*
X552256D01*
Y50485D01*
X552176D01*
Y50445D01*
X552095D01*
Y50405D01*
X552055D01*
Y50365D01*
X551975D01*
Y50325D01*
X551894D01*
Y50284D01*
X551814D01*
Y50244D01*
X551733D01*
Y50204D01*
X551693D01*
Y50164D01*
X551613D01*
Y50123D01*
X551532D01*
Y50083D01*
X551452D01*
Y50043D01*
X551371D01*
Y50003D01*
X551291D01*
Y49963D01*
X551211D01*
Y49922D01*
X551130D01*
Y49882D01*
X551050D01*
Y49842D01*
X550969D01*
Y49802D01*
X550889D01*
Y49762D01*
X550808D01*
Y49721D01*
X550728D01*
Y49681D01*
X550648D01*
Y49641D01*
X550567D01*
Y49601D01*
X550487D01*
Y49560D01*
X550366D01*
Y49520D01*
X550286D01*
Y49480D01*
X550205D01*
Y49440D01*
X550084D01*
Y49399D01*
X550004D01*
Y49359D01*
X549883D01*
Y49319D01*
X549803D01*
Y49279D01*
X549682D01*
Y49239D01*
X549562D01*
Y49198D01*
X549441D01*
Y49158D01*
X549320D01*
Y49118D01*
X549160D01*
Y49078D01*
X549079D01*
Y49118D01*
X548918D01*
Y49158D01*
X548798D01*
Y49198D01*
X548677D01*
Y49239D01*
X548556D01*
Y49279D01*
X548436D01*
Y49319D01*
X548355D01*
Y49359D01*
X548235D01*
Y49399D01*
X548154D01*
Y49440D01*
X548074D01*
Y49480D01*
X547953D01*
Y49520D01*
X547873D01*
Y49560D01*
X547792D01*
Y49601D01*
X547712D01*
Y49641D01*
X547591D01*
Y49681D01*
X547511D01*
Y49721D01*
X547430D01*
Y49762D01*
X547350D01*
Y49802D01*
X547269D01*
Y49842D01*
X547189D01*
Y49882D01*
X547108D01*
Y49922D01*
X547028D01*
Y49963D01*
X546948D01*
Y50003D01*
X546867D01*
Y50043D01*
X546787D01*
Y50083D01*
X546706D01*
Y50123D01*
X546666D01*
Y50164D01*
X546586D01*
Y50204D01*
X546505D01*
Y50244D01*
X546425D01*
Y50284D01*
X546344D01*
Y50325D01*
X546264D01*
Y50365D01*
X546224D01*
Y50405D01*
X546143D01*
Y50445D01*
X546063D01*
Y50485D01*
X545982D01*
Y50526D01*
X545942D01*
Y50566D01*
X545862D01*
Y50606D01*
X545781D01*
Y50646D01*
X545741D01*
Y50686D01*
X545661D01*
Y50727D01*
X545580D01*
Y50767D01*
X545540D01*
Y50807D01*
X545460D01*
Y50847D01*
X545379D01*
Y50888D01*
X545339D01*
Y50928D01*
X545258D01*
Y50968D01*
X545178D01*
Y51008D01*
X545138D01*
Y51048D01*
X545057D01*
Y51089D01*
X545017D01*
Y51129D01*
X544937D01*
Y51169D01*
X544897D01*
Y51209D01*
X544816D01*
Y51249D01*
X544736D01*
Y51290D01*
X544696D01*
Y51330D01*
X544615D01*
Y51370D01*
X544575D01*
Y51410D01*
X544494D01*
Y51451D01*
X544454D01*
Y51491D01*
X544374D01*
Y51531D01*
X544333D01*
Y51571D01*
X544253D01*
Y51611D01*
X544213D01*
Y51652D01*
X544132D01*
Y51692D01*
X544092D01*
Y51732D01*
X544052D01*
Y51772D01*
X543972D01*
Y51813D01*
X543931D01*
Y51853D01*
X543851D01*
Y51893D01*
X543811D01*
Y51933D01*
X543770D01*
Y51973D01*
X543690D01*
Y52014D01*
X543650D01*
Y52054D01*
X543569D01*
Y52094D01*
X543529D01*
Y52134D01*
X543489D01*
Y52175D01*
X543409D01*
Y52215D01*
X543368D01*
Y52255D01*
X543328D01*
Y52295D01*
X543248D01*
Y52335D01*
X543208D01*
Y52376D01*
X543167D01*
Y52416D01*
X543087D01*
Y52456D01*
X543047D01*
Y52496D01*
X543006D01*
Y52536D01*
X542926D01*
Y52577D01*
X542886D01*
Y52617D01*
X542845D01*
Y52657D01*
X542765D01*
Y52697D01*
X542725D01*
Y52737D01*
X542685D01*
Y52778D01*
X542644D01*
Y52818D01*
X542564D01*
Y52858D01*
X542524D01*
Y52898D01*
X542484D01*
Y52939D01*
X542443D01*
Y52979D01*
X542363D01*
Y53019D01*
X542323D01*
Y53059D01*
X542282D01*
Y53099D01*
X542242D01*
Y53140D01*
X542162D01*
Y53180D01*
X542122D01*
Y53220D01*
X542081D01*
Y53260D01*
X542041D01*
Y53301D01*
X542001D01*
Y53341D01*
X541921D01*
Y53381D01*
X541880D01*
Y53421D01*
X541840D01*
Y53461D01*
X541800D01*
Y53502D01*
X541760D01*
Y53542D01*
X541719D01*
Y53582D01*
X541679D01*
Y53622D01*
X541599D01*
Y53663D01*
X541559D01*
Y53703D01*
X541518D01*
Y53743D01*
X541478D01*
Y53783D01*
X541438D01*
Y53823D01*
X541398D01*
Y53864D01*
X541357D01*
Y53904D01*
X541317D01*
Y53944D01*
X541237D01*
Y53984D01*
X541197D01*
Y54025D01*
X541156D01*
Y54065D01*
X541116D01*
Y54105D01*
X541076D01*
Y54145D01*
X541036D01*
Y54185D01*
X540995D01*
Y54226D01*
X540955D01*
Y54266D01*
X540915D01*
Y54306D01*
X540875D01*
Y54346D01*
X540835D01*
Y54386D01*
X540794D01*
Y54427D01*
X540754D01*
Y54467D01*
X540714D01*
Y54507D01*
X540674D01*
Y54547D01*
X540593D01*
Y54587D01*
X540553D01*
Y54628D01*
X540513D01*
Y54668D01*
X540473D01*
Y54708D01*
X540433D01*
Y54748D01*
X540392D01*
Y54789D01*
X540352D01*
Y54829D01*
X540312D01*
Y54869D01*
X540272D01*
Y54909D01*
X540231D01*
Y54949D01*
X540191D01*
Y55030D01*
X540151D01*
Y55070D01*
X540111D01*
Y55110D01*
X540070D01*
Y55150D01*
X540030D01*
Y55191D01*
X539990D01*
Y55231D01*
X539950D01*
Y55271D01*
X539910D01*
Y55311D01*
X539869D01*
Y55352D01*
X539829D01*
Y55392D01*
X539789D01*
Y55432D01*
X539749D01*
Y55472D01*
X539709D01*
Y55512D01*
X539668D01*
Y55553D01*
X539628D01*
Y55593D01*
X539588D01*
Y55673D01*
X539548D01*
Y55714D01*
X539507D01*
Y55754D01*
X539467D01*
Y55794D01*
X539427D01*
Y55834D01*
X539387D01*
Y55874D01*
X539347D01*
Y55915D01*
X539306D01*
Y55955D01*
X539266D01*
Y56035D01*
X539226D01*
Y56076D01*
X539186D01*
Y56116D01*
X539146D01*
Y56156D01*
X539105D01*
Y56196D01*
X539065D01*
Y56236D01*
X539025D01*
Y56317D01*
X538985D01*
Y56357D01*
X538945D01*
Y56397D01*
X538904D01*
Y56438D01*
X538864D01*
Y56478D01*
X538824D01*
Y56558D01*
X538784D01*
Y56598D01*
X538743D01*
Y56639D01*
X538703D01*
Y56679D01*
X538663D01*
Y56759D01*
X538623D01*
Y56799D01*
X538582D01*
Y56840D01*
X538542D01*
Y56880D01*
X538502D01*
Y56960D01*
X538462D01*
Y57000D01*
X538422D01*
Y57041D01*
X538381D01*
Y57121D01*
X538341D01*
Y57161D01*
X538301D01*
Y57202D01*
X538261D01*
Y57282D01*
X538221D01*
Y57322D01*
X538180D01*
Y57362D01*
X538140D01*
Y57443D01*
X538100D01*
Y57483D01*
X538060D01*
Y57523D01*
X538019D01*
Y57604D01*
X537979D01*
Y57644D01*
X537939D01*
Y57724D01*
X537899D01*
Y57765D01*
X537859D01*
Y57805D01*
X537818D01*
Y57885D01*
X537778D01*
Y57926D01*
X537738D01*
Y58006D01*
X537698D01*
Y58046D01*
X537658D01*
Y58127D01*
X537617D01*
Y58167D01*
X537577D01*
Y58247D01*
X537537D01*
Y58287D01*
X537497D01*
Y58368D01*
X537457D01*
Y58408D01*
X537416D01*
Y58488D01*
X537376D01*
Y58569D01*
X537336D01*
Y58609D01*
X537296D01*
Y58690D01*
X537255D01*
Y58730D01*
X537215D01*
Y58810D01*
X537175D01*
Y58891D01*
X537135D01*
Y58931D01*
X537094D01*
Y59011D01*
X537054D01*
Y59092D01*
X537014D01*
Y59132D01*
X536974D01*
Y59212D01*
X536934D01*
Y59293D01*
X536893D01*
Y59333D01*
X536853D01*
Y59413D01*
X536813D01*
Y59494D01*
X536773D01*
Y59574D01*
X536733D01*
Y59655D01*
X536692D01*
Y59735D01*
X536652D01*
Y59776D01*
X536612D01*
Y59856D01*
X536572D01*
Y59936D01*
X536531D01*
Y60017D01*
X536491D01*
Y60097D01*
X536451D01*
Y60178D01*
X536411D01*
Y60258D01*
X536371D01*
Y60339D01*
X536330D01*
Y60419D01*
X536290D01*
Y60499D01*
X536250D01*
Y60580D01*
X536210D01*
Y60660D01*
X536170D01*
Y60781D01*
X536129D01*
Y60861D01*
X536089D01*
Y60942D01*
X536049D01*
Y61022D01*
X536009D01*
Y61143D01*
X535968D01*
Y61223D01*
X535928D01*
Y61304D01*
X535888D01*
Y61424D01*
X535848D01*
Y61505D01*
X535808D01*
Y61625D01*
X535767D01*
Y61706D01*
X535727D01*
Y61827D01*
X535687D01*
Y61907D01*
X535647D01*
Y62028D01*
X535606D01*
Y62148D01*
X535566D01*
Y62269D01*
X535526D01*
Y62349D01*
X535486D01*
Y62470D01*
X535446D01*
Y62591D01*
X535405D01*
Y62751D01*
X535365D01*
Y62872D01*
X535325D01*
Y62993D01*
X535285D01*
Y63113D01*
X535244D01*
Y63274D01*
X535204D01*
Y63395D01*
X535164D01*
Y63556D01*
X535124D01*
Y63717D01*
X535084D01*
Y63878D01*
X535043D01*
Y64039D01*
X535003D01*
Y64240D01*
X534963D01*
Y64441D01*
X534923D01*
Y64642D01*
X534883D01*
Y64843D01*
X534842D01*
Y65084D01*
X534802D01*
Y65325D01*
X534762D01*
Y65607D01*
X534722D01*
Y65969D01*
X534682D01*
Y66371D01*
X534641D01*
Y66974D01*
X534601D01*
Y77953D01*
Y77994D01*
Y82297D01*
X563638D01*
Y66813D01*
D02*
G37*
%LPC*%
G36*
X165581Y291633D02*
X165406D01*
Y290933D01*
Y290758D01*
X165231D01*
Y290408D01*
X166106D01*
Y290758D01*
X165931D01*
Y291108D01*
X165756D01*
Y291458D01*
X165581D01*
Y291633D01*
D02*
G37*
G36*
X151061Y287259D02*
X150886D01*
Y287084D01*
X151061D01*
Y286035D01*
X151236D01*
Y285860D01*
X151411D01*
Y286035D01*
X151586D01*
Y286210D01*
X151936D01*
Y286385D01*
X151761D01*
Y286560D01*
X151586D01*
Y286735D01*
X151411D01*
Y286909D01*
X151236D01*
Y287084D01*
X151061D01*
Y287259D01*
D02*
G37*
G36*
X144239Y283411D02*
X144064D01*
Y283236D01*
X143714D01*
Y282886D01*
X143539D01*
Y282361D01*
X143714D01*
Y282186D01*
X143889D01*
Y282011D01*
X144064D01*
Y281836D01*
X144764D01*
Y282011D01*
X144939D01*
Y282186D01*
X145114D01*
Y282361D01*
X144939D01*
Y282711D01*
X144764D01*
Y282886D01*
X144589D01*
Y283061D01*
X144414D01*
Y283236D01*
X144239D01*
Y283411D01*
D02*
G37*
G36*
X202667Y276238D02*
X201967D01*
Y276063D01*
X201792D01*
Y275889D01*
X201617D01*
Y275364D01*
X201792D01*
Y275014D01*
X202142D01*
Y275189D01*
X202317D01*
Y275364D01*
X202492D01*
Y275539D01*
X202842D01*
Y276063D01*
X202667D01*
Y276238D01*
D02*
G37*
G36*
X201267Y275364D02*
X200393D01*
Y275189D01*
X200218D01*
Y275014D01*
X200043D01*
Y274489D01*
X200218D01*
Y274139D01*
X200393D01*
Y273964D01*
X200743D01*
Y274139D01*
X200917D01*
Y274314D01*
X201092D01*
Y274489D01*
X201442D01*
Y274664D01*
X201617D01*
Y274839D01*
X201442D01*
Y275014D01*
X201267D01*
Y275364D01*
D02*
G37*
G36*
X178526Y281137D02*
X176777D01*
Y280962D01*
X176252D01*
Y280787D01*
X175727D01*
Y280612D01*
X175377D01*
Y280437D01*
X175027D01*
Y280262D01*
X174852D01*
Y280087D01*
X174503D01*
Y279912D01*
X174328D01*
Y279737D01*
X174153D01*
Y279562D01*
X173978D01*
Y279387D01*
X173803D01*
Y279212D01*
X173628D01*
Y278862D01*
X173453D01*
Y278687D01*
X173278D01*
Y278338D01*
X173103D01*
Y277988D01*
X174503D01*
Y277813D01*
X175377D01*
Y277638D01*
X176077D01*
Y277463D01*
X176777D01*
Y277288D01*
X177301D01*
Y277113D01*
X178001D01*
Y276938D01*
X178351D01*
Y276763D01*
X178701D01*
Y276588D01*
X179226D01*
Y276413D01*
X179576D01*
Y276238D01*
X179925D01*
Y276063D01*
X180275D01*
Y275889D01*
X180625D01*
Y275714D01*
X180975D01*
Y275539D01*
X181150D01*
Y275364D01*
X181500D01*
Y275189D01*
X181850D01*
Y275014D01*
X182025D01*
Y274839D01*
X182374D01*
Y274664D01*
X182724D01*
Y275539D01*
X182899D01*
Y276413D01*
X182724D01*
Y277463D01*
X182549D01*
Y277988D01*
X182374D01*
Y278338D01*
X182200D01*
Y278687D01*
X182025D01*
Y278862D01*
X181850D01*
Y279212D01*
X181675D01*
Y279387D01*
X181500D01*
Y279562D01*
X181325D01*
Y279737D01*
X181150D01*
Y279912D01*
X180975D01*
Y280087D01*
X180625D01*
Y280262D01*
X180450D01*
Y280437D01*
X180100D01*
Y280612D01*
X179750D01*
Y280787D01*
X179226D01*
Y280962D01*
X178526D01*
Y281137D01*
D02*
G37*
G36*
X154035Y274489D02*
X151936D01*
Y274314D01*
X151411D01*
Y274139D01*
X150886D01*
Y273964D01*
X150536D01*
Y273789D01*
X150362D01*
Y273614D01*
X150012D01*
Y273440D01*
X149837D01*
Y273265D01*
X149662D01*
Y273090D01*
X149487D01*
Y272915D01*
X149312D01*
Y272740D01*
X149137D01*
Y272565D01*
X148962D01*
Y272390D01*
X148787D01*
Y272040D01*
X148612D01*
Y271690D01*
X148437D01*
Y271340D01*
X148262D01*
Y270990D01*
X148087D01*
Y270116D01*
X147913D01*
Y269416D01*
Y269241D01*
Y268541D01*
X148087D01*
Y267842D01*
X148262D01*
Y267317D01*
X148437D01*
Y266967D01*
X148612D01*
Y266617D01*
X148787D01*
Y266442D01*
X148962D01*
Y266267D01*
X149137D01*
Y266092D01*
X149312D01*
Y265742D01*
X149662D01*
Y266092D01*
X149837D01*
Y266442D01*
X150012D01*
Y266792D01*
X150187D01*
Y267142D01*
X150362D01*
Y267492D01*
X150536D01*
Y267667D01*
X150711D01*
Y268016D01*
X150886D01*
Y268366D01*
X151061D01*
Y268541D01*
X151236D01*
Y268716D01*
X151411D01*
Y269066D01*
X151586D01*
Y269241D01*
X151761D01*
Y269591D01*
X151936D01*
Y269766D01*
X152111D01*
Y269941D01*
X152286D01*
Y270116D01*
X152461D01*
Y270466D01*
X152636D01*
Y270641D01*
X152811D01*
Y270816D01*
X152986D01*
Y270990D01*
X153160D01*
Y271165D01*
X153336D01*
Y271340D01*
X153510D01*
Y271515D01*
X153685D01*
Y271690D01*
X153860D01*
Y271865D01*
X154035D01*
Y272040D01*
X154210D01*
Y272215D01*
X154560D01*
Y272390D01*
X154735D01*
Y272565D01*
X154910D01*
Y272740D01*
X155085D01*
Y272915D01*
X155435D01*
Y273090D01*
X155610D01*
Y273265D01*
X155785D01*
Y273440D01*
X155960D01*
Y273614D01*
X155785D01*
Y273789D01*
X155435D01*
Y273964D01*
X155085D01*
Y274139D01*
X154735D01*
Y274314D01*
X154035D01*
Y274489D01*
D02*
G37*
G36*
X171529Y273265D02*
X168030D01*
Y273090D01*
X166805D01*
Y272915D01*
X166281D01*
Y272390D01*
X166455D01*
Y271690D01*
X166630D01*
Y270641D01*
X166455D01*
Y270466D01*
X166281D01*
Y270291D01*
X165406D01*
Y270466D01*
X165231D01*
Y270641D01*
X165056D01*
Y270990D01*
X164881D01*
Y271690D01*
X164706D01*
Y272390D01*
X164181D01*
Y272215D01*
X163657D01*
Y272040D01*
X163307D01*
Y271865D01*
X162782D01*
Y271690D01*
X162432D01*
Y271515D01*
X162082D01*
Y271340D01*
X161732D01*
Y271165D01*
X161382D01*
Y270990D01*
X161208D01*
Y270816D01*
X160858D01*
Y270641D01*
X160683D01*
Y270466D01*
X160333D01*
Y270291D01*
X159983D01*
Y270116D01*
X159808D01*
Y269941D01*
X159633D01*
Y269766D01*
X159283D01*
Y269591D01*
X159108D01*
Y269416D01*
X158933D01*
Y269241D01*
X158758D01*
Y269066D01*
X158583D01*
Y268891D01*
X158408D01*
Y268716D01*
X158583D01*
Y268541D01*
X158758D01*
Y268366D01*
X158933D01*
Y268192D01*
X159108D01*
Y268016D01*
X159283D01*
Y267842D01*
X159458D01*
Y267667D01*
X159633D01*
Y267492D01*
X159808D01*
Y266792D01*
X159633D01*
Y266442D01*
X159458D01*
Y266267D01*
X158583D01*
Y266442D01*
X158234D01*
Y266617D01*
X158059D01*
Y266792D01*
X157884D01*
Y266967D01*
X157709D01*
Y267142D01*
X157534D01*
Y267317D01*
X157359D01*
Y267492D01*
X157009D01*
Y267317D01*
X156834D01*
Y267142D01*
X156659D01*
Y266967D01*
X156484D01*
Y266792D01*
X156309D01*
Y266442D01*
X156134D01*
Y266267D01*
X155960D01*
Y266092D01*
X155785D01*
Y265742D01*
X155610D01*
Y265567D01*
X155435D01*
Y265218D01*
X155260D01*
Y265043D01*
X155085D01*
Y264693D01*
X154910D01*
Y264343D01*
X154735D01*
Y263993D01*
X154560D01*
Y263643D01*
X154385D01*
Y263293D01*
X154210D01*
Y262943D01*
X154035D01*
Y262419D01*
X153860D01*
Y261894D01*
X153685D01*
Y261369D01*
X154210D01*
Y261194D01*
X154910D01*
Y261019D01*
X155435D01*
Y260844D01*
X155610D01*
Y260669D01*
X155785D01*
Y259795D01*
X155610D01*
Y259620D01*
X155435D01*
Y259445D01*
X154210D01*
Y259620D01*
X153510D01*
Y259795D01*
X153160D01*
Y259445D01*
X152986D01*
Y258220D01*
X152811D01*
Y254197D01*
X152986D01*
Y253672D01*
Y253497D01*
Y253147D01*
X153160D01*
Y252622D01*
X153336D01*
Y252797D01*
X154035D01*
Y252972D01*
X154735D01*
Y253147D01*
X155260D01*
Y252972D01*
X155610D01*
Y252622D01*
X155785D01*
Y251748D01*
X155610D01*
Y251573D01*
X155260D01*
Y251398D01*
X154735D01*
Y251223D01*
X154035D01*
Y251048D01*
X153685D01*
Y250523D01*
X153860D01*
Y249998D01*
X154035D01*
Y249648D01*
X154210D01*
Y249124D01*
X154385D01*
Y248774D01*
X154560D01*
Y248599D01*
X154735D01*
Y248074D01*
X154910D01*
Y247724D01*
X155085D01*
Y247549D01*
X155260D01*
Y247199D01*
X155435D01*
Y247024D01*
X155610D01*
Y246675D01*
X155785D01*
Y246500D01*
X155960D01*
Y246150D01*
X156134D01*
Y245975D01*
X156309D01*
Y245800D01*
X156484D01*
Y245450D01*
X156659D01*
Y245275D01*
X156834D01*
Y245100D01*
X157009D01*
Y244925D01*
X157359D01*
Y245100D01*
X157534D01*
Y245275D01*
X157709D01*
Y245450D01*
X157884D01*
Y245625D01*
X158059D01*
Y245800D01*
X158234D01*
Y245975D01*
X158408D01*
Y246150D01*
X159458D01*
Y245975D01*
X159633D01*
Y245625D01*
X159808D01*
Y245100D01*
X159633D01*
Y244750D01*
X159458D01*
Y244575D01*
X159283D01*
Y244400D01*
X159108D01*
Y244226D01*
X158933D01*
Y244051D01*
X158758D01*
Y243876D01*
X158583D01*
Y243701D01*
X158408D01*
Y243526D01*
X158583D01*
Y243351D01*
X158758D01*
Y243176D01*
X158933D01*
Y243001D01*
X159108D01*
Y242826D01*
X159458D01*
Y242651D01*
X159633D01*
Y242476D01*
X159808D01*
Y242301D01*
X160158D01*
Y242126D01*
X160333D01*
Y241951D01*
X160683D01*
Y241776D01*
X161033D01*
Y241602D01*
X161208D01*
Y241427D01*
X161557D01*
Y241252D01*
X161907D01*
Y241077D01*
X162257D01*
Y240902D01*
X162607D01*
Y240727D01*
X162957D01*
Y240552D01*
X163307D01*
Y240377D01*
X163832D01*
Y240202D01*
X164356D01*
Y240027D01*
X164531D01*
Y240202D01*
X164706D01*
Y240902D01*
X164881D01*
Y241602D01*
X165056D01*
Y241951D01*
X165231D01*
Y242126D01*
X165581D01*
Y242301D01*
X166106D01*
Y242126D01*
X166455D01*
Y241776D01*
X166630D01*
Y240727D01*
X166455D01*
Y240202D01*
X166281D01*
Y239502D01*
X167155D01*
Y239327D01*
X169079D01*
Y239152D01*
X170479D01*
Y239327D01*
X172403D01*
Y239502D01*
X173278D01*
Y240377D01*
X173103D01*
Y240902D01*
X172928D01*
Y241776D01*
X173103D01*
Y241951D01*
X173278D01*
Y242126D01*
X173453D01*
Y242301D01*
X173978D01*
Y242126D01*
X174328D01*
Y241951D01*
X174503D01*
Y241602D01*
X174677D01*
Y241077D01*
X174852D01*
Y240377D01*
X175027D01*
Y240027D01*
X175202D01*
Y240202D01*
X175727D01*
Y240377D01*
X176252D01*
Y240552D01*
X176602D01*
Y240727D01*
X176952D01*
Y240902D01*
X177301D01*
Y241077D01*
X177651D01*
Y241252D01*
X178001D01*
Y241427D01*
X178351D01*
Y241602D01*
X178701D01*
Y241776D01*
X178876D01*
Y241951D01*
X179226D01*
Y242126D01*
X179401D01*
Y242301D01*
X179750D01*
Y242476D01*
X179925D01*
Y242651D01*
X180100D01*
Y242826D01*
X180450D01*
Y243001D01*
X180625D01*
Y243176D01*
X180800D01*
Y243351D01*
X180975D01*
Y243526D01*
X181150D01*
Y243701D01*
X180975D01*
Y243876D01*
X180800D01*
Y244051D01*
X180625D01*
Y244226D01*
X180450D01*
Y244400D01*
X180275D01*
Y244575D01*
X180100D01*
Y244750D01*
X179925D01*
Y245275D01*
X179750D01*
Y245450D01*
X179925D01*
Y245975D01*
X180100D01*
Y246150D01*
X181150D01*
Y245975D01*
X181325D01*
Y245800D01*
X181500D01*
Y245625D01*
X181675D01*
Y245450D01*
X181850D01*
Y245275D01*
X182025D01*
Y245100D01*
X182200D01*
Y244925D01*
X182549D01*
Y245100D01*
X182724D01*
Y245275D01*
X182899D01*
Y245450D01*
X183074D01*
Y245625D01*
X183249D01*
Y245975D01*
X183424D01*
Y246150D01*
X183599D01*
Y246325D01*
X183774D01*
Y246675D01*
X183949D01*
Y246849D01*
X184124D01*
Y247199D01*
X184299D01*
Y247374D01*
X184474D01*
Y247724D01*
X184649D01*
Y248074D01*
X184824D01*
Y248424D01*
X184998D01*
Y248774D01*
X185173D01*
Y249124D01*
X185348D01*
Y249473D01*
X185523D01*
Y249823D01*
X185698D01*
Y250348D01*
X185873D01*
Y251048D01*
X185523D01*
Y251223D01*
X184824D01*
Y251398D01*
X184299D01*
Y251573D01*
X184124D01*
Y251748D01*
X183949D01*
Y251923D01*
X183774D01*
Y252622D01*
X183949D01*
Y252797D01*
X184124D01*
Y252972D01*
X184299D01*
Y253147D01*
X184824D01*
Y252972D01*
X185523D01*
Y252797D01*
X186223D01*
Y252622D01*
X186398D01*
Y252797D01*
X186573D01*
Y253847D01*
X186748D01*
Y258570D01*
X186573D01*
Y259620D01*
X186398D01*
Y259795D01*
X186048D01*
Y259620D01*
X185348D01*
Y259445D01*
X184124D01*
Y259620D01*
X183949D01*
Y259795D01*
X183774D01*
Y260494D01*
X183949D01*
Y260844D01*
X184124D01*
Y261019D01*
X184649D01*
Y261194D01*
X185348D01*
Y261369D01*
X185873D01*
Y262069D01*
X185698D01*
Y262594D01*
X185523D01*
Y262943D01*
X185348D01*
Y263293D01*
X185173D01*
Y263643D01*
X184998D01*
Y263993D01*
X184824D01*
Y264343D01*
X184649D01*
Y264693D01*
X184474D01*
Y265043D01*
X184299D01*
Y265218D01*
X184124D01*
Y265567D01*
X183949D01*
Y265917D01*
X183774D01*
Y266092D01*
X183599D01*
Y266267D01*
X183424D01*
Y266617D01*
X183249D01*
Y266792D01*
X183074D01*
Y266967D01*
X182899D01*
Y267142D01*
X182724D01*
Y267492D01*
X182549D01*
Y267667D01*
X182374D01*
Y267492D01*
X182200D01*
Y267317D01*
X182025D01*
Y267142D01*
X181850D01*
Y266967D01*
X181675D01*
Y266792D01*
X181500D01*
Y266617D01*
X181325D01*
Y266442D01*
X180975D01*
Y266267D01*
X180275D01*
Y266442D01*
X180100D01*
Y266617D01*
X179925D01*
Y266967D01*
X179750D01*
Y267317D01*
X179925D01*
Y267667D01*
X180100D01*
Y267842D01*
X180275D01*
Y268016D01*
X180450D01*
Y268192D01*
X180625D01*
Y268366D01*
X180800D01*
Y268541D01*
X180975D01*
Y268716D01*
X181150D01*
Y269066D01*
X180975D01*
Y269241D01*
X180625D01*
Y269416D01*
X180450D01*
Y269591D01*
X180275D01*
Y269766D01*
X179925D01*
Y269941D01*
X179750D01*
Y270116D01*
X179576D01*
Y270291D01*
X179226D01*
Y270466D01*
X179051D01*
Y270641D01*
X178701D01*
Y270816D01*
X178526D01*
Y270990D01*
X178176D01*
Y271165D01*
X177826D01*
Y271340D01*
X177476D01*
Y271515D01*
X177127D01*
Y271690D01*
X176777D01*
Y271865D01*
X176427D01*
Y272040D01*
X175902D01*
Y272215D01*
X175377D01*
Y272390D01*
X175027D01*
Y272215D01*
X174852D01*
Y271515D01*
X174677D01*
Y270816D01*
X174503D01*
Y270466D01*
X174328D01*
Y270291D01*
X173278D01*
Y270466D01*
X173103D01*
Y270641D01*
X172928D01*
Y271515D01*
X173103D01*
Y272215D01*
X173278D01*
Y272915D01*
X172753D01*
Y273090D01*
X171529D01*
Y273265D01*
D02*
G37*
%LPD*%
G36*
X167505Y266792D02*
X167680D01*
Y266617D01*
X167855D01*
Y266442D01*
X168030D01*
Y265742D01*
X168205D01*
Y265218D01*
X168380D01*
Y264518D01*
X168555D01*
Y263818D01*
X168730D01*
Y263293D01*
X168905D01*
Y262594D01*
X169079D01*
Y261894D01*
X169254D01*
Y261194D01*
X169429D01*
Y260494D01*
X169604D01*
Y259970D01*
X169779D01*
Y259270D01*
X169954D01*
Y258745D01*
X170654D01*
Y258570D01*
X171004D01*
Y258395D01*
X171354D01*
Y258220D01*
X171529D01*
Y258045D01*
X171703D01*
Y257870D01*
X171879D01*
Y257695D01*
X172228D01*
Y257870D01*
X172928D01*
Y258045D01*
X173628D01*
Y258220D01*
X174328D01*
Y258395D01*
X174852D01*
Y258570D01*
X175552D01*
Y258745D01*
X176952D01*
Y258570D01*
X177127D01*
Y258220D01*
X177301D01*
Y257870D01*
X177127D01*
Y257521D01*
X176952D01*
Y257346D01*
X176777D01*
Y257171D01*
X176252D01*
Y256996D01*
X175552D01*
Y256821D01*
X174852D01*
Y256646D01*
X174328D01*
Y256471D01*
X173628D01*
Y256296D01*
X172928D01*
Y256121D01*
X172403D01*
Y255771D01*
X172228D01*
Y255246D01*
X172053D01*
Y254897D01*
X171879D01*
Y254722D01*
X171703D01*
Y254372D01*
X171529D01*
Y254197D01*
X171179D01*
Y254022D01*
X171004D01*
Y253847D01*
X170479D01*
Y253672D01*
X169079D01*
Y253847D01*
X168555D01*
Y254022D01*
X168380D01*
Y254197D01*
X168205D01*
Y254372D01*
X168030D01*
Y254547D01*
X167855D01*
Y254722D01*
X167680D01*
Y254897D01*
X167505D01*
Y255246D01*
X167330D01*
Y257171D01*
X167505D01*
Y257521D01*
X167680D01*
Y257695D01*
X167855D01*
Y258045D01*
X168205D01*
Y258220D01*
X168380D01*
Y258570D01*
X168205D01*
Y259270D01*
X168030D01*
Y259970D01*
X167855D01*
Y260494D01*
X167680D01*
Y261194D01*
X167505D01*
Y261894D01*
X167330D01*
Y262594D01*
X167155D01*
Y263118D01*
X166980D01*
Y263818D01*
X166805D01*
Y263993D01*
Y264518D01*
X166630D01*
Y265043D01*
X166455D01*
Y265742D01*
X166281D01*
Y266442D01*
X166455D01*
Y266617D01*
X166630D01*
Y266792D01*
X166805D01*
Y266967D01*
X167505D01*
Y266792D01*
D02*
G37*
%LPC*%
G36*
X170304Y256996D02*
X169254D01*
Y256821D01*
X169079D01*
Y256471D01*
X168905D01*
Y255946D01*
X169079D01*
Y255596D01*
X169429D01*
Y255421D01*
X170304D01*
Y255596D01*
X170479D01*
Y255946D01*
X170654D01*
Y256646D01*
X170479D01*
Y256821D01*
X170304D01*
Y256996D01*
D02*
G37*
G36*
X176952Y224983D02*
X176777D01*
Y224283D01*
X176602D01*
Y223583D01*
X177127D01*
Y223758D01*
X177476D01*
Y223933D01*
X177301D01*
Y224283D01*
X177127D01*
Y224633D01*
X176952D01*
Y224983D01*
D02*
G37*
G36*
X548074Y80407D02*
X547712D01*
Y80366D01*
X547591D01*
Y80326D01*
X547511D01*
Y80286D01*
X547470D01*
Y80246D01*
X547390D01*
Y80206D01*
X547350D01*
Y80165D01*
X547310D01*
Y80125D01*
X547269D01*
Y80085D01*
X547189D01*
Y80125D01*
X547149D01*
Y80165D01*
X547108D01*
Y80206D01*
X547068D01*
Y80246D01*
X547028D01*
Y80286D01*
X546948D01*
Y80326D01*
X546907D01*
Y80366D01*
X546827D01*
Y80407D01*
X546505D01*
Y80366D01*
X546425D01*
Y80326D01*
X546385D01*
Y80286D01*
X546344D01*
Y80246D01*
X546304D01*
Y80206D01*
X546264D01*
Y80125D01*
X546224D01*
Y80085D01*
X546063D01*
Y80125D01*
X546023D01*
Y80165D01*
X545942D01*
Y80206D01*
X545902D01*
Y80246D01*
X545781D01*
Y80286D01*
X545580D01*
Y80246D01*
X545460D01*
Y80206D01*
X545379D01*
Y80165D01*
X545339D01*
Y80125D01*
X545299D01*
Y80085D01*
X545258D01*
Y80045D01*
X545218D01*
Y79964D01*
X545178D01*
Y79884D01*
X545138D01*
Y79803D01*
X545098D01*
Y79723D01*
X545057D01*
Y79522D01*
X545098D01*
Y79441D01*
X545138D01*
Y79401D01*
X545178D01*
Y79441D01*
X545258D01*
Y79482D01*
X545339D01*
Y79522D01*
X545460D01*
Y79562D01*
X545540D01*
Y79602D01*
X545661D01*
Y79643D01*
X545781D01*
Y79683D01*
X545942D01*
Y79723D01*
X546143D01*
Y79763D01*
X546344D01*
Y79803D01*
X546666D01*
Y79844D01*
X547390D01*
Y79803D01*
X547712D01*
Y79763D01*
X547913D01*
Y79723D01*
X548033D01*
Y79683D01*
X548194D01*
Y79643D01*
X548275D01*
Y79602D01*
X548395D01*
Y79562D01*
X548476D01*
Y79522D01*
X548556D01*
Y79482D01*
X548637D01*
Y79441D01*
X548717D01*
Y79401D01*
X548798D01*
Y79361D01*
X548838D01*
Y79321D01*
X548918D01*
Y79281D01*
X548959D01*
Y79240D01*
X549039D01*
Y79200D01*
X549079D01*
Y79160D01*
X549119D01*
Y79120D01*
X549160D01*
Y79079D01*
X549240D01*
Y79039D01*
X549280D01*
Y78999D01*
X549320D01*
Y78959D01*
X549361D01*
Y78919D01*
X549401D01*
Y78878D01*
X549441D01*
Y78838D01*
X549481D01*
Y78798D01*
X549521D01*
Y78758D01*
X549562D01*
Y78717D01*
X549602D01*
Y78677D01*
X549642D01*
Y78637D01*
X549682D01*
Y78597D01*
X549723D01*
Y78557D01*
X549763D01*
Y78517D01*
X549803D01*
Y78476D01*
X549843D01*
Y78436D01*
X549883D01*
Y78396D01*
X549924D01*
Y78356D01*
X549964D01*
Y78275D01*
X550004D01*
Y78235D01*
X550044D01*
Y78195D01*
X550084D01*
Y78155D01*
X550125D01*
Y78114D01*
X550165D01*
Y78074D01*
X550205D01*
Y78034D01*
X550245D01*
Y77953D01*
X550286D01*
Y77913D01*
X550326D01*
Y77873D01*
X550366D01*
Y77833D01*
X550406D01*
Y77793D01*
X550447D01*
Y77752D01*
X550487D01*
Y77672D01*
X550527D01*
Y77632D01*
X550567D01*
Y77592D01*
X550607D01*
Y77551D01*
X550648D01*
Y77511D01*
X550688D01*
Y77471D01*
X550728D01*
Y77431D01*
X550768D01*
Y77390D01*
X550808D01*
Y77350D01*
X550849D01*
Y77310D01*
X550889D01*
Y77270D01*
X550929D01*
Y77229D01*
X550969D01*
Y77189D01*
X551009D01*
Y77149D01*
X551050D01*
Y77109D01*
X551090D01*
Y77069D01*
X551130D01*
Y77028D01*
X551170D01*
Y76988D01*
X551211D01*
Y76948D01*
X551251D01*
Y76908D01*
X551291D01*
Y76868D01*
X551331D01*
Y76827D01*
X551371D01*
Y76868D01*
X551412D01*
Y77149D01*
X551371D01*
Y77229D01*
X551331D01*
Y77310D01*
X551291D01*
Y77350D01*
X551211D01*
Y77390D01*
X551170D01*
Y77431D01*
X551050D01*
Y77471D01*
X551009D01*
Y77511D01*
X550969D01*
Y77592D01*
X551009D01*
Y77712D01*
X551050D01*
Y78074D01*
X551009D01*
Y78114D01*
X550929D01*
Y78155D01*
X550808D01*
Y78195D01*
X550688D01*
Y78235D01*
X550648D01*
Y78315D01*
X550688D01*
Y78436D01*
X550728D01*
Y78637D01*
X550688D01*
Y78717D01*
X550648D01*
Y78758D01*
X550567D01*
Y78798D01*
X550084D01*
Y78959D01*
X550125D01*
Y79200D01*
X550084D01*
Y79321D01*
X550044D01*
Y79401D01*
X550004D01*
Y79441D01*
X549964D01*
Y79482D01*
X549883D01*
Y79522D01*
X549763D01*
Y79562D01*
X549361D01*
Y79522D01*
X549160D01*
Y79924D01*
X549119D01*
Y79964D01*
X549079D01*
Y80005D01*
X549039D01*
Y80045D01*
X548959D01*
Y80085D01*
X548677D01*
Y80045D01*
X548556D01*
Y80005D01*
X548476D01*
Y79964D01*
X548315D01*
Y80125D01*
X548275D01*
Y80206D01*
X548235D01*
Y80286D01*
X548194D01*
Y80326D01*
X548154D01*
Y80366D01*
X548074D01*
Y80407D01*
D02*
G37*
G36*
X560300D02*
X560098D01*
Y80366D01*
X559897D01*
Y80326D01*
X559777D01*
Y80286D01*
X559656D01*
Y80246D01*
X559576D01*
Y80206D01*
X559455D01*
Y80165D01*
X559375D01*
Y80125D01*
X559214D01*
Y80085D01*
X559174D01*
Y76586D01*
X559254D01*
Y76546D01*
X559455D01*
Y76506D01*
X559576D01*
Y76465D01*
X559696D01*
Y76425D01*
X559857D01*
Y76385D01*
X559978D01*
Y76345D01*
X560098D01*
Y76304D01*
X560259D01*
Y76264D01*
X560501D01*
Y76224D01*
X561426D01*
Y79643D01*
Y79683D01*
Y79924D01*
X561305D01*
Y79964D01*
X561184D01*
Y80005D01*
X561104D01*
Y80045D01*
X561023D01*
Y80085D01*
X560943D01*
Y80125D01*
X560903D01*
Y80165D01*
X560822D01*
Y80206D01*
X560742D01*
Y80246D01*
X560702D01*
Y80286D01*
X560621D01*
Y80326D01*
X560501D01*
Y80366D01*
X560300D01*
Y80407D01*
D02*
G37*
G36*
X558007D02*
X557806D01*
Y80366D01*
X557605D01*
Y80326D01*
X557525D01*
Y80286D01*
X557444D01*
Y80246D01*
X557364D01*
Y80206D01*
X557283D01*
Y80165D01*
X557243D01*
Y80125D01*
X557163D01*
Y80085D01*
X557082D01*
Y80045D01*
X557002D01*
Y80005D01*
X556921D01*
Y79964D01*
X556801D01*
Y79924D01*
X556680D01*
Y76224D01*
X557605D01*
Y76264D01*
X557887D01*
Y76304D01*
X558007D01*
Y76345D01*
X558168D01*
Y76385D01*
X558289D01*
Y76425D01*
X558409D01*
Y76465D01*
X558530D01*
Y76506D01*
X558691D01*
Y76546D01*
X558852D01*
Y76586D01*
X558972D01*
Y80085D01*
X558892D01*
Y80125D01*
X558771D01*
Y80165D01*
X558651D01*
Y80206D01*
X558570D01*
Y80246D01*
X558450D01*
Y80286D01*
X558329D01*
Y80326D01*
X558208D01*
Y80366D01*
X558007D01*
Y80407D01*
D02*
G37*
G36*
X540433D02*
X540231D01*
Y80366D01*
X540030D01*
Y80326D01*
X539910D01*
Y80286D01*
X539789D01*
Y80246D01*
X539709D01*
Y80206D01*
X539588D01*
Y80165D01*
X539507D01*
Y80125D01*
X539347D01*
Y80085D01*
X539306D01*
Y76586D01*
X539387D01*
Y76546D01*
X539588D01*
Y76506D01*
X539709D01*
Y76465D01*
X539829D01*
Y76425D01*
X539990D01*
Y76385D01*
X540111D01*
Y76345D01*
X540231D01*
Y76304D01*
X540392D01*
Y76264D01*
X540634D01*
Y76224D01*
X541559D01*
Y79924D01*
X541438D01*
Y79964D01*
X541317D01*
Y80005D01*
X541237D01*
Y80045D01*
X541156D01*
Y80085D01*
X541076D01*
Y80125D01*
X541036D01*
Y80165D01*
X540955D01*
Y80206D01*
X540875D01*
Y80246D01*
X540835D01*
Y80286D01*
X540754D01*
Y80326D01*
X540634D01*
Y80366D01*
X540433D01*
Y80407D01*
D02*
G37*
G36*
X538140D02*
X537939D01*
Y80366D01*
X537738D01*
Y80326D01*
X537658D01*
Y80286D01*
X537577D01*
Y80246D01*
X537497D01*
Y80206D01*
X537416D01*
Y80165D01*
X537376D01*
Y80125D01*
X537296D01*
Y80085D01*
X537215D01*
Y80045D01*
X537135D01*
Y80005D01*
X537054D01*
Y79964D01*
X536934D01*
Y79924D01*
X536813D01*
Y76224D01*
X537738D01*
Y76264D01*
X538019D01*
Y76304D01*
X538140D01*
Y76345D01*
X538301D01*
Y76385D01*
X538422D01*
Y76425D01*
X538542D01*
Y76465D01*
X538663D01*
Y76506D01*
X538824D01*
Y76546D01*
X538985D01*
Y76586D01*
X539105D01*
Y79482D01*
Y79522D01*
Y80085D01*
X539025D01*
Y80125D01*
X538904D01*
Y80165D01*
X538784D01*
Y80206D01*
X538703D01*
Y80246D01*
X538582D01*
Y80286D01*
X538462D01*
Y80326D01*
X538341D01*
Y80366D01*
X538140D01*
Y80407D01*
D02*
G37*
G36*
X562109Y79884D02*
X561627D01*
Y75862D01*
X559415D01*
Y75822D01*
X559375D01*
Y75742D01*
X559334D01*
Y75701D01*
X559294D01*
Y75661D01*
X559254D01*
Y75621D01*
X559133D01*
Y75581D01*
X558972D01*
Y75621D01*
X558892D01*
Y75661D01*
X558812D01*
Y75701D01*
X558771D01*
Y75742D01*
X558731D01*
Y75822D01*
X558691D01*
Y75862D01*
X556479D01*
Y79884D01*
X556037D01*
Y79844D01*
X555996D01*
Y79321D01*
X555956D01*
Y79281D01*
X555916D01*
Y79240D01*
X555876D01*
Y79200D01*
X555835D01*
Y79160D01*
X555795D01*
Y79120D01*
X555755D01*
Y79079D01*
X555715D01*
Y78878D01*
X555755D01*
Y78838D01*
X555795D01*
Y78798D01*
X555876D01*
Y78758D01*
X555916D01*
Y78717D01*
X555956D01*
Y78637D01*
X555996D01*
Y76626D01*
X555956D01*
Y76546D01*
X555916D01*
Y76506D01*
X555876D01*
Y76465D01*
X555795D01*
Y76425D01*
X555755D01*
Y76385D01*
X555715D01*
Y76184D01*
X555755D01*
Y76144D01*
X555795D01*
Y76104D01*
X555835D01*
Y76063D01*
X555876D01*
Y76023D01*
X555916D01*
Y75983D01*
X555956D01*
Y75943D01*
X555996D01*
Y75420D01*
X562109D01*
Y75902D01*
X562150D01*
Y75983D01*
X562190D01*
Y76023D01*
X562230D01*
Y76063D01*
X562270D01*
Y76104D01*
X562351D01*
Y76184D01*
X562391D01*
Y76385D01*
X562351D01*
Y76425D01*
X562310D01*
Y76465D01*
X562270D01*
Y76506D01*
X562230D01*
Y76546D01*
X562190D01*
Y76586D01*
X562150D01*
Y76626D01*
X562109D01*
Y78637D01*
X562150D01*
Y78677D01*
X562190D01*
Y78717D01*
X562230D01*
Y78758D01*
X562270D01*
Y78798D01*
X562310D01*
Y78838D01*
X562351D01*
Y78878D01*
X562391D01*
Y79120D01*
X562351D01*
Y79160D01*
X562270D01*
Y79200D01*
X562230D01*
Y79240D01*
X562190D01*
Y79281D01*
X562150D01*
Y79361D01*
X562109D01*
Y79884D01*
D02*
G37*
G36*
X542242D02*
X541760D01*
Y75862D01*
X539548D01*
Y75822D01*
X539507D01*
Y75742D01*
X539467D01*
Y75701D01*
X539427D01*
Y75661D01*
X539387D01*
Y75621D01*
X539266D01*
Y75581D01*
X539105D01*
Y75621D01*
X539025D01*
Y75661D01*
X538945D01*
Y75701D01*
X538904D01*
Y75742D01*
X538864D01*
Y75822D01*
X538824D01*
Y75862D01*
X536612D01*
Y77793D01*
Y77833D01*
Y79884D01*
X536170D01*
Y79844D01*
X536129D01*
Y79321D01*
X536089D01*
Y79281D01*
X536049D01*
Y79240D01*
X536009D01*
Y79200D01*
X535968D01*
Y79160D01*
X535928D01*
Y79120D01*
X535888D01*
Y79079D01*
X535848D01*
Y78878D01*
X535888D01*
Y78838D01*
X535928D01*
Y78798D01*
X536009D01*
Y78758D01*
X536049D01*
Y78717D01*
X536089D01*
Y78637D01*
X536129D01*
Y76626D01*
X536089D01*
Y76546D01*
X536049D01*
Y76506D01*
X535968D01*
Y76465D01*
X535928D01*
Y76425D01*
X535888D01*
Y76385D01*
X535848D01*
Y76184D01*
X535888D01*
Y76144D01*
X535928D01*
Y76104D01*
X535968D01*
Y76063D01*
X536009D01*
Y76023D01*
X536049D01*
Y75983D01*
X536089D01*
Y75943D01*
X536129D01*
Y75420D01*
X542242D01*
Y75943D01*
X542282D01*
Y75983D01*
X542323D01*
Y76023D01*
X542363D01*
Y76063D01*
X542403D01*
Y76104D01*
X542443D01*
Y76144D01*
X542484D01*
Y76184D01*
X542524D01*
Y76385D01*
X542484D01*
Y76425D01*
X542443D01*
Y76465D01*
X542403D01*
Y76506D01*
X542323D01*
Y76586D01*
X542282D01*
Y76626D01*
X542242D01*
Y78637D01*
X542282D01*
Y78717D01*
X542323D01*
Y78758D01*
X542403D01*
Y78798D01*
X542443D01*
Y78838D01*
X542484D01*
Y78878D01*
X542524D01*
Y79079D01*
X542484D01*
Y79160D01*
X542403D01*
Y79200D01*
X542363D01*
Y79240D01*
X542323D01*
Y79281D01*
X542282D01*
Y79361D01*
X542242D01*
Y79884D01*
D02*
G37*
G36*
X547511Y79643D02*
X546545D01*
Y79602D01*
X546264D01*
Y79562D01*
X546063D01*
Y79522D01*
X545902D01*
Y79482D01*
X545781D01*
Y79441D01*
X545661D01*
Y79401D01*
X545540D01*
Y79361D01*
X545460D01*
Y79321D01*
X545379D01*
Y79281D01*
X545299D01*
Y79240D01*
X545218D01*
Y79200D01*
X545258D01*
Y79120D01*
X545299D01*
Y78999D01*
X545339D01*
Y78919D01*
X545379D01*
Y78798D01*
X545419D01*
Y78677D01*
X545460D01*
Y78557D01*
X545500D01*
Y78275D01*
X545540D01*
Y78195D01*
X545500D01*
Y78114D01*
X545620D01*
Y78155D01*
X545781D01*
Y78195D01*
X545982D01*
Y78155D01*
X546143D01*
Y78114D01*
X546264D01*
Y78074D01*
X546344D01*
Y78034D01*
X546385D01*
Y77994D01*
X546425D01*
Y77953D01*
X546505D01*
Y78034D01*
X546545D01*
Y78074D01*
X546586D01*
Y78114D01*
X546626D01*
Y78155D01*
X546666D01*
Y78195D01*
X546746D01*
Y78235D01*
X546827D01*
Y78275D01*
X546988D01*
Y78315D01*
X547068D01*
Y78275D01*
X547229D01*
Y78235D01*
X547310D01*
Y78195D01*
X547390D01*
Y78155D01*
X547430D01*
Y78114D01*
X547511D01*
Y78074D01*
X547591D01*
Y78034D01*
X547672D01*
Y77994D01*
X547832D01*
Y78034D01*
X547953D01*
Y78074D01*
X548033D01*
Y78114D01*
X548114D01*
Y78155D01*
X548194D01*
Y78195D01*
X548476D01*
Y78155D01*
X548596D01*
Y78114D01*
X548677D01*
Y78074D01*
X548717D01*
Y78034D01*
X548798D01*
Y77994D01*
X548838D01*
Y77913D01*
X548878D01*
Y77873D01*
X548918D01*
Y77793D01*
X548959D01*
Y77672D01*
X548999D01*
Y77551D01*
X549320D01*
Y77511D01*
X549481D01*
Y77471D01*
X549562D01*
Y77431D01*
X549642D01*
Y77390D01*
X549682D01*
Y77350D01*
X549723D01*
Y77270D01*
X549763D01*
Y77189D01*
X549803D01*
Y77109D01*
X549843D01*
Y76868D01*
X550165D01*
Y76827D01*
X550286D01*
Y76787D01*
X550326D01*
Y76747D01*
X550366D01*
Y76707D01*
X550406D01*
Y76666D01*
X550447D01*
Y76586D01*
X550487D01*
Y76506D01*
X550527D01*
Y76144D01*
X550567D01*
Y76104D01*
X550607D01*
Y76063D01*
X550728D01*
Y76023D01*
X550808D01*
Y75983D01*
X550889D01*
Y75943D01*
X550929D01*
Y75902D01*
X550969D01*
Y75862D01*
X551009D01*
Y75782D01*
X551050D01*
Y75621D01*
X551090D01*
Y75500D01*
X551050D01*
Y75420D01*
X551009D01*
Y75380D01*
X550929D01*
Y75420D01*
X550889D01*
Y75701D01*
X550849D01*
Y75782D01*
X550808D01*
Y75822D01*
X550768D01*
Y75862D01*
X550688D01*
Y75902D01*
X550567D01*
Y75943D01*
X550447D01*
Y75983D01*
X550406D01*
Y76063D01*
X550366D01*
Y76425D01*
X550326D01*
Y76546D01*
X550286D01*
Y76586D01*
X550245D01*
Y76626D01*
X550205D01*
Y76666D01*
X550084D01*
Y76707D01*
X549924D01*
Y76666D01*
X549682D01*
Y77028D01*
X549642D01*
Y77149D01*
X549602D01*
Y77189D01*
X549562D01*
Y77229D01*
X549521D01*
Y77270D01*
X549481D01*
Y77310D01*
X549401D01*
Y77350D01*
X549200D01*
Y77390D01*
X549119D01*
Y77350D01*
X548838D01*
Y77592D01*
X548798D01*
Y77712D01*
X548757D01*
Y77793D01*
X548717D01*
Y77833D01*
X548677D01*
Y77873D01*
X548637D01*
Y77913D01*
X548596D01*
Y77953D01*
X548516D01*
Y77994D01*
X548395D01*
Y78034D01*
X548315D01*
Y77994D01*
X548154D01*
Y77953D01*
X548074D01*
Y77913D01*
X547993D01*
Y77873D01*
X547913D01*
Y77833D01*
X547591D01*
Y77873D01*
X547511D01*
Y77913D01*
X547430D01*
Y77953D01*
X547350D01*
Y77994D01*
X547310D01*
Y78034D01*
X547229D01*
Y78074D01*
X547149D01*
Y78114D01*
X546907D01*
Y78074D01*
X546827D01*
Y78034D01*
X546746D01*
Y77994D01*
X546706D01*
Y77953D01*
X546666D01*
Y77873D01*
X546626D01*
Y77752D01*
X546666D01*
Y77712D01*
X546706D01*
Y77632D01*
X546746D01*
Y77592D01*
X546787D01*
Y77511D01*
X546827D01*
Y77471D01*
X546867D01*
Y77390D01*
X546907D01*
Y77350D01*
X546948D01*
Y77310D01*
X546988D01*
Y77270D01*
X547028D01*
Y77189D01*
X547068D01*
Y77149D01*
X547108D01*
Y77069D01*
X547068D01*
Y77028D01*
X547028D01*
Y76988D01*
X546988D01*
Y76948D01*
X546907D01*
Y76908D01*
X546867D01*
Y76868D01*
X546827D01*
Y76827D01*
X546746D01*
Y76787D01*
X546706D01*
Y76747D01*
X546666D01*
Y76707D01*
X546586D01*
Y76666D01*
X546545D01*
Y76626D01*
X546465D01*
Y76586D01*
X546425D01*
Y76546D01*
X546385D01*
Y76506D01*
X546465D01*
Y76465D01*
X546666D01*
Y76506D01*
X546787D01*
Y76546D01*
X546867D01*
Y76586D01*
X547068D01*
Y76626D01*
X547511D01*
Y76586D01*
X547752D01*
Y76546D01*
X547913D01*
Y76506D01*
X548033D01*
Y76465D01*
X548154D01*
Y76425D01*
X548275D01*
Y76385D01*
X548355D01*
Y76345D01*
X548476D01*
Y76304D01*
X548556D01*
Y76264D01*
X548637D01*
Y76224D01*
X548717D01*
Y76184D01*
X548798D01*
Y76144D01*
X548878D01*
Y76104D01*
X548959D01*
Y76063D01*
X549039D01*
Y76023D01*
X549119D01*
Y75983D01*
X549200D01*
Y75943D01*
X549280D01*
Y75902D01*
X549361D01*
Y75862D01*
X549401D01*
Y75822D01*
X549481D01*
Y75782D01*
X549562D01*
Y75742D01*
X549642D01*
Y75701D01*
X549723D01*
Y75661D01*
X549803D01*
Y75621D01*
X549883D01*
Y75581D01*
X549964D01*
Y75540D01*
X550044D01*
Y75500D01*
X550125D01*
Y75460D01*
X550205D01*
Y75420D01*
X550286D01*
Y75380D01*
X550366D01*
Y75339D01*
X550447D01*
Y75299D01*
X550527D01*
Y75259D01*
X550607D01*
Y75219D01*
X550688D01*
Y75178D01*
X550808D01*
Y75138D01*
X550889D01*
Y75098D01*
X551009D01*
Y75058D01*
X551090D01*
Y75018D01*
X551211D01*
Y74977D01*
X551331D01*
Y74937D01*
X551452D01*
Y74897D01*
X551613D01*
Y74857D01*
X551774D01*
Y74816D01*
X551975D01*
Y74776D01*
X552337D01*
Y74736D01*
X552779D01*
Y74776D01*
X553101D01*
Y74816D01*
X553262D01*
Y74857D01*
X553382D01*
Y74897D01*
X553463D01*
Y74937D01*
X553583D01*
Y74977D01*
X553664D01*
Y75018D01*
X553744D01*
Y75058D01*
X553784D01*
Y75098D01*
X553865D01*
Y75138D01*
X553945D01*
Y75178D01*
X553986D01*
Y75219D01*
X554026D01*
Y75259D01*
X554106D01*
Y75299D01*
X554146D01*
Y75339D01*
X554187D01*
Y75380D01*
X554227D01*
Y75420D01*
X554267D01*
Y75460D01*
X554307D01*
Y75500D01*
X554347D01*
Y75540D01*
X554388D01*
Y75621D01*
X554428D01*
Y75661D01*
X554468D01*
Y75701D01*
X554508D01*
Y75782D01*
X554549D01*
Y75862D01*
X554589D01*
Y75943D01*
X554629D01*
Y76063D01*
X554669D01*
Y76184D01*
X554710D01*
Y76385D01*
X554750D01*
Y76988D01*
X554710D01*
Y77229D01*
X554669D01*
Y77390D01*
X554629D01*
Y77551D01*
X554589D01*
Y77672D01*
X554549D01*
Y77833D01*
X554508D01*
Y77994D01*
X554468D01*
Y78195D01*
X554428D01*
Y78557D01*
X554388D01*
Y78597D01*
X554428D01*
Y78999D01*
X554468D01*
Y79160D01*
X554508D01*
Y79281D01*
X554549D01*
Y79401D01*
X554589D01*
Y79522D01*
X554629D01*
Y79562D01*
X554227D01*
Y79522D01*
X554106D01*
Y79482D01*
X554026D01*
Y79441D01*
X553945D01*
Y79401D01*
X553905D01*
Y79361D01*
X553865D01*
Y79321D01*
X553825D01*
Y79281D01*
X553784D01*
Y79240D01*
X553744D01*
Y79200D01*
X553704D01*
Y79120D01*
X553664D01*
Y79039D01*
X553624D01*
Y78919D01*
X553583D01*
Y78798D01*
X553543D01*
Y78597D01*
X553503D01*
Y78074D01*
X553463D01*
Y78034D01*
X553262D01*
Y77994D01*
X553101D01*
Y77953D01*
X553020D01*
Y77913D01*
X552940D01*
Y77873D01*
X552859D01*
Y77833D01*
X552819D01*
Y77793D01*
X552779D01*
Y77752D01*
X552739D01*
Y77712D01*
X552699D01*
Y77672D01*
X552658D01*
Y77632D01*
X552618D01*
Y77551D01*
X552578D01*
Y77431D01*
X552538D01*
Y76868D01*
X552578D01*
Y76747D01*
X552658D01*
Y76787D01*
X552699D01*
Y76827D01*
X552739D01*
Y76868D01*
X552779D01*
Y76908D01*
X552819D01*
Y76948D01*
X552859D01*
Y76988D01*
X552900D01*
Y77028D01*
X552940D01*
Y77069D01*
X553020D01*
Y77109D01*
X553061D01*
Y77149D01*
X553181D01*
Y77189D01*
X553463D01*
Y77149D01*
X553583D01*
Y77109D01*
X553664D01*
Y77069D01*
X553704D01*
Y77028D01*
X553744D01*
Y76988D01*
X553784D01*
Y76948D01*
X553825D01*
Y76908D01*
X553865D01*
Y76827D01*
X553905D01*
Y76707D01*
X553945D01*
Y76264D01*
X553905D01*
Y76144D01*
X553865D01*
Y76063D01*
X553825D01*
Y76023D01*
X553784D01*
Y75983D01*
X553744D01*
Y75943D01*
X553704D01*
Y75902D01*
X553664D01*
Y75862D01*
X553583D01*
Y75822D01*
X553543D01*
Y75782D01*
X553423D01*
Y75742D01*
X553302D01*
Y75701D01*
X552699D01*
Y75742D01*
X552538D01*
Y75782D01*
X552417D01*
Y75822D01*
X552337D01*
Y75862D01*
X552256D01*
Y75902D01*
X552176D01*
Y75943D01*
X552095D01*
Y75983D01*
X552055D01*
Y76023D01*
X551975D01*
Y76063D01*
X551935D01*
Y76104D01*
X551894D01*
Y76144D01*
X551814D01*
Y76184D01*
X551774D01*
Y76224D01*
X551733D01*
Y76264D01*
X551693D01*
Y76304D01*
X551613D01*
Y76345D01*
X551573D01*
Y76385D01*
X551532D01*
Y76425D01*
X551492D01*
Y76465D01*
X551452D01*
Y76506D01*
X551412D01*
Y76546D01*
X551371D01*
Y76586D01*
X551291D01*
Y76626D01*
X551251D01*
Y76666D01*
X551211D01*
Y76707D01*
X551170D01*
Y76747D01*
X551130D01*
Y76787D01*
X551090D01*
Y76827D01*
X551050D01*
Y76868D01*
X551009D01*
Y76908D01*
X550969D01*
Y76948D01*
X550929D01*
Y76988D01*
X550889D01*
Y77028D01*
X550849D01*
Y77069D01*
X550808D01*
Y77109D01*
X550768D01*
Y77149D01*
X550728D01*
Y77189D01*
X550688D01*
Y77229D01*
X550648D01*
Y77270D01*
X550607D01*
Y77310D01*
X550567D01*
Y77350D01*
X550527D01*
Y77390D01*
X550487D01*
Y77471D01*
X550447D01*
Y77511D01*
X550406D01*
Y77551D01*
X550366D01*
Y77592D01*
X550326D01*
Y77632D01*
X550286D01*
Y77672D01*
X550245D01*
Y77712D01*
X550205D01*
Y77793D01*
X550165D01*
Y77833D01*
X550125D01*
Y77873D01*
X550084D01*
Y77913D01*
X550044D01*
Y77953D01*
X550004D01*
Y77994D01*
X549964D01*
Y78034D01*
X549924D01*
Y78114D01*
X549883D01*
Y78155D01*
X549843D01*
Y78195D01*
X549803D01*
Y78235D01*
X549763D01*
Y78275D01*
X549723D01*
Y78315D01*
X549682D01*
Y78356D01*
X549642D01*
Y78396D01*
X549602D01*
Y78436D01*
X549562D01*
Y78517D01*
X549521D01*
Y78557D01*
X549481D01*
Y78597D01*
X549441D01*
Y78637D01*
X549401D01*
Y78677D01*
X549361D01*
Y78717D01*
X549320D01*
Y78758D01*
X549240D01*
Y78798D01*
X549200D01*
Y78838D01*
X549160D01*
Y78878D01*
X549119D01*
Y78919D01*
X549079D01*
Y78959D01*
X549039D01*
Y78999D01*
X548999D01*
Y79039D01*
X548918D01*
Y79079D01*
X548878D01*
Y79120D01*
X548798D01*
Y79160D01*
X548757D01*
Y79200D01*
X548677D01*
Y79240D01*
X548637D01*
Y79281D01*
X548556D01*
Y79321D01*
X548476D01*
Y79361D01*
X548395D01*
Y79401D01*
X548275D01*
Y79441D01*
X548194D01*
Y79482D01*
X548074D01*
Y79522D01*
X547913D01*
Y79562D01*
X547752D01*
Y79602D01*
X547511D01*
Y79643D01*
D02*
G37*
G36*
X544736Y79723D02*
X544655D01*
Y79683D01*
X544615D01*
Y79643D01*
X544575D01*
Y79602D01*
X544535D01*
Y79522D01*
X544494D01*
Y79482D01*
X544454D01*
Y79441D01*
X544414D01*
Y79361D01*
X544374D01*
Y79321D01*
X544333D01*
Y79240D01*
X544293D01*
Y79200D01*
X544253D01*
Y79120D01*
X544213D01*
Y79039D01*
X544173D01*
Y78999D01*
X544132D01*
Y78919D01*
X544092D01*
Y78838D01*
X544052D01*
Y78758D01*
X544012D01*
Y78677D01*
X543972D01*
Y78597D01*
X543931D01*
Y78517D01*
X543891D01*
Y78436D01*
X543851D01*
Y78356D01*
X543811D01*
Y78235D01*
X543770D01*
Y78155D01*
X543730D01*
Y78034D01*
X543690D01*
Y77913D01*
X543650D01*
Y77793D01*
X543610D01*
Y77632D01*
X543569D01*
Y77471D01*
X543529D01*
Y76948D01*
X543569D01*
Y76908D01*
X543610D01*
Y76868D01*
X543650D01*
Y76827D01*
X543690D01*
Y76787D01*
X543730D01*
Y76747D01*
X543770D01*
Y76707D01*
X543811D01*
Y76666D01*
X543851D01*
Y76586D01*
X543891D01*
Y76304D01*
X543851D01*
Y76224D01*
X543811D01*
Y76184D01*
X543770D01*
Y76104D01*
X543730D01*
Y76063D01*
X543690D01*
Y76023D01*
X543650D01*
Y75983D01*
X543610D01*
Y75902D01*
X543569D01*
Y75862D01*
X543529D01*
Y75782D01*
X543489D01*
Y75661D01*
X543529D01*
Y75581D01*
X543569D01*
Y75540D01*
X543610D01*
Y75500D01*
X543650D01*
Y75460D01*
X543730D01*
Y75420D01*
X543851D01*
Y75380D01*
X544374D01*
Y75420D01*
X544575D01*
Y75460D01*
X544696D01*
Y75500D01*
X544816D01*
Y75540D01*
X544897D01*
Y75581D01*
X544977D01*
Y75621D01*
X545017D01*
Y75661D01*
X545098D01*
Y75701D01*
X545138D01*
Y75742D01*
X545218D01*
Y75782D01*
X545258D01*
Y75822D01*
X545299D01*
Y75862D01*
X545339D01*
Y75902D01*
X545379D01*
Y75943D01*
X545460D01*
Y75983D01*
X545500D01*
Y75943D01*
X545540D01*
Y75902D01*
X545580D01*
Y75862D01*
X545540D01*
Y75782D01*
X545500D01*
Y75742D01*
X545460D01*
Y75701D01*
X545419D01*
Y75661D01*
X545339D01*
Y75621D01*
X545299D01*
Y75581D01*
X545258D01*
Y75540D01*
X545178D01*
Y75500D01*
X545138D01*
Y75460D01*
X545057D01*
Y75420D01*
X544977D01*
Y75380D01*
X544897D01*
Y75339D01*
X544816D01*
Y75299D01*
X544696D01*
Y75259D01*
X544535D01*
Y75219D01*
X544293D01*
Y75178D01*
X543931D01*
Y75138D01*
X543972D01*
Y75058D01*
X544012D01*
Y75018D01*
X544052D01*
Y74977D01*
X544092D01*
Y74937D01*
X544173D01*
Y74897D01*
X544253D01*
Y74857D01*
X544736D01*
Y74897D01*
X544937D01*
Y74937D01*
X545057D01*
Y74977D01*
X545178D01*
Y75018D01*
X545258D01*
Y75058D01*
X545339D01*
Y75098D01*
X545419D01*
Y75138D01*
X545500D01*
Y75178D01*
X545580D01*
Y75219D01*
X545620D01*
Y75259D01*
X545701D01*
Y75299D01*
X545741D01*
Y75339D01*
X545822D01*
Y75380D01*
X545862D01*
Y75420D01*
X545942D01*
Y75460D01*
X545982D01*
Y75500D01*
X546023D01*
Y75540D01*
X546063D01*
Y75581D01*
X546143D01*
Y75621D01*
X546184D01*
Y75661D01*
X546224D01*
Y75701D01*
X546264D01*
Y75782D01*
X546304D01*
Y75822D01*
X546344D01*
Y75862D01*
X546385D01*
Y75902D01*
X546425D01*
Y75983D01*
X546465D01*
Y76063D01*
X546505D01*
Y76144D01*
X546545D01*
Y76304D01*
X546304D01*
Y76345D01*
X546103D01*
Y76385D01*
X546063D01*
Y76546D01*
X546103D01*
Y76586D01*
X546143D01*
Y76626D01*
X546224D01*
Y76666D01*
X546264D01*
Y76707D01*
X546344D01*
Y76747D01*
X546385D01*
Y76787D01*
X546425D01*
Y76827D01*
X546505D01*
Y76868D01*
X546545D01*
Y76908D01*
X546586D01*
Y76948D01*
X546666D01*
Y76988D01*
X546706D01*
Y77028D01*
X546787D01*
Y77069D01*
X546827D01*
Y77109D01*
X546867D01*
Y77149D01*
X546827D01*
Y77189D01*
X546787D01*
Y77229D01*
X546746D01*
Y77310D01*
X546706D01*
Y77350D01*
X546666D01*
Y77431D01*
X546626D01*
Y77471D01*
X546586D01*
Y77551D01*
X546545D01*
Y77592D01*
X546505D01*
Y77672D01*
X546465D01*
Y77712D01*
X546425D01*
Y77752D01*
X546385D01*
Y77793D01*
X546344D01*
Y77833D01*
X546304D01*
Y77873D01*
X546224D01*
Y77913D01*
X546143D01*
Y77953D01*
X546023D01*
Y77994D01*
X545701D01*
Y77953D01*
X545620D01*
Y77913D01*
X545540D01*
Y77873D01*
X545500D01*
Y77833D01*
X545419D01*
Y77793D01*
X545379D01*
Y77752D01*
X545339D01*
Y77712D01*
X545299D01*
Y77672D01*
X545258D01*
Y77632D01*
X545218D01*
Y77592D01*
X545138D01*
Y77551D01*
X545098D01*
Y77511D01*
X545057D01*
Y77471D01*
X545017D01*
Y77431D01*
X544937D01*
Y77390D01*
X544897D01*
Y77431D01*
X544816D01*
Y77551D01*
X544856D01*
Y77592D01*
X544897D01*
Y77632D01*
X544937D01*
Y77672D01*
X544977D01*
Y77712D01*
X545017D01*
Y77752D01*
X545057D01*
Y77793D01*
X545098D01*
Y77833D01*
X545138D01*
Y77873D01*
X545178D01*
Y77953D01*
X545218D01*
Y77994D01*
X545258D01*
Y78074D01*
X545299D01*
Y78155D01*
X545339D01*
Y78396D01*
X545299D01*
Y78557D01*
X545258D01*
Y78717D01*
X545218D01*
Y78798D01*
X545178D01*
Y78919D01*
X545138D01*
Y78999D01*
X545098D01*
Y79079D01*
X545057D01*
Y79160D01*
X545017D01*
Y79240D01*
X544977D01*
Y79321D01*
X544937D01*
Y79401D01*
X544897D01*
Y79482D01*
X544856D01*
Y79562D01*
X544816D01*
Y79602D01*
X544776D01*
Y79683D01*
X544736D01*
Y79723D01*
D02*
G37*
G36*
X549481Y69870D02*
X548757D01*
Y69830D01*
X548556D01*
Y69789D01*
X548395D01*
Y69749D01*
X548275D01*
Y69709D01*
X548194D01*
Y69669D01*
X548074D01*
Y69629D01*
X547993D01*
Y69588D01*
X547913D01*
Y69548D01*
X547873D01*
Y69508D01*
X547792D01*
Y69468D01*
X547752D01*
Y69427D01*
X547672D01*
Y69387D01*
X547631D01*
Y69347D01*
X547551D01*
Y69307D01*
X547511D01*
Y69267D01*
X547470D01*
Y69226D01*
X547430D01*
Y69186D01*
X547390D01*
Y69146D01*
X547350D01*
Y69106D01*
X547310D01*
Y69065D01*
X547269D01*
Y69025D01*
X547229D01*
Y68985D01*
X547189D01*
Y68905D01*
X547149D01*
Y68864D01*
X547108D01*
Y68824D01*
X547068D01*
Y68744D01*
X547028D01*
Y68704D01*
X546988D01*
Y68623D01*
X546948D01*
Y68543D01*
X546907D01*
Y68462D01*
X546867D01*
Y68382D01*
X546827D01*
Y68301D01*
X546787D01*
Y68181D01*
X546746D01*
Y68060D01*
X546706D01*
Y67859D01*
X546666D01*
Y67578D01*
X546626D01*
Y67216D01*
X546666D01*
Y66934D01*
X546706D01*
Y66733D01*
X546746D01*
Y66612D01*
X546787D01*
Y66492D01*
X546827D01*
Y66411D01*
X546867D01*
Y66291D01*
X546907D01*
Y66250D01*
X546948D01*
Y66170D01*
X546988D01*
Y66090D01*
X547028D01*
Y66009D01*
X547068D01*
Y65969D01*
X547108D01*
Y65929D01*
X547149D01*
Y65848D01*
X547189D01*
Y65808D01*
X547229D01*
Y65768D01*
X547269D01*
Y65728D01*
X547310D01*
Y65687D01*
X547350D01*
Y65647D01*
X547390D01*
Y65607D01*
X547430D01*
Y65567D01*
X547470D01*
Y65526D01*
X547511D01*
Y65486D01*
X547551D01*
Y65446D01*
X547591D01*
Y65406D01*
X547672D01*
Y65366D01*
X547712D01*
Y65325D01*
X547792D01*
Y65285D01*
X547832D01*
Y65245D01*
X547913D01*
Y65205D01*
X547993D01*
Y65164D01*
X548074D01*
Y65124D01*
X548154D01*
Y65084D01*
X548235D01*
Y65044D01*
X548355D01*
Y65004D01*
X548516D01*
Y64963D01*
X548717D01*
Y64923D01*
X549562D01*
Y64963D01*
X549723D01*
Y65004D01*
X549883D01*
Y65044D01*
X550004D01*
Y65084D01*
X550084D01*
Y65124D01*
X550165D01*
Y65164D01*
X550245D01*
Y65205D01*
X550326D01*
Y65245D01*
X550406D01*
Y65285D01*
X550487D01*
Y65325D01*
X550527D01*
Y65366D01*
X550607D01*
Y65406D01*
X550648D01*
Y65446D01*
X550688D01*
Y65486D01*
X550728D01*
Y65526D01*
X550768D01*
Y65567D01*
X550849D01*
Y65607D01*
X550889D01*
Y65647D01*
X550929D01*
Y65687D01*
X550969D01*
Y65768D01*
X551009D01*
Y65808D01*
X551050D01*
Y65848D01*
X551090D01*
Y65888D01*
X551130D01*
Y65969D01*
X551170D01*
Y66009D01*
X551211D01*
Y66090D01*
X551251D01*
Y66130D01*
X551291D01*
Y66210D01*
X551331D01*
Y66291D01*
X551371D01*
Y66371D01*
X551412D01*
Y66492D01*
X551452D01*
Y66572D01*
X551492D01*
Y66693D01*
X551532D01*
Y66854D01*
X551573D01*
Y67135D01*
X551613D01*
Y67658D01*
X551573D01*
Y67899D01*
X551532D01*
Y68060D01*
X551492D01*
Y68221D01*
X551452D01*
Y68301D01*
X551412D01*
Y68422D01*
X551371D01*
Y68502D01*
X551331D01*
Y68583D01*
X551291D01*
Y68623D01*
X551251D01*
Y68704D01*
X551211D01*
Y68784D01*
X551170D01*
Y68824D01*
X551130D01*
Y68864D01*
X551090D01*
Y68945D01*
X551050D01*
Y68985D01*
X551009D01*
Y69025D01*
X550969D01*
Y69065D01*
X550929D01*
Y69106D01*
X550889D01*
Y69146D01*
X550849D01*
Y69186D01*
X550808D01*
Y69226D01*
X550768D01*
Y69267D01*
X550728D01*
Y69307D01*
X550688D01*
Y69347D01*
X550607D01*
Y69387D01*
X550567D01*
Y69427D01*
X550527D01*
Y69468D01*
X550447D01*
Y69508D01*
X550406D01*
Y69548D01*
X550326D01*
Y69588D01*
X550245D01*
Y69629D01*
X550165D01*
Y69669D01*
X550084D01*
Y69709D01*
X549964D01*
Y69749D01*
X549843D01*
Y69789D01*
X549682D01*
Y69830D01*
X549481D01*
Y69870D01*
D02*
G37*
G36*
X563235Y73168D02*
X535003D01*
Y67135D01*
X535043D01*
Y66452D01*
X535084D01*
Y66009D01*
X535124D01*
Y65687D01*
X535164D01*
Y65406D01*
X535204D01*
Y65124D01*
X535244D01*
Y64923D01*
X535285D01*
Y64682D01*
X535325D01*
Y64481D01*
X535365D01*
Y64320D01*
X535405D01*
Y64119D01*
X535446D01*
Y63958D01*
X535486D01*
Y63797D01*
X535526D01*
Y63636D01*
X535566D01*
Y63475D01*
X535606D01*
Y63355D01*
X535647D01*
Y63194D01*
X535687D01*
Y63073D01*
X535727D01*
Y62953D01*
X535767D01*
Y62832D01*
X535808D01*
Y62711D01*
X535848D01*
Y62591D01*
X535888D01*
Y62470D01*
X535928D01*
Y62349D01*
X535968D01*
Y62229D01*
X536009D01*
Y62108D01*
X536049D01*
Y62028D01*
X536089D01*
Y61907D01*
X536129D01*
Y61786D01*
X536170D01*
Y61706D01*
X536210D01*
Y61585D01*
X536250D01*
Y61505D01*
X536290D01*
Y61424D01*
X536330D01*
Y61304D01*
X536371D01*
Y61223D01*
X536411D01*
Y61143D01*
X536451D01*
Y61062D01*
X536491D01*
Y60942D01*
X536531D01*
Y60861D01*
X536572D01*
Y60781D01*
X536612D01*
Y60741D01*
X536652D01*
Y60781D01*
X536692D01*
Y60821D01*
X536733D01*
Y60861D01*
X536773D01*
Y60901D01*
X536813D01*
Y60942D01*
X536853D01*
Y60982D01*
X536893D01*
Y61022D01*
X536934D01*
Y61062D01*
X536974D01*
Y61103D01*
X537014D01*
Y61143D01*
X537054D01*
Y61183D01*
X537094D01*
Y61223D01*
X537135D01*
Y61263D01*
X537175D01*
Y61304D01*
X537255D01*
Y61344D01*
X537296D01*
Y61384D01*
X537336D01*
Y61424D01*
X537376D01*
Y61465D01*
X537416D01*
Y61505D01*
X537457D01*
Y61545D01*
X537497D01*
Y61585D01*
X537537D01*
Y61625D01*
X537577D01*
Y61666D01*
X537617D01*
Y61706D01*
X537658D01*
Y61746D01*
X537698D01*
Y61786D01*
X537738D01*
Y61827D01*
X537778D01*
Y61867D01*
X537818D01*
Y61907D01*
X537859D01*
Y61947D01*
X537899D01*
Y61987D01*
X537939D01*
Y62028D01*
X537979D01*
Y62068D01*
X538019D01*
Y62108D01*
X538060D01*
Y62148D01*
X538100D01*
Y62189D01*
X538140D01*
Y62229D01*
X538180D01*
Y62269D01*
X538221D01*
Y62309D01*
X538261D01*
Y62349D01*
X538301D01*
Y62390D01*
X538381D01*
Y62430D01*
X538422D01*
Y62470D01*
X538462D01*
Y62510D01*
X538502D01*
Y62550D01*
X538542D01*
Y62591D01*
X538582D01*
Y62631D01*
X538623D01*
Y62671D01*
X538663D01*
Y62711D01*
X538703D01*
Y62751D01*
X538743D01*
Y62792D01*
X538784D01*
Y62832D01*
X538824D01*
Y62872D01*
X538864D01*
Y62912D01*
X538904D01*
Y62953D01*
X538945D01*
Y62993D01*
X538985D01*
Y63033D01*
X539025D01*
Y63073D01*
X539065D01*
Y63113D01*
X539105D01*
Y63154D01*
X539146D01*
Y63194D01*
X539186D01*
Y63234D01*
X539226D01*
Y63274D01*
X539266D01*
Y63314D01*
X539306D01*
Y63355D01*
X539347D01*
Y63395D01*
X539387D01*
Y63435D01*
X539467D01*
Y63475D01*
X539507D01*
Y63516D01*
X539548D01*
Y63556D01*
X539588D01*
Y63596D01*
X539628D01*
Y63636D01*
X539668D01*
Y63677D01*
X539709D01*
Y63717D01*
X539749D01*
Y63757D01*
X539789D01*
Y63797D01*
X539829D01*
Y63837D01*
X539869D01*
Y63878D01*
X539910D01*
Y63918D01*
X539950D01*
Y63958D01*
X539990D01*
Y63998D01*
X540030D01*
Y64039D01*
X540070D01*
Y64079D01*
X540111D01*
Y64119D01*
X540151D01*
Y64159D01*
X540191D01*
Y64199D01*
X540231D01*
Y64240D01*
X540272D01*
Y64280D01*
X540312D01*
Y64320D01*
X540352D01*
Y64360D01*
X540392D01*
Y64400D01*
X540433D01*
Y64441D01*
X540473D01*
Y64481D01*
X540513D01*
Y64521D01*
X540553D01*
Y64561D01*
X540634D01*
Y64601D01*
X540674D01*
Y64642D01*
X540714D01*
Y64682D01*
X540754D01*
Y64722D01*
X540794D01*
Y64762D01*
X540835D01*
Y64803D01*
X540875D01*
Y64843D01*
X540915D01*
Y64883D01*
X540955D01*
Y64923D01*
X540995D01*
Y64963D01*
X541036D01*
Y65004D01*
X541076D01*
Y65044D01*
X541116D01*
Y65084D01*
X541156D01*
Y65124D01*
X541197D01*
Y65164D01*
X541237D01*
Y65205D01*
X541277D01*
Y65245D01*
X541317D01*
Y65285D01*
X541357D01*
Y65325D01*
X541398D01*
Y65366D01*
X541438D01*
Y65406D01*
X541478D01*
Y65446D01*
X541518D01*
Y65486D01*
X541559D01*
Y65526D01*
X541599D01*
Y65567D01*
X541639D01*
Y65607D01*
X541679D01*
Y65647D01*
X541760D01*
Y65687D01*
X541800D01*
Y65728D01*
X541840D01*
Y65768D01*
X541880D01*
Y65808D01*
X541921D01*
Y65848D01*
X541961D01*
Y65888D01*
X542001D01*
Y65929D01*
X542041D01*
Y65969D01*
X542081D01*
Y66009D01*
X542122D01*
Y66049D01*
X542162D01*
Y66090D01*
X542202D01*
Y66130D01*
X542242D01*
Y66170D01*
X542282D01*
Y66210D01*
X542323D01*
Y66250D01*
X542363D01*
Y66291D01*
X542403D01*
Y66331D01*
X542443D01*
Y66371D01*
X542484D01*
Y66411D01*
X542524D01*
Y66452D01*
X542564D01*
Y66492D01*
X542604D01*
Y66532D01*
X542644D01*
Y66572D01*
X542685D01*
Y66612D01*
X542725D01*
Y66652D01*
X542765D01*
Y66693D01*
X542845D01*
Y66733D01*
X542886D01*
Y66773D01*
X542926D01*
Y66813D01*
X542966D01*
Y66854D01*
X543006D01*
Y66894D01*
X543047D01*
Y66934D01*
X543087D01*
Y66974D01*
X543127D01*
Y67014D01*
X543167D01*
Y67055D01*
X543208D01*
Y67095D01*
X543248D01*
Y67135D01*
X543288D01*
Y67175D01*
X543328D01*
Y67216D01*
X543368D01*
Y67256D01*
X543409D01*
Y67296D01*
X543449D01*
Y67336D01*
X543489D01*
Y67376D01*
X543529D01*
Y67417D01*
X543569D01*
Y67457D01*
X543610D01*
Y67497D01*
X543650D01*
Y67537D01*
X543690D01*
Y67578D01*
X543730D01*
Y67618D01*
X543770D01*
Y67658D01*
X543811D01*
Y67698D01*
X543851D01*
Y67738D01*
X543891D01*
Y67779D01*
X543931D01*
Y67819D01*
X544012D01*
Y67859D01*
X544052D01*
Y67899D01*
X544092D01*
Y67940D01*
X544132D01*
Y67980D01*
X544173D01*
Y68020D01*
X544213D01*
Y68060D01*
X544253D01*
Y68100D01*
X544293D01*
Y68141D01*
X544333D01*
Y68181D01*
X544374D01*
Y68221D01*
X544414D01*
Y68261D01*
X544454D01*
Y68301D01*
X544494D01*
Y68342D01*
X544535D01*
Y68382D01*
X544575D01*
Y68422D01*
X544615D01*
Y68462D01*
X544655D01*
Y68502D01*
X544696D01*
Y68543D01*
X544736D01*
Y68583D01*
X544776D01*
Y68623D01*
X544816D01*
Y68663D01*
X544856D01*
Y68704D01*
X544897D01*
Y68744D01*
X544937D01*
Y68784D01*
X544977D01*
Y68824D01*
X545017D01*
Y68864D01*
X545057D01*
Y68905D01*
X545138D01*
Y68945D01*
X545178D01*
Y68985D01*
X545218D01*
Y69025D01*
X545258D01*
Y69065D01*
X545299D01*
Y69106D01*
X545339D01*
Y69146D01*
X545379D01*
Y69186D01*
X545419D01*
Y69226D01*
X545460D01*
Y69267D01*
X545500D01*
Y69307D01*
X545540D01*
Y69347D01*
X545580D01*
Y69387D01*
X545620D01*
Y69427D01*
X545661D01*
Y69468D01*
X545701D01*
Y69508D01*
X545741D01*
Y69548D01*
X545781D01*
Y69588D01*
X545822D01*
Y69629D01*
X545862D01*
Y69669D01*
X545902D01*
Y69709D01*
X545942D01*
Y69749D01*
X545982D01*
Y69789D01*
X546023D01*
Y69830D01*
X546063D01*
Y69870D01*
X546103D01*
Y69910D01*
X546143D01*
Y69950D01*
X546224D01*
Y69991D01*
X546264D01*
Y70031D01*
X546304D01*
Y70071D01*
X546344D01*
Y70111D01*
X546385D01*
Y70151D01*
X546425D01*
Y70192D01*
X546465D01*
Y70232D01*
X546505D01*
Y70272D01*
X546545D01*
Y70312D01*
X546586D01*
Y70353D01*
X546626D01*
Y70393D01*
X546666D01*
Y70433D01*
X546706D01*
Y70473D01*
X546746D01*
Y70513D01*
X546787D01*
Y70554D01*
X546827D01*
Y70594D01*
X546867D01*
Y70634D01*
X546907D01*
Y70674D01*
X546948D01*
Y70714D01*
X546988D01*
Y70755D01*
X547028D01*
Y70795D01*
X547068D01*
Y70835D01*
X547108D01*
Y70875D01*
X547149D01*
Y70915D01*
X547189D01*
Y70956D01*
X547229D01*
Y70996D01*
X547269D01*
Y71036D01*
X547310D01*
Y71076D01*
X547390D01*
Y71117D01*
X547430D01*
Y71157D01*
X547470D01*
Y71197D01*
X547511D01*
Y71237D01*
X547551D01*
Y71277D01*
X547591D01*
Y71318D01*
X547631D01*
Y71358D01*
X547672D01*
Y71398D01*
X547712D01*
Y71438D01*
X547752D01*
Y71479D01*
X547792D01*
Y71519D01*
X547832D01*
Y71559D01*
X547873D01*
Y71599D01*
X547913D01*
Y71639D01*
X547953D01*
Y71680D01*
X547993D01*
Y71720D01*
X548033D01*
Y71760D01*
X548074D01*
Y71800D01*
X548114D01*
Y71841D01*
X548154D01*
Y71881D01*
X548194D01*
Y71921D01*
X548235D01*
Y71961D01*
X548275D01*
Y72001D01*
X548315D01*
Y72042D01*
X548355D01*
Y72082D01*
X548395D01*
Y72122D01*
X548436D01*
Y72162D01*
X548516D01*
Y72202D01*
X548556D01*
Y72243D01*
X548596D01*
Y72283D01*
X548637D01*
Y72323D01*
X548677D01*
Y72363D01*
X548717D01*
Y72403D01*
X548757D01*
Y72444D01*
X548798D01*
Y72484D01*
X548838D01*
Y72524D01*
X548878D01*
Y72564D01*
X548918D01*
Y72605D01*
X548959D01*
Y72645D01*
X548999D01*
Y72685D01*
X549039D01*
Y72725D01*
X549079D01*
Y72765D01*
X549160D01*
Y72725D01*
X549200D01*
Y72685D01*
X549240D01*
Y72645D01*
X549280D01*
Y72605D01*
X549320D01*
Y72564D01*
X549361D01*
Y72524D01*
X549401D01*
Y72484D01*
X549441D01*
Y72444D01*
X549481D01*
Y72403D01*
X549562D01*
Y72363D01*
X549602D01*
Y72323D01*
X549642D01*
Y72283D01*
X549682D01*
Y72243D01*
X549723D01*
Y72202D01*
X549763D01*
Y72162D01*
X549803D01*
Y72122D01*
X549843D01*
Y72082D01*
X549883D01*
Y72042D01*
X549924D01*
Y72001D01*
X549964D01*
Y71961D01*
X550004D01*
Y71921D01*
X550044D01*
Y71881D01*
X550084D01*
Y71841D01*
X550125D01*
Y71800D01*
X550165D01*
Y71760D01*
X550205D01*
Y71720D01*
X550245D01*
Y71680D01*
X550286D01*
Y71639D01*
X550326D01*
Y71599D01*
X550366D01*
Y71559D01*
X550406D01*
Y71519D01*
X550447D01*
Y71479D01*
X550487D01*
Y71438D01*
X550527D01*
Y71398D01*
X550567D01*
Y71358D01*
X550607D01*
Y71318D01*
X550688D01*
Y71277D01*
X550728D01*
Y71237D01*
X550768D01*
Y71197D01*
X550808D01*
Y71157D01*
X550849D01*
Y71117D01*
X550889D01*
Y71076D01*
X550929D01*
Y71036D01*
X550969D01*
Y70996D01*
X551009D01*
Y70956D01*
X551050D01*
Y70915D01*
X551090D01*
Y70875D01*
X551130D01*
Y70835D01*
X551170D01*
Y70795D01*
X551211D01*
Y70755D01*
X551251D01*
Y70714D01*
X551291D01*
Y70674D01*
X551331D01*
Y70634D01*
X551371D01*
Y70594D01*
X551412D01*
Y70554D01*
X551452D01*
Y70513D01*
X551492D01*
Y70473D01*
X551532D01*
Y70433D01*
X551573D01*
Y70393D01*
X551613D01*
Y70353D01*
X551653D01*
Y70312D01*
X551693D01*
Y70272D01*
X551733D01*
Y70232D01*
X551774D01*
Y70192D01*
X551854D01*
Y70151D01*
X551894D01*
Y70111D01*
X551935D01*
Y70071D01*
X551975D01*
Y70031D01*
X552015D01*
Y69991D01*
X552055D01*
Y69950D01*
X552095D01*
Y69910D01*
X552136D01*
Y69870D01*
X552176D01*
Y69830D01*
X552216D01*
Y69789D01*
X552256D01*
Y69749D01*
X552296D01*
Y69709D01*
X552337D01*
Y69669D01*
X552377D01*
Y69629D01*
X552417D01*
Y69588D01*
X552457D01*
Y69548D01*
X552497D01*
Y69508D01*
X552538D01*
Y69468D01*
X552578D01*
Y69427D01*
X552618D01*
Y69387D01*
X552658D01*
Y69347D01*
X552699D01*
Y69307D01*
X552739D01*
Y69267D01*
X552779D01*
Y69226D01*
X552819D01*
Y69186D01*
X552859D01*
Y69146D01*
X552940D01*
Y69106D01*
X552980D01*
Y69065D01*
X553020D01*
Y69025D01*
X553061D01*
Y68985D01*
X553101D01*
Y68945D01*
X553141D01*
Y68905D01*
X553181D01*
Y68864D01*
X553221D01*
Y68824D01*
X553262D01*
Y68784D01*
X553302D01*
Y68744D01*
X553342D01*
Y68704D01*
X553382D01*
Y68663D01*
X553423D01*
Y68623D01*
X553463D01*
Y68583D01*
X553503D01*
Y68543D01*
X553543D01*
Y68502D01*
X553583D01*
Y68462D01*
X553624D01*
Y68422D01*
X553664D01*
Y68382D01*
X553704D01*
Y68342D01*
X553744D01*
Y68301D01*
X553784D01*
Y68261D01*
X553825D01*
Y68221D01*
X553865D01*
Y68181D01*
X553905D01*
Y68141D01*
X553945D01*
Y68100D01*
X553986D01*
Y68060D01*
X554066D01*
Y68020D01*
X554106D01*
Y67980D01*
X554146D01*
Y67940D01*
X554187D01*
Y67899D01*
X554227D01*
Y67859D01*
X554267D01*
Y67819D01*
X554307D01*
Y67779D01*
X554347D01*
Y67738D01*
X554388D01*
Y67698D01*
X554428D01*
Y67658D01*
X554468D01*
Y67618D01*
X554508D01*
Y67578D01*
X554549D01*
Y67537D01*
X554589D01*
Y67497D01*
X554629D01*
Y67457D01*
X554669D01*
Y67417D01*
X554710D01*
Y67376D01*
X554750D01*
Y67336D01*
X554790D01*
Y67296D01*
X554830D01*
Y67256D01*
X554870D01*
Y67216D01*
X554911D01*
Y67175D01*
X554951D01*
Y67135D01*
X554991D01*
Y67095D01*
X555031D01*
Y67055D01*
X555071D01*
Y67014D01*
X555112D01*
Y66974D01*
X555152D01*
Y66934D01*
X555232D01*
Y66894D01*
X555272D01*
Y66854D01*
X555313D01*
Y66813D01*
X555353D01*
Y66773D01*
X555393D01*
Y66733D01*
X555433D01*
Y66693D01*
X555474D01*
Y66652D01*
X555514D01*
Y66612D01*
X555554D01*
Y66572D01*
X555594D01*
Y66532D01*
X555634D01*
Y66492D01*
X555675D01*
Y66452D01*
X555715D01*
Y66411D01*
X555755D01*
Y66371D01*
X555795D01*
Y66331D01*
X555835D01*
Y66291D01*
X555876D01*
Y66250D01*
X555916D01*
Y66210D01*
X555956D01*
Y66170D01*
X555996D01*
Y66130D01*
X556037D01*
Y66090D01*
X556077D01*
Y66049D01*
X556117D01*
Y66009D01*
X556157D01*
Y65969D01*
X556198D01*
Y65929D01*
X556238D01*
Y65888D01*
X556318D01*
Y65848D01*
X556358D01*
Y65808D01*
X556399D01*
Y65768D01*
X556439D01*
Y65728D01*
X556479D01*
Y65687D01*
X556519D01*
Y65647D01*
X556559D01*
Y65607D01*
X556600D01*
Y65567D01*
X556640D01*
Y65526D01*
X556680D01*
Y65486D01*
X556720D01*
Y65446D01*
X556760D01*
Y65406D01*
X556801D01*
Y65366D01*
X556841D01*
Y65325D01*
X556881D01*
Y65285D01*
X556921D01*
Y65245D01*
X556962D01*
Y65205D01*
X557002D01*
Y65164D01*
X557042D01*
Y65124D01*
X557082D01*
Y65084D01*
X557122D01*
Y65044D01*
X557163D01*
Y65004D01*
X557203D01*
Y64963D01*
X557243D01*
Y64923D01*
X557283D01*
Y64883D01*
X557323D01*
Y64843D01*
X557364D01*
Y64803D01*
X557444D01*
Y64762D01*
X557484D01*
Y64722D01*
X557525D01*
Y64682D01*
X557565D01*
Y64642D01*
X557605D01*
Y64601D01*
X557645D01*
Y64561D01*
X557686D01*
Y64521D01*
X557726D01*
Y64481D01*
X557766D01*
Y64441D01*
X557806D01*
Y64400D01*
X557846D01*
Y64360D01*
X557887D01*
Y64320D01*
X557927D01*
Y64280D01*
X557967D01*
Y64240D01*
X558007D01*
Y64199D01*
X558047D01*
Y64159D01*
X558088D01*
Y64119D01*
X558128D01*
Y64079D01*
X558168D01*
Y64039D01*
X558208D01*
Y63998D01*
X558248D01*
Y63958D01*
X558289D01*
Y63918D01*
X558329D01*
Y63878D01*
X558369D01*
Y63837D01*
X558409D01*
Y63797D01*
X558450D01*
Y63757D01*
X558490D01*
Y63717D01*
X558530D01*
Y63677D01*
X558610D01*
Y63636D01*
X558651D01*
Y63596D01*
X558691D01*
Y63556D01*
X558731D01*
Y63516D01*
X558771D01*
Y63475D01*
X558812D01*
Y63435D01*
X558852D01*
Y63395D01*
X558892D01*
Y63355D01*
X558932D01*
Y63314D01*
X558972D01*
Y63274D01*
X559013D01*
Y63234D01*
X559053D01*
Y63194D01*
X559093D01*
Y63154D01*
X559133D01*
Y63113D01*
X559174D01*
Y63073D01*
X559214D01*
Y63033D01*
X559254D01*
Y62993D01*
X559294D01*
Y62953D01*
X559334D01*
Y62912D01*
X559375D01*
Y62872D01*
X559415D01*
Y62832D01*
X559455D01*
Y62792D01*
X559495D01*
Y62751D01*
X559535D01*
Y62711D01*
X559576D01*
Y62671D01*
X559616D01*
Y62631D01*
X559696D01*
Y62591D01*
X559737D01*
Y62550D01*
X559777D01*
Y62510D01*
X559817D01*
Y62470D01*
X559857D01*
Y62430D01*
X559897D01*
Y62390D01*
X559938D01*
Y62349D01*
X559978D01*
Y62309D01*
X560018D01*
Y62269D01*
X560058D01*
Y62229D01*
X560098D01*
Y62189D01*
X560139D01*
Y62148D01*
X560179D01*
Y62108D01*
X560219D01*
Y62068D01*
X560259D01*
Y62028D01*
X560300D01*
Y61987D01*
X560340D01*
Y61947D01*
X560380D01*
Y61907D01*
X560420D01*
Y61867D01*
X560460D01*
Y61827D01*
X560501D01*
Y61786D01*
X560541D01*
Y61746D01*
X560581D01*
Y61706D01*
X560621D01*
Y61666D01*
X560662D01*
Y61625D01*
X560702D01*
Y61585D01*
X560742D01*
Y61545D01*
X560822D01*
Y61505D01*
X560863D01*
Y61465D01*
X560903D01*
Y61424D01*
X560943D01*
Y61384D01*
X560983D01*
Y61344D01*
X561023D01*
Y61304D01*
X561064D01*
Y61263D01*
X561104D01*
Y61223D01*
X561144D01*
Y61183D01*
X561184D01*
Y61143D01*
X561225D01*
Y61103D01*
X561265D01*
Y61062D01*
X561305D01*
Y61022D01*
X561345D01*
Y60982D01*
X561385D01*
Y60942D01*
X561426D01*
Y60901D01*
X561466D01*
Y60861D01*
X561506D01*
Y60821D01*
X561546D01*
Y60781D01*
X561586D01*
Y60741D01*
X561627D01*
Y60781D01*
X561667D01*
Y60861D01*
X561707D01*
Y60942D01*
X561747D01*
Y61022D01*
X561788D01*
Y61103D01*
X561828D01*
Y61223D01*
X561868D01*
Y61304D01*
X561908D01*
Y61384D01*
X561949D01*
Y61505D01*
X561989D01*
Y61585D01*
X562029D01*
Y61666D01*
X562069D01*
Y61786D01*
X562109D01*
Y61867D01*
X562150D01*
Y61987D01*
X562190D01*
Y62108D01*
X562230D01*
Y62189D01*
X562270D01*
Y62309D01*
X562310D01*
Y62430D01*
X562351D01*
Y62550D01*
X562391D01*
Y62671D01*
X562431D01*
Y62792D01*
X562471D01*
Y62912D01*
X562511D01*
Y63033D01*
X562552D01*
Y63194D01*
X562592D01*
Y63314D01*
X562632D01*
Y63475D01*
X562672D01*
Y63596D01*
X562713D01*
Y63757D01*
X562753D01*
Y63918D01*
X562793D01*
Y64079D01*
X562833D01*
Y64280D01*
X562873D01*
Y64441D01*
X562914D01*
Y64642D01*
X562954D01*
Y64843D01*
X562994D01*
Y65084D01*
X563034D01*
Y65325D01*
X563074D01*
Y65607D01*
X563115D01*
Y65929D01*
X563155D01*
Y66331D01*
X563195D01*
Y66934D01*
X563235D01*
Y73168D01*
D02*
G37*
G36*
X556117Y63717D02*
X555634D01*
Y63677D01*
X555393D01*
Y63636D01*
X555232D01*
Y63596D01*
X555071D01*
Y63556D01*
X554991D01*
Y63516D01*
X554870D01*
Y63475D01*
X554790D01*
Y63435D01*
X554710D01*
Y63395D01*
X554629D01*
Y63355D01*
X554589D01*
Y63314D01*
X554508D01*
Y63274D01*
X554468D01*
Y63234D01*
X554388D01*
Y63194D01*
X554347D01*
Y63154D01*
X554307D01*
Y63113D01*
X554227D01*
Y63073D01*
X554187D01*
Y63033D01*
X554146D01*
Y62993D01*
X554106D01*
Y62953D01*
X554066D01*
Y62912D01*
X554026D01*
Y62872D01*
X553986D01*
Y62792D01*
X553945D01*
Y62751D01*
X553905D01*
Y62711D01*
X553865D01*
Y62631D01*
X553825D01*
Y62591D01*
X553784D01*
Y62510D01*
X553744D01*
Y62470D01*
X553704D01*
Y62390D01*
X553664D01*
Y62309D01*
X553624D01*
Y62229D01*
X553583D01*
Y62108D01*
X553543D01*
Y62028D01*
X553503D01*
Y61867D01*
X553463D01*
Y61706D01*
X553423D01*
Y61424D01*
X553382D01*
Y61022D01*
X553423D01*
Y60741D01*
X553463D01*
Y60580D01*
X553503D01*
Y60419D01*
X553543D01*
Y60339D01*
X553583D01*
Y60218D01*
X553624D01*
Y60137D01*
X553664D01*
Y60057D01*
X553704D01*
Y59977D01*
X553744D01*
Y59936D01*
X553784D01*
Y59856D01*
X553825D01*
Y59816D01*
X553865D01*
Y59735D01*
X553905D01*
Y59695D01*
X553945D01*
Y59655D01*
X553986D01*
Y59574D01*
X554026D01*
Y59534D01*
X554066D01*
Y59494D01*
X554106D01*
Y59454D01*
X554146D01*
Y59413D01*
X554187D01*
Y59373D01*
X554227D01*
Y59333D01*
X554307D01*
Y59293D01*
X554347D01*
Y59253D01*
X554388D01*
Y59212D01*
X554428D01*
Y59172D01*
X554508D01*
Y59132D01*
X554589D01*
Y59092D01*
X554629D01*
Y59052D01*
X554710D01*
Y59011D01*
X554790D01*
Y58971D01*
X554870D01*
Y58931D01*
X554951D01*
Y58891D01*
X555071D01*
Y58850D01*
X555192D01*
Y58810D01*
X555393D01*
Y58770D01*
X555634D01*
Y58730D01*
X556117D01*
Y58770D01*
X556399D01*
Y58810D01*
X556559D01*
Y58850D01*
X556680D01*
Y58891D01*
X556801D01*
Y58931D01*
X556881D01*
Y58971D01*
X556962D01*
Y59011D01*
X557042D01*
Y59052D01*
X557122D01*
Y59092D01*
X557203D01*
Y59132D01*
X557243D01*
Y59172D01*
X557323D01*
Y59212D01*
X557364D01*
Y59253D01*
X557404D01*
Y59293D01*
X557484D01*
Y59333D01*
X557525D01*
Y59373D01*
X557565D01*
Y59413D01*
X557605D01*
Y59454D01*
X557645D01*
Y59494D01*
X557686D01*
Y59534D01*
X557726D01*
Y59574D01*
X557766D01*
Y59615D01*
X557806D01*
Y59695D01*
X557846D01*
Y59735D01*
X557887D01*
Y59776D01*
X557927D01*
Y59856D01*
X557967D01*
Y59896D01*
X558007D01*
Y59977D01*
X558047D01*
Y60057D01*
X558088D01*
Y60137D01*
X558128D01*
Y60218D01*
X558168D01*
Y60298D01*
X558208D01*
Y60419D01*
X558248D01*
Y60540D01*
X558289D01*
Y60700D01*
X558329D01*
Y60942D01*
X558369D01*
Y61505D01*
X558329D01*
Y61746D01*
X558289D01*
Y61907D01*
X558248D01*
Y62028D01*
X558208D01*
Y62148D01*
X558168D01*
Y62229D01*
X558128D01*
Y62309D01*
X558088D01*
Y62390D01*
X558047D01*
Y62470D01*
X558007D01*
Y62550D01*
X557967D01*
Y62591D01*
X557927D01*
Y62671D01*
X557887D01*
Y62711D01*
X557846D01*
Y62751D01*
X557806D01*
Y62832D01*
X557766D01*
Y62872D01*
X557726D01*
Y62912D01*
X557686D01*
Y62953D01*
X557645D01*
Y62993D01*
X557605D01*
Y63033D01*
X557565D01*
Y63073D01*
X557525D01*
Y63113D01*
X557484D01*
Y63154D01*
X557404D01*
Y63194D01*
X557364D01*
Y63234D01*
X557323D01*
Y63274D01*
X557243D01*
Y63314D01*
X557203D01*
Y63355D01*
X557122D01*
Y63395D01*
X557042D01*
Y63435D01*
X556962D01*
Y63475D01*
X556881D01*
Y63516D01*
X556801D01*
Y63556D01*
X556680D01*
Y63596D01*
X556559D01*
Y63636D01*
X556399D01*
Y63677D01*
X556117D01*
Y63717D01*
D02*
G37*
G36*
X542604D02*
X542122D01*
Y63677D01*
X541880D01*
Y63636D01*
X541719D01*
Y63596D01*
X541559D01*
Y63556D01*
X541478D01*
Y63516D01*
X541357D01*
Y63475D01*
X541277D01*
Y63435D01*
X541197D01*
Y63395D01*
X541116D01*
Y63355D01*
X541076D01*
Y63314D01*
X540995D01*
Y63274D01*
X540955D01*
Y63234D01*
X540875D01*
Y63194D01*
X540835D01*
Y63154D01*
X540794D01*
Y63113D01*
X540754D01*
Y63073D01*
X540674D01*
Y63033D01*
X540634D01*
Y62993D01*
X540593D01*
Y62953D01*
X540553D01*
Y62912D01*
X540513D01*
Y62832D01*
X540473D01*
Y62792D01*
X540433D01*
Y62751D01*
X540392D01*
Y62711D01*
X540352D01*
Y62631D01*
X540312D01*
Y62591D01*
X540272D01*
Y62510D01*
X540231D01*
Y62470D01*
X540191D01*
Y62390D01*
X540151D01*
Y62309D01*
X540111D01*
Y62229D01*
X540070D01*
Y62108D01*
X540030D01*
Y61987D01*
X539990D01*
Y61867D01*
X539950D01*
Y61706D01*
X539910D01*
Y61384D01*
X539869D01*
Y61062D01*
X539910D01*
Y60741D01*
X539950D01*
Y60580D01*
X539990D01*
Y60459D01*
X540030D01*
Y60339D01*
X540070D01*
Y60218D01*
X540111D01*
Y60137D01*
X540151D01*
Y60057D01*
X540191D01*
Y59977D01*
X540231D01*
Y59936D01*
X540272D01*
Y59856D01*
X540312D01*
Y59816D01*
X540352D01*
Y59735D01*
X540392D01*
Y59695D01*
X540433D01*
Y59655D01*
X540473D01*
Y59615D01*
X540513D01*
Y59534D01*
X540553D01*
Y59494D01*
X540593D01*
Y59454D01*
X540634D01*
Y59413D01*
X540674D01*
Y59373D01*
X540714D01*
Y59333D01*
X540794D01*
Y59293D01*
X540835D01*
Y59253D01*
X540875D01*
Y59212D01*
X540955D01*
Y59172D01*
X540995D01*
Y59132D01*
X541076D01*
Y59092D01*
X541116D01*
Y59052D01*
X541197D01*
Y59011D01*
X541277D01*
Y58971D01*
X541357D01*
Y58931D01*
X541478D01*
Y58891D01*
X541559D01*
Y58850D01*
X541719D01*
Y58810D01*
X541880D01*
Y58770D01*
X542122D01*
Y58730D01*
X542604D01*
Y58770D01*
X542886D01*
Y58810D01*
X543047D01*
Y58850D01*
X543167D01*
Y58891D01*
X543288D01*
Y58931D01*
X543368D01*
Y58971D01*
X543449D01*
Y59011D01*
X543529D01*
Y59052D01*
X543610D01*
Y59092D01*
X543690D01*
Y59132D01*
X543730D01*
Y59172D01*
X543811D01*
Y59212D01*
X543851D01*
Y59253D01*
X543891D01*
Y59293D01*
X543972D01*
Y59333D01*
X544012D01*
Y59373D01*
X544052D01*
Y59413D01*
X544092D01*
Y59454D01*
X544132D01*
Y59494D01*
X544173D01*
Y59534D01*
X544213D01*
Y59574D01*
X544253D01*
Y59615D01*
X544293D01*
Y59695D01*
X544333D01*
Y59735D01*
X544374D01*
Y59776D01*
X544414D01*
Y59856D01*
X544454D01*
Y59896D01*
X544494D01*
Y59977D01*
X544535D01*
Y60057D01*
X544575D01*
Y60137D01*
X544615D01*
Y60218D01*
X544655D01*
Y60298D01*
X544696D01*
Y60419D01*
X544736D01*
Y60540D01*
X544776D01*
Y60700D01*
X544816D01*
Y60942D01*
X544856D01*
Y61505D01*
X544816D01*
Y61746D01*
X544776D01*
Y61907D01*
X544736D01*
Y62028D01*
X544696D01*
Y62148D01*
X544655D01*
Y62229D01*
X544615D01*
Y62309D01*
X544575D01*
Y62390D01*
X544535D01*
Y62470D01*
X544494D01*
Y62550D01*
X544454D01*
Y62591D01*
X544414D01*
Y62671D01*
X544374D01*
Y62711D01*
X544333D01*
Y62751D01*
X544293D01*
Y62832D01*
X544253D01*
Y62872D01*
X544213D01*
Y62912D01*
X544173D01*
Y62953D01*
X544132D01*
Y62993D01*
X544092D01*
Y63033D01*
X544052D01*
Y63073D01*
X544012D01*
Y63113D01*
X543972D01*
Y63154D01*
X543891D01*
Y63194D01*
X543851D01*
Y63234D01*
X543811D01*
Y63274D01*
X543730D01*
Y63314D01*
X543690D01*
Y63355D01*
X543610D01*
Y63395D01*
X543529D01*
Y63435D01*
X543449D01*
Y63475D01*
X543368D01*
Y63516D01*
X543288D01*
Y63556D01*
X543167D01*
Y63596D01*
X543047D01*
Y63636D01*
X542886D01*
Y63677D01*
X542604D01*
Y63717D01*
D02*
G37*
G36*
X549160Y63154D02*
X549119D01*
Y63113D01*
X549079D01*
Y63073D01*
X549039D01*
Y63033D01*
X548999D01*
Y62993D01*
X548959D01*
Y62953D01*
X548918D01*
Y62912D01*
X548878D01*
Y62872D01*
X548838D01*
Y62832D01*
X548798D01*
Y62792D01*
X548757D01*
Y62751D01*
X548717D01*
Y62711D01*
X548677D01*
Y62671D01*
X548637D01*
Y62631D01*
X548596D01*
Y62591D01*
X548556D01*
Y62550D01*
X548516D01*
Y62510D01*
X548476D01*
Y62470D01*
X548436D01*
Y62390D01*
X548395D01*
Y62349D01*
X548355D01*
Y62309D01*
X548315D01*
Y62269D01*
X548275D01*
Y62229D01*
X548235D01*
Y62189D01*
X548194D01*
Y62148D01*
X548154D01*
Y62108D01*
X548114D01*
Y62068D01*
X548074D01*
Y62028D01*
X548033D01*
Y61987D01*
X547993D01*
Y61947D01*
X547953D01*
Y61907D01*
X547913D01*
Y61867D01*
X547873D01*
Y61827D01*
X547832D01*
Y61786D01*
X547792D01*
Y61706D01*
X547752D01*
Y61666D01*
X547712D01*
Y61625D01*
X547672D01*
Y61585D01*
X547631D01*
Y61545D01*
X547591D01*
Y61505D01*
X547551D01*
Y61465D01*
X547511D01*
Y61424D01*
X547470D01*
Y61384D01*
X547430D01*
Y61344D01*
X547390D01*
Y61304D01*
X547350D01*
Y61263D01*
X547310D01*
Y61223D01*
X547269D01*
Y61183D01*
X547229D01*
Y61143D01*
X547189D01*
Y61062D01*
X547149D01*
Y61022D01*
X547108D01*
Y60982D01*
X547068D01*
Y60942D01*
X547028D01*
Y60901D01*
X546988D01*
Y60861D01*
X546948D01*
Y60821D01*
X546907D01*
Y60781D01*
X546867D01*
Y60741D01*
X546827D01*
Y60700D01*
X546787D01*
Y60660D01*
X546746D01*
Y60620D01*
X546706D01*
Y60580D01*
X546666D01*
Y60540D01*
X546626D01*
Y60499D01*
X546586D01*
Y60459D01*
X546545D01*
Y60419D01*
X546505D01*
Y60339D01*
X546465D01*
Y60298D01*
X546425D01*
Y60258D01*
X546385D01*
Y60218D01*
X546344D01*
Y60178D01*
X546304D01*
Y60137D01*
X546264D01*
Y60097D01*
X546224D01*
Y60057D01*
X546184D01*
Y60017D01*
X546143D01*
Y59977D01*
X546103D01*
Y59936D01*
X546063D01*
Y59896D01*
X546023D01*
Y59856D01*
X545982D01*
Y59816D01*
X545942D01*
Y59776D01*
X545902D01*
Y59735D01*
X545862D01*
Y59655D01*
X545822D01*
Y59615D01*
X545781D01*
Y59574D01*
X545741D01*
Y59534D01*
X545701D01*
Y59494D01*
X545661D01*
Y59454D01*
X545620D01*
Y59413D01*
X545580D01*
Y59373D01*
X545540D01*
Y59333D01*
X545500D01*
Y59293D01*
X545460D01*
Y59253D01*
X545419D01*
Y59212D01*
X545379D01*
Y59172D01*
X545339D01*
Y59132D01*
X545299D01*
Y59092D01*
X545258D01*
Y59052D01*
X545218D01*
Y59011D01*
X545178D01*
Y58931D01*
X545138D01*
Y58891D01*
X545098D01*
Y58850D01*
X545057D01*
Y58810D01*
X545017D01*
Y58770D01*
X544977D01*
Y58730D01*
X544937D01*
Y58690D01*
X544897D01*
Y58649D01*
X544856D01*
Y58609D01*
X544816D01*
Y58569D01*
X544776D01*
Y58529D01*
X544736D01*
Y58488D01*
X544696D01*
Y58448D01*
X544655D01*
Y58408D01*
X544615D01*
Y58368D01*
X544575D01*
Y58328D01*
X544535D01*
Y58247D01*
X544494D01*
Y58207D01*
X544454D01*
Y58167D01*
X544414D01*
Y58127D01*
X544374D01*
Y58086D01*
X544333D01*
Y58046D01*
X544293D01*
Y58006D01*
X544253D01*
Y57966D01*
X544213D01*
Y57926D01*
X544173D01*
Y57885D01*
X544132D01*
Y57845D01*
X544092D01*
Y57805D01*
X544052D01*
Y57765D01*
X544012D01*
Y57724D01*
X543972D01*
Y57684D01*
X543931D01*
Y57644D01*
X543891D01*
Y57564D01*
X543851D01*
Y57523D01*
X543811D01*
Y57483D01*
X543770D01*
Y57443D01*
X543730D01*
Y57403D01*
X543690D01*
Y57362D01*
X543650D01*
Y57322D01*
X543610D01*
Y57282D01*
X543569D01*
Y57242D01*
X543529D01*
Y57202D01*
X543489D01*
Y57161D01*
X543449D01*
Y57121D01*
X543409D01*
Y57081D01*
X543368D01*
Y57041D01*
X543328D01*
Y57000D01*
X543288D01*
Y56960D01*
X543248D01*
Y56920D01*
X543208D01*
Y56840D01*
X543167D01*
Y56799D01*
X543127D01*
Y56759D01*
X543087D01*
Y56719D01*
X543047D01*
Y56679D01*
X543006D01*
Y56639D01*
X542966D01*
Y56598D01*
X542926D01*
Y56558D01*
X542886D01*
Y56518D01*
X542845D01*
Y56478D01*
X542805D01*
Y56438D01*
X542765D01*
Y56397D01*
X542725D01*
Y56357D01*
X542685D01*
Y56317D01*
X542644D01*
Y56277D01*
X542604D01*
Y56236D01*
X542564D01*
Y56156D01*
X542524D01*
Y56116D01*
X542484D01*
Y56076D01*
X542443D01*
Y56035D01*
X542403D01*
Y55995D01*
X542363D01*
Y55955D01*
X542323D01*
Y55915D01*
X542282D01*
Y55874D01*
X542242D01*
Y55834D01*
X542202D01*
Y55794D01*
X542162D01*
Y55754D01*
X542122D01*
Y55714D01*
X542081D01*
Y55673D01*
X542041D01*
Y55633D01*
X542001D01*
Y55593D01*
X541961D01*
Y55553D01*
X541921D01*
Y55472D01*
X541880D01*
Y55432D01*
X541840D01*
Y55392D01*
X541800D01*
Y55352D01*
X541760D01*
Y55311D01*
X541719D01*
Y55271D01*
X541679D01*
Y55231D01*
X541639D01*
Y55191D01*
X541599D01*
Y55150D01*
X541559D01*
Y55110D01*
X541518D01*
Y55070D01*
X541478D01*
Y55030D01*
X541438D01*
Y54990D01*
X541398D01*
Y54949D01*
X541357D01*
Y54909D01*
X541317D01*
Y54869D01*
X541277D01*
Y54789D01*
X541237D01*
Y54748D01*
X541197D01*
Y54708D01*
X541156D01*
Y54668D01*
X541116D01*
Y54628D01*
X541156D01*
Y54587D01*
X541197D01*
Y54547D01*
X541237D01*
Y54507D01*
X541277D01*
Y54467D01*
X541317D01*
Y54427D01*
X541357D01*
Y54386D01*
X541438D01*
Y54346D01*
X541478D01*
Y54306D01*
X541518D01*
Y54266D01*
X541559D01*
Y54226D01*
X541599D01*
Y54185D01*
X541639D01*
Y54145D01*
X541679D01*
Y54105D01*
X541719D01*
Y54065D01*
X541760D01*
Y54025D01*
X541840D01*
Y53984D01*
X541880D01*
Y53944D01*
X541921D01*
Y53904D01*
X541961D01*
Y53864D01*
X542001D01*
Y53823D01*
X542041D01*
Y53783D01*
X542081D01*
Y53743D01*
X542162D01*
Y53703D01*
X542202D01*
Y53663D01*
X542242D01*
Y53622D01*
X542282D01*
Y53582D01*
X542323D01*
Y53542D01*
X542363D01*
Y53502D01*
X542443D01*
Y53461D01*
X542484D01*
Y53421D01*
X542524D01*
Y53381D01*
X542564D01*
Y53341D01*
X542644D01*
Y53301D01*
X542685D01*
Y53260D01*
X542725D01*
Y53220D01*
X542765D01*
Y53180D01*
X542805D01*
Y53140D01*
X542886D01*
Y53099D01*
X542926D01*
Y53059D01*
X542966D01*
Y53019D01*
X543047D01*
Y52979D01*
X543087D01*
Y52939D01*
X543127D01*
Y52898D01*
X543167D01*
Y52858D01*
X543248D01*
Y52818D01*
X543288D01*
Y52778D01*
X543328D01*
Y52737D01*
X543409D01*
Y52697D01*
X543449D01*
Y52657D01*
X543489D01*
Y52617D01*
X543569D01*
Y52577D01*
X543610D01*
Y52536D01*
X543650D01*
Y52496D01*
X543730D01*
Y52456D01*
X543770D01*
Y52416D01*
X543811D01*
Y52376D01*
X543891D01*
Y52335D01*
X543931D01*
Y52295D01*
X544012D01*
Y52255D01*
X544052D01*
Y52215D01*
X544092D01*
Y52175D01*
X544173D01*
Y52134D01*
X544213D01*
Y52094D01*
X544293D01*
Y52054D01*
X544333D01*
Y52014D01*
X544414D01*
Y51973D01*
X544454D01*
Y51933D01*
X544535D01*
Y51893D01*
X544575D01*
Y51853D01*
X544615D01*
Y51813D01*
X544696D01*
Y51772D01*
X544736D01*
Y51732D01*
X544816D01*
Y51692D01*
X544897D01*
Y51652D01*
X544937D01*
Y51611D01*
X545017D01*
Y51571D01*
X545057D01*
Y51531D01*
X545138D01*
Y51491D01*
X545178D01*
Y51451D01*
X545258D01*
Y51410D01*
X545299D01*
Y51370D01*
X545379D01*
Y51330D01*
X545460D01*
Y51290D01*
X545500D01*
Y51249D01*
X545580D01*
Y51209D01*
X545661D01*
Y51169D01*
X545701D01*
Y51129D01*
X545781D01*
Y51089D01*
X545822D01*
Y51048D01*
X545902D01*
Y51008D01*
X545982D01*
Y50968D01*
X546063D01*
Y50928D01*
X546103D01*
Y50888D01*
X546184D01*
Y50847D01*
X546264D01*
Y50807D01*
X546344D01*
Y50767D01*
X546385D01*
Y50727D01*
X546465D01*
Y50686D01*
X546545D01*
Y50646D01*
X546626D01*
Y50606D01*
X546706D01*
Y50566D01*
X546746D01*
Y50526D01*
X546827D01*
Y50485D01*
X546907D01*
Y50445D01*
X546988D01*
Y50405D01*
X547068D01*
Y50365D01*
X547149D01*
Y50325D01*
X547229D01*
Y50284D01*
X547310D01*
Y50244D01*
X547390D01*
Y50204D01*
X547470D01*
Y50164D01*
X547551D01*
Y50123D01*
X547631D01*
Y50083D01*
X547712D01*
Y50043D01*
X547792D01*
Y50003D01*
X547873D01*
Y49963D01*
X547993D01*
Y49922D01*
X548074D01*
Y49882D01*
X548154D01*
Y49842D01*
X548275D01*
Y49802D01*
X548355D01*
Y49762D01*
X548436D01*
Y49721D01*
X548556D01*
Y49681D01*
X548677D01*
Y49641D01*
X548757D01*
Y49601D01*
X548878D01*
Y49560D01*
X548999D01*
Y49520D01*
X549240D01*
Y49560D01*
X549361D01*
Y49601D01*
X549481D01*
Y49641D01*
X549602D01*
Y49681D01*
X549682D01*
Y49721D01*
X549803D01*
Y49762D01*
X549883D01*
Y49802D01*
X550004D01*
Y49842D01*
X550084D01*
Y49882D01*
X550165D01*
Y49922D01*
X550286D01*
Y49963D01*
X550366D01*
Y50003D01*
X550447D01*
Y50043D01*
X550527D01*
Y50083D01*
X550607D01*
Y50123D01*
X550688D01*
Y50164D01*
X550768D01*
Y50204D01*
X550849D01*
Y50244D01*
X550929D01*
Y50284D01*
X551009D01*
Y50325D01*
X551090D01*
Y50365D01*
X551170D01*
Y50405D01*
X551251D01*
Y50445D01*
X551331D01*
Y50485D01*
X551412D01*
Y50526D01*
X551492D01*
Y50566D01*
X551573D01*
Y50606D01*
X551613D01*
Y50646D01*
X551693D01*
Y50686D01*
X551774D01*
Y50727D01*
X551854D01*
Y50767D01*
X551935D01*
Y50807D01*
X551975D01*
Y50847D01*
X552055D01*
Y50888D01*
X552136D01*
Y50928D01*
X552216D01*
Y50968D01*
X552256D01*
Y51008D01*
X552337D01*
Y51048D01*
X552417D01*
Y51089D01*
X552457D01*
Y51129D01*
X552538D01*
Y51169D01*
X552618D01*
Y51209D01*
X552658D01*
Y51249D01*
X552739D01*
Y51290D01*
X552819D01*
Y51330D01*
X552859D01*
Y51370D01*
X552940D01*
Y51410D01*
X552980D01*
Y51451D01*
X553061D01*
Y51491D01*
X553141D01*
Y51531D01*
X553181D01*
Y51571D01*
X553262D01*
Y51611D01*
X553302D01*
Y51652D01*
X553382D01*
Y51692D01*
X553423D01*
Y51732D01*
X553503D01*
Y51772D01*
X553543D01*
Y51813D01*
X553624D01*
Y51853D01*
X553664D01*
Y51893D01*
X553744D01*
Y51933D01*
X553784D01*
Y51973D01*
X553865D01*
Y52014D01*
X553905D01*
Y52054D01*
X553986D01*
Y52094D01*
X554026D01*
Y52134D01*
X554066D01*
Y52175D01*
X554146D01*
Y52215D01*
X554187D01*
Y52255D01*
X554267D01*
Y52295D01*
X554307D01*
Y52335D01*
X554347D01*
Y52376D01*
X554428D01*
Y52416D01*
X554468D01*
Y52456D01*
X554549D01*
Y52496D01*
X554589D01*
Y52536D01*
X554629D01*
Y52577D01*
X554710D01*
Y52617D01*
X554750D01*
Y52657D01*
X554790D01*
Y52697D01*
X554870D01*
Y52737D01*
X554911D01*
Y52778D01*
X554951D01*
Y52818D01*
X555031D01*
Y52858D01*
X555071D01*
Y52898D01*
X555112D01*
Y52939D01*
X555152D01*
Y52979D01*
X555232D01*
Y53019D01*
X555272D01*
Y53059D01*
X555313D01*
Y53099D01*
X555353D01*
Y53140D01*
X555433D01*
Y53180D01*
X555474D01*
Y53220D01*
X555514D01*
Y53260D01*
X555554D01*
Y53301D01*
X555634D01*
Y53341D01*
X555675D01*
Y53381D01*
X555715D01*
Y53421D01*
X555755D01*
Y53461D01*
X555835D01*
Y53502D01*
X555876D01*
Y53542D01*
X555916D01*
Y53582D01*
X555956D01*
Y53622D01*
X555996D01*
Y53663D01*
X556037D01*
Y53703D01*
X556117D01*
Y53743D01*
X556157D01*
Y53783D01*
X556198D01*
Y53823D01*
X556238D01*
Y53864D01*
X556278D01*
Y53904D01*
X556318D01*
Y53944D01*
X556399D01*
Y53984D01*
X556439D01*
Y54025D01*
X556479D01*
Y54065D01*
X556519D01*
Y54105D01*
X556559D01*
Y54145D01*
X556600D01*
Y54185D01*
X556640D01*
Y54226D01*
X556680D01*
Y54266D01*
X556760D01*
Y54306D01*
X556801D01*
Y54346D01*
X556841D01*
Y54386D01*
X556881D01*
Y54427D01*
X556921D01*
Y54467D01*
X556962D01*
Y54507D01*
X557002D01*
Y54547D01*
X557042D01*
Y54587D01*
X557082D01*
Y54628D01*
X557122D01*
Y54708D01*
X557082D01*
Y54748D01*
X557042D01*
Y54789D01*
X557002D01*
Y54829D01*
X556962D01*
Y54869D01*
X556921D01*
Y54909D01*
X556881D01*
Y54949D01*
X556841D01*
Y54990D01*
X556801D01*
Y55030D01*
X556760D01*
Y55070D01*
X556720D01*
Y55110D01*
X556680D01*
Y55150D01*
X556640D01*
Y55191D01*
X556600D01*
Y55231D01*
X556559D01*
Y55271D01*
X556519D01*
Y55311D01*
X556479D01*
Y55392D01*
X556439D01*
Y55432D01*
X556399D01*
Y55472D01*
X556358D01*
Y55512D01*
X556318D01*
Y55553D01*
X556278D01*
Y55593D01*
X556238D01*
Y55633D01*
X556198D01*
Y55673D01*
X556157D01*
Y55714D01*
X556117D01*
Y55754D01*
X556077D01*
Y55794D01*
X556037D01*
Y55834D01*
X555996D01*
Y55874D01*
X555956D01*
Y55915D01*
X555916D01*
Y55955D01*
X555876D01*
Y55995D01*
X555835D01*
Y56035D01*
X555795D01*
Y56116D01*
X555755D01*
Y56156D01*
X555715D01*
Y56196D01*
X555675D01*
Y56236D01*
X555634D01*
Y56277D01*
X555594D01*
Y56317D01*
X555554D01*
Y56357D01*
X555514D01*
Y56397D01*
X555474D01*
Y56438D01*
X555433D01*
Y56478D01*
X555393D01*
Y56518D01*
X555353D01*
Y56558D01*
X555313D01*
Y56598D01*
X555272D01*
Y56639D01*
X555232D01*
Y56679D01*
X555192D01*
Y56719D01*
X555152D01*
Y56799D01*
X555112D01*
Y56840D01*
X555071D01*
Y56880D01*
X555031D01*
Y56920D01*
X554991D01*
Y56960D01*
X554951D01*
Y57000D01*
X554911D01*
Y57041D01*
X554870D01*
Y57081D01*
X554830D01*
Y57121D01*
X554790D01*
Y57161D01*
X554750D01*
Y57202D01*
X554710D01*
Y57242D01*
X554669D01*
Y57282D01*
X554629D01*
Y57322D01*
X554589D01*
Y57362D01*
X554549D01*
Y57403D01*
X554508D01*
Y57443D01*
X554468D01*
Y57523D01*
X554428D01*
Y57564D01*
X554388D01*
Y57604D01*
X554347D01*
Y57644D01*
X554307D01*
Y57684D01*
X554267D01*
Y57724D01*
X554227D01*
Y57765D01*
X554187D01*
Y57805D01*
X554146D01*
Y57845D01*
X554106D01*
Y57885D01*
X554066D01*
Y57926D01*
X554026D01*
Y57966D01*
X553986D01*
Y58006D01*
X553945D01*
Y58046D01*
X553905D01*
Y58086D01*
X553865D01*
Y58167D01*
X553825D01*
Y58207D01*
X553784D01*
Y58247D01*
X553744D01*
Y58287D01*
X553704D01*
Y58328D01*
X553664D01*
Y58368D01*
X553624D01*
Y58408D01*
X553583D01*
Y58448D01*
X553543D01*
Y58488D01*
X553503D01*
Y58529D01*
X553463D01*
Y58569D01*
X553423D01*
Y58609D01*
X553382D01*
Y58649D01*
X553342D01*
Y58690D01*
X553302D01*
Y58730D01*
X553262D01*
Y58770D01*
X553221D01*
Y58810D01*
X553181D01*
Y58891D01*
X553141D01*
Y58931D01*
X553101D01*
Y58971D01*
X553061D01*
Y59011D01*
X553020D01*
Y59052D01*
X552980D01*
Y59092D01*
X552940D01*
Y59132D01*
X552900D01*
Y59172D01*
X552859D01*
Y59212D01*
X552819D01*
Y59253D01*
X552779D01*
Y59293D01*
X552739D01*
Y59333D01*
X552699D01*
Y59373D01*
X552658D01*
Y59413D01*
X552618D01*
Y59454D01*
X552578D01*
Y59494D01*
X552538D01*
Y59574D01*
X552497D01*
Y59615D01*
X552457D01*
Y59655D01*
X552417D01*
Y59695D01*
X552377D01*
Y59735D01*
X552337D01*
Y59776D01*
X552296D01*
Y59816D01*
X552256D01*
Y59856D01*
X552216D01*
Y59896D01*
X552176D01*
Y59936D01*
X552136D01*
Y59977D01*
X552095D01*
Y60017D01*
X552055D01*
Y60057D01*
X552015D01*
Y60097D01*
X551975D01*
Y60137D01*
X551935D01*
Y60178D01*
X551894D01*
Y60258D01*
X551854D01*
Y60298D01*
X551814D01*
Y60339D01*
X551774D01*
Y60379D01*
X551733D01*
Y60419D01*
X551693D01*
Y60459D01*
X551653D01*
Y60499D01*
X551613D01*
Y60540D01*
X551573D01*
Y60580D01*
X551532D01*
Y60620D01*
X551492D01*
Y60660D01*
X551452D01*
Y60700D01*
X551412D01*
Y60741D01*
X551371D01*
Y60781D01*
X551331D01*
Y60821D01*
X551291D01*
Y60861D01*
X551251D01*
Y60901D01*
X551211D01*
Y60982D01*
X551170D01*
Y61022D01*
X551130D01*
Y61062D01*
X551090D01*
Y61103D01*
X551050D01*
Y61143D01*
X551009D01*
Y61183D01*
X550969D01*
Y61223D01*
X550929D01*
Y61263D01*
X550889D01*
Y61304D01*
X550849D01*
Y61344D01*
X550808D01*
Y61384D01*
X550768D01*
Y61424D01*
X550728D01*
Y61465D01*
X550688D01*
Y61505D01*
X550648D01*
Y61545D01*
X550607D01*
Y61585D01*
X550567D01*
Y61666D01*
X550527D01*
Y61706D01*
X550487D01*
Y61746D01*
X550447D01*
Y61786D01*
X550406D01*
Y61827D01*
X550366D01*
Y61867D01*
X550326D01*
Y61907D01*
X550286D01*
Y61947D01*
X550245D01*
Y61987D01*
X550205D01*
Y62028D01*
X550165D01*
Y62068D01*
X550125D01*
Y62108D01*
X550084D01*
Y62148D01*
X550044D01*
Y62189D01*
X550004D01*
Y62229D01*
X549964D01*
Y62269D01*
X549924D01*
Y62349D01*
X549883D01*
Y62390D01*
X549843D01*
Y62430D01*
X549803D01*
Y62470D01*
X549763D01*
Y62510D01*
X549723D01*
Y62550D01*
X549682D01*
Y62591D01*
X549642D01*
Y62631D01*
X549602D01*
Y62671D01*
X549562D01*
Y62711D01*
X549521D01*
Y62751D01*
X549481D01*
Y62792D01*
X549441D01*
Y62832D01*
X549401D01*
Y62872D01*
X549361D01*
Y62912D01*
X549320D01*
Y62953D01*
X549280D01*
Y63033D01*
X549240D01*
Y63073D01*
X549200D01*
Y63113D01*
X549160D01*
Y63154D01*
D02*
G37*
%LPD*%
D11*
X206379Y443488D02*
G03*
X206379Y443488I-7112J0D01*
G01*
X113038Y245110D02*
G03*
X113038Y245110I-10160J0D01*
G01*
X241918Y570128D02*
G03*
X241918Y570128I-10160J0D01*
G01*
D113*
X509870Y84787D02*
X520027D01*
Y69552D01*
X509870D01*
X520027Y77169D02*
X514949D01*
X494635Y82248D02*
X497174Y84787D01*
X502253D01*
X504792Y82248D01*
Y79709D01*
X502253Y77169D01*
X497174D01*
X494635Y74630D01*
Y72091D01*
X497174Y69552D01*
X502253D01*
X504792Y72091D01*
X479400Y84787D02*
X489557D01*
Y69552D01*
X479400D01*
X489557Y77169D02*
X484479D01*
X474322Y67013D02*
X464165D01*
X448930Y84787D02*
X459087D01*
Y77169D01*
X454008Y79709D01*
X451469D01*
X448930Y77169D01*
Y72091D01*
X451469Y69552D01*
X456548D01*
X459087Y72091D01*
X443852Y69552D02*
X438773D01*
X441312D01*
Y84787D01*
X443852Y82248D01*
X420999Y84787D02*
X426077Y82248D01*
X431156Y77169D01*
Y72091D01*
X428617Y69552D01*
X423538D01*
X420999Y72091D01*
Y74630D01*
X423538Y77169D01*
X431156D01*
X415921Y67013D02*
X405764D01*
X400686Y84787D02*
Y69552D01*
X393068D01*
X390529Y72091D01*
Y74630D01*
X393068Y77169D01*
X400686D01*
X393068D01*
X390529Y79709D01*
Y82248D01*
X393068Y84787D01*
X400686D01*
X385451Y69552D02*
X380372D01*
X382911D01*
Y84787D01*
X385451D01*
X372755Y69552D02*
X367676D01*
X370215D01*
Y79709D01*
X372755D01*
X360059Y69552D02*
X352441D01*
X349902Y72091D01*
X352441Y74630D01*
X357520D01*
X360059Y77169D01*
X357520Y79709D01*
X349902D01*
X344824Y69552D02*
X337206D01*
X334667Y72091D01*
X337206Y74630D01*
X342285D01*
X344824Y77169D01*
X342285Y79709D01*
X334667D01*
X329589Y69552D02*
Y79709D01*
X324510Y84787D01*
X319432Y79709D01*
Y69552D01*
Y77169D01*
X329589D01*
X314354Y69552D02*
X309275D01*
X311814D01*
Y84787D01*
X314354D01*
X299119Y79709D02*
X294040D01*
X291501Y77169D01*
Y69552D01*
X299119D01*
X301658Y72091D01*
X299119Y74630D01*
X291501D01*
X286423Y79709D02*
Y69552D01*
Y74630D01*
X283883Y77169D01*
X281344Y79709D01*
X278805D01*
X271188Y69552D02*
Y79709D01*
X268648D01*
X266109Y77169D01*
Y69552D01*
Y77169D01*
X263570Y79709D01*
X261031Y77169D01*
Y69552D01*
X521054Y23883D02*
Y39118D01*
X513437D01*
X510898Y36579D01*
Y31501D01*
X513437Y28962D01*
X521054D01*
X515976D02*
X510898Y23883D01*
X498202D02*
X503280D01*
X505819Y26422D01*
Y31501D01*
X503280Y34040D01*
X498202D01*
X495662Y31501D01*
Y28962D01*
X505819D01*
X490584Y34040D02*
X485506Y23883D01*
X480427Y34040D01*
X460114Y23883D02*
X455036D01*
X457575D01*
Y39118D01*
X460114Y36579D01*
X447418Y23883D02*
Y26422D01*
X444879D01*
Y23883D01*
X447418D01*
X434722Y36579D02*
X432183Y39118D01*
X427105D01*
X424566Y36579D01*
Y26422D01*
X427105Y23883D01*
X432183D01*
X434722Y26422D01*
Y36579D01*
X419487Y23883D02*
Y26422D01*
X416948D01*
Y23883D01*
X419487D01*
X406791Y36579D02*
X404252Y39118D01*
X399174D01*
X396635Y36579D01*
Y26422D01*
X399174Y23883D01*
X404252D01*
X406791Y26422D01*
Y36579D01*
X523657Y106275D02*
Y121510D01*
X516040D01*
X513501Y118971D01*
Y113892D01*
X516040Y111353D01*
X523657D01*
X498265Y118971D02*
X500805Y121510D01*
X505883D01*
X508422Y118971D01*
Y108814D01*
X505883Y106275D01*
X500805D01*
X498265Y108814D01*
X493187Y121510D02*
Y106275D01*
X485570D01*
X483030Y108814D01*
Y111353D01*
X485570Y113892D01*
X493187D01*
X485570D01*
X483030Y116432D01*
Y118971D01*
X485570Y121510D01*
X493187D01*
X513066Y156149D02*
X523223D01*
Y140914D01*
X513066D01*
X523223Y148531D02*
X518145D01*
X497831Y153610D02*
X500370Y156149D01*
X505449D01*
X507988Y153610D01*
Y151070D01*
X505449Y148531D01*
X500370D01*
X497831Y145992D01*
Y143453D01*
X500370Y140914D01*
X505449D01*
X507988Y143453D01*
X482596Y156149D02*
X492753D01*
Y140914D01*
X482596D01*
X492753Y148531D02*
X487674D01*
X452126Y156149D02*
X462283D01*
Y148531D01*
X457204Y151070D01*
X454665D01*
X452126Y148531D01*
Y143453D01*
X454665Y140914D01*
X459743D01*
X462283Y143453D01*
X447048Y140914D02*
X441969D01*
X444509D01*
Y156149D01*
X447048Y153610D01*
X424195Y156149D02*
X429273Y153610D01*
X434352Y148531D01*
Y143453D01*
X431813Y140914D01*
X426734D01*
X424195Y143453D01*
Y145992D01*
X426734Y148531D01*
X434352D01*
X403882Y156149D02*
Y140914D01*
X396264D01*
X393725Y143453D01*
Y145992D01*
X396264Y148531D01*
X403882D01*
X396264D01*
X393725Y151070D01*
Y153610D01*
X396264Y156149D01*
X403882D01*
X388647Y140914D02*
X383568D01*
X386107D01*
Y156149D01*
X388647D01*
X375951Y140914D02*
X370872D01*
X373411D01*
Y151070D01*
X375951D01*
X363255Y140914D02*
X355637D01*
X353098Y143453D01*
X355637Y145992D01*
X360716D01*
X363255Y148531D01*
X360716Y151070D01*
X353098D01*
X348020Y140914D02*
X340402D01*
X337863Y143453D01*
X340402Y145992D01*
X345480D01*
X348020Y148531D01*
X345480Y151070D01*
X337863D01*
X332785Y140914D02*
Y151070D01*
X327706Y156149D01*
X322628Y151070D01*
Y140914D01*
Y148531D01*
X332785D01*
X317550Y140914D02*
X312471D01*
X315010D01*
Y156149D01*
X317550D01*
X302314Y151070D02*
X297236D01*
X294697Y148531D01*
Y140914D01*
X302314D01*
X304854Y143453D01*
X302314Y145992D01*
X294697D01*
X289619Y151070D02*
Y140914D01*
Y145992D01*
X287079Y148531D01*
X284540Y151070D01*
X282001D01*
X274384Y140914D02*
Y151070D01*
X271844D01*
X269305Y148531D01*
Y140914D01*
Y148531D01*
X266766Y151070D01*
X264227Y148531D01*
Y140914D01*
M02*
