G04*
G04 #@! TF.GenerationSoftware,Altium Limited,Altium Designer,23.8.1 (32)*
G04*
G04 Layer_Physical_Order=1*
G04 Layer_Color=255*
%FSLAX44Y44*%
%MOMM*%
G71*
G04*
G04 #@! TF.SameCoordinates,271CB4FA-4F0A-43F9-8DEE-C87A6A24424C*
G04*
G04*
G04 #@! TF.FilePolarity,Positive*
G04*
G01*
G75*
%ADD13C,0.1270*%
G04:AMPARAMS|DCode=16|XSize=1.7mm|YSize=1.8mm|CornerRadius=0.2125mm|HoleSize=0mm|Usage=FLASHONLY|Rotation=270.000|XOffset=0mm|YOffset=0mm|HoleType=Round|Shape=RoundedRectangle|*
%AMROUNDEDRECTD16*
21,1,1.7000,1.3750,0,0,270.0*
21,1,1.2750,1.8000,0,0,270.0*
1,1,0.4250,-0.6875,-0.6375*
1,1,0.4250,-0.6875,0.6375*
1,1,0.4250,0.6875,0.6375*
1,1,0.4250,0.6875,-0.6375*
%
%ADD16ROUNDEDRECTD16*%
G04:AMPARAMS|DCode=17|XSize=0.7mm|YSize=1.9mm|CornerRadius=0.0875mm|HoleSize=0mm|Usage=FLASHONLY|Rotation=270.000|XOffset=0mm|YOffset=0mm|HoleType=Round|Shape=RoundedRectangle|*
%AMROUNDEDRECTD17*
21,1,0.7000,1.7250,0,0,270.0*
21,1,0.5250,1.9000,0,0,270.0*
1,1,0.1750,-0.8625,-0.2625*
1,1,0.1750,-0.8625,0.2625*
1,1,0.1750,0.8625,0.2625*
1,1,0.1750,0.8625,-0.2625*
%
%ADD17ROUNDEDRECTD17*%
G04:AMPARAMS|DCode=18|XSize=1.4mm|YSize=2.6mm|CornerRadius=0.175mm|HoleSize=0mm|Usage=FLASHONLY|Rotation=270.000|XOffset=0mm|YOffset=0mm|HoleType=Round|Shape=RoundedRectangle|*
%AMROUNDEDRECTD18*
21,1,1.4000,2.2500,0,0,270.0*
21,1,1.0500,2.6000,0,0,270.0*
1,1,0.3500,-1.1250,-0.5250*
1,1,0.3500,-1.1250,0.5250*
1,1,0.3500,1.1250,0.5250*
1,1,0.3500,1.1250,-0.5250*
%
%ADD18ROUNDEDRECTD18*%
G04:AMPARAMS|DCode=19|XSize=1.6mm|YSize=3mm|CornerRadius=0.2mm|HoleSize=0mm|Usage=FLASHONLY|Rotation=180.000|XOffset=0mm|YOffset=0mm|HoleType=Round|Shape=RoundedRectangle|*
%AMROUNDEDRECTD19*
21,1,1.6000,2.6000,0,0,180.0*
21,1,1.2000,3.0000,0,0,180.0*
1,1,0.4000,-0.6000,1.3000*
1,1,0.4000,0.6000,1.3000*
1,1,0.4000,0.6000,-1.3000*
1,1,0.4000,-0.6000,-1.3000*
%
%ADD19ROUNDEDRECTD19*%
G04:AMPARAMS|DCode=20|XSize=1mm|YSize=5.5mm|CornerRadius=0.125mm|HoleSize=0mm|Usage=FLASHONLY|Rotation=180.000|XOffset=0mm|YOffset=0mm|HoleType=Round|Shape=RoundedRectangle|*
%AMROUNDEDRECTD20*
21,1,1.0000,5.2500,0,0,180.0*
21,1,0.7500,5.5000,0,0,180.0*
1,1,0.2500,-0.3750,2.6250*
1,1,0.2500,0.3750,2.6250*
1,1,0.2500,0.3750,-2.6250*
1,1,0.2500,-0.3750,-2.6250*
%
%ADD20ROUNDEDRECTD20*%
G04:AMPARAMS|DCode=21|XSize=1mm|YSize=1.1mm|CornerRadius=0.125mm|HoleSize=0mm|Usage=FLASHONLY|Rotation=90.000|XOffset=0mm|YOffset=0mm|HoleType=Round|Shape=RoundedRectangle|*
%AMROUNDEDRECTD21*
21,1,1.0000,0.8500,0,0,90.0*
21,1,0.7500,1.1000,0,0,90.0*
1,1,0.2500,0.4250,0.3750*
1,1,0.2500,0.4250,-0.3750*
1,1,0.2500,-0.4250,-0.3750*
1,1,0.2500,-0.4250,0.3750*
%
%ADD21ROUNDEDRECTD21*%
G04:AMPARAMS|DCode=22|XSize=1.5mm|YSize=3.4mm|CornerRadius=0.1875mm|HoleSize=0mm|Usage=FLASHONLY|Rotation=180.000|XOffset=0mm|YOffset=0mm|HoleType=Round|Shape=RoundedRectangle|*
%AMROUNDEDRECTD22*
21,1,1.5000,3.0250,0,0,180.0*
21,1,1.1250,3.4000,0,0,180.0*
1,1,0.3750,-0.5625,1.5125*
1,1,0.3750,0.5625,1.5125*
1,1,0.3750,0.5625,-1.5125*
1,1,0.3750,-0.5625,-1.5125*
%
%ADD22ROUNDEDRECTD22*%
G04:AMPARAMS|DCode=23|XSize=1mm|YSize=3.5mm|CornerRadius=0.125mm|HoleSize=0mm|Usage=FLASHONLY|Rotation=180.000|XOffset=0mm|YOffset=0mm|HoleType=Round|Shape=RoundedRectangle|*
%AMROUNDEDRECTD23*
21,1,1.0000,3.2500,0,0,180.0*
21,1,0.7500,3.5000,0,0,180.0*
1,1,0.2500,-0.3750,1.6250*
1,1,0.2500,0.3750,1.6250*
1,1,0.2500,0.3750,-1.6250*
1,1,0.2500,-0.3750,-1.6250*
%
%ADD23ROUNDEDRECTD23*%
%ADD24R,1.2000X0.7000*%
%ADD25R,0.7000X1.2000*%
%ADD26R,2.0000X2.0000*%
G04:AMPARAMS|DCode=27|XSize=0.966mm|YSize=0.2393mm|CornerRadius=0.0598mm|HoleSize=0mm|Usage=FLASHONLY|Rotation=0.000|XOffset=0mm|YOffset=0mm|HoleType=Round|Shape=RoundedRectangle|*
%AMROUNDEDRECTD27*
21,1,0.9660,0.1196,0,0,0.0*
21,1,0.8464,0.2393,0,0,0.0*
1,1,0.1196,0.4232,-0.0598*
1,1,0.1196,-0.4232,-0.0598*
1,1,0.1196,-0.4232,0.0598*
1,1,0.1196,0.4232,0.0598*
%
%ADD27ROUNDEDRECTD27*%
G04:AMPARAMS|DCode=28|XSize=0.2393mm|YSize=0.966mm|CornerRadius=0.0598mm|HoleSize=0mm|Usage=FLASHONLY|Rotation=0.000|XOffset=0mm|YOffset=0mm|HoleType=Round|Shape=RoundedRectangle|*
%AMROUNDEDRECTD28*
21,1,0.2393,0.8464,0,0,0.0*
21,1,0.1196,0.9660,0,0,0.0*
1,1,0.1196,0.0598,-0.4232*
1,1,0.1196,-0.0598,-0.4232*
1,1,0.1196,-0.0598,0.4232*
1,1,0.1196,0.0598,0.4232*
%
%ADD28ROUNDEDRECTD28*%
%ADD29R,2.5000X1.3750*%
%ADD30R,1.7500X0.4000*%
G04:AMPARAMS|DCode=31|XSize=0.9906mm|YSize=1.0922mm|CornerRadius=0.2477mm|HoleSize=0mm|Usage=FLASHONLY|Rotation=180.000|XOffset=0mm|YOffset=0mm|HoleType=Round|Shape=RoundedRectangle|*
%AMROUNDEDRECTD31*
21,1,0.9906,0.5969,0,0,180.0*
21,1,0.4953,1.0922,0,0,180.0*
1,1,0.4953,-0.2477,0.2985*
1,1,0.4953,0.2477,0.2985*
1,1,0.4953,0.2477,-0.2985*
1,1,0.4953,-0.2477,-0.2985*
%
%ADD31ROUNDEDRECTD31*%
G04:AMPARAMS|DCode=34|XSize=1mm|YSize=1.1mm|CornerRadius=0.125mm|HoleSize=0mm|Usage=FLASHONLY|Rotation=180.000|XOffset=0mm|YOffset=0mm|HoleType=Round|Shape=RoundedRectangle|*
%AMROUNDEDRECTD34*
21,1,1.0000,0.8500,0,0,180.0*
21,1,0.7500,1.1000,0,0,180.0*
1,1,0.2500,-0.3750,0.4250*
1,1,0.2500,0.3750,0.4250*
1,1,0.2500,0.3750,-0.4250*
1,1,0.2500,-0.3750,-0.4250*
%
%ADD34ROUNDEDRECTD34*%
%ADD35C,1.2700*%
G04:AMPARAMS|DCode=36|XSize=1.5mm|YSize=1.3mm|CornerRadius=0.1625mm|HoleSize=0mm|Usage=FLASHONLY|Rotation=90.000|XOffset=0mm|YOffset=0mm|HoleType=Round|Shape=RoundedRectangle|*
%AMROUNDEDRECTD36*
21,1,1.5000,0.9750,0,0,90.0*
21,1,1.1750,1.3000,0,0,90.0*
1,1,0.3250,0.4875,0.5875*
1,1,0.3250,0.4875,-0.5875*
1,1,0.3250,-0.4875,-0.5875*
1,1,0.3250,-0.4875,0.5875*
%
%ADD36ROUNDEDRECTD36*%
%ADD37R,0.6500X1.0500*%
G04:AMPARAMS|DCode=38|XSize=0.9mm|YSize=0.8mm|CornerRadius=0.1mm|HoleSize=0mm|Usage=FLASHONLY|Rotation=180.000|XOffset=0mm|YOffset=0mm|HoleType=Round|Shape=RoundedRectangle|*
%AMROUNDEDRECTD38*
21,1,0.9000,0.6000,0,0,180.0*
21,1,0.7000,0.8000,0,0,180.0*
1,1,0.2000,-0.3500,0.3000*
1,1,0.2000,0.3500,0.3000*
1,1,0.2000,0.3500,-0.3000*
1,1,0.2000,-0.3500,-0.3000*
%
%ADD38ROUNDEDRECTD38*%
G04:AMPARAMS|DCode=40|XSize=1mm|YSize=5.5mm|CornerRadius=0.125mm|HoleSize=0mm|Usage=FLASHONLY|Rotation=90.000|XOffset=0mm|YOffset=0mm|HoleType=Round|Shape=RoundedRectangle|*
%AMROUNDEDRECTD40*
21,1,1.0000,5.2500,0,0,90.0*
21,1,0.7500,5.5000,0,0,90.0*
1,1,0.2500,2.6250,0.3750*
1,1,0.2500,2.6250,-0.3750*
1,1,0.2500,-2.6250,-0.3750*
1,1,0.2500,-2.6250,0.3750*
%
%ADD40ROUNDEDRECTD40*%
G04:AMPARAMS|DCode=41|XSize=1.6mm|YSize=3mm|CornerRadius=0.2mm|HoleSize=0mm|Usage=FLASHONLY|Rotation=90.000|XOffset=0mm|YOffset=0mm|HoleType=Round|Shape=RoundedRectangle|*
%AMROUNDEDRECTD41*
21,1,1.6000,2.6000,0,0,90.0*
21,1,1.2000,3.0000,0,0,90.0*
1,1,0.4000,1.3000,0.6000*
1,1,0.4000,1.3000,-0.6000*
1,1,0.4000,-1.3000,-0.6000*
1,1,0.4000,-1.3000,0.6000*
%
%ADD41ROUNDEDRECTD41*%
G04:AMPARAMS|DCode=42|XSize=1.9mm|YSize=1.2mm|CornerRadius=0.15mm|HoleSize=0mm|Usage=FLASHONLY|Rotation=90.000|XOffset=0mm|YOffset=0mm|HoleType=Round|Shape=RoundedRectangle|*
%AMROUNDEDRECTD42*
21,1,1.9000,0.9000,0,0,90.0*
21,1,1.6000,1.2000,0,0,90.0*
1,1,0.3000,0.4500,0.8000*
1,1,0.3000,0.4500,-0.8000*
1,1,0.3000,-0.4500,-0.8000*
1,1,0.3000,-0.4500,0.8000*
%
%ADD42ROUNDEDRECTD42*%
G04:AMPARAMS|DCode=45|XSize=1.5mm|YSize=1.3mm|CornerRadius=0.1625mm|HoleSize=0mm|Usage=FLASHONLY|Rotation=180.000|XOffset=0mm|YOffset=0mm|HoleType=Round|Shape=RoundedRectangle|*
%AMROUNDEDRECTD45*
21,1,1.5000,0.9750,0,0,180.0*
21,1,1.1750,1.3000,0,0,180.0*
1,1,0.3250,-0.5875,0.4875*
1,1,0.3250,0.5875,0.4875*
1,1,0.3250,0.5875,-0.4875*
1,1,0.3250,-0.5875,-0.4875*
%
%ADD45ROUNDEDRECTD45*%
G04:AMPARAMS|DCode=46|XSize=1.01mm|YSize=1.47mm|CornerRadius=0.1263mm|HoleSize=0mm|Usage=FLASHONLY|Rotation=90.000|XOffset=0mm|YOffset=0mm|HoleType=Round|Shape=RoundedRectangle|*
%AMROUNDEDRECTD46*
21,1,1.0100,1.2175,0,0,90.0*
21,1,0.7575,1.4700,0,0,90.0*
1,1,0.2525,0.6088,0.3787*
1,1,0.2525,0.6088,-0.3787*
1,1,0.2525,-0.6088,-0.3787*
1,1,0.2525,-0.6088,0.3787*
%
%ADD46ROUNDEDRECTD46*%
G04:AMPARAMS|DCode=47|XSize=1.5mm|YSize=1.3mm|CornerRadius=0.325mm|HoleSize=0mm|Usage=FLASHONLY|Rotation=90.000|XOffset=0mm|YOffset=0mm|HoleType=Round|Shape=RoundedRectangle|*
%AMROUNDEDRECTD47*
21,1,1.5000,0.6500,0,0,90.0*
21,1,0.8500,1.3000,0,0,90.0*
1,1,0.6500,0.3250,0.4250*
1,1,0.6500,0.3250,-0.4250*
1,1,0.6500,-0.3250,-0.4250*
1,1,0.6500,-0.3250,0.4250*
%
%ADD47ROUNDEDRECTD47*%
G04:AMPARAMS|DCode=48|XSize=0.7399mm|YSize=2.7899mm|CornerRadius=0.185mm|HoleSize=0mm|Usage=FLASHONLY|Rotation=270.000|XOffset=0mm|YOffset=0mm|HoleType=Round|Shape=RoundedRectangle|*
%AMROUNDEDRECTD48*
21,1,0.7399,2.4200,0,0,270.0*
21,1,0.3700,2.7899,0,0,270.0*
1,1,0.3700,-1.2100,-0.1850*
1,1,0.3700,-1.2100,0.1850*
1,1,0.3700,1.2100,0.1850*
1,1,0.3700,1.2100,-0.1850*
%
%ADD48ROUNDEDRECTD48*%
G04:AMPARAMS|DCode=49|XSize=2.2mm|YSize=2.7mm|CornerRadius=0.275mm|HoleSize=0mm|Usage=FLASHONLY|Rotation=90.000|XOffset=0mm|YOffset=0mm|HoleType=Round|Shape=RoundedRectangle|*
%AMROUNDEDRECTD49*
21,1,2.2000,2.1500,0,0,90.0*
21,1,1.6500,2.7000,0,0,90.0*
1,1,0.5500,1.0750,0.8250*
1,1,0.5500,1.0750,-0.8250*
1,1,0.5500,-1.0750,-0.8250*
1,1,0.5500,-1.0750,0.8250*
%
%ADD49ROUNDEDRECTD49*%
G04:AMPARAMS|DCode=50|XSize=0.3mm|YSize=0.63mm|CornerRadius=0.03mm|HoleSize=0mm|Usage=FLASHONLY|Rotation=90.000|XOffset=0mm|YOffset=0mm|HoleType=Round|Shape=RoundedRectangle|*
%AMROUNDEDRECTD50*
21,1,0.3000,0.5700,0,0,90.0*
21,1,0.2400,0.6300,0,0,90.0*
1,1,0.0600,0.2850,0.1200*
1,1,0.0600,0.2850,-0.1200*
1,1,0.0600,-0.2850,-0.1200*
1,1,0.0600,-0.2850,0.1200*
%
%ADD50ROUNDEDRECTD50*%
G04:AMPARAMS|DCode=51|XSize=3.3mm|YSize=0.45mm|CornerRadius=0.045mm|HoleSize=0mm|Usage=FLASHONLY|Rotation=90.000|XOffset=0mm|YOffset=0mm|HoleType=Round|Shape=RoundedRectangle|*
%AMROUNDEDRECTD51*
21,1,3.3000,0.3600,0,0,90.0*
21,1,3.2100,0.4500,0,0,90.0*
1,1,0.0900,0.1800,1.6050*
1,1,0.0900,0.1800,-1.6050*
1,1,0.0900,-0.1800,-1.6050*
1,1,0.0900,-0.1800,1.6050*
%
%ADD51ROUNDEDRECTD51*%
G04:AMPARAMS|DCode=52|XSize=0.9906mm|YSize=1.0922mm|CornerRadius=0.2477mm|HoleSize=0mm|Usage=FLASHONLY|Rotation=90.000|XOffset=0mm|YOffset=0mm|HoleType=Round|Shape=RoundedRectangle|*
%AMROUNDEDRECTD52*
21,1,0.9906,0.5969,0,0,90.0*
21,1,0.4953,1.0922,0,0,90.0*
1,1,0.4953,0.2985,0.2477*
1,1,0.4953,0.2985,-0.2477*
1,1,0.4953,-0.2985,-0.2477*
1,1,0.4953,-0.2985,0.2477*
%
%ADD52ROUNDEDRECTD52*%
%ADD53R,1.1000X1.9000*%
G04:AMPARAMS|DCode=54|XSize=0.25mm|YSize=0.575mm|CornerRadius=0.0313mm|HoleSize=0mm|Usage=FLASHONLY|Rotation=0.000|XOffset=0mm|YOffset=0mm|HoleType=Round|Shape=RoundedRectangle|*
%AMROUNDEDRECTD54*
21,1,0.2500,0.5125,0,0,0.0*
21,1,0.1875,0.5750,0,0,0.0*
1,1,0.0625,0.0938,-0.2563*
1,1,0.0625,-0.0938,-0.2563*
1,1,0.0625,-0.0938,0.2563*
1,1,0.0625,0.0938,0.2563*
%
%ADD54ROUNDEDRECTD54*%
G04:AMPARAMS|DCode=55|XSize=0.675mm|YSize=0.25mm|CornerRadius=0.0313mm|HoleSize=0mm|Usage=FLASHONLY|Rotation=0.000|XOffset=0mm|YOffset=0mm|HoleType=Round|Shape=RoundedRectangle|*
%AMROUNDEDRECTD55*
21,1,0.6750,0.1875,0,0,0.0*
21,1,0.6125,0.2500,0,0,0.0*
1,1,0.0625,0.3063,-0.0938*
1,1,0.0625,-0.3063,-0.0938*
1,1,0.0625,-0.3063,0.0938*
1,1,0.0625,0.3063,0.0938*
%
%ADD55ROUNDEDRECTD55*%
G04:AMPARAMS|DCode=56|XSize=0.25mm|YSize=0.5mm|CornerRadius=0.05mm|HoleSize=0mm|Usage=FLASHONLY|Rotation=180.000|XOffset=0mm|YOffset=0mm|HoleType=Round|Shape=RoundedRectangle|*
%AMROUNDEDRECTD56*
21,1,0.2500,0.4000,0,0,180.0*
21,1,0.1500,0.5000,0,0,180.0*
1,1,0.1000,-0.0750,0.2000*
1,1,0.1000,0.0750,0.2000*
1,1,0.1000,0.0750,-0.2000*
1,1,0.1000,-0.0750,-0.2000*
%
%ADD56ROUNDEDRECTD56*%
%ADD57R,1.0500X0.6500*%
G04:AMPARAMS|DCode=70|XSize=1.6637mm|YSize=1.6637mm|CornerRadius=0.0499mm|HoleSize=0mm|Usage=FLASHONLY|Rotation=0.000|XOffset=0mm|YOffset=0mm|HoleType=Round|Shape=RoundedRectangle|*
%AMROUNDEDRECTD70*
21,1,1.6637,1.5639,0,0,0.0*
21,1,1.5639,1.6637,0,0,0.0*
1,1,0.0998,0.7819,-0.7819*
1,1,0.0998,-0.7819,-0.7819*
1,1,0.0998,-0.7819,0.7819*
1,1,0.0998,0.7819,0.7819*
%
%ADD70ROUNDEDRECTD70*%
G04:AMPARAMS|DCode=81|XSize=0.65mm|YSize=0.25mm|CornerRadius=0.0625mm|HoleSize=0mm|Usage=FLASHONLY|Rotation=90.000|XOffset=0mm|YOffset=0mm|HoleType=Round|Shape=RoundedRectangle|*
%AMROUNDEDRECTD81*
21,1,0.6500,0.1250,0,0,90.0*
21,1,0.5250,0.2500,0,0,90.0*
1,1,0.1250,0.0625,0.2625*
1,1,0.1250,0.0625,-0.2625*
1,1,0.1250,-0.0625,-0.2625*
1,1,0.1250,-0.0625,0.2625*
%
%ADD81ROUNDEDRECTD81*%
%ADD103C,0.5000*%
%ADD105C,1.0160*%
G04:AMPARAMS|DCode=106|XSize=0.7mm|YSize=0.6mm|CornerRadius=0.15mm|HoleSize=0mm|Usage=FLASHONLY|Rotation=270.000|XOffset=0mm|YOffset=0mm|HoleType=Round|Shape=RoundedRectangle|*
%AMROUNDEDRECTD106*
21,1,0.7000,0.3000,0,0,270.0*
21,1,0.4000,0.6000,0,0,270.0*
1,1,0.3000,-0.1500,-0.2000*
1,1,0.3000,-0.1500,0.2000*
1,1,0.3000,0.1500,0.2000*
1,1,0.3000,0.1500,-0.2000*
%
%ADD106ROUNDEDRECTD106*%
G04:AMPARAMS|DCode=107|XSize=0.7mm|YSize=1mm|CornerRadius=0.175mm|HoleSize=0mm|Usage=FLASHONLY|Rotation=270.000|XOffset=0mm|YOffset=0mm|HoleType=Round|Shape=RoundedRectangle|*
%AMROUNDEDRECTD107*
21,1,0.7000,0.6500,0,0,270.0*
21,1,0.3500,1.0000,0,0,270.0*
1,1,0.3500,-0.3250,-0.1750*
1,1,0.3500,-0.3250,0.1750*
1,1,0.3500,0.3250,0.1750*
1,1,0.3500,0.3250,-0.1750*
%
%ADD107ROUNDEDRECTD107*%
%AMCUSTOMSHAPE108*
4,1,5,1.2500,0.8500,1.2500,-0.8500,-0.7400,-0.8500,-1.2500,-0.3400,-1.2500,0.8500,1.2500,0.8500,0.0*%
%ADD108CUSTOMSHAPE108*%

G04:AMPARAMS|DCode=109|XSize=0.8128mm|YSize=1.016mm|CornerRadius=0.2032mm|HoleSize=0mm|Usage=FLASHONLY|Rotation=270.000|XOffset=0mm|YOffset=0mm|HoleType=Round|Shape=RoundedRectangle|*
%AMROUNDEDRECTD109*
21,1,0.8128,0.6096,0,0,270.0*
21,1,0.4064,1.0160,0,0,270.0*
1,1,0.4064,-0.3048,-0.2032*
1,1,0.4064,-0.3048,0.2032*
1,1,0.4064,0.3048,0.2032*
1,1,0.4064,0.3048,-0.2032*
%
%ADD109ROUNDEDRECTD109*%
G04:AMPARAMS|DCode=110|XSize=0.8128mm|YSize=1.016mm|CornerRadius=0.2032mm|HoleSize=0mm|Usage=FLASHONLY|Rotation=0.000|XOffset=0mm|YOffset=0mm|HoleType=Round|Shape=RoundedRectangle|*
%AMROUNDEDRECTD110*
21,1,0.8128,0.6096,0,0,0.0*
21,1,0.4064,1.0160,0,0,0.0*
1,1,0.4064,0.2032,-0.3048*
1,1,0.4064,-0.2032,-0.3048*
1,1,0.4064,-0.2032,0.3048*
1,1,0.4064,0.2032,0.3048*
%
%ADD110ROUNDEDRECTD110*%
G04:AMPARAMS|DCode=111|XSize=0.9mm|YSize=1.6mm|CornerRadius=0.0495mm|HoleSize=0mm|Usage=FLASHONLY|Rotation=90.000|XOffset=0mm|YOffset=0mm|HoleType=Round|Shape=RoundedRectangle|*
%AMROUNDEDRECTD111*
21,1,0.9000,1.5010,0,0,90.0*
21,1,0.8010,1.6000,0,0,90.0*
1,1,0.0990,0.7505,0.4005*
1,1,0.0990,0.7505,-0.4005*
1,1,0.0990,-0.7505,-0.4005*
1,1,0.0990,-0.7505,0.4005*
%
%ADD111ROUNDEDRECTD111*%
%ADD112C,0.5080*%
%ADD113C,0.2540*%
%ADD114C,0.2032*%
%ADD115C,0.1524*%
%ADD116C,0.3810*%
%ADD117C,0.3556*%
%ADD118C,0.3341*%
%ADD119C,0.6350*%
%ADD120R,1.2236X2.1835*%
%ADD121R,6.1794X0.8855*%
%ADD122R,1.3988X0.6040*%
%ADD123C,0.9000*%
%ADD124O,0.9000X1.7000*%
%ADD125O,1.4600X1.0000*%
%ADD126O,1.8000X1.0000*%
%ADD127C,3.6000*%
%ADD128C,0.7620*%
%ADD129C,0.6000*%
G36*
X216184Y585519D02*
Y580439D01*
X208564D01*
X213644Y585519D01*
X208564Y590599D01*
X216057D01*
X216184Y585519D01*
D02*
G37*
G36*
X211104D02*
X206024Y580439D01*
X202913D01*
Y590599D01*
X206024D01*
X211104Y585519D01*
D02*
G37*
G36*
X257115Y577581D02*
X252035Y582661D01*
X246955Y577581D01*
Y585074D01*
X252035Y585201D01*
X257115D01*
Y577581D01*
D02*
G37*
G36*
Y575041D02*
Y571929D01*
X246955D01*
Y575041D01*
X252035Y580121D01*
X257115Y575041D01*
D02*
G37*
G36*
X161401Y592631D02*
X156743Y587973D01*
X155735Y587300D01*
X155735Y587300D01*
X152180Y583744D01*
X151507Y582737D01*
X149747Y580977D01*
X148156D01*
X147026Y580752D01*
X146068Y580112D01*
X145429Y579155D01*
X145204Y578025D01*
Y569733D01*
X141345Y565874D01*
X140363Y564404D01*
X140018Y562669D01*
Y545572D01*
X135642Y541197D01*
X132427D01*
X131732Y542235D01*
X130262Y543218D01*
X129573Y543355D01*
X128545Y543726D01*
X128652Y544734D01*
X128748Y545219D01*
Y550172D01*
X128457Y551634D01*
X127629Y552873D01*
X126390Y553701D01*
X125046Y553969D01*
Y558864D01*
X125387Y559005D01*
X126588Y560206D01*
X127239Y561776D01*
Y562051D01*
X128272Y562868D01*
X128436Y562800D01*
X130134D01*
X131704Y563450D01*
X132905Y564651D01*
X133555Y566221D01*
Y567919D01*
X133332Y568458D01*
X133756Y569093D01*
X133954Y570084D01*
Y578717D01*
X139352D01*
X140335Y578913D01*
X141169Y579469D01*
X141726Y580303D01*
X141921Y581286D01*
Y588786D01*
X141726Y589770D01*
X141169Y590603D01*
X140335Y591160D01*
X139352Y591356D01*
X135702D01*
X135593Y591429D01*
X134602Y591626D01*
X133611Y591429D01*
X133501Y591356D01*
X130852D01*
X129869Y591160D01*
X129035Y590603D01*
X128478Y589770D01*
X128282Y588786D01*
Y581286D01*
X128478Y580303D01*
X128774Y579860D01*
Y571340D01*
X128436D01*
X126866Y570690D01*
X125665Y569489D01*
X125015Y567919D01*
Y567645D01*
X123982Y566827D01*
X123818Y566895D01*
X122119D01*
X120550Y566245D01*
X119349Y565044D01*
X118699Y563474D01*
Y561776D01*
X119349Y560206D01*
X119866Y559689D01*
Y553992D01*
X118959D01*
X117497Y553701D01*
X117243Y553532D01*
X115974Y554211D01*
Y572384D01*
X116148Y573260D01*
Y578717D01*
X122352D01*
X123335Y578913D01*
X124169Y579469D01*
X124726Y580303D01*
X124921Y581286D01*
Y588786D01*
X124726Y589770D01*
X124169Y590603D01*
X123335Y591160D01*
X122352Y591356D01*
X119795D01*
X119093Y591825D01*
X118102Y592022D01*
X117243Y591851D01*
X116993Y591905D01*
X115974Y592593D01*
Y593901D01*
X160875D01*
X161401Y592631D01*
D02*
G37*
G36*
X245620Y585170D02*
X245580Y585074D01*
Y577581D01*
X245580Y577581D01*
X245982Y576609D01*
X245707Y575348D01*
X245580Y575041D01*
X245580Y575041D01*
Y571929D01*
X245620Y571833D01*
Y567929D01*
X245876Y566640D01*
X246606Y565548D01*
X247502Y564949D01*
Y560434D01*
X247706Y559413D01*
X246628Y558413D01*
X246522Y558428D01*
X245892Y558849D01*
X245149Y558997D01*
X244406Y558849D01*
X243775Y558428D01*
X243062Y557715D01*
X242641Y557085D01*
X242493Y556341D01*
X242641Y555598D01*
X243062Y554968D01*
X243692Y554547D01*
X244435Y554399D01*
X245179Y554547D01*
X245809Y554968D01*
X246522Y555681D01*
X246943Y556312D01*
X247059Y556895D01*
X247091Y557055D01*
X247094Y557110D01*
X247144Y557528D01*
X248379Y557904D01*
X248830Y557230D01*
X254247Y551812D01*
X255718Y550830D01*
X257452Y550485D01*
X257774Y550215D01*
X257604Y541197D01*
X249193D01*
X248205Y542467D01*
X248340Y543147D01*
Y543909D01*
X247315D01*
X247201Y544182D01*
X246229Y544585D01*
X241149D01*
X236069D01*
X235096Y544182D01*
X234983Y543909D01*
X233957D01*
Y543147D01*
X234093Y542467D01*
X233105Y541197D01*
X216240D01*
Y562995D01*
X216043Y563986D01*
X215481Y564826D01*
X213729Y566579D01*
X213839Y567134D01*
Y572087D01*
X213548Y573548D01*
X212720Y574788D01*
X211481Y575616D01*
X210019Y575906D01*
X204050D01*
X202588Y575616D01*
X201349Y574788D01*
X200521Y573548D01*
X200230Y572087D01*
Y567134D01*
X200521Y565672D01*
X201349Y564432D01*
X202588Y563605D01*
X204050Y563314D01*
X209668D01*
X211060Y561922D01*
Y541197D01*
X192981D01*
Y563314D01*
X193019D01*
X194481Y563605D01*
X195720Y564432D01*
X196548Y565672D01*
X196839Y567134D01*
Y572087D01*
X196548Y573548D01*
X195720Y574788D01*
X194481Y575616D01*
X193019Y575906D01*
X187050D01*
X185588Y575616D01*
X184349Y574788D01*
X183521Y573548D01*
X183230Y572087D01*
Y567134D01*
X183521Y565672D01*
X184349Y564432D01*
X185588Y563605D01*
X187050Y563314D01*
X188319D01*
Y541197D01*
X149638D01*
X148838Y542467D01*
X149082Y543695D01*
X149082Y543695D01*
Y560792D01*
X151613Y563323D01*
X157906D01*
X159035Y563548D01*
X159993Y564188D01*
X160633Y565145D01*
X160857Y566275D01*
Y578025D01*
X160633Y579155D01*
X160543Y579289D01*
X161472Y580217D01*
X162479Y580890D01*
X166100Y584511D01*
X166662Y584456D01*
X167731Y583719D01*
Y582219D01*
X167804Y582044D01*
X166893Y580924D01*
X166026Y580752D01*
X165068Y580112D01*
X164429Y579155D01*
X164204Y578025D01*
Y574733D01*
X163937Y574333D01*
X163740Y573342D01*
Y572150D01*
X163937Y571159D01*
X164204Y570759D01*
Y566275D01*
X164429Y565145D01*
X165068Y564188D01*
X166026Y563548D01*
X167156Y563323D01*
X176906D01*
X178035Y563548D01*
X178993Y564188D01*
X179633Y565145D01*
X179857Y566275D01*
Y578025D01*
X179633Y579155D01*
X178993Y580112D01*
X178035Y580752D01*
X176906Y580977D01*
X175900D01*
X175194Y582033D01*
X175271Y582219D01*
Y583719D01*
X175109Y584112D01*
X175957Y585382D01*
X195545D01*
Y582471D01*
X195802Y581183D01*
X196532Y580090D01*
X197624Y579361D01*
X198912Y579104D01*
X202816D01*
X202913Y579064D01*
X206024D01*
X206024Y579064D01*
X206332Y579192D01*
X207304Y579404D01*
X208169Y579228D01*
X208564Y579064D01*
X208564Y579064D01*
X216184D01*
X216281Y579104D01*
X220121D01*
X221409Y579361D01*
X222502Y580090D01*
X223232Y581183D01*
X223488Y582471D01*
Y586182D01*
X233084D01*
Y578973D01*
X232762Y577748D01*
X230755D01*
X228817Y577228D01*
X227080Y576225D01*
X225661Y574806D01*
X224658Y573069D01*
X224138Y571131D01*
Y569124D01*
X224658Y567186D01*
X225661Y565449D01*
X227080Y564030D01*
X228817Y563027D01*
X230755Y562508D01*
X232762D01*
X234700Y563027D01*
X236437Y564030D01*
X237856Y565449D01*
X238859Y567186D01*
X239378Y569124D01*
Y571131D01*
X238859Y573069D01*
X237856Y574806D01*
X237622Y575040D01*
X238066Y575704D01*
X238263Y576696D01*
Y586425D01*
X245620D01*
Y585170D01*
D02*
G37*
G36*
X246229Y540098D02*
X241149Y535019D01*
X236069Y540098D01*
Y543210D01*
X246229D01*
Y540098D01*
D02*
G37*
G36*
Y530065D02*
X241149Y529939D01*
X236069D01*
Y537559D01*
X241149Y532478D01*
X246229Y537559D01*
Y530065D01*
D02*
G37*
G36*
X256810Y496408D02*
X256225Y496017D01*
X255417Y494808D01*
X255133Y493381D01*
Y483631D01*
X255417Y482204D01*
X256225Y480994D01*
X256810Y480603D01*
Y478816D01*
X249143D01*
X248965Y479046D01*
X249247Y480762D01*
X249311Y480805D01*
X250119Y482014D01*
X250403Y483441D01*
Y487047D01*
X240800D01*
X231196D01*
Y483441D01*
X231480Y482014D01*
X232288Y480805D01*
X232353Y480762D01*
X232634Y479046D01*
X232457Y478816D01*
X198889D01*
X198785Y479340D01*
X198225Y480178D01*
X197388Y480737D01*
X196920Y480831D01*
Y476352D01*
X194380D01*
Y480835D01*
X193115Y481616D01*
Y507229D01*
X193846Y507961D01*
X194420Y509346D01*
Y510846D01*
X193846Y512232D01*
X193115Y512963D01*
Y538267D01*
X234221D01*
X234694Y537559D01*
Y532282D01*
X234273Y531651D01*
X233957Y530065D01*
Y529304D01*
X234957D01*
X235096Y528966D01*
X236069Y528563D01*
X241149D01*
X241166Y528570D01*
X241183Y528564D01*
X246263Y528691D01*
X246730Y528898D01*
X247201Y529093D01*
X247208Y529110D01*
X247225Y529118D01*
X247297Y529304D01*
X248340D01*
Y530065D01*
X248025Y531651D01*
X247603Y532282D01*
Y537559D01*
X248077Y538267D01*
X256810D01*
Y496408D01*
D02*
G37*
G36*
X21239Y496513D02*
X16158Y501593D01*
X11078Y496513D01*
Y504006D01*
X16158Y504133D01*
X21239D01*
Y496513D01*
D02*
G37*
G36*
Y493973D02*
Y490861D01*
X11078D01*
Y493973D01*
X16158Y499053D01*
X21239Y493973D01*
D02*
G37*
G36*
X185650Y487260D02*
X140265D01*
Y533097D01*
X140555Y533291D01*
X144208Y536944D01*
X185650D01*
Y487260D01*
D02*
G37*
G36*
X44332Y484808D02*
X39252Y489888D01*
X34172Y484808D01*
Y492300D01*
X39252Y492427D01*
X44332D01*
Y484808D01*
D02*
G37*
G36*
Y482267D02*
Y479156D01*
X34172D01*
Y482267D01*
X39252Y487347D01*
X44332Y482267D01*
D02*
G37*
G36*
X478484Y435676D02*
X469237D01*
X468493Y435529D01*
X467863Y435108D01*
X463628Y430873D01*
X462551Y431592D01*
X462618Y431753D01*
Y433252D01*
X462044Y434638D01*
X461804Y434878D01*
X469694Y442768D01*
X470256Y443608D01*
X470318Y443923D01*
X470804Y444053D01*
X472542Y445056D01*
X473960Y446475D01*
X474964Y448212D01*
X475483Y450150D01*
Y452157D01*
X474964Y454095D01*
X473960Y455832D01*
X472542Y457251D01*
X470804Y458254D01*
X468866Y458774D01*
X466860D01*
X464922Y458254D01*
X463184Y457251D01*
X461765Y455832D01*
X460762Y454095D01*
X460243Y452157D01*
Y450150D01*
X460762Y448212D01*
X461765Y446475D01*
X463184Y445056D01*
X463215Y445038D01*
X463381Y443779D01*
X457017Y437415D01*
X456455Y436575D01*
X456258Y435584D01*
Y435244D01*
X455652Y434638D01*
X455078Y433252D01*
Y431753D01*
X455652Y430367D01*
X456712Y429306D01*
X458098Y428732D01*
X459598D01*
X459758Y428799D01*
X460478Y427722D01*
X454186Y421430D01*
X450139D01*
Y424258D01*
X435599D01*
Y414718D01*
X450139D01*
Y417546D01*
X454990D01*
X455733Y417693D01*
X456364Y418114D01*
X470041Y431792D01*
X478484D01*
Y427396D01*
X477905Y427062D01*
X477214Y426813D01*
X475428Y427291D01*
X473422D01*
X471484Y426772D01*
X469746Y425769D01*
X468327Y424350D01*
X467324Y422612D01*
X466805Y420674D01*
Y418668D01*
X467282Y416886D01*
X467111Y416441D01*
X466501Y415616D01*
X460757D01*
X460014Y415468D01*
X459384Y415047D01*
X453767Y409430D01*
X450139D01*
Y412258D01*
X435599D01*
Y402718D01*
X450139D01*
Y405546D01*
X454571D01*
X455314Y405693D01*
X455945Y406114D01*
X461562Y411732D01*
X468428D01*
X469171Y411880D01*
X469801Y412300D01*
X470588Y413087D01*
X471484Y412570D01*
X473422Y412051D01*
X475428D01*
X477214Y412529D01*
X477905Y412280D01*
X478484Y411946D01*
Y394406D01*
X476472D01*
X476392Y394599D01*
X475331Y395660D01*
X473946Y396234D01*
X472446D01*
X471060Y395660D01*
X470000Y394599D01*
X469426Y393214D01*
Y391714D01*
X470000Y390328D01*
X471060Y389268D01*
X472446Y388694D01*
X473946D01*
X475331Y389268D01*
X476392Y390328D01*
X476472Y390522D01*
X478484D01*
Y371951D01*
X477460Y371586D01*
X477214Y371572D01*
X475849Y372937D01*
X474111Y373940D01*
X472173Y374459D01*
X470167D01*
X468229Y373940D01*
X467333Y373423D01*
X460400Y380355D01*
X460466Y380685D01*
X461526Y381746D01*
X462100Y383131D01*
Y384631D01*
X461526Y386017D01*
X460466Y387077D01*
X460423Y387095D01*
Y394500D01*
X460767Y394643D01*
X461828Y395703D01*
X462402Y397089D01*
Y398589D01*
X461828Y399974D01*
X460767Y401035D01*
X459382Y401609D01*
X457882D01*
X456496Y401035D01*
X455436Y399974D01*
X454862Y398589D01*
Y397089D01*
X455436Y395703D01*
X456496Y394643D01*
X456539Y394625D01*
Y387220D01*
X456195Y387077D01*
X455134Y386017D01*
X454560Y384631D01*
Y383131D01*
X454744Y382688D01*
X453895Y381418D01*
X450186D01*
X450139Y381465D01*
Y388258D01*
X443859D01*
X443613Y388423D01*
X442869Y388570D01*
X329773D01*
Y439234D01*
X329967Y439314D01*
X331027Y440374D01*
X331601Y441760D01*
Y443260D01*
X331027Y444645D01*
X329967Y445706D01*
X328581Y446280D01*
X327081D01*
X325696Y445706D01*
X324635Y444645D01*
X324061Y443260D01*
Y441760D01*
X324635Y440374D01*
X325696Y439314D01*
X325889Y439234D01*
Y386628D01*
X326037Y385885D01*
X326458Y385255D01*
X327088Y384834D01*
X327831Y384686D01*
X435599D01*
Y378718D01*
X446692D01*
X447054Y378290D01*
X446465Y377020D01*
X444139D01*
Y372758D01*
X450901D01*
Y376264D01*
X450901Y377020D01*
X451958Y377534D01*
X457728D01*
X464586Y370676D01*
X464069Y369780D01*
X463550Y367842D01*
Y365836D01*
X464069Y363898D01*
X465073Y362160D01*
X466491Y360741D01*
X468229Y359738D01*
X470167Y359219D01*
X472173D01*
X474111Y359738D01*
X475849Y360741D01*
X477214Y362106D01*
X477460Y362092D01*
X478484Y361727D01*
Y350543D01*
X475396Y347455D01*
X474975Y346825D01*
X474827Y346082D01*
Y345339D01*
X466918Y337430D01*
X460523D01*
X460270Y338700D01*
X460767Y338906D01*
X461828Y339967D01*
X462402Y341352D01*
Y342852D01*
X461828Y344238D01*
X460767Y345298D01*
X459382Y345872D01*
X458524D01*
X455343Y349053D01*
X454503Y349615D01*
X453512Y349812D01*
X450139D01*
Y352258D01*
X435599D01*
Y342718D01*
X450139D01*
Y344632D01*
X452439D01*
X454862Y342210D01*
Y341352D01*
X455436Y339967D01*
X456496Y338906D01*
X456993Y338700D01*
X456740Y337430D01*
X450139D01*
Y340258D01*
X435599D01*
Y330718D01*
X450139D01*
Y333546D01*
X467722D01*
X468465Y333693D01*
X469096Y334114D01*
X474593Y339612D01*
X475767Y339126D01*
Y315833D01*
X473796Y313862D01*
X472623Y314348D01*
Y316733D01*
X472475Y317476D01*
X472054Y318106D01*
X465298Y324861D01*
X464668Y325282D01*
X463925Y325430D01*
X450139D01*
Y328258D01*
X435599D01*
Y318718D01*
X450139D01*
Y321546D01*
X463120D01*
X468738Y315928D01*
Y306069D01*
X467468Y305254D01*
X466625Y305604D01*
X464926D01*
X463357Y304953D01*
X462155Y303752D01*
X461952Y303261D01*
X450139D01*
Y304258D01*
X435599D01*
Y294718D01*
X450139D01*
Y298082D01*
X462989D01*
X463357Y297714D01*
X464926Y297064D01*
X466625D01*
X467468Y297413D01*
X468738Y296598D01*
Y262676D01*
X468886Y261933D01*
X469307Y261302D01*
X474005Y256604D01*
X473479Y255334D01*
X471233D01*
X469772Y255044D01*
X468532Y254216D01*
X468008Y253430D01*
X463654D01*
X452223Y264861D01*
X451593Y265282D01*
X450850Y265430D01*
X450139D01*
Y268258D01*
X435599D01*
Y258718D01*
X450139D01*
Y259792D01*
X451313Y260278D01*
X461476Y250115D01*
X461476Y250115D01*
X462107Y249694D01*
X462850Y249546D01*
X467414D01*
Y245546D01*
X467704Y244084D01*
X468532Y242844D01*
X469772Y242016D01*
X471233Y241726D01*
X476186D01*
X477214Y241930D01*
X478484Y241163D01*
Y238897D01*
X477214Y238130D01*
X476186Y238334D01*
X471233D01*
X469772Y238044D01*
X468532Y237216D01*
X467704Y235976D01*
X467414Y234515D01*
Y228545D01*
X467704Y227084D01*
X468532Y225844D01*
X469372Y225283D01*
X468987Y224013D01*
X443551D01*
X439028Y228536D01*
X439554Y229806D01*
X440601D01*
Y244346D01*
X431061D01*
Y234252D01*
X430353Y233959D01*
X429791Y233838D01*
X429235Y234209D01*
X428601Y234336D01*
Y244346D01*
X419061D01*
Y229806D01*
X428354D01*
X428484Y229676D01*
Y227549D01*
X428632Y226806D01*
X429053Y226176D01*
X438555Y216674D01*
X438502Y216404D01*
Y208904D01*
X438697Y207921D01*
X439254Y207088D01*
X440088Y206531D01*
X441071Y206335D01*
X444089D01*
X444109Y206304D01*
X443426Y205037D01*
X443419Y205035D01*
X428017D01*
Y206659D01*
X430325D01*
X431308Y206855D01*
X432142Y207412D01*
X432699Y208245D01*
X432895Y209228D01*
Y216728D01*
X432699Y217712D01*
X432142Y218545D01*
X431308Y219102D01*
X430325Y219298D01*
X423978D01*
X423903Y219677D01*
X423482Y220307D01*
X415156Y228633D01*
X415642Y229806D01*
X416601D01*
Y244346D01*
X407061D01*
Y229806D01*
X409889D01*
Y229211D01*
X410037Y228467D01*
X410458Y227837D01*
X419905Y218390D01*
X419451Y217712D01*
X419256Y216728D01*
Y209228D01*
X419451Y208245D01*
X420008Y207412D01*
X420842Y206855D01*
X421825Y206659D01*
X424133D01*
Y205035D01*
X415078D01*
X414857Y206304D01*
X415691Y206862D01*
X416417Y207948D01*
X416671Y209228D01*
Y211708D01*
X409075D01*
X401479D01*
Y209228D01*
X401734Y207948D01*
X402459Y206862D01*
X403294Y206304D01*
X403072Y205035D01*
X399175D01*
X392058Y212151D01*
Y224056D01*
X397808Y229806D01*
X404601D01*
Y244346D01*
X395061D01*
Y232553D01*
X393774Y231266D01*
X392601Y231752D01*
Y244346D01*
X383061D01*
Y229806D01*
X384366D01*
Y205035D01*
X377774D01*
Y229806D01*
X380601D01*
Y244346D01*
X371061D01*
Y229806D01*
X373889D01*
Y205226D01*
X348739D01*
X348597Y205321D01*
X347380Y205563D01*
X341773D01*
Y218051D01*
X341967Y218131D01*
X343027Y219191D01*
X343601Y220577D01*
Y222077D01*
X343027Y223462D01*
X341967Y224523D01*
X340581Y225097D01*
X339081D01*
X337696Y224523D01*
X336635Y223462D01*
X336061Y222077D01*
Y220577D01*
X336635Y219191D01*
X337696Y218131D01*
X337889Y218051D01*
Y205563D01*
X323180D01*
X321963Y205321D01*
X321534Y205035D01*
X308386D01*
X307957Y205321D01*
X306740Y205563D01*
X291513D01*
Y212971D01*
X291896Y213354D01*
X292546Y214923D01*
Y216622D01*
X291896Y218191D01*
X291513Y218574D01*
Y222877D01*
X291896Y223260D01*
X292546Y224829D01*
Y226528D01*
X291896Y228097D01*
X290695Y229298D01*
X289125Y229948D01*
X287427D01*
X286851Y230333D01*
Y288503D01*
X291772Y293424D01*
X292334Y294264D01*
X292493Y295063D01*
X292868Y295425D01*
X293801Y295896D01*
X294231Y295718D01*
X295731D01*
X297116Y296292D01*
X298177Y297353D01*
X298257Y297546D01*
X301599D01*
Y294718D01*
X316139D01*
Y304258D01*
X301599D01*
Y301430D01*
X298257D01*
X298177Y301623D01*
X297116Y302684D01*
X295731Y303258D01*
X294231D01*
X293848Y303099D01*
X293640Y303144D01*
X292606Y303959D01*
Y308039D01*
X293636Y309069D01*
X294286Y310639D01*
Y312337D01*
X293636Y313907D01*
X292435Y315108D01*
X290865Y315758D01*
X289167D01*
X287597Y315108D01*
X286396Y313907D01*
X285746Y312337D01*
Y310639D01*
X286396Y309069D01*
X287426Y308039D01*
Y303668D01*
X287351Y303291D01*
Y296328D01*
X282430Y291407D01*
X281869Y290567D01*
X281672Y289576D01*
Y230571D01*
X276636Y225535D01*
X269948D01*
X268889Y331217D01*
X269783Y332120D01*
X275751D01*
X275751Y332120D01*
X276723Y332522D01*
X277220Y332621D01*
X277319Y332522D01*
X278291Y332120D01*
X278291Y332120D01*
X281403D01*
X281499Y332160D01*
X285403D01*
X286692Y332416D01*
X287784Y333146D01*
X288514Y334238D01*
X288770Y335526D01*
Y335576D01*
X292846D01*
X293994Y335805D01*
X294966Y336455D01*
X299502Y340990D01*
X300632D01*
X301599Y340258D01*
X301599Y339720D01*
Y330718D01*
X316139D01*
Y340258D01*
X307365D01*
X306980Y341528D01*
X307489Y341868D01*
X308339Y342718D01*
X316139D01*
Y352258D01*
X306045D01*
X305559Y353431D01*
X306846Y354718D01*
X316139D01*
Y364258D01*
X301599D01*
Y354965D01*
X301470Y354835D01*
X283155D01*
X283068Y355046D01*
X282007Y356106D01*
X280622Y356680D01*
X279122D01*
X277736Y356106D01*
X276676Y355046D01*
X276102Y353660D01*
Y352160D01*
X276676Y350774D01*
X277736Y349714D01*
X279122Y349140D01*
X280622D01*
X282007Y349714D01*
X283068Y350774D01*
X283141Y350951D01*
X301599D01*
Y346986D01*
X298260D01*
X297113Y346758D01*
X296140Y346108D01*
X291605Y341572D01*
X288770D01*
Y341622D01*
X288514Y342911D01*
X287784Y344003D01*
X286692Y344733D01*
X285403Y344989D01*
X281499D01*
X281403Y345029D01*
X278291D01*
X278291Y345029D01*
X277984Y344902D01*
X277011Y344689D01*
X276146Y344866D01*
X275751Y345029D01*
X275751Y345029D01*
X268751D01*
X268416Y378483D01*
X269676Y379440D01*
X273776D01*
Y388044D01*
Y396647D01*
X269392D01*
X268583Y397674D01*
X268769Y398792D01*
X269478Y399217D01*
X280921D01*
X282051Y399442D01*
X283009Y400082D01*
X283648Y401039D01*
X283873Y402169D01*
Y403159D01*
X301599D01*
Y402718D01*
X316139D01*
Y412258D01*
X301599D01*
Y410928D01*
X283873D01*
Y411919D01*
X283648Y413048D01*
X283009Y414006D01*
X282051Y414646D01*
X281401Y414775D01*
Y416070D01*
X281511Y416092D01*
X282141Y416513D01*
X283318Y417690D01*
X283512Y417610D01*
X285011D01*
X286397Y418184D01*
X287458Y419244D01*
X288032Y420630D01*
Y421021D01*
X289301Y421547D01*
X293834Y417015D01*
X294674Y416453D01*
X295665Y416256D01*
X301599D01*
Y414718D01*
X316139D01*
Y424258D01*
X301599D01*
Y421436D01*
X296738D01*
X281427Y436747D01*
X280587Y437308D01*
X279596Y437505D01*
X276192D01*
X275096Y438602D01*
X273358Y439605D01*
X271420Y440124D01*
X269414D01*
X268803Y439961D01*
X267792Y440729D01*
X267771Y442774D01*
X268665Y443677D01*
X290299D01*
X290536Y443440D01*
Y430817D01*
X290733Y429826D01*
X291294Y428986D01*
X292782Y427498D01*
X293622Y426937D01*
X294613Y426740D01*
X301599D01*
Y426718D01*
X316139D01*
Y436258D01*
X301599D01*
Y431919D01*
X295715D01*
Y444512D01*
X295518Y445503D01*
X294957Y446343D01*
X293202Y448098D01*
X292362Y448659D01*
X291371Y448856D01*
X267710D01*
X267631Y456759D01*
X198683Y460545D01*
X198029Y461853D01*
X198035Y461861D01*
X198232Y462847D01*
Y465582D01*
X188150D01*
Y468122D01*
X198232D01*
Y470857D01*
X198097Y471536D01*
X198624Y472485D01*
X198920Y472806D01*
X206522D01*
X206791Y472917D01*
X231196D01*
Y470586D01*
X240800D01*
X250403D01*
Y472917D01*
X255133D01*
Y470775D01*
X264736D01*
X274340D01*
Y474381D01*
X274056Y475807D01*
X273248Y477017D01*
X272038Y477826D01*
X270611Y478109D01*
X267417D01*
X267401Y479776D01*
X268294Y480679D01*
X270611D01*
X271741Y480904D01*
X272699Y481544D01*
X273339Y482501D01*
X273563Y483631D01*
Y493381D01*
X273339Y494510D01*
X272699Y495468D01*
X271741Y496108D01*
X270611Y496332D01*
X267235D01*
X267201Y499743D01*
X268094Y500646D01*
X478484D01*
Y435676D01*
D02*
G37*
G36*
X163507Y482411D02*
Y460776D01*
X142546D01*
X142160Y462046D01*
X142901Y462541D01*
X143710Y463750D01*
X143994Y465177D01*
Y468782D01*
X134390D01*
X124786D01*
Y465177D01*
X125070Y463750D01*
X125878Y462541D01*
X126620Y462046D01*
X126234Y460776D01*
X92175D01*
Y463691D01*
X97518D01*
X98261Y463839D01*
X98891Y464260D01*
X102346Y467715D01*
X103665Y467453D01*
X108618D01*
X110080Y467743D01*
X111319Y468571D01*
X112147Y469811D01*
X112438Y471273D01*
Y477242D01*
X112147Y478703D01*
X111319Y479943D01*
X110080Y480771D01*
X108618Y481061D01*
X103665D01*
X102203Y480771D01*
X100964Y479943D01*
X100136Y478703D01*
X99845Y477242D01*
Y471273D01*
X99939Y470801D01*
X96713Y467576D01*
X92175D01*
Y471339D01*
X92191Y471349D01*
X93019Y472589D01*
X93310Y474050D01*
Y480019D01*
X93019Y481481D01*
X93018Y481483D01*
X93699Y482750D01*
X163507Y482411D01*
D02*
G37*
G36*
Y439751D02*
X112890D01*
X112287Y441021D01*
X112780Y441758D01*
X113064Y443185D01*
Y447790D01*
X104460D01*
Y450330D01*
X113064D01*
Y454935D01*
X112780Y456362D01*
X112287Y457099D01*
X112890Y458369D01*
X124337D01*
X125019Y457099D01*
X124786Y455927D01*
Y452322D01*
X134390D01*
X143994D01*
Y455927D01*
X143761Y457099D01*
X144443Y458369D01*
X163507D01*
Y439751D01*
D02*
G37*
G36*
X58642Y450276D02*
X53562Y445196D01*
X48482Y450276D01*
Y453387D01*
X58642D01*
Y450276D01*
D02*
G37*
G36*
Y440243D02*
X53562Y440116D01*
X48482D01*
Y447736D01*
X53562Y442656D01*
X58642Y447736D01*
Y440243D01*
D02*
G37*
G36*
X96617Y428325D02*
Y423245D01*
X88997D01*
X94077Y428325D01*
X88997Y433405D01*
X96490D01*
X96617Y428325D01*
D02*
G37*
G36*
X91537D02*
X86457Y423245D01*
X83345D01*
Y433405D01*
X86457D01*
X91537Y428325D01*
D02*
G37*
G36*
X39701Y428716D02*
X39911Y428706D01*
X40121Y428676D01*
X40321Y428636D01*
X40531Y428586D01*
X40731Y428526D01*
X40921Y428456D01*
X41121Y428376D01*
X41311Y428286D01*
X41491Y428186D01*
X41671Y428076D01*
X41841Y427966D01*
X42011Y427836D01*
X42171Y427696D01*
X42321Y427556D01*
X42461Y427406D01*
X42601Y427246D01*
X42731Y427076D01*
X42841Y426906D01*
X42951Y426726D01*
X43051Y426546D01*
X43141Y426356D01*
X43221Y426156D01*
X43291Y425966D01*
X43351Y425766D01*
X43401Y425556D01*
X43441Y425356D01*
X43471Y425146D01*
X43481Y424936D01*
X43491Y424726D01*
Y420226D01*
X53311D01*
Y401976D01*
X40491D01*
Y404976D01*
X40481Y405366D01*
X40451Y405756D01*
X40401Y406146D01*
X40331Y406536D01*
X40231Y406916D01*
X40121Y407296D01*
X39991Y407666D01*
X39841Y408026D01*
X39671Y408376D01*
X39491Y408726D01*
X39281Y409056D01*
X39061Y409386D01*
X38821Y409696D01*
X38561Y409996D01*
X38291Y410276D01*
X38011Y410546D01*
X37711Y410806D01*
X37401Y411046D01*
X37071Y411266D01*
X36741Y411476D01*
X36391Y411656D01*
X36041Y411826D01*
X35681Y411976D01*
X35311Y412106D01*
X34931Y412216D01*
X34551Y412316D01*
X34161Y412386D01*
X33771Y412436D01*
X33381Y412466D01*
X32991Y412476D01*
X22491D01*
Y424726D01*
X22501Y424936D01*
X22511Y425146D01*
X22541Y425356D01*
X22581Y425556D01*
X22631Y425766D01*
X22691Y425966D01*
X22761Y426156D01*
X22841Y426356D01*
X22931Y426546D01*
X23031Y426726D01*
X23141Y426906D01*
X23251Y427076D01*
X23381Y427246D01*
X23521Y427406D01*
X23661Y427556D01*
X23811Y427696D01*
X23971Y427836D01*
X24141Y427966D01*
X24311Y428076D01*
X24491Y428186D01*
X24671Y428286D01*
X24861Y428376D01*
X25061Y428456D01*
X25251Y428526D01*
X25451Y428586D01*
X25661Y428636D01*
X25861Y428676D01*
X26071Y428706D01*
X26281Y428716D01*
X26491Y428726D01*
X39491D01*
X39701Y428716D01*
D02*
G37*
G36*
X71091Y400226D02*
X56491D01*
Y420226D01*
X71091D01*
Y400226D01*
D02*
G37*
G36*
X226220Y403143D02*
X221140Y398063D01*
X216061Y403143D01*
Y406254D01*
X226220D01*
Y403143D01*
D02*
G37*
G36*
Y393110D02*
X221140Y392983D01*
X216061D01*
Y400603D01*
X221140Y395523D01*
X226220Y400603D01*
Y393110D01*
D02*
G37*
G36*
X547755Y388886D02*
X542675Y393966D01*
X537595Y388886D01*
Y396379D01*
X542675Y396506D01*
X547755D01*
Y388886D01*
D02*
G37*
G36*
Y386346D02*
Y383235D01*
X537595D01*
Y386346D01*
X542675Y391426D01*
X547755Y386346D01*
D02*
G37*
G36*
X71091Y342226D02*
X56491D01*
Y362226D01*
X71091D01*
Y342226D01*
D02*
G37*
G36*
X53311D02*
X43491D01*
Y337726D01*
X43481Y337516D01*
X43471Y337306D01*
X43441Y337096D01*
X43401Y336896D01*
X43351Y336686D01*
X43291Y336486D01*
X43221Y336296D01*
X43141Y336096D01*
X43051Y335906D01*
X42951Y335726D01*
X42841Y335546D01*
X42731Y335376D01*
X42601Y335206D01*
X42461Y335046D01*
X42321Y334896D01*
X42171Y334756D01*
X42011Y334616D01*
X41841Y334486D01*
X41671Y334376D01*
X41491Y334266D01*
X41311Y334166D01*
X41121Y334076D01*
X40921Y333996D01*
X40731Y333926D01*
X40531Y333866D01*
X40321Y333816D01*
X40121Y333776D01*
X39911Y333746D01*
X39701Y333736D01*
X39491Y333726D01*
X26491D01*
X26281Y333736D01*
X26071Y333746D01*
X25861Y333776D01*
X25661Y333816D01*
X25451Y333866D01*
X25251Y333926D01*
X25061Y333996D01*
X24861Y334076D01*
X24671Y334166D01*
X24491Y334266D01*
X24311Y334376D01*
X24141Y334486D01*
X23971Y334616D01*
X23811Y334756D01*
X23661Y334896D01*
X23521Y335046D01*
X23381Y335206D01*
X23251Y335376D01*
X23141Y335546D01*
X23031Y335726D01*
X22931Y335906D01*
X22841Y336096D01*
X22761Y336296D01*
X22691Y336486D01*
X22631Y336686D01*
X22581Y336896D01*
X22541Y337096D01*
X22511Y337306D01*
X22501Y337516D01*
X22491Y337726D01*
Y349976D01*
X32991D01*
X33381Y349986D01*
X33771Y350016D01*
X34161Y350066D01*
X34551Y350136D01*
X34931Y350236D01*
X35311Y350346D01*
X35681Y350476D01*
X36041Y350626D01*
X36391Y350796D01*
X36741Y350976D01*
X37071Y351186D01*
X37401Y351406D01*
X37711Y351646D01*
X38011Y351906D01*
X38291Y352176D01*
X38561Y352456D01*
X38821Y352756D01*
X39061Y353066D01*
X39281Y353396D01*
X39491Y353726D01*
X39671Y354076D01*
X39841Y354426D01*
X39991Y354786D01*
X40121Y355156D01*
X40231Y355536D01*
X40331Y355916D01*
X40401Y356306D01*
X40451Y356696D01*
X40481Y357086D01*
X40491Y357476D01*
Y360476D01*
X53311D01*
Y342226D01*
D02*
G37*
G36*
X281403Y333494D02*
X278291D01*
X273211Y338574D01*
X278291Y343654D01*
X281403D01*
Y333494D01*
D02*
G37*
G36*
X270671Y338574D02*
X275751Y333494D01*
X268258D01*
X268131Y338574D01*
Y343654D01*
X275751D01*
X270671Y338574D01*
D02*
G37*
G36*
X108025Y275488D02*
X84359D01*
X83553Y276470D01*
X83588Y276643D01*
Y279123D01*
X53991D01*
Y280393D01*
X52722D01*
Y287489D01*
X51022D01*
Y306494D01*
X87831D01*
X88604Y305486D01*
X88376Y304636D01*
X96713D01*
X105051D01*
X104823Y305486D01*
X105596Y306494D01*
X108025D01*
Y275488D01*
D02*
G37*
G36*
X591820Y299048D02*
X586740Y304128D01*
X581660Y299048D01*
Y306541D01*
X586740Y306667D01*
X591820D01*
Y299048D01*
D02*
G37*
G36*
Y296507D02*
Y293396D01*
X581660D01*
Y296507D01*
X586740Y301588D01*
X591820Y296507D01*
D02*
G37*
G36*
X542675Y236124D02*
X537595Y241203D01*
X532515Y236124D01*
Y243617D01*
X537595Y243743D01*
X542675D01*
Y236124D01*
D02*
G37*
G36*
Y233584D02*
Y230472D01*
X532515D01*
Y233584D01*
X537595Y238664D01*
X542675Y233584D01*
D02*
G37*
G36*
X115338Y226147D02*
X53019D01*
X52775Y253297D01*
X80241D01*
X81522Y253551D01*
X82608Y254277D01*
X83333Y255362D01*
X83588Y256643D01*
Y259123D01*
X53991D01*
Y260393D01*
X52722D01*
Y267489D01*
X52647D01*
X52620Y270413D01*
X115338D01*
Y226147D01*
D02*
G37*
G36*
X247856Y171628D02*
X244745D01*
X239665Y176708D01*
X244745Y181788D01*
X247856D01*
Y171628D01*
D02*
G37*
G36*
X237125Y176708D02*
X242205Y171628D01*
X234712D01*
X234585Y176708D01*
Y181788D01*
X242205D01*
X237125Y176708D01*
D02*
G37*
G36*
X250610Y140970D02*
X247499D01*
X242419Y146050D01*
X247499Y151130D01*
X250610D01*
Y140970D01*
D02*
G37*
G36*
X239879Y146050D02*
X244959Y140970D01*
X237466D01*
X237339Y146050D01*
Y151130D01*
X244959D01*
X239879Y146050D01*
D02*
G37*
G36*
X519739Y117202D02*
X516628D01*
X511548Y122282D01*
X516628Y127362D01*
X519739D01*
Y117202D01*
D02*
G37*
G36*
X509007Y122282D02*
X514087Y117202D01*
X506595D01*
X506468Y122282D01*
Y127362D01*
X514087D01*
X509007Y122282D01*
D02*
G37*
G36*
X449450Y117202D02*
X446339D01*
X441259Y122282D01*
X446339Y127362D01*
X449450D01*
Y117202D01*
D02*
G37*
G36*
X438718Y122282D02*
X443798Y117202D01*
X436306D01*
X436179Y122282D01*
Y127362D01*
X443798D01*
X438718Y122282D01*
D02*
G37*
G36*
X195781Y55399D02*
X195805Y55301D01*
X195830Y55082D01*
X195878Y54961D01*
X195927Y54669D01*
X195866Y54608D01*
X195769Y54583D01*
X195720Y54608D01*
X195659Y54669D01*
X195635Y54717D01*
X195586Y54766D01*
X195525Y54875D01*
X195477Y54900D01*
X195404Y54973D01*
X195233Y55046D01*
X195136Y55070D01*
X194942Y55046D01*
X194722Y54924D01*
X194637Y54839D01*
X194613Y54669D01*
X194674Y54510D01*
X194722Y54486D01*
X194771Y54413D01*
X194869Y54389D01*
X195039Y54316D01*
X195136Y54291D01*
X195392Y54255D01*
X195489Y54231D01*
X195696Y54170D01*
X195830Y54133D01*
X195939Y54072D01*
X196110Y53975D01*
X196243Y53841D01*
X196329Y53610D01*
X196353Y53513D01*
X196365Y53379D01*
X196292Y53209D01*
X196243Y53087D01*
X196207Y53026D01*
X196170Y53014D01*
X196146Y52965D01*
X196061Y52880D01*
X196012Y52856D01*
X195866Y52758D01*
X195769Y52734D01*
X195599Y52661D01*
X195355Y52637D01*
X194954Y52649D01*
X194905Y52600D01*
X194881Y52552D01*
X194747Y52515D01*
X194650Y52539D01*
X194613Y52673D01*
X194589Y52819D01*
X194540Y52941D01*
X194516Y53111D01*
X194491Y53306D01*
X194528Y53342D01*
X194625Y53367D01*
X194722Y53342D01*
X194808Y53209D01*
X194917Y53075D01*
X194990Y53002D01*
X195148Y52941D01*
X195258Y52904D01*
X195550Y52929D01*
X195769Y53050D01*
X195805Y53111D01*
X195818Y53123D01*
X195878Y53233D01*
X195854Y53403D01*
X195744Y53537D01*
X195696Y53586D01*
X195574Y53610D01*
X195452Y53659D01*
X195355Y53683D01*
X195051Y53720D01*
X194954Y53744D01*
X194795Y53805D01*
X194662Y53841D01*
X194479Y53951D01*
X194431Y53975D01*
X194297Y54109D01*
X194175Y54377D01*
X194151Y54644D01*
X194175Y54717D01*
X194199Y54839D01*
X194248Y54888D01*
X194321Y55009D01*
X194431Y55119D01*
X194479Y55143D01*
X194528Y55192D01*
X194759Y55277D01*
X194893Y55313D01*
X195209Y55338D01*
X195380Y55313D01*
X195477Y55338D01*
X195550Y55435D01*
X195708Y55447D01*
X195781Y55399D01*
D02*
G37*
G36*
X190854Y53999D02*
X190890Y53963D01*
X190914Y53817D01*
X190963Y53768D01*
X191012Y53647D01*
X191036Y53549D01*
X191133Y53330D01*
X191121Y53245D01*
X191000Y53196D01*
X190902Y53221D01*
X190781Y53367D01*
X190707Y53440D01*
X190464Y53537D01*
X190367Y53561D01*
X190209Y53525D01*
X189977Y53415D01*
X189917Y53330D01*
X189868Y53282D01*
X189844Y53184D01*
X189868Y53014D01*
X190002Y52880D01*
X190160Y52819D01*
X190282Y52795D01*
X190854Y52783D01*
X190878D01*
X191121Y52758D01*
X191340Y52710D01*
X191389Y52661D01*
X191486Y52637D01*
X191571Y52576D01*
X191596Y52527D01*
X191693Y52430D01*
X191754Y52272D01*
X191790Y52162D01*
X191815Y52016D01*
X191790Y51943D01*
X191766Y51846D01*
X191644Y51627D01*
X191596Y51578D01*
X191571Y51530D01*
X191535Y51493D01*
X191486Y51469D01*
X191389Y51371D01*
X191292Y51347D01*
X191243Y51298D01*
X191194Y51274D01*
X191121Y51250D01*
X191024Y51225D01*
X190854Y51177D01*
X190756Y51152D01*
X190562Y51128D01*
X190488Y51006D01*
X190367Y50958D01*
X190294Y50982D01*
X190233Y51043D01*
X190184Y51165D01*
X190160Y51262D01*
X190111Y51311D01*
X190087Y51408D01*
X190038Y51530D01*
X189990Y51578D01*
X189965Y51676D01*
X190099Y51809D01*
X190196Y51785D01*
X190221Y51736D01*
X190270Y51712D01*
X190306Y51676D01*
X190330Y51627D01*
X190367Y51590D01*
X190488Y51517D01*
X190610Y51469D01*
X191048Y51493D01*
X191121Y51566D01*
X191243Y51639D01*
X191352Y51797D01*
X191328Y52016D01*
X191255Y52089D01*
X191231Y52138D01*
X191121Y52174D01*
X191024Y52199D01*
X190221Y52223D01*
X190148Y52247D01*
X189990Y52284D01*
X189868Y52308D01*
X189722Y52406D01*
X189637Y52466D01*
X189600Y52503D01*
X189576Y52552D01*
X189503Y52625D01*
X189479Y52722D01*
X189406Y52892D01*
X189430Y53184D01*
X189576Y53452D01*
X189685Y53561D01*
X189734Y53586D01*
X189880Y53683D01*
X190196Y53805D01*
X190537Y53829D01*
X190598Y53866D01*
X190671Y53987D01*
X190707Y54024D01*
X190854Y53999D01*
D02*
G37*
G36*
X204079Y55764D02*
X204103Y55666D01*
X204188Y55435D01*
X204212Y55289D01*
X204237Y55167D01*
X204285Y55046D01*
X204322Y54912D01*
X204358Y54705D01*
X204419Y54547D01*
X204444Y54450D01*
X204480Y54267D01*
X204529Y54145D01*
X204553Y54024D01*
X204577Y53878D01*
X204626Y53756D01*
X204663Y53622D01*
X204687Y53452D01*
X204711Y53330D01*
X204748Y53294D01*
X204869Y53245D01*
X204906Y53209D01*
X204882Y53014D01*
X204529Y53002D01*
X204456Y53026D01*
X204212Y53050D01*
X204139Y53075D01*
X203969Y53099D01*
X203908Y53136D01*
X203884Y53209D01*
X203945Y53318D01*
X204066Y53367D01*
X204103Y53476D01*
X204079Y53768D01*
X204042Y53829D01*
X203920Y53878D01*
X203385Y53926D01*
X203239Y53902D01*
X203178Y53841D01*
X203154Y53744D01*
X203081Y53622D01*
X203044Y53537D01*
X203093Y53464D01*
X203239Y53440D01*
X203276Y53403D01*
X203251Y53257D01*
X203215Y53196D01*
X202643Y53233D01*
X202497Y53257D01*
X202448Y53306D01*
X202473Y53452D01*
X202558Y53537D01*
X202692Y53598D01*
X202716Y53647D01*
X202789Y53720D01*
X202850Y53853D01*
X202862Y53866D01*
X203543Y55253D01*
X203592Y55301D01*
X203665Y55496D01*
X203714Y55545D01*
X203774Y55703D01*
X203823Y55776D01*
X203993Y55800D01*
X204079Y55764D01*
D02*
G37*
G36*
X208446Y54851D02*
X208665Y54754D01*
X208848Y54717D01*
X208982Y54656D01*
X209176Y54608D01*
X209213Y54571D01*
X209189Y54425D01*
X209079Y54389D01*
X208982Y54364D01*
X208933Y54340D01*
X208872Y54279D01*
X208775Y54060D01*
X208738Y53878D01*
X208678Y53744D01*
X208653Y53647D01*
X208617Y53488D01*
X208556Y53355D01*
X208532Y53257D01*
X208495Y53099D01*
X208434Y52965D01*
X208386Y52746D01*
X208288Y52527D01*
X208313Y52430D01*
X208446Y52393D01*
X208544Y52369D01*
X208714Y52296D01*
X209079Y52320D01*
X209152Y52393D01*
X209201Y52418D01*
X209237Y52454D01*
X209310Y52576D01*
X209395Y52734D01*
X209493Y52710D01*
X209554Y52673D01*
X209578Y52576D01*
X209554Y52454D01*
X209481Y52284D01*
X209456Y52187D01*
X209359Y51943D01*
X209335Y51870D01*
X209298Y51834D01*
X209152Y51858D01*
X208982Y51931D01*
X208824Y51968D01*
X208702Y52016D01*
X208592Y52053D01*
X208434Y52089D01*
X208349Y52126D01*
X208227Y52174D01*
X208045Y52211D01*
X207911Y52272D01*
X207656Y52333D01*
X207461Y52430D01*
X207449Y52491D01*
X207498Y52612D01*
X207570Y52637D01*
X207717Y52661D01*
X207789Y52734D01*
X207802Y52746D01*
X207850Y52917D01*
X207923Y53087D01*
X207948Y53184D01*
X207984Y53342D01*
X208045Y53476D01*
X208069Y53574D01*
X208094Y53695D01*
X208167Y53866D01*
X208215Y54085D01*
X208288Y54255D01*
X208361Y54523D01*
X208276Y54608D01*
X208179Y54632D01*
X208142Y54742D01*
X208227Y54875D01*
X208446Y54851D01*
D02*
G37*
G36*
X213921Y52685D02*
X214031Y52625D01*
X214055Y52527D01*
X213994Y51907D01*
X213970Y51761D01*
X213946Y51639D01*
X213909Y51311D01*
X213873Y50933D01*
X213848Y50787D01*
X213824Y50666D01*
X213800Y50471D01*
X213775Y50252D01*
X213751Y50155D01*
X213739Y50143D01*
X213812Y50021D01*
X213885Y49948D01*
X213861Y49851D01*
X213812Y49802D01*
X213788Y49753D01*
X213678Y49741D01*
X213581Y49838D01*
X213483Y49863D01*
X213337Y49960D01*
X213264Y49984D01*
X213118Y50082D01*
X213021Y50106D01*
X212960Y50167D01*
X212936Y50264D01*
X212985Y50362D01*
X212997Y50374D01*
X213070Y50398D01*
X213191Y50422D01*
X213252Y50483D01*
X213301Y50654D01*
X213313Y50812D01*
X213264Y50885D01*
X213143Y50933D01*
X213094Y50982D01*
X212936Y51043D01*
X212778Y51128D01*
X212607Y51201D01*
X212388Y51031D01*
X212303Y50970D01*
X212279Y50897D01*
X212340Y50812D01*
X212388Y50787D01*
X212425Y50702D01*
X212315Y50544D01*
X212169Y50568D01*
X212096Y50641D01*
X211938Y50702D01*
X211877Y50763D01*
X211780Y50787D01*
X211671Y50873D01*
X211646Y50970D01*
X211707Y51079D01*
X211804Y51104D01*
X212023Y51128D01*
X212072Y51177D01*
X212121Y51201D01*
X212194Y51274D01*
X212242Y51298D01*
X212413Y51469D01*
X212461Y51493D01*
X212680Y51712D01*
X212729Y51736D01*
X212924Y51931D01*
X212972Y51955D01*
X213070Y52053D01*
X213118Y52077D01*
X213240Y52199D01*
X213289Y52223D01*
X213483Y52418D01*
X213532Y52442D01*
X213727Y52637D01*
X213775Y52661D01*
X213824Y52710D01*
X213921Y52685D01*
D02*
G37*
G36*
X186437Y51773D02*
X186486Y51651D01*
X186461Y51554D01*
X186388Y51432D01*
X186413Y51311D01*
X186510Y51140D01*
X186559Y51092D01*
X186656Y50921D01*
X186826Y50654D01*
X186851Y50605D01*
X186899Y50556D01*
X186997Y50386D01*
X187155Y50155D01*
X187191Y50070D01*
X187264Y49997D01*
X187289Y49899D01*
X187362Y49826D01*
X187386Y49778D01*
X187447Y49717D01*
X187581Y49826D01*
X187642Y49838D01*
X187727Y49778D01*
X187775Y49656D01*
X187666Y49522D01*
X187544Y49449D01*
X187398Y49352D01*
X187349Y49327D01*
X187301Y49279D01*
X187131Y49181D01*
X186985Y49084D01*
X186863Y49108D01*
X186802Y49169D01*
X186826Y49291D01*
X186899Y49364D01*
X186924Y49486D01*
X186826Y49632D01*
X186729Y49802D01*
X186559Y50070D01*
X186534Y50118D01*
X186461Y50191D01*
X186437Y50264D01*
X186388Y50313D01*
X186364Y50362D01*
X186242Y50532D01*
Y50556D01*
X186072Y50824D01*
X186048Y50873D01*
X185999Y50921D01*
X185902Y51092D01*
X185816Y51128D01*
X185719Y51031D01*
X185622Y51055D01*
X185537Y51140D01*
X185525Y51201D01*
X185646Y51347D01*
X185768Y51420D01*
X185938Y51517D01*
X185987Y51566D01*
X186157Y51663D01*
X186206Y51712D01*
X186279Y51736D01*
X186401Y51785D01*
X186437Y51773D01*
D02*
G37*
G36*
X217669Y50179D02*
X217742Y50106D01*
X217790Y50082D01*
X217876Y50021D01*
X217888Y49984D01*
X217936Y49960D01*
X218034Y49863D01*
X218082Y49838D01*
X218180Y49741D01*
X218228Y49717D01*
X218362Y49607D01*
X218447Y49546D01*
X218703Y49291D01*
X218727Y49242D01*
X218800Y49169D01*
X218825Y49072D01*
X218898Y48950D01*
X218922Y48853D01*
X218898Y48561D01*
X218752Y48318D01*
X218618Y48184D01*
X218569Y48159D01*
X218520Y48111D01*
X218423Y48086D01*
X218131Y48038D01*
X218034Y48062D01*
X217876Y48099D01*
X217839Y48111D01*
X217778Y48074D01*
X217790Y47843D01*
X217766Y47551D01*
X217754Y47101D01*
X217827Y46979D01*
X217803Y46882D01*
X217742Y46797D01*
X217596Y46821D01*
X217559Y46858D01*
X217547Y46894D01*
X217498Y46918D01*
X217413Y46979D01*
X217401Y47016D01*
X217352Y47040D01*
X217243Y47150D01*
X217194Y47271D01*
X217219Y47369D01*
X217243Y47612D01*
X217267Y47685D01*
X217292Y47928D01*
X217316Y48318D01*
X217292Y48415D01*
X217255Y48451D01*
X217133Y48427D01*
X217109Y48403D01*
X217097Y48391D01*
X217048Y48342D01*
X217024Y48293D01*
X216927Y48196D01*
X216902Y48147D01*
X216781Y48026D01*
X216756Y47977D01*
X216732Y47904D01*
X216768Y47867D01*
X216890Y47794D01*
X216927Y47709D01*
X216890Y47648D01*
X216854Y47636D01*
X216829Y47588D01*
X216793Y47551D01*
X216720Y47575D01*
X216586Y47685D01*
X216549Y47721D01*
X216501Y47746D01*
X216403Y47843D01*
X216355Y47867D01*
X216257Y47965D01*
X216209Y47989D01*
X216148Y48026D01*
X216124Y48074D01*
X216038Y48135D01*
X215953Y48220D01*
X215978Y48318D01*
X216063Y48403D01*
X216136Y48378D01*
X216257Y48330D01*
X216379Y48403D01*
X216586Y48610D01*
X216610Y48658D01*
X216708Y48756D01*
X216732Y48804D01*
X216829Y48902D01*
X216854Y48950D01*
X216927Y49023D01*
X216951Y49072D01*
X217048Y49169D01*
X217073Y49218D01*
X217170Y49315D01*
X217194Y49364D01*
X217292Y49461D01*
X217316Y49510D01*
X217413Y49607D01*
X217438Y49656D01*
X217559Y49778D01*
X217535Y49924D01*
X217498Y49960D01*
X217450Y49984D01*
X217438Y50070D01*
X217535Y50167D01*
X217547Y50203D01*
X217669Y50179D01*
D02*
G37*
G36*
X182386Y48670D02*
X182422Y48634D01*
X182446Y48537D01*
X182422Y48488D01*
X182373Y48366D01*
X182398Y48269D01*
X182471Y48196D01*
X182495Y48147D01*
X182617Y48026D01*
X182641Y47977D01*
X182690Y47953D01*
X182714Y47904D01*
X182933Y47685D01*
X182957Y47636D01*
X183176Y47417D01*
X183201Y47369D01*
X183420Y47150D01*
X183444Y47101D01*
X183566Y46979D01*
X183578Y46943D01*
X183626Y46918D01*
X183675Y46870D01*
X183773Y46894D01*
X184125Y47247D01*
X184198Y47417D01*
X184174Y47636D01*
X184065Y47843D01*
X184028Y47855D01*
X184004Y47928D01*
X184113Y48062D01*
X184186Y48086D01*
X184271Y48001D01*
X184284Y47965D01*
X184332Y47940D01*
X184393Y47855D01*
X184466Y47782D01*
X184490Y47734D01*
X184588Y47636D01*
X184612Y47588D01*
X184709Y47490D01*
X184722Y47429D01*
X184661Y47344D01*
X184478Y47162D01*
X184429Y47137D01*
X184210Y46918D01*
X184162Y46894D01*
X183943Y46675D01*
X183894Y46651D01*
X183846Y46578D01*
X183797Y46554D01*
X183578Y46334D01*
X183529Y46310D01*
X183480Y46237D01*
X183432Y46213D01*
X183335Y46115D01*
X183237Y46140D01*
X183176Y46201D01*
X183201Y46395D01*
X183225Y46468D01*
X183164Y46626D01*
X183055Y46736D01*
X183030Y46785D01*
X182957Y46833D01*
X182933Y46882D01*
X182714Y47101D01*
X182690Y47150D01*
X182617Y47198D01*
X182592Y47247D01*
X182373Y47466D01*
X182349Y47515D01*
X182130Y47734D01*
X182106Y47782D01*
X182008Y47880D01*
X181984Y47928D01*
X181899Y47965D01*
X181814Y47904D01*
X181801Y47867D01*
X181704Y47843D01*
X181656Y47867D01*
X181570Y47953D01*
X181546Y48026D01*
X181583Y48086D01*
X181631Y48111D01*
X181728Y48208D01*
X181777Y48232D01*
X181814Y48269D01*
X181826Y48305D01*
X181850D01*
X181862Y48318D01*
X182094Y48549D01*
X182142Y48573D01*
X182264Y48695D01*
X182386Y48670D01*
D02*
G37*
G36*
X202704Y46213D02*
X202874Y46140D01*
X203069Y46091D01*
X203203Y46055D01*
X203409Y45994D01*
X203568Y45957D01*
X203701Y45921D01*
X203896Y45872D01*
X204152Y45811D01*
X204249Y45787D01*
X204383Y45750D01*
X204541Y45714D01*
X204699Y45653D01*
X204955Y45592D01*
X205113Y45531D01*
X205283Y45507D01*
X205526Y45434D01*
X205916Y45337D01*
X206086Y45288D01*
X206244Y45252D01*
X206451Y45191D01*
X206707Y45130D01*
X206828Y45081D01*
X206926Y45057D01*
X207047Y45008D01*
X207084Y44972D01*
X207132Y44947D01*
X207242Y44862D01*
X207266Y44814D01*
X207315Y44765D01*
X207364Y44643D01*
X207339Y44278D01*
X207266Y44205D01*
X207242Y44157D01*
X207157Y44071D01*
X207108Y44047D01*
X206938Y43974D01*
X206840Y43950D01*
X206780Y43938D01*
X206585Y43986D01*
X206463Y44011D01*
X206366Y44035D01*
X206086Y44120D01*
X205904Y44157D01*
X205770Y44193D01*
X205575Y44242D01*
X205417Y44278D01*
X205283Y44315D01*
X205113Y44363D01*
X205015Y44339D01*
X204979Y44303D01*
X204942Y44169D01*
X204869Y43877D01*
X204809Y43670D01*
X204760Y43451D01*
X204736Y43378D01*
X204760Y43281D01*
X204821Y43220D01*
X204955Y43183D01*
X205052Y43159D01*
X205210Y43098D01*
X205344Y43062D01*
X205502Y43001D01*
X205745Y42903D01*
X205916Y42830D01*
X206427Y42587D01*
X206987Y42295D01*
X207327Y42100D01*
X207473Y42003D01*
X207644Y41906D01*
X207814Y41784D01*
X207935Y41711D01*
X207984Y41663D01*
X208106Y41589D01*
X208276Y41468D01*
X208325Y41444D01*
X208459Y41334D01*
X208544Y41273D01*
X208592Y41224D01*
X208641Y41200D01*
X208690Y41151D01*
X208738Y41127D01*
X208884Y40981D01*
X209006Y40908D01*
X209055Y40859D01*
X209103Y40835D01*
X209517Y40422D01*
X209566Y40397D01*
X209639Y40324D01*
X209687Y40300D01*
X209846Y40142D01*
X209870Y40093D01*
X210089Y39874D01*
X210101Y39838D01*
X210150Y39813D01*
X210211Y39728D01*
X210381Y39558D01*
X210405Y39509D01*
X210503Y39412D01*
X210527Y39363D01*
X210649Y39241D01*
X210673Y39193D01*
X210746Y39120D01*
X210770Y39071D01*
X210843Y38998D01*
X210868Y38949D01*
X211160Y38560D01*
X211208Y38511D01*
X211281Y38390D01*
X211452Y38122D01*
X211525Y38000D01*
X211622Y37830D01*
X211719Y37684D01*
X211744Y37635D01*
X211792Y37587D01*
X211841Y37465D01*
X211987Y37197D01*
X212279Y36589D01*
X212498Y36127D01*
X212583Y35896D01*
X212644Y35737D01*
X212741Y35421D01*
X212802Y35263D01*
X212863Y35056D01*
X212936Y34886D01*
X212985Y34691D01*
X213058Y34448D01*
X213082Y34350D01*
X213118Y34144D01*
X213167Y33949D01*
X213191Y33827D01*
X213289Y33243D01*
X213313Y33049D01*
X213337Y32805D01*
X213362Y32659D01*
X213386Y32538D01*
X213410Y32197D01*
X213435Y31637D01*
X213447Y31090D01*
X213423Y31017D01*
X213398Y30189D01*
X213374Y30116D01*
X213337Y29885D01*
X213313Y29642D01*
X213289Y29447D01*
X213264Y29301D01*
X213240Y29179D01*
X213167Y28742D01*
X213118Y28547D01*
X213094Y28425D01*
X213070Y28279D01*
X213045Y28182D01*
X212960Y27902D01*
X212899Y27744D01*
X212863Y27610D01*
X212839Y27513D01*
X212790Y27391D01*
X212741Y27221D01*
X212680Y27062D01*
X212632Y26941D01*
X212559Y26746D01*
X212437Y26430D01*
X212315Y26162D01*
X212279Y26126D01*
X212242Y25992D01*
X212206Y25955D01*
X211744Y25055D01*
X211695Y25006D01*
X211598Y24836D01*
X211476Y24617D01*
X211306Y24349D01*
X211281Y24301D01*
X211233Y24252D01*
X211160Y24130D01*
X211087Y24057D01*
X211062Y24009D01*
X210989Y23936D01*
X210965Y23887D01*
X210843Y23717D01*
X210819Y23668D01*
X210746Y23595D01*
X210722Y23546D01*
X210624Y23449D01*
X210600Y23400D01*
X210503Y23303D01*
X210478Y23254D01*
X210381Y23157D01*
X210357Y23108D01*
X210308Y23084D01*
X210284Y23035D01*
X210040Y22792D01*
X210016Y22743D01*
X209967Y22719D01*
X209943Y22670D01*
X209821Y22549D01*
X209797Y22500D01*
X209712Y22439D01*
X209541Y22269D01*
X209493Y22245D01*
X209079Y21831D01*
X209030Y21806D01*
X208897Y21697D01*
X208811Y21636D01*
X208763Y21588D01*
X208714Y21563D01*
X208617Y21466D01*
X208568Y21442D01*
X208519Y21393D01*
X208471Y21369D01*
X208422Y21320D01*
X208373Y21295D01*
X208325Y21247D01*
X208276Y21223D01*
X207935Y20979D01*
X207887Y20955D01*
X207838Y20906D01*
X207789Y20882D01*
X207595Y20760D01*
X207546Y20736D01*
X207400Y20638D01*
X207351Y20614D01*
X207206Y20517D01*
X207084Y20444D01*
X206670Y20225D01*
X206305Y20055D01*
X206086Y19957D01*
X205575Y19714D01*
X205478Y19690D01*
X205320Y19629D01*
X205113Y19568D01*
X204991Y19519D01*
X204687Y19410D01*
X204553Y19373D01*
X204395Y19337D01*
X204273Y19288D01*
X204139Y19252D01*
X203945Y19203D01*
X203860Y19142D01*
X203884Y18947D01*
X203933Y18899D01*
X203981Y18728D01*
X204079Y18509D01*
X204103Y18412D01*
X204176Y18242D01*
X204285Y17938D01*
X204346Y17731D01*
X204444Y17512D01*
X204504Y17354D01*
X204541Y17317D01*
X204577Y17183D01*
X204626Y17062D01*
X204687Y16903D01*
X204711Y16806D01*
X204784Y16636D01*
X204821Y16502D01*
X204906Y16295D01*
X205088Y15820D01*
X205149Y15687D01*
X205174Y15589D01*
X205247Y15419D01*
X205307Y15261D01*
X205344Y15127D01*
X205368Y14932D01*
X205344Y14859D01*
X205198Y14592D01*
X205015Y14482D01*
X204918Y14458D01*
X204553Y14482D01*
X204334Y14653D01*
X204200Y14957D01*
X204139Y15115D01*
X204042Y15382D01*
X203981Y15541D01*
X203933Y15662D01*
X203860Y15833D01*
X203677Y16307D01*
X203616Y16514D01*
X203495Y16830D01*
X203422Y17001D01*
X203336Y17232D01*
X203300Y17268D01*
X203263Y17402D01*
X203190Y17597D01*
X203093Y17865D01*
X203044Y17986D01*
X203020Y18083D01*
X202959Y18217D01*
X202935Y18315D01*
X202874Y18473D01*
X202838Y18509D01*
X202801Y18643D01*
X202740Y18777D01*
X202655Y18935D01*
X202570Y18947D01*
X202241Y18911D01*
X201852Y18886D01*
X201366Y18838D01*
X199979Y18862D01*
X199905Y18886D01*
X199455Y18923D01*
X199139Y18972D01*
X198896Y18996D01*
X198579Y19045D01*
X198385Y19093D01*
X198239Y19118D01*
X197995Y19166D01*
X197861Y19203D01*
X197764Y19227D01*
X197606Y19264D01*
X197484Y19312D01*
X197375Y19349D01*
X197278Y19373D01*
X197034Y19470D01*
X196876Y19507D01*
X196754Y19556D01*
X196657Y19580D01*
X196389Y19677D01*
X196195Y19750D01*
X196061Y19811D01*
X195550Y20055D01*
X195452Y20079D01*
X195136Y20249D01*
X194966Y20347D01*
X194747Y20468D01*
X194698Y20517D01*
X194284Y20736D01*
X193980Y20943D01*
X193944Y20979D01*
X193822Y21052D01*
X193773Y21101D01*
X193652Y21174D01*
X193603Y21223D01*
X193482Y21295D01*
X193263Y21442D01*
X193116Y21417D01*
X193068Y21369D01*
X193019Y21344D01*
X192897Y21223D01*
X192849Y21198D01*
X192800Y21149D01*
X192752Y21125D01*
X192618Y21016D01*
X192508Y20906D01*
X192460Y20882D01*
X192362Y20784D01*
X192313Y20760D01*
X192265Y20712D01*
X192216Y20687D01*
X192167Y20638D01*
X192119Y20614D01*
X192046Y20541D01*
X191997Y20517D01*
X191851Y20371D01*
X191803Y20347D01*
X191705Y20249D01*
X191656Y20225D01*
X191608Y20176D01*
X191559Y20152D01*
X191486Y20079D01*
X191437Y20055D01*
X191364Y19981D01*
X191316Y19957D01*
X191170Y19811D01*
X191121Y19787D01*
X191048Y19714D01*
X191000Y19690D01*
X190866Y19580D01*
X190805Y19519D01*
X190756Y19495D01*
X190659Y19397D01*
X190610Y19373D01*
X190488Y19252D01*
X190440Y19227D01*
X190306Y19118D01*
X190270Y19081D01*
X190221Y19057D01*
X190148Y18984D01*
X190099Y18959D01*
X190087Y18947D01*
X190075Y18935D01*
X190026Y18886D01*
X189977Y18862D01*
X189904Y18789D01*
X189856Y18765D01*
X189758Y18668D01*
X189540Y18570D01*
X189442Y18546D01*
X189223Y18570D01*
X188992Y18728D01*
X188968Y18777D01*
X188919Y18826D01*
X188858Y18984D01*
X188834Y19081D01*
X188822Y19142D01*
X188846Y19215D01*
X188895Y19337D01*
X188968Y19458D01*
X189016Y19507D01*
X189041Y19556D01*
X189077Y19592D01*
X189126Y19617D01*
X189223Y19714D01*
X189272Y19738D01*
X189345Y19811D01*
X189394Y19835D01*
X189540Y19981D01*
X189588Y20006D01*
X189661Y20079D01*
X189710Y20103D01*
X189758Y20152D01*
X189807Y20176D01*
X189904Y20273D01*
X189953Y20298D01*
X190026Y20371D01*
X190075Y20395D01*
X190124Y20444D01*
X190172Y20468D01*
X190318Y20614D01*
X190367Y20638D01*
X190464Y20736D01*
X190513Y20760D01*
X190647Y20870D01*
X190793Y20991D01*
X190829Y21028D01*
X190878Y21052D01*
X191024Y21198D01*
X191073Y21223D01*
X191206Y21332D01*
X191292Y21393D01*
X191340Y21442D01*
X191389Y21466D01*
X191511Y21588D01*
X191559Y21612D01*
X191656Y21709D01*
X191705Y21734D01*
X191778Y21806D01*
X191827Y21831D01*
X191961Y21940D01*
X192046Y22025D01*
X192094Y22050D01*
X192192Y22147D01*
X192241Y22171D01*
X192301Y22232D01*
X192228Y22354D01*
X191912Y22670D01*
X191888Y22719D01*
X191401Y23206D01*
X191377Y23254D01*
X191328Y23303D01*
X191304Y23352D01*
X191255Y23400D01*
X191231Y23449D01*
X191182Y23498D01*
X191158Y23546D01*
X191036Y23668D01*
X191012Y23717D01*
X190963Y23765D01*
X190939Y23814D01*
X190890Y23863D01*
X190866Y23911D01*
X190817Y23960D01*
X190793Y24009D01*
X190683Y24142D01*
X190598Y24276D01*
X190501Y24447D01*
X190428Y24520D01*
X190330Y24690D01*
X190209Y24885D01*
X190111Y25055D01*
X189990Y25250D01*
X189503Y26247D01*
X189381Y26515D01*
X189260Y26831D01*
X189187Y27002D01*
X189138Y27172D01*
X189016Y27488D01*
X188992Y27634D01*
X188943Y27756D01*
X188919Y27853D01*
X188883Y28012D01*
X188834Y28133D01*
X188797Y28267D01*
X188761Y28425D01*
X188700Y28632D01*
X188651Y28973D01*
X188627Y29070D01*
X188578Y29362D01*
X188554Y29532D01*
X188530Y29630D01*
X188493Y29885D01*
X188469Y30201D01*
X188444Y30712D01*
X188432Y31941D01*
X188457Y32014D01*
X188481Y32720D01*
X188505Y32793D01*
X188530Y33036D01*
X188554Y33207D01*
X188578Y33450D01*
X188639Y33730D01*
X188712Y34095D01*
X188773Y34302D01*
X188834Y34581D01*
X188870Y34691D01*
X188919Y34886D01*
X188980Y35044D01*
X189138Y35543D01*
X189162Y35640D01*
X189260Y35883D01*
X189296Y36017D01*
X189333Y36054D01*
X189394Y36212D01*
X189503Y36394D01*
X189527Y36492D01*
X189625Y36711D01*
X189746Y36978D01*
X189917Y37295D01*
X190014Y37465D01*
X190063Y37514D01*
X190282Y37927D01*
X190403Y38122D01*
X190428Y38171D01*
X190537Y38305D01*
X190622Y38438D01*
X190671Y38487D01*
X190695Y38536D01*
X190939Y38876D01*
X190963Y38925D01*
X191012Y38974D01*
X191036Y39022D01*
X191133Y39120D01*
X191158Y39168D01*
X191231Y39241D01*
X191255Y39290D01*
X191377Y39412D01*
X191401Y39460D01*
X191523Y39582D01*
X191547Y39631D01*
X191790Y39874D01*
X191815Y39923D01*
X191936Y40044D01*
X191961Y40093D01*
X192046Y40178D01*
X192082Y40190D01*
X192094Y40227D01*
X192143Y40251D01*
X192265Y40373D01*
X192313Y40397D01*
X192752Y40835D01*
X192800Y40859D01*
X192873Y40932D01*
X192922Y40957D01*
X193056Y41066D01*
X193092Y41103D01*
X193141Y41127D01*
X193214Y41200D01*
X193263Y41224D01*
X193335Y41297D01*
X193384Y41322D01*
X193518Y41431D01*
X193627Y41516D01*
X193676Y41541D01*
X193810Y41650D01*
X193895Y41687D01*
X194212Y41906D01*
X194260Y41930D01*
X194406Y42027D01*
X194479Y42052D01*
X194528Y42100D01*
X194698Y42198D01*
X194966Y42368D01*
X195063Y42392D01*
X196012Y42855D01*
X196231Y42952D01*
X196329Y42976D01*
X196499Y43049D01*
X197071Y43256D01*
X197204Y43293D01*
X197363Y43329D01*
X197484Y43378D01*
X197618Y43414D01*
X197776Y43451D01*
X197898Y43500D01*
X198020Y43524D01*
X198117Y43548D01*
X198239Y43573D01*
X198336Y43597D01*
X198458Y43621D01*
X198944Y43694D01*
X199066Y43719D01*
X199212Y43743D01*
X199407Y43767D01*
X200124Y43804D01*
X200222Y43828D01*
X200757Y43852D01*
X201828Y43828D01*
X201901Y43804D01*
X202388Y43779D01*
X202460Y43755D01*
X202826Y43731D01*
X202899Y43706D01*
X203069Y43682D01*
X203166Y43658D01*
X203336Y43633D01*
X203495Y43597D01*
X203555Y43585D01*
X203641Y43670D01*
X203677Y43828D01*
X203714Y43962D01*
X203762Y44157D01*
X203799Y44290D01*
X203835Y44400D01*
X203872Y44558D01*
X203884Y44643D01*
X203847Y44704D01*
X203507Y44801D01*
X203227Y44862D01*
X203020Y44923D01*
X202862Y44960D01*
X202765Y44984D01*
X202607Y45045D01*
X202448Y45081D01*
X202254Y45154D01*
X202132Y45203D01*
X202096Y45239D01*
X202047Y45264D01*
X201962Y45349D01*
X201889Y45519D01*
X201864Y45690D01*
X201913Y45909D01*
X202071Y46115D01*
X202120Y46140D01*
X202169Y46188D01*
X202339Y46237D01*
X202704Y46213D01*
D02*
G37*
G36*
X221708Y46432D02*
X221793Y46298D01*
X221842Y46249D01*
X221866Y46201D01*
X221939Y46128D01*
X221964Y46079D01*
X222073Y45945D01*
X222110Y45836D01*
X222085Y45714D01*
X222037Y45665D01*
X222012Y45617D01*
X221964Y45568D01*
X221939Y45471D01*
X221866Y45398D01*
X221574Y44887D01*
X221526Y44838D01*
Y44814D01*
X221307Y44449D01*
X221209Y44278D01*
X221161Y44230D01*
X221088Y44108D01*
X221063Y44035D01*
X221173Y44023D01*
X221392Y44120D01*
X221562Y44144D01*
X221732Y44217D01*
X221830Y44242D01*
X221964Y44278D01*
X222000Y44315D01*
X222158Y44351D01*
X222280Y44376D01*
X222414Y44436D01*
X222511Y44461D01*
X222669Y44497D01*
X222803Y44558D01*
X222900Y44582D01*
X223071Y44607D01*
X223119Y44582D01*
X223156Y44546D01*
X223180Y44497D01*
X223253Y44424D01*
X223278Y44376D01*
X223351Y44303D01*
X223375Y44254D01*
X223448Y44181D01*
X223472Y44132D01*
X223582Y43998D01*
X223594Y43938D01*
X223533Y43877D01*
X223484Y43852D01*
X223411Y43828D01*
X223290Y43901D01*
X223180Y43913D01*
X223059Y43865D01*
X222973Y43779D01*
X222925Y43755D01*
X222827Y43658D01*
X222779Y43633D01*
X222706Y43560D01*
X222657Y43536D01*
X222560Y43439D01*
X222511Y43414D01*
X222414Y43317D01*
X222365Y43293D01*
X222268Y43195D01*
X222219Y43171D01*
X222122Y43074D01*
X222073Y43049D01*
X221976Y42952D01*
X221927Y42928D01*
X221830Y42830D01*
X221781Y42806D01*
X221647Y42672D01*
X221769Y42502D01*
X221708Y42392D01*
X221586Y42344D01*
X221538Y42368D01*
X221477Y42429D01*
X221453Y42478D01*
X221380Y42551D01*
X221355Y42599D01*
X221282Y42672D01*
X221258Y42721D01*
X221148Y42855D01*
X221088Y42940D01*
X221039Y42989D01*
X220966Y43135D01*
X221075Y43244D01*
X221197Y43220D01*
X221319Y43171D01*
X221465Y43195D01*
X221562Y43293D01*
X221611Y43317D01*
X221684Y43390D01*
X221732Y43414D01*
X221866Y43524D01*
X221903Y43560D01*
X221951Y43585D01*
X221976Y43633D01*
X222024Y43658D01*
X222122Y43755D01*
X222170Y43779D01*
X222268Y43877D01*
X222316Y43901D01*
X222389Y43974D01*
X222438Y43998D01*
X222499Y44059D01*
X222487Y44120D01*
X222268Y44096D01*
X222097Y44023D01*
X222000Y43998D01*
X221866Y43962D01*
X221732Y43901D01*
X221550Y43865D01*
X221428Y43816D01*
X221319Y43779D01*
X221100Y43731D01*
X220929Y43658D01*
X220747Y43621D01*
X220710Y43585D01*
X220613Y43560D01*
X220564Y43585D01*
X220431Y43719D01*
X220406Y43767D01*
X220370Y43852D01*
X220455Y44011D01*
X220479Y44059D01*
X220528Y44108D01*
X220650Y44327D01*
X220747Y44497D01*
X220869Y44716D01*
X221063Y45057D01*
X221112Y45106D01*
X221209Y45276D01*
X221258Y45325D01*
X221282Y45373D01*
X221355Y45446D01*
X221343Y45531D01*
X221221Y45458D01*
X221088Y45349D01*
X221051Y45312D01*
X221002Y45288D01*
X220869Y45179D01*
X220783Y45118D01*
X220735Y45069D01*
X220686Y45045D01*
X220552Y44935D01*
X220370Y44801D01*
X220321Y44777D01*
X220248Y44704D01*
X220199Y44680D01*
X220163Y44643D01*
X220260Y44473D01*
X220285Y44400D01*
X220224Y44339D01*
X220175Y44315D01*
X220102Y44290D01*
X220029Y44315D01*
X219968Y44376D01*
X219944Y44424D01*
X219871Y44497D01*
X219847Y44546D01*
X219774Y44619D01*
X219749Y44668D01*
X219640Y44801D01*
X219603Y44838D01*
X219628Y44960D01*
X219688Y45020D01*
X219761Y45045D01*
X219907Y44947D01*
X220053Y44972D01*
X220126Y45045D01*
X220248Y45118D01*
X220297Y45166D01*
X220418Y45239D01*
X220467Y45288D01*
X220552Y45325D01*
X220577Y45373D01*
X220710Y45458D01*
X220759Y45507D01*
X220881Y45580D01*
X220929Y45629D01*
X220978Y45653D01*
X221051Y45726D01*
X221100Y45750D01*
X221234Y45860D01*
X221367Y45945D01*
X221416Y45994D01*
X221501Y46030D01*
X221550Y46152D01*
X221453Y46298D01*
X221526Y46420D01*
X221635Y46456D01*
X221708Y46432D01*
D02*
G37*
G36*
X179563Y45215D02*
X179685Y45166D01*
X179733Y45142D01*
X179757Y45118D01*
X179770Y45106D01*
X179891Y44984D01*
X179964Y44692D01*
X179940Y44449D01*
X180001Y44436D01*
X180220Y44582D01*
X180512Y44655D01*
X180658Y44631D01*
X180731Y44607D01*
X180853Y44534D01*
X180901Y44485D01*
X180950Y44461D01*
X181059Y44351D01*
X181108Y44230D01*
X181157Y44059D01*
X181132Y43767D01*
X181084Y43646D01*
X181059Y43548D01*
X180986Y43475D01*
X180913Y43354D01*
X180439Y42709D01*
X180402Y42672D01*
X180378Y42624D01*
X180256Y42453D01*
X180232Y42405D01*
X180147Y42368D01*
X180037Y42453D01*
X180013Y42551D01*
X180037Y42648D01*
X180013Y42770D01*
X179952Y42830D01*
X179904Y42855D01*
X179806Y42952D01*
X179685Y43025D01*
X179636Y43074D01*
X179587Y43098D01*
X179514Y43171D01*
X179466Y43195D01*
X179076Y43487D01*
X179028Y43536D01*
X178906Y43609D01*
X178602Y43840D01*
X178541Y43901D01*
X178456Y43913D01*
X178407Y43889D01*
X178346Y43779D01*
X178176Y43804D01*
X178115Y43913D01*
X178139Y44011D01*
X178188Y44059D01*
X178212Y44108D01*
X178285Y44181D01*
X178310Y44230D01*
X178383Y44303D01*
X178456Y44424D01*
X178504Y44473D01*
X178577Y44595D01*
X178626Y44643D01*
X178650Y44692D01*
X178723Y44765D01*
X178748Y44814D01*
X178857Y44947D01*
X178955Y45045D01*
X179003Y45069D01*
X179149Y45166D01*
X179393Y45239D01*
X179563Y45215D01*
D02*
G37*
G36*
X195769Y49084D02*
X196280Y49060D01*
X196353Y49035D01*
X196645Y49011D01*
X196888Y48914D01*
X197034Y48889D01*
X197204Y48816D01*
X197302Y48792D01*
X197570Y48670D01*
X197934Y48476D01*
X198105Y48378D01*
X198153Y48330D01*
X198202Y48305D01*
X198275Y48232D01*
X198445Y48135D01*
X198494Y48086D01*
X198543Y48062D01*
X198762Y47843D01*
X198811Y47819D01*
X198871Y47734D01*
X199163Y47442D01*
X199188Y47393D01*
X199309Y47223D01*
X199334Y47174D01*
X199407Y47101D01*
X199480Y46979D01*
X199577Y46833D01*
X199601Y46785D01*
X199638Y46724D01*
X199650Y46712D01*
X199674Y46614D01*
X199845Y46249D01*
X199954Y45945D01*
X199991Y45836D01*
X200027Y45677D01*
X200051Y45580D01*
X200088Y45471D01*
X200064Y45227D01*
X199966Y45057D01*
X199893Y44984D01*
X199881Y44947D01*
X199832Y44923D01*
X199613Y44826D01*
X199078Y44801D01*
X198616Y44777D01*
X198409Y44741D01*
X198214Y44716D01*
X197995Y44692D01*
X197679Y44643D01*
X197582Y44619D01*
X197338Y44570D01*
X197241Y44546D01*
X197132Y44509D01*
X197034Y44485D01*
X196864Y44461D01*
X196766Y44436D01*
X196645Y44388D01*
X196548Y44363D01*
X196158Y44242D01*
X196061Y44217D01*
X195939Y44169D01*
X195842Y44144D01*
X195647Y44071D01*
X195525Y44023D01*
X195209Y43877D01*
X194990Y43779D01*
X194832Y43719D01*
X194479Y43536D01*
X194163Y43366D01*
X193993Y43268D01*
X193944Y43220D01*
X193676Y43074D01*
X193482Y42952D01*
X193433Y42928D01*
X193263Y42806D01*
X193214Y42782D01*
X193141Y42709D01*
X193092Y42684D01*
X193043Y42636D01*
X192995Y42611D01*
X192946Y42563D01*
X192897Y42538D01*
X192849Y42490D01*
X192800Y42465D01*
X192581Y42295D01*
X192362Y42149D01*
X192167Y42100D01*
X191924Y42125D01*
X191705Y42295D01*
X191644Y42380D01*
X191596Y42429D01*
X191547Y42551D01*
X191377Y42916D01*
X191352Y43013D01*
X191255Y43329D01*
X191218Y43487D01*
X191158Y43694D01*
X191121Y43974D01*
X191097Y44266D01*
X191085Y44862D01*
X191109Y44935D01*
X191133Y45325D01*
X191158Y45398D01*
X191182Y45544D01*
X191231Y45665D01*
X191267Y45872D01*
X191437Y46359D01*
X191498Y46493D01*
X191523Y46541D01*
X191669Y46809D01*
X191717Y46858D01*
X191742Y46931D01*
X191863Y47101D01*
X191888Y47150D01*
X191936Y47198D01*
X192034Y47369D01*
X192082Y47417D01*
X192107Y47466D01*
X192423Y47782D01*
X192447Y47831D01*
X192533Y47892D01*
X192727Y48086D01*
X192776Y48111D01*
X193263Y48451D01*
X193311Y48476D01*
X193360Y48524D01*
X193676Y48670D01*
X193895Y48768D01*
X194126Y48853D01*
X194236Y48889D01*
X194333Y48914D01*
X194467Y48950D01*
X194625Y49011D01*
X194869Y49035D01*
X195173Y49072D01*
X195696Y49108D01*
X195769Y49084D01*
D02*
G37*
G36*
X212632Y44680D02*
X212705Y44655D01*
X212899Y44631D01*
X212972Y44607D01*
X213204Y44570D01*
X213325Y44522D01*
X213459Y44485D01*
X213556Y44461D01*
X213800Y44363D01*
X213958Y44303D01*
X214250Y44157D01*
X214432Y44071D01*
X214481Y44023D01*
X214603Y43950D01*
X214651Y43901D01*
X214773Y43828D01*
X215077Y43597D01*
X215114Y43560D01*
X215162Y43536D01*
X215467Y43232D01*
X215491Y43183D01*
X215661Y43013D01*
X215686Y42964D01*
X215783Y42867D01*
X215807Y42818D01*
X215929Y42648D01*
X215953Y42599D01*
X216197Y42161D01*
X216367Y41796D01*
X216428Y41638D01*
X216464Y41504D01*
X216489Y41407D01*
X216562Y41164D01*
X216610Y40823D01*
X216635Y40726D01*
X216671Y40349D01*
X216683Y39923D01*
X216659Y39850D01*
X216622Y39472D01*
X216598Y39351D01*
X216549Y39059D01*
X216489Y38852D01*
X216464Y38755D01*
X216403Y38596D01*
X216367Y38463D01*
X216318Y38341D01*
X216172Y38073D01*
X215929Y37635D01*
X215698Y37331D01*
X215661Y37295D01*
X215637Y37246D01*
X215564Y37173D01*
X215540Y37124D01*
X215162Y36747D01*
X215114Y36723D01*
X214919Y36528D01*
X214797Y36455D01*
X214627Y36333D01*
X214578Y36309D01*
X214311Y36188D01*
X214019Y36212D01*
X213812Y36346D01*
X213788Y36394D01*
X213715Y36467D01*
X213569Y36808D01*
X213508Y36966D01*
X213471Y37003D01*
X213386Y37234D01*
X213350Y37270D01*
X213325Y37368D01*
X212912Y38171D01*
X212814Y38341D01*
X212717Y38487D01*
X212693Y38536D01*
X212595Y38682D01*
X212571Y38730D01*
X212328Y39095D01*
X212279Y39144D01*
X212255Y39193D01*
X212182Y39266D01*
X212157Y39314D01*
X211865Y39704D01*
X211756Y39838D01*
X211695Y39923D01*
X211549Y40069D01*
X211525Y40117D01*
X211330Y40312D01*
X211318Y40349D01*
X211281Y40361D01*
X211269Y40373D01*
X211233Y40409D01*
X211208Y40458D01*
X210928Y40738D01*
X210880Y40762D01*
X210831Y40835D01*
X210782Y40859D01*
X210661Y40981D01*
X210612Y41006D01*
X210478Y41139D01*
X210466Y41176D01*
X210417Y41200D01*
X210320Y41297D01*
X210271Y41322D01*
X210138Y41431D01*
X210028Y41516D01*
X209979Y41541D01*
X209906Y41614D01*
X209858Y41638D01*
X209760Y41736D01*
X209712Y41760D01*
X209578Y41869D01*
X209383Y41991D01*
X209140Y42137D01*
X208884Y42319D01*
X208751Y42429D01*
X208653Y42575D01*
X208617Y42709D01*
X208605Y42867D01*
X208629Y42940D01*
X208653Y43037D01*
X208811Y43268D01*
X208860Y43293D01*
X208921Y43354D01*
X208933Y43390D01*
X208982Y43414D01*
X209225Y43658D01*
X209274Y43682D01*
X209322Y43731D01*
X209444Y43804D01*
X209493Y43852D01*
X209614Y43925D01*
X209663Y43974D01*
X209712Y43998D01*
X209906Y44120D01*
X210223Y44266D01*
X210393Y44339D01*
X210612Y44436D01*
X210709Y44461D01*
X210843Y44497D01*
X210965Y44546D01*
X211099Y44582D01*
X211306Y44619D01*
X211427Y44643D01*
X211756Y44680D01*
X211999Y44704D01*
X212632Y44680D01*
D02*
G37*
G36*
X187301Y40908D02*
X187471Y40811D01*
X187532Y40750D01*
X187556Y40701D01*
X187605Y40653D01*
X187654Y40482D01*
X187678Y40385D01*
X187654Y40288D01*
X187617Y40154D01*
X187581Y40069D01*
X187435Y39801D01*
X187240Y39460D01*
X187191Y39412D01*
X186997Y39071D01*
X186340Y37733D01*
X186096Y37100D01*
X186072Y37027D01*
X185975Y36808D01*
X185902Y36638D01*
X185877Y36540D01*
X185780Y36224D01*
X185731Y36029D01*
X185634Y35713D01*
X185573Y35555D01*
X185537Y35421D01*
X185512Y35251D01*
X185415Y34934D01*
X185391Y34764D01*
X185366Y34667D01*
X185318Y34496D01*
X185269Y34204D01*
X185245Y34034D01*
X185220Y33937D01*
X185196Y33766D01*
X185159Y33486D01*
X185135Y33268D01*
X185111Y33146D01*
X185086Y33000D01*
X185062Y32489D01*
X185038Y32051D01*
X185014Y30275D01*
X184904Y30068D01*
X184795Y29958D01*
X184746Y29934D01*
X184697Y29885D01*
X184503Y29836D01*
X184259Y29861D01*
X184089Y29983D01*
X184028Y30019D01*
X183906Y30287D01*
X183882Y30603D01*
X183906Y32477D01*
X183931Y32550D01*
X183955Y33085D01*
X183979Y33158D01*
X184004Y33474D01*
X184028Y33645D01*
X184065Y33876D01*
X184077Y33961D01*
Y33985D01*
X184101Y34083D01*
X184125Y34399D01*
X184223Y34788D01*
X184247Y34959D01*
X184344Y35275D01*
X184381Y35506D01*
X184405Y35603D01*
X184466Y35810D01*
X184563Y36127D01*
X184612Y36297D01*
X184685Y36540D01*
X184709Y36638D01*
X184746Y36772D01*
X184807Y36930D01*
X184843Y37064D01*
X184953Y37319D01*
X185050Y37538D01*
X185111Y37696D01*
X185208Y37964D01*
X185293Y38171D01*
X185318Y38268D01*
X185488Y38584D01*
X185756Y39144D01*
X186035Y39692D01*
X186072Y39704D01*
X186242Y40020D01*
X186340Y40166D01*
X186510Y40482D01*
X186559Y40531D01*
X186583Y40604D01*
X186693Y40738D01*
X186790Y40835D01*
X186838Y40859D01*
X187009Y40932D01*
X187301Y40908D01*
D02*
G37*
G36*
X190391Y41249D02*
X190562Y41151D01*
X190671Y41042D01*
X190768Y40823D01*
X190744Y40507D01*
X190647Y40361D01*
X190622Y40312D01*
X190549Y40239D01*
X190525Y40190D01*
X190428Y40093D01*
X190403Y40044D01*
X190306Y39947D01*
X190282Y39898D01*
X190209Y39825D01*
X190184Y39777D01*
X190075Y39643D01*
X189600Y38974D01*
X189576Y38925D01*
X189479Y38779D01*
X189454Y38730D01*
X189406Y38682D01*
X189381Y38633D01*
X189260Y38463D01*
X189041Y38049D01*
X188968Y37927D01*
X188846Y37708D01*
X188481Y36954D01*
X188432Y36832D01*
X188408Y36735D01*
X188213Y36321D01*
X188092Y36005D01*
X188055Y35871D01*
X187994Y35713D01*
X187946Y35543D01*
X187873Y35299D01*
X187824Y35105D01*
X187775Y34983D01*
X187727Y34788D01*
X187690Y34655D01*
X187654Y34545D01*
X187629Y34448D01*
X187568Y34192D01*
X187544Y34095D01*
X187520Y33949D01*
X187495Y33730D01*
X187471Y33584D01*
X187423Y33340D01*
X187398Y33122D01*
X187374Y32854D01*
X187337Y32525D01*
X187313Y32282D01*
X187289Y31674D01*
X187313Y30189D01*
X187337Y30116D01*
X187386Y29581D01*
X187447Y29179D01*
X187471Y29058D01*
X187508Y28729D01*
X187483Y28340D01*
X187374Y28206D01*
X187349Y28157D01*
X187301Y28133D01*
X187033Y28012D01*
X186790Y28036D01*
X186619Y28133D01*
X186486Y28267D01*
X186437Y28389D01*
X186388Y28583D01*
X186315Y29094D01*
X186267Y29386D01*
X186242Y29484D01*
X186206Y29983D01*
X186182Y30250D01*
X186157Y30712D01*
X186145Y31966D01*
X186169Y32039D01*
X186206Y32659D01*
X186230Y32951D01*
X186279Y33340D01*
X186327Y33657D01*
X186474Y34533D01*
X186498Y34630D01*
X186559Y34788D01*
X186595Y34995D01*
X186619Y35092D01*
X186680Y35251D01*
X186717Y35409D01*
X186765Y35531D01*
X186863Y35920D01*
X187009Y36333D01*
X187106Y36601D01*
X187167Y36759D01*
X187191Y36857D01*
X187240Y36905D01*
X187325Y37136D01*
X187386Y37270D01*
X187435Y37392D01*
X187508Y37562D01*
X187629Y37830D01*
X187702Y37952D01*
X188043Y38609D01*
X188140Y38779D01*
X188262Y38998D01*
X188311Y39047D01*
X188335Y39095D01*
X188457Y39290D01*
X188481Y39339D01*
X188530Y39387D01*
X188651Y39606D01*
X188883Y39911D01*
X188968Y40044D01*
X189016Y40093D01*
X189089Y40215D01*
X189138Y40288D01*
X189150Y40300D01*
X189211Y40385D01*
X189260Y40434D01*
X189284Y40482D01*
X189357Y40555D01*
X189381Y40604D01*
X189503Y40726D01*
X189527Y40774D01*
X189600Y40847D01*
X189625Y40896D01*
X189698Y40969D01*
X189722Y41018D01*
X189904Y41200D01*
X190002Y41224D01*
X190124Y41273D01*
X190391Y41249D01*
D02*
G37*
G36*
X217620Y32781D02*
X217693Y32708D01*
X217742Y32683D01*
X217876Y32550D01*
X217973Y32306D01*
Y32258D01*
Y32233D01*
X217997Y31187D01*
X217973Y30433D01*
X217949Y30360D01*
X217912Y29910D01*
X217888Y29593D01*
X217863Y29350D01*
X217815Y29058D01*
X217790Y28936D01*
X217766Y28742D01*
X217730Y28413D01*
X217705Y28316D01*
X217669Y28133D01*
X217620Y27841D01*
X217547Y27549D01*
X217523Y27403D01*
X217474Y27208D01*
X217438Y27075D01*
X217377Y26819D01*
X217328Y26697D01*
X217292Y26564D01*
X217206Y26332D01*
X217158Y26138D01*
X217073Y25858D01*
X217048Y25761D01*
X217012Y25627D01*
X216951Y25493D01*
X216890Y25335D01*
X216829Y25201D01*
X216768Y25043D01*
X216732Y25006D01*
X216695Y24873D01*
X216647Y24751D01*
X216586Y24593D01*
X216513Y24422D01*
X216452Y24264D01*
X216306Y23972D01*
X216245Y23863D01*
X215734Y22865D01*
X215661Y22792D01*
X215637Y22695D01*
X215564Y22622D01*
X215369Y22257D01*
X215272Y22086D01*
X215138Y21904D01*
X215089Y21879D01*
X215016Y21806D01*
X214846Y21758D01*
X214749Y21734D01*
X214554Y21758D01*
X214335Y21879D01*
X214274Y21940D01*
X214177Y22159D01*
X214153Y22330D01*
X214177Y22427D01*
X214250Y22597D01*
X214420Y22914D01*
X214469Y22962D01*
X214664Y23303D01*
X214834Y23571D01*
X214956Y23838D01*
X215126Y24155D01*
X215418Y24763D01*
X215515Y24982D01*
X215588Y25177D01*
X215661Y25347D01*
X215722Y25505D01*
X215759Y25542D01*
X215795Y25675D01*
X215880Y25882D01*
X215941Y26040D01*
X215978Y26174D01*
X216002Y26272D01*
X216124Y26661D01*
X216160Y26795D01*
X216221Y26953D01*
X216245Y27050D01*
X216318Y27221D01*
X216367Y27513D01*
X216464Y27902D01*
X216549Y28279D01*
X216574Y28401D01*
X216598Y28595D01*
X216671Y29058D01*
X216695Y29253D01*
X216720Y29471D01*
X216744Y29618D01*
X216781Y29946D01*
X216805Y30335D01*
X216829Y30652D01*
X216854Y32404D01*
X216951Y32550D01*
X216975Y32598D01*
X217109Y32732D01*
X217158Y32757D01*
X217231Y32781D01*
X217328Y32805D01*
X217620Y32781D01*
D02*
G37*
G36*
X215089Y34606D02*
X215260Y34509D01*
X215296Y34472D01*
X215321Y34423D01*
X215369Y34375D01*
X215418Y34253D01*
X215467Y34058D01*
X215503Y33851D01*
X215527Y33705D01*
X215552Y33511D01*
X215600Y33219D01*
X215625Y33024D01*
X215649Y32732D01*
X215673Y32392D01*
X215698Y31856D01*
X215710Y30895D01*
X215686Y30822D01*
X215661Y30141D01*
Y30116D01*
X215637Y29800D01*
X215613Y29630D01*
X215588Y29532D01*
X215540Y29119D01*
X215503Y28912D01*
X215454Y28668D01*
X215406Y28352D01*
X215381Y28231D01*
X215333Y28036D01*
X215308Y27914D01*
X215284Y27768D01*
X215223Y27561D01*
X215199Y27464D01*
X215162Y27330D01*
X215102Y27196D01*
X215053Y27002D01*
X215004Y26880D01*
X214956Y26685D01*
X214895Y26527D01*
X214773Y26186D01*
X214737Y26053D01*
X214676Y25894D01*
X214615Y25761D01*
X214566Y25639D01*
X214396Y25274D01*
X214347Y25152D01*
X214323Y25104D01*
X214250Y24933D01*
X213958Y24374D01*
X213593Y23717D01*
X213496Y23546D01*
X213447Y23498D01*
X213423Y23449D01*
X213301Y23279D01*
X213277Y23230D01*
X213179Y23084D01*
X213155Y23035D01*
X213033Y22865D01*
X212559Y22220D01*
X212522Y22184D01*
X212498Y22135D01*
X212388Y22001D01*
X212267Y21855D01*
X212157Y21746D01*
X212133Y21697D01*
X212060Y21624D01*
X212036Y21575D01*
X211950Y21490D01*
X211731Y21393D01*
X211415Y21417D01*
X211245Y21514D01*
X211135Y21624D01*
X211087Y21746D01*
X211038Y21916D01*
X211062Y22111D01*
X211160Y22281D01*
X211208Y22330D01*
X211233Y22378D01*
X211342Y22512D01*
X211427Y22597D01*
X211452Y22646D01*
X211561Y22780D01*
X211622Y22865D01*
X211695Y22938D01*
X211719Y22987D01*
X211792Y23060D01*
X211817Y23108D01*
X212182Y23619D01*
X212206Y23668D01*
X212255Y23717D01*
X212328Y23838D01*
X212376Y23887D01*
X212474Y24057D01*
X212620Y24301D01*
X212766Y24568D01*
X212863Y24714D01*
X212887Y24787D01*
X212936Y24836D01*
X213204Y25396D01*
X213569Y26199D01*
X213642Y26369D01*
X213690Y26539D01*
X213763Y26710D01*
X213788Y26807D01*
X213848Y26965D01*
X213909Y27172D01*
X213946Y27306D01*
X214007Y27440D01*
X214043Y27598D01*
X214092Y27720D01*
X214128Y27853D01*
X214189Y28109D01*
X214238Y28303D01*
X214262Y28425D01*
X214311Y28693D01*
X214457Y29569D01*
X214505Y30055D01*
X214530Y30347D01*
X214554Y30615D01*
X214578Y31029D01*
X214591Y31771D01*
X214566Y31844D01*
X214542Y32428D01*
X214518Y32501D01*
X214457Y33219D01*
X214432Y33316D01*
X214408Y33438D01*
X214372Y33766D01*
X214347Y33864D01*
X214323Y34131D01*
X214347Y34204D01*
X214408Y34362D01*
X214493Y34448D01*
X214518Y34496D01*
X214554Y34533D01*
X214724Y34606D01*
X214822Y34630D01*
X215089Y34606D01*
D02*
G37*
G36*
X186838Y14944D02*
X187106Y14774D01*
X187155Y14750D01*
X187204Y14701D01*
X187325Y14653D01*
X187398Y14579D01*
X187495Y14555D01*
X187568Y14482D01*
X187909Y14288D01*
X187958Y14239D01*
X188079Y14190D01*
X188153Y14117D01*
X188274Y14068D01*
X188323Y14020D01*
X188493Y13922D01*
X188578Y13837D01*
X188554Y13716D01*
X188432Y13545D01*
X188408Y13472D01*
X188311Y13326D01*
X188238Y13205D01*
X188201Y13168D01*
X188055Y13192D01*
X188019Y13302D01*
X188092Y13472D01*
X188116Y13643D01*
X188079Y13825D01*
X187885Y14020D01*
X187787Y14068D01*
X187629Y13910D01*
X187605Y13813D01*
X187532Y13740D01*
X187337Y13399D01*
X187289Y13351D01*
X187240Y13229D01*
X187167Y13156D01*
X187143Y13059D01*
X187070Y12986D01*
X186875Y12645D01*
X186826Y12596D01*
X186729Y12426D01*
X186705Y12353D01*
X186717Y12268D01*
X186875Y12183D01*
X186851Y12085D01*
X186790Y11976D01*
X186717Y11952D01*
X186449Y12122D01*
X186327Y12195D01*
X186157Y12292D01*
X186145Y12304D01*
X186108Y12341D01*
X185938Y12438D01*
X185877Y12475D01*
X185853Y12548D01*
X185938Y12657D01*
X186035Y12681D01*
X186133Y12657D01*
X186206Y12681D01*
X186315Y12767D01*
X186413Y12937D01*
X186461Y12986D01*
X186486Y13059D01*
X186534Y13107D01*
X186632Y13278D01*
X186753Y13497D01*
X186802Y13545D01*
X186997Y13886D01*
X187167Y14154D01*
X187191Y14202D01*
X187240Y14251D01*
X187264Y14348D01*
X187240Y14397D01*
X187179Y14458D01*
X187045Y14494D01*
X186936Y14531D01*
X186790Y14506D01*
X186619Y14409D01*
X186425Y14215D01*
X186352Y14239D01*
X186291Y14300D01*
X186267Y14373D01*
X186364Y14519D01*
X186388Y14567D01*
X186437Y14616D01*
X186534Y14786D01*
X186656Y14957D01*
X186693Y14993D01*
X186753Y15005D01*
X186838Y14944D01*
D02*
G37*
G36*
X214262Y14677D02*
X214311Y14628D01*
X214359Y14604D01*
X214408Y14555D01*
X214457Y14531D01*
X214542Y14397D01*
X214615Y14227D01*
X214591Y13886D01*
X214542Y13837D01*
X214518Y13789D01*
X214469Y13740D01*
X214481Y13655D01*
X214870Y13679D01*
X214943Y13655D01*
X215102Y13618D01*
X215187Y13533D01*
X215235Y13509D01*
X215296Y13448D01*
X215321Y13399D01*
X215418Y13253D01*
X215442Y13010D01*
X215418Y12718D01*
X215296Y12548D01*
X215272Y12499D01*
X215175Y12402D01*
X215162Y12365D01*
X215114Y12341D01*
X215016Y12243D01*
X214895Y12170D01*
X214554Y12025D01*
X214384Y12000D01*
X214189Y12025D01*
X214019Y12146D01*
X213982Y12158D01*
X213958Y12207D01*
X213909Y12256D01*
X213897Y12414D01*
X213909Y12426D01*
X213934Y12548D01*
X214140Y12633D01*
X214311Y12536D01*
X214347Y12499D01*
X214384Y12365D01*
X214505Y12316D01*
X214578Y12341D01*
X214700Y12365D01*
X214797Y12463D01*
X214846Y12487D01*
X214907Y12572D01*
X214956Y12694D01*
X214931Y12986D01*
X214858Y13059D01*
X214785Y13180D01*
X214737Y13205D01*
X214712Y13253D01*
X214554Y13314D01*
X214457Y13339D01*
X214286Y13314D01*
X214067Y13192D01*
X213994Y13168D01*
X213921Y13192D01*
X213885Y13229D01*
X213861Y13326D01*
X213873Y13387D01*
X213994Y13460D01*
X214104Y13570D01*
X214153Y13691D01*
X214177Y13886D01*
X214153Y13959D01*
X214104Y14081D01*
X214055Y14129D01*
X214031Y14178D01*
X213970Y14239D01*
X213921Y14263D01*
X213873Y14312D01*
X213775Y14336D01*
X213629Y14312D01*
X213508Y14190D01*
X213459Y14166D01*
X213423Y14032D01*
X213496Y13910D01*
X213569Y13837D01*
X213581Y13704D01*
X213556Y13606D01*
X213508Y13533D01*
X213410Y13509D01*
X213216Y13533D01*
X213131Y13618D01*
X213082Y13740D01*
X213106Y14081D01*
X213204Y14227D01*
X213264Y14336D01*
X213313Y14361D01*
X213362Y14433D01*
X213483Y14506D01*
X213532Y14555D01*
X213690Y14616D01*
X213727Y14653D01*
X213824Y14677D01*
X214067Y14701D01*
X214262Y14677D01*
D02*
G37*
G36*
X191170Y12657D02*
X191340Y12584D01*
X191474Y12548D01*
X191583Y12487D01*
X191681Y12463D01*
X191839Y12402D01*
X191875Y12365D01*
X192094Y12316D01*
X192265Y12243D01*
X192423Y12183D01*
X192557Y12122D01*
X192691Y12085D01*
X192715Y12012D01*
X192691Y11915D01*
X192666Y11842D01*
X192642Y11745D01*
X192581Y11587D01*
X192508Y11416D01*
X192411Y11392D01*
X192301Y11477D01*
X192326Y11745D01*
X192301Y11818D01*
X192277Y11866D01*
X192167Y12000D01*
X191900Y12122D01*
X191656Y12098D01*
X191620Y12061D01*
X191559Y11903D01*
X191498Y11793D01*
X191450Y11599D01*
X191401Y11550D01*
X191377Y11453D01*
X191401Y11355D01*
X191437Y11319D01*
X191596Y11282D01*
X191754Y11270D01*
X191815Y11331D01*
X191839Y11477D01*
X191875Y11514D01*
X191997Y11489D01*
X192082Y11404D01*
X192094Y11343D01*
X192058Y11209D01*
X191961Y10990D01*
X191936Y10893D01*
X191839Y10674D01*
X191815Y10625D01*
X191778Y10589D01*
X191681Y10613D01*
X191620Y10674D01*
X191596Y10771D01*
X191571Y10966D01*
X191486Y11051D01*
X191316Y11100D01*
X191267Y11076D01*
X191231Y11039D01*
X191133Y10820D01*
X191109Y10674D01*
X191060Y10625D01*
X191012Y10455D01*
X190987Y10406D01*
X190939Y10285D01*
X190975Y10248D01*
X191243Y10127D01*
X191364Y10102D01*
X191486Y10053D01*
X191571Y10041D01*
X191669Y10066D01*
X191863Y10187D01*
X191888Y10236D01*
X191936Y10285D01*
X191961Y10333D01*
X191997Y10370D01*
X192009Y10382D01*
X192094Y10394D01*
X192204Y10309D01*
X192167Y10175D01*
X192058Y9920D01*
X192034Y9822D01*
X191912Y9603D01*
X191851Y9591D01*
X191681Y9664D01*
X191583Y9689D01*
X191462Y9762D01*
X191304Y9798D01*
X191048Y9908D01*
X190951Y9932D01*
X190781Y10005D01*
X190683Y10029D01*
X190464Y10127D01*
X190330Y10163D01*
X190221Y10224D01*
X190099Y10273D01*
X190087Y10382D01*
X190148Y10443D01*
X190245Y10467D01*
X190403Y10504D01*
X190525Y10698D01*
X190549Y10796D01*
X190647Y11015D01*
X190671Y11112D01*
X190768Y11355D01*
X190793Y11453D01*
X190890Y11672D01*
X190926Y11805D01*
X190987Y11915D01*
X191012Y12012D01*
X191073Y12170D01*
X191109Y12207D01*
X191133Y12304D01*
X191109Y12353D01*
X191073Y12390D01*
X190914Y12475D01*
X190939Y12596D01*
X190975Y12657D01*
X191073Y12681D01*
X191170Y12657D01*
D02*
G37*
G36*
X210174Y12779D02*
X210211Y12742D01*
X210284Y12572D01*
X210320Y12438D01*
X210357Y12402D01*
X210405Y12280D01*
X210442Y12146D01*
X210478Y12110D01*
X210527Y11939D01*
X210624Y11720D01*
X210685Y11562D01*
X210722Y11526D01*
X210758Y11392D01*
X210807Y11270D01*
X210843Y11234D01*
X210880Y11076D01*
X210965Y10917D01*
X210989Y10820D01*
X211050Y10662D01*
X211147Y10613D01*
X211220Y10686D01*
X211342Y10662D01*
X211403Y10528D01*
X211379Y10431D01*
X211342Y10394D01*
X211245Y10370D01*
X211123Y10321D01*
X210953Y10248D01*
X210831Y10200D01*
X210661Y10127D01*
X210563Y10102D01*
X210466Y10053D01*
X210405Y10114D01*
X210381Y10236D01*
X210490Y10370D01*
X210527Y10479D01*
X210490Y10638D01*
X210405Y10844D01*
X210357Y10966D01*
X210284Y11136D01*
X210235Y11258D01*
X210223Y11270D01*
X210162Y11428D01*
X210138Y11526D01*
X210089Y11574D01*
X210040Y11745D01*
X209906Y12000D01*
X209833Y11976D01*
X209797Y11939D01*
X209724Y11818D01*
X209639Y11708D01*
X209456Y11793D01*
X209481Y11964D01*
X209554Y12037D01*
X209748Y12377D01*
X209821Y12499D01*
X209846Y12548D01*
X209894Y12596D01*
X209919Y12645D01*
X209979Y12730D01*
X210028Y12754D01*
X210077Y12803D01*
X210174Y12779D01*
D02*
G37*
G36*
X203397Y10869D02*
X203422Y10771D01*
X203397Y10674D01*
X203361Y10638D01*
X203239Y10565D01*
X203203Y10528D01*
X203178Y10431D01*
X203203Y10041D01*
X203227Y9968D01*
X203251Y9652D01*
X203276Y9482D01*
X203300Y8898D01*
X203324Y8825D01*
X203349Y8606D01*
X203458Y8569D01*
X203592Y8557D01*
X203616Y8460D01*
X203592Y8314D01*
X203555Y8277D01*
X202631Y8253D01*
X202570Y8314D01*
X202594Y8460D01*
X202631Y8496D01*
X202752Y8545D01*
X202789Y8581D01*
X202813Y8679D01*
X202789Y9360D01*
X202765Y9433D01*
X202728Y9737D01*
X202704Y9980D01*
X202655Y10102D01*
X202607Y10078D01*
X202570Y9968D01*
X202533Y9786D01*
X202485Y9664D01*
X202460Y9567D01*
X202436Y9445D01*
X202351Y9238D01*
X202314Y9080D01*
X202278Y8995D01*
X202229Y8873D01*
X202205Y8703D01*
X202132Y8533D01*
X202108Y8435D01*
X202071Y8302D01*
X202035Y8265D01*
X202010Y8216D01*
X201974Y8180D01*
X201877Y8156D01*
X201682Y8180D01*
X201645Y8216D01*
X201524Y8484D01*
X201280Y8995D01*
X201159Y9263D01*
X201134Y9311D01*
X201037Y9530D01*
X200964Y9701D01*
X200940Y9798D01*
X200915Y9920D01*
X200879Y9956D01*
X200842Y9920D01*
X200818Y9822D01*
X200854Y9129D01*
X200903Y8496D01*
X200952Y8448D01*
X201147Y8423D01*
X201171Y8326D01*
X201183Y8241D01*
X201122Y8156D01*
X200404Y8143D01*
X200331Y8192D01*
X200307Y8289D01*
X200368Y8375D01*
X200441Y8399D01*
X200550Y8508D01*
X200575Y8606D01*
X200538Y9470D01*
X200514Y9908D01*
X200490Y10418D01*
X200441Y10467D01*
X200258Y10479D01*
X200210Y10625D01*
X200295Y10735D01*
X200879Y10759D01*
X200952Y10783D01*
X201037Y10747D01*
X201061Y10698D01*
X201159Y10528D01*
X201220Y10370D01*
X201280Y10260D01*
X201305Y10163D01*
X201329Y10114D01*
X201402Y9993D01*
X201439Y9859D01*
X201499Y9798D01*
X201536Y9664D01*
X201621Y9506D01*
X201694Y9311D01*
X201767Y9141D01*
X201913Y8873D01*
X201925Y8861D01*
X201950Y8886D01*
X201974D01*
X202022Y9153D01*
X202071Y9275D01*
X202144Y9543D01*
X202205Y9676D01*
X202266Y9932D01*
X202327Y10066D01*
X202375Y10285D01*
X202448Y10455D01*
X202497Y10674D01*
X202619Y10844D01*
X202959Y10869D01*
X203251Y10893D01*
X203336Y10905D01*
X203397Y10869D01*
D02*
G37*
G36*
X196572Y11173D02*
X196608Y11136D01*
X196633Y10966D01*
X196657Y10820D01*
X196706Y10698D01*
X196730Y10528D01*
X196766Y10321D01*
X196803Y10187D01*
X196852Y9993D01*
X196876Y9749D01*
X196925Y9628D01*
X196949Y9530D01*
X197010Y9178D01*
X197046Y9044D01*
X197071Y8946D01*
X197095Y8679D01*
X197132Y8642D01*
X197229Y8618D01*
X197278Y8594D01*
X197290Y8460D01*
X197204Y8375D01*
X196840Y8399D01*
X196766Y8423D01*
X196572Y8472D01*
X196304Y8521D01*
X196268Y8557D01*
X196292Y8703D01*
X196329Y8740D01*
X196426Y8764D01*
X196487Y8825D01*
X196511Y8995D01*
X196487Y9092D01*
X196462Y9214D01*
X196402Y9275D01*
X196353Y9299D01*
X196329D01*
X196085Y9324D01*
X195830Y9360D01*
X195672Y9372D01*
X195586Y9287D01*
X195538Y9165D01*
X195465Y9092D01*
X195440Y8995D01*
X195501Y8934D01*
X195623Y8910D01*
X195647Y8813D01*
X195623Y8691D01*
X195574Y8642D01*
X195331Y8667D01*
X195258Y8691D01*
X195088Y8715D01*
X194881Y8752D01*
X194832Y8849D01*
X194917Y9007D01*
X195124Y9117D01*
X195148Y9165D01*
X195221Y9238D01*
X195246Y9311D01*
X195294Y9360D01*
X195343Y9482D01*
X195367Y9530D01*
X195440Y9603D01*
X195465Y9701D01*
X195562Y9847D01*
X195635Y9968D01*
X195878Y10406D01*
X195976Y10577D01*
X196219Y11015D01*
X196304Y11173D01*
X196402Y11197D01*
X196572Y11173D01*
D02*
G37*
%LPC*%
G36*
X244197Y551354D02*
X242419D01*
Y546449D01*
X248340D01*
Y547211D01*
X248025Y548796D01*
X247127Y550140D01*
X245783Y551039D01*
X244197Y551354D01*
D02*
G37*
G36*
X239879D02*
X238101D01*
X236515Y551039D01*
X235171Y550140D01*
X234273Y548796D01*
X233957Y547211D01*
Y546449D01*
X239879D01*
Y551354D01*
D02*
G37*
G36*
X224400Y534886D02*
X214920D01*
Y523030D01*
X229276D01*
Y530010D01*
X228904Y531876D01*
X227848Y533458D01*
X226266Y534515D01*
X224400Y534886D01*
D02*
G37*
G36*
X212380D02*
X202900D01*
X201034Y534515D01*
X199452Y533458D01*
X198395Y531876D01*
X198024Y530010D01*
Y523030D01*
X212380D01*
Y534886D01*
D02*
G37*
G36*
X248340Y526763D02*
X242419D01*
Y521858D01*
X244197D01*
X245783Y522173D01*
X247127Y523072D01*
X248025Y524416D01*
X248340Y526002D01*
Y526763D01*
D02*
G37*
G36*
X239879D02*
X233957D01*
Y526002D01*
X234273Y524416D01*
X235171Y523072D01*
X236515Y522173D01*
X238101Y521858D01*
X239879D01*
Y526763D01*
D02*
G37*
G36*
X229276Y520490D02*
X214920D01*
Y508634D01*
X224400D01*
X226266Y509006D01*
X227848Y510062D01*
X228904Y511644D01*
X229276Y513510D01*
Y520490D01*
D02*
G37*
G36*
X212380D02*
X198024D01*
Y513510D01*
X198395Y511644D01*
X199452Y510062D01*
X201034Y509006D01*
X202900Y508634D01*
X212380D01*
Y520490D01*
D02*
G37*
G36*
X240394Y516870D02*
X238388D01*
X236450Y516351D01*
X234712Y515347D01*
X233293Y513928D01*
X232290Y512191D01*
X231771Y510253D01*
Y508246D01*
X232290Y506309D01*
X232472Y505993D01*
X229279Y502800D01*
X228718Y501960D01*
X228691Y501825D01*
X228504Y501748D01*
X227444Y500687D01*
X226870Y499302D01*
Y497802D01*
X227444Y496416D01*
X228504Y495356D01*
X229890Y494782D01*
X230217D01*
X231260Y493512D01*
X231196Y493191D01*
Y489586D01*
X239530D01*
Y496920D01*
X235419D01*
X234625Y497614D01*
X234410Y498112D01*
Y499302D01*
X234028Y500224D01*
X236135Y502331D01*
X236450Y502149D01*
X238388Y501630D01*
X240394D01*
X242332Y502149D01*
X244070Y503152D01*
X245488Y504571D01*
X246492Y506309D01*
X247011Y508246D01*
Y510253D01*
X246492Y512191D01*
X245488Y513928D01*
X244070Y515347D01*
X242332Y516351D01*
X240394Y516870D01*
D02*
G37*
G36*
X246675Y496920D02*
X242070D01*
Y489586D01*
X250403D01*
Y493191D01*
X250119Y494618D01*
X249311Y495828D01*
X248102Y496636D01*
X246675Y496920D01*
D02*
G37*
G36*
X173400Y534886D02*
X163920D01*
Y523030D01*
X178276D01*
Y530010D01*
X177904Y531876D01*
X176848Y533458D01*
X175266Y534515D01*
X173400Y534886D01*
D02*
G37*
G36*
X161380D02*
X151900D01*
X150034Y534515D01*
X148452Y533458D01*
X147395Y531876D01*
X147024Y530010D01*
Y523030D01*
X161380D01*
Y534886D01*
D02*
G37*
G36*
X178276Y520490D02*
X163920D01*
Y508634D01*
X173400D01*
X175266Y509006D01*
X176848Y510062D01*
X177904Y511644D01*
X178276Y513510D01*
Y520490D01*
D02*
G37*
G36*
X161380D02*
X147024D01*
Y513510D01*
X147395Y511644D01*
X148452Y510062D01*
X150034Y509006D01*
X151900Y508634D01*
X161380D01*
Y520490D01*
D02*
G37*
G36*
X316901Y485020D02*
X310139D01*
Y480758D01*
X316901D01*
Y485020D01*
D02*
G37*
G36*
X307599D02*
X300837D01*
Y480758D01*
X307599D01*
Y485020D01*
D02*
G37*
G36*
X450901Y485020D02*
X444139D01*
Y480758D01*
X450901D01*
Y485020D01*
D02*
G37*
G36*
X441599D02*
X434837D01*
Y480758D01*
X441599D01*
Y485020D01*
D02*
G37*
G36*
X316901Y478218D02*
X310139D01*
Y473956D01*
X316901D01*
Y478218D01*
D02*
G37*
G36*
X307599D02*
X300837D01*
Y473956D01*
X307599D01*
Y478218D01*
D02*
G37*
G36*
X450901Y478218D02*
X444139D01*
Y473956D01*
X450901D01*
Y478218D01*
D02*
G37*
G36*
X441599D02*
X434837D01*
Y473956D01*
X441599D01*
Y478218D01*
D02*
G37*
G36*
X316139Y472258D02*
X301599D01*
Y462718D01*
X316139D01*
Y472258D01*
D02*
G37*
G36*
X450139Y472258D02*
X435599D01*
Y462718D01*
X450139D01*
Y472258D01*
D02*
G37*
G36*
X274340Y468236D02*
X266007D01*
Y460902D01*
X270611D01*
X272038Y461186D01*
X273248Y461994D01*
X274056Y463204D01*
X274340Y464631D01*
Y468236D01*
D02*
G37*
G36*
X263466D02*
X255133D01*
Y464631D01*
X255417Y463204D01*
X256225Y461994D01*
X257435Y461186D01*
X258862Y460902D01*
X263466D01*
Y468236D01*
D02*
G37*
G36*
X250403Y468046D02*
X242070D01*
Y460713D01*
X246675D01*
X248102Y460997D01*
X249311Y461805D01*
X250119Y463014D01*
X250403Y464441D01*
Y468046D01*
D02*
G37*
G36*
X239530D02*
X231196D01*
Y464441D01*
X231480Y463014D01*
X232288Y461805D01*
X233498Y460997D01*
X234925Y460713D01*
X239530D01*
Y468046D01*
D02*
G37*
G36*
X316139Y460258D02*
X301599D01*
Y450718D01*
X316139D01*
Y460258D01*
D02*
G37*
G36*
X450139Y460258D02*
X435599D01*
Y450718D01*
X450139D01*
Y460258D01*
D02*
G37*
G36*
X398341Y450766D02*
X387579D01*
Y440004D01*
X398341D01*
Y450766D01*
D02*
G37*
G36*
X363220D02*
X352458D01*
Y440004D01*
X363220D01*
Y450766D01*
D02*
G37*
G36*
X316139Y448258D02*
X301599D01*
Y438718D01*
X316139D01*
Y448258D01*
D02*
G37*
G36*
X450139Y448258D02*
X435599D01*
Y438718D01*
X450139D01*
Y448258D01*
D02*
G37*
G36*
Y436258D02*
X435599D01*
Y433430D01*
X431211D01*
X430628Y434013D01*
X429242Y434587D01*
X427742D01*
X426357Y434013D01*
X425296Y432953D01*
X424722Y431567D01*
Y430067D01*
X425296Y428682D01*
X426357Y427621D01*
X427742Y427047D01*
X429242D01*
X430628Y427621D01*
X431688Y428682D01*
X432046Y429546D01*
X435599D01*
Y426718D01*
X450139D01*
Y436258D01*
D02*
G37*
G36*
X363220Y415290D02*
X352458D01*
Y406168D01*
X351188Y405642D01*
X347714Y409116D01*
X347940Y409662D01*
Y411162D01*
X347366Y412548D01*
X346306Y413608D01*
X344920Y414182D01*
X343420D01*
X342034Y413608D01*
X340974Y412548D01*
X340400Y411162D01*
Y409662D01*
X340974Y408277D01*
X342034Y407216D01*
X343420Y406642D01*
X344694D01*
X358037Y393299D01*
X358667Y392878D01*
X359410Y392730D01*
X419747D01*
X419827Y392537D01*
X420888Y391477D01*
X422273Y390903D01*
X423773D01*
X425159Y391477D01*
X426219Y392537D01*
X426299Y392730D01*
X435599D01*
Y390718D01*
X450139D01*
Y400258D01*
X435599D01*
Y396615D01*
X426299D01*
X426219Y396808D01*
X425159Y397869D01*
X423773Y398443D01*
X422273D01*
X420888Y397869D01*
X419827Y396808D01*
X419747Y396615D01*
X360215D01*
X353572Y403258D01*
X354098Y404528D01*
X363220D01*
Y415290D01*
D02*
G37*
G36*
X398341D02*
X387579D01*
Y404528D01*
X398341D01*
Y415290D01*
D02*
G37*
G36*
X385039Y450766D02*
X365760D01*
Y438734D01*
X364490D01*
Y437464D01*
X352458D01*
Y426702D01*
Y417830D01*
X364490D01*
Y416560D01*
X365760D01*
Y404528D01*
X385039D01*
Y416560D01*
X386309D01*
Y417830D01*
X398341D01*
Y426702D01*
Y437464D01*
X386309D01*
Y438734D01*
X385039D01*
Y450766D01*
D02*
G37*
G36*
X316139Y400258D02*
X301599D01*
Y397430D01*
X299932D01*
X299189Y397282D01*
X298559Y396861D01*
X292788Y391091D01*
X292312Y391289D01*
X290613D01*
X289044Y390639D01*
X287843Y389437D01*
X287193Y387868D01*
Y386169D01*
X287843Y384600D01*
X289044Y383399D01*
X290613Y382749D01*
X292312D01*
X293881Y383399D01*
X295082Y384600D01*
X295733Y386169D01*
Y387868D01*
X295535Y388344D01*
X300329Y393138D01*
X301599Y392612D01*
Y390718D01*
X316139D01*
Y400258D01*
D02*
G37*
G36*
X280921Y396647D02*
X276316D01*
Y389314D01*
X284650D01*
Y392919D01*
X284366Y394346D01*
X283558Y395555D01*
X282348Y396364D01*
X280921Y396647D01*
D02*
G37*
G36*
X284650Y386774D02*
X276316D01*
Y379440D01*
X280921D01*
X282348Y379724D01*
X283558Y380532D01*
X284366Y381742D01*
X284650Y383169D01*
Y386774D01*
D02*
G37*
G36*
X316139Y388258D02*
X301599D01*
Y378718D01*
X316139D01*
Y388258D01*
D02*
G37*
G36*
X316901Y377020D02*
X310139D01*
Y372758D01*
X316901D01*
Y377020D01*
D02*
G37*
G36*
X307599D02*
X300837D01*
Y372758D01*
X307599D01*
Y377020D01*
D02*
G37*
G36*
X441599Y377020D02*
X434837D01*
Y372758D01*
X441599D01*
Y377020D01*
D02*
G37*
G36*
Y370218D02*
X434837D01*
Y368371D01*
X433567Y367522D01*
X433026Y367746D01*
X431527D01*
X430141Y367172D01*
X429080Y366111D01*
X428507Y364726D01*
Y363226D01*
X429080Y361840D01*
X430141Y360780D01*
X431174Y360352D01*
X431196Y360245D01*
X431617Y359614D01*
X433117Y358114D01*
X433747Y357693D01*
X434490Y357546D01*
X435599D01*
Y354718D01*
X450139D01*
Y364258D01*
X437073D01*
X436844Y364686D01*
X437605Y365956D01*
X441599D01*
Y370218D01*
D02*
G37*
G36*
X316901Y370218D02*
X310139D01*
Y365956D01*
X316901D01*
Y370218D01*
D02*
G37*
G36*
X307599D02*
X300837D01*
Y365956D01*
X307599D01*
Y370218D01*
D02*
G37*
G36*
X450901Y370218D02*
X444139D01*
Y365956D01*
X450901D01*
Y370218D01*
D02*
G37*
G36*
X316139Y328258D02*
X301599D01*
Y318718D01*
X316139D01*
Y328258D01*
D02*
G37*
G36*
X396283Y328211D02*
X385521D01*
Y317449D01*
X396283D01*
Y328211D01*
D02*
G37*
G36*
X367048D02*
X356286D01*
Y317449D01*
X367048D01*
Y328211D01*
D02*
G37*
G36*
X382981D02*
X372219D01*
Y317449D01*
X382981D01*
Y328211D01*
D02*
G37*
G36*
X353746D02*
X342984D01*
Y317449D01*
X353746D01*
Y328211D01*
D02*
G37*
G36*
X450139Y316258D02*
X435599D01*
Y306718D01*
X450139D01*
Y308898D01*
X455021D01*
X456051Y307868D01*
X457621Y307218D01*
X459319D01*
X460889Y307868D01*
X462090Y309069D01*
X462740Y310639D01*
Y312337D01*
X462090Y313907D01*
X460889Y315108D01*
X459319Y315758D01*
X457621D01*
X456051Y315108D01*
X455021Y314078D01*
X450139D01*
Y316258D01*
D02*
G37*
G36*
X316139Y316258D02*
X301599D01*
Y306718D01*
X316139D01*
Y316258D01*
D02*
G37*
G36*
X396283Y314909D02*
X385521D01*
Y304147D01*
X396283D01*
Y314909D01*
D02*
G37*
G36*
X382981D02*
X372219D01*
Y304147D01*
X382981D01*
Y314909D01*
D02*
G37*
G36*
X367048D02*
X356286D01*
Y304147D01*
X367048D01*
Y314909D01*
D02*
G37*
G36*
X353746D02*
X342984D01*
Y304147D01*
X353746D01*
Y314909D01*
D02*
G37*
G36*
X396283Y299662D02*
X385521D01*
Y288900D01*
X396283D01*
Y299662D01*
D02*
G37*
G36*
X367048D02*
X356286D01*
Y288900D01*
X367048D01*
Y299662D01*
D02*
G37*
G36*
X382981D02*
X372219D01*
Y288900D01*
X382981D01*
Y299662D01*
D02*
G37*
G36*
X353746D02*
X342984D01*
Y288900D01*
X353746D01*
Y299662D01*
D02*
G37*
G36*
X316901Y293020D02*
X310139D01*
Y288758D01*
X316901D01*
Y293020D01*
D02*
G37*
G36*
X307599D02*
X300837D01*
Y288758D01*
X307599D01*
Y293020D01*
D02*
G37*
G36*
X450139Y292258D02*
X435599D01*
Y282718D01*
X450139D01*
Y292258D01*
D02*
G37*
G36*
X316901Y286218D02*
X310139D01*
Y281956D01*
X316901D01*
Y286218D01*
D02*
G37*
G36*
X307599D02*
X300837D01*
Y281956D01*
X307599D01*
Y286218D01*
D02*
G37*
G36*
X396283Y286360D02*
X385521D01*
Y275598D01*
X396283D01*
Y286360D01*
D02*
G37*
G36*
X382981D02*
X372219D01*
Y275598D01*
X382981D01*
Y286360D01*
D02*
G37*
G36*
X367048D02*
X356286D01*
Y275598D01*
X367048D01*
Y286360D01*
D02*
G37*
G36*
X353746D02*
X342984D01*
Y275598D01*
X353746D01*
Y286360D01*
D02*
G37*
G36*
X316139Y280258D02*
X301599D01*
Y270718D01*
X316139D01*
Y280258D01*
D02*
G37*
G36*
X450139Y280258D02*
X435599D01*
Y270718D01*
X450139D01*
Y280258D01*
D02*
G37*
G36*
X316139Y268258D02*
X301599D01*
Y258718D01*
X316139D01*
Y268258D01*
D02*
G37*
G36*
X316901Y257020D02*
X310139D01*
Y252758D01*
X316901D01*
Y257020D01*
D02*
G37*
G36*
X307599D02*
X300837D01*
Y252758D01*
X307599D01*
Y257020D01*
D02*
G37*
G36*
X450901Y257020D02*
X444139D01*
Y252758D01*
X450901D01*
Y257020D01*
D02*
G37*
G36*
X441599D02*
X434837D01*
Y252758D01*
X441599D01*
Y257020D01*
D02*
G37*
G36*
X316901Y250218D02*
X310139D01*
Y245956D01*
X316901D01*
Y250218D01*
D02*
G37*
G36*
X307599D02*
X300837D01*
Y245956D01*
X307599D01*
Y250218D01*
D02*
G37*
G36*
X450901Y250218D02*
X444139D01*
Y245956D01*
X450901D01*
Y250218D01*
D02*
G37*
G36*
X441599D02*
X434837D01*
Y245956D01*
X441599D01*
Y250218D01*
D02*
G37*
G36*
X344601Y244346D02*
X335061D01*
Y229806D01*
X344601D01*
Y244346D01*
D02*
G37*
G36*
X332601D02*
X323061D01*
Y229806D01*
X332601D01*
Y244346D01*
D02*
G37*
G36*
X320601D02*
X311061D01*
Y229806D01*
X313889D01*
Y225712D01*
X312826Y225272D01*
X311766Y224212D01*
X311192Y222826D01*
Y221326D01*
X311766Y219940D01*
X312826Y218880D01*
X314212Y218306D01*
X315711D01*
X317097Y218880D01*
X318158Y219940D01*
X318732Y221326D01*
Y222826D01*
X318158Y224212D01*
X317773Y224596D01*
Y229806D01*
X320601D01*
Y244346D01*
D02*
G37*
G36*
X356601D02*
X347061D01*
Y229806D01*
X349741D01*
Y224484D01*
X349135Y223878D01*
X348561Y222492D01*
Y220992D01*
X349135Y219606D01*
X350196Y218546D01*
X351581Y217972D01*
X353081D01*
X354467Y218546D01*
X355527Y219606D01*
X356101Y220992D01*
Y222492D01*
X355527Y223878D01*
X354921Y224484D01*
Y229806D01*
X356601D01*
Y244346D01*
D02*
G37*
G36*
X413325Y220075D02*
X410345D01*
Y214248D01*
X416671D01*
Y216728D01*
X416417Y218009D01*
X415691Y219095D01*
X414606Y219820D01*
X413325Y220075D01*
D02*
G37*
G36*
X407805D02*
X404825D01*
X403545Y219820D01*
X402459Y219095D01*
X401734Y218009D01*
X401479Y216728D01*
Y214248D01*
X407805D01*
Y220075D01*
D02*
G37*
G36*
X368601Y244346D02*
X359061D01*
Y229806D01*
X363889D01*
Y217377D01*
X363696Y217297D01*
X362635Y216236D01*
X362061Y214850D01*
Y213351D01*
X362635Y211965D01*
X363696Y210905D01*
X365081Y210331D01*
X366581D01*
X367967Y210905D01*
X369027Y211965D01*
X369601Y213351D01*
Y214850D01*
X369027Y216236D01*
X367967Y217297D01*
X367774Y217377D01*
Y229806D01*
X368601D01*
Y244346D01*
D02*
G37*
G36*
X140265Y478656D02*
X135660D01*
Y471322D01*
X143994D01*
Y474927D01*
X143710Y476354D01*
X142901Y477564D01*
X141692Y478372D01*
X140265Y478656D01*
D02*
G37*
G36*
X133120D02*
X128515D01*
X127088Y478372D01*
X125878Y477564D01*
X125070Y476354D01*
X124786Y474927D01*
Y471322D01*
X133120D01*
Y478656D01*
D02*
G37*
G36*
X143994Y449782D02*
X135660D01*
Y442449D01*
X140265D01*
X141692Y442733D01*
X142901Y443541D01*
X143710Y444751D01*
X143994Y446177D01*
Y449782D01*
D02*
G37*
G36*
X133120D02*
X124786D01*
Y446177D01*
X125070Y444751D01*
X125878Y443541D01*
X127088Y442733D01*
X128515Y442449D01*
X133120D01*
Y449782D01*
D02*
G37*
G36*
X95443Y302096D02*
X88376D01*
X88903Y300130D01*
X90006Y298219D01*
X91567Y296658D01*
X93478Y295555D01*
X95443Y295028D01*
Y302096D01*
D02*
G37*
G36*
X105051D02*
X97984D01*
Y295028D01*
X99949Y295555D01*
X101860Y296658D01*
X103421Y298219D01*
X104524Y300130D01*
X105051Y302096D01*
D02*
G37*
G36*
X80241Y287489D02*
X55262D01*
Y281663D01*
X83588D01*
Y284143D01*
X83333Y285424D01*
X82608Y286509D01*
X81522Y287234D01*
X80241Y287489D01*
D02*
G37*
G36*
Y267489D02*
X55262D01*
Y261663D01*
X83588D01*
Y264143D01*
X83333Y265423D01*
X82608Y266509D01*
X81522Y267234D01*
X80241Y267489D01*
D02*
G37*
G36*
X104148Y253447D02*
Y246380D01*
X111216D01*
X110689Y248345D01*
X109586Y250257D01*
X108025Y251817D01*
X106114Y252921D01*
X104148Y253447D01*
D02*
G37*
G36*
X101608D02*
X99643Y252921D01*
X97732Y251817D01*
X96171Y250257D01*
X95068Y248345D01*
X94541Y246380D01*
X101608D01*
Y253447D01*
D02*
G37*
G36*
X111216Y243840D02*
X104148D01*
Y236773D01*
X106114Y237299D01*
X108025Y238403D01*
X109586Y239963D01*
X110689Y241875D01*
X111216Y243840D01*
D02*
G37*
G36*
X101608D02*
X94541D01*
X95068Y241875D01*
X96171Y239963D01*
X97732Y238403D01*
X99643Y237299D01*
X101608Y236773D01*
Y243840D01*
D02*
G37*
G36*
X203799Y54973D02*
X203726Y54948D01*
X203665Y54888D01*
X203616Y54717D01*
X203592Y54669D01*
X203519Y54547D01*
X203495Y54450D01*
X203470Y54425D01*
Y54401D01*
X203422Y54352D01*
X203397Y54255D01*
X203422Y54206D01*
X203458Y54170D01*
X203933Y54158D01*
X203969Y54243D01*
X203945Y54340D01*
X203884Y54498D01*
X203835Y54839D01*
X203811Y54936D01*
X203799Y54973D01*
D02*
G37*
G36*
X213508Y52028D02*
X213483D01*
X213447Y52016D01*
X213423Y51968D01*
X213325Y51919D01*
X213301Y51870D01*
X213118Y51688D01*
X213082Y51676D01*
X213058Y51627D01*
X212912Y51505D01*
X212863Y51457D01*
X212875Y51371D01*
X213033Y51311D01*
X213070Y51274D01*
X213289Y51177D01*
X213374Y51189D01*
X213398Y51286D01*
X213423Y51530D01*
X213447Y51627D01*
X213471Y51870D01*
X213520Y51992D01*
X213508Y52028D01*
D02*
G37*
G36*
X218107Y49449D02*
X217985Y49425D01*
X217936Y49376D01*
X217888Y49352D01*
X217766Y49206D01*
X217705Y49121D01*
X217632Y49048D01*
X217608Y48999D01*
X217535Y48926D01*
X217511Y48877D01*
X217413Y48780D01*
X217401Y48719D01*
X217462Y48634D01*
X217523Y48573D01*
X217535Y48561D01*
X217669Y48476D01*
X217742Y48451D01*
X217839Y48427D01*
X218082Y48451D01*
X218180Y48549D01*
X218228Y48573D01*
X218289Y48658D01*
X218362Y48731D01*
X218460Y48950D01*
X218435Y49121D01*
X218387Y49169D01*
X218362Y49218D01*
X218253Y49352D01*
X218107Y49449D01*
D02*
G37*
G36*
X200343Y42709D02*
X200271Y42684D01*
X199638Y42660D01*
X199565Y42636D01*
X199139Y42575D01*
X199017Y42551D01*
X198725Y42502D01*
X198628Y42478D01*
X198579Y42429D01*
X198604Y42186D01*
X198628Y42113D01*
X198701Y41845D01*
X198725Y41748D01*
X198762Y41614D01*
X198823Y41407D01*
X198798Y41018D01*
X198750Y40969D01*
X198725Y40920D01*
X198664Y40835D01*
X198616Y40811D01*
X198567Y40762D01*
X198445Y40714D01*
X198275Y40689D01*
X198093Y40726D01*
X197971Y40774D01*
X197801Y40945D01*
X197703Y41164D01*
X197655Y41358D01*
X197582Y41626D01*
X197533Y41821D01*
X197496Y41954D01*
X197472Y42052D01*
X197423Y42125D01*
X197253Y42100D01*
X197132Y42052D01*
X196754Y41918D01*
X196657Y41894D01*
X196535Y41845D01*
X196402Y41784D01*
X195647Y41419D01*
X195331Y41249D01*
X195161Y41151D01*
X195112Y41103D01*
X194601Y40811D01*
X194552Y40762D01*
X194503Y40738D01*
X194333Y40616D01*
X194284Y40592D01*
X194163Y40470D01*
X194114Y40446D01*
X194065Y40397D01*
X193944Y40324D01*
X193895Y40276D01*
X193773Y40202D01*
X193725Y40154D01*
X193676Y40129D01*
X193506Y39959D01*
X193457Y39935D01*
X193372Y39850D01*
X193348Y39752D01*
X193433Y39643D01*
X193482Y39618D01*
X193591Y39509D01*
X193615Y39460D01*
X193871Y39205D01*
X193920Y39181D01*
X193956Y39144D01*
X193968Y39107D01*
X194017Y39083D01*
X194053Y39047D01*
X194078Y38998D01*
X194151Y38925D01*
X194224Y38682D01*
X194199Y38390D01*
X194078Y38219D01*
X193993Y38134D01*
X193944Y38110D01*
X193822Y38061D01*
X193652Y38037D01*
X193494Y38073D01*
X193250Y38219D01*
X192958Y38511D01*
X192946Y38548D01*
X192910Y38560D01*
X192897Y38596D01*
X192849Y38621D01*
X192557Y38913D01*
X192460Y38937D01*
X192374Y38852D01*
X192350Y38803D01*
X192301Y38755D01*
X192277Y38706D01*
X192131Y38560D01*
X192107Y38511D01*
X191985Y38390D01*
X191961Y38341D01*
X191851Y38207D01*
X191790Y38122D01*
X191620Y37903D01*
X191523Y37733D01*
X191401Y37562D01*
X191377Y37514D01*
X191255Y37319D01*
X191182Y37197D01*
X191060Y37027D01*
X190549Y35981D01*
X190428Y35713D01*
X190245Y35238D01*
X190160Y34959D01*
X190136Y34886D01*
X190196Y34801D01*
X190574Y34715D01*
X190707Y34679D01*
X190866Y34642D01*
X190963Y34618D01*
X191170Y34557D01*
X191292Y34509D01*
X191340Y34460D01*
X191389Y34436D01*
X191498Y34326D01*
X191571Y34156D01*
X191596Y34058D01*
X191571Y33815D01*
X191474Y33669D01*
X191450Y33620D01*
X191413Y33584D01*
X191364Y33560D01*
X191316Y33511D01*
X191121Y33462D01*
X191012Y33450D01*
X190866Y33474D01*
X190622Y33523D01*
X190525Y33547D01*
X190391Y33584D01*
X190294Y33608D01*
X190136Y33645D01*
X190038Y33669D01*
X189929Y33705D01*
X189832Y33681D01*
X189795Y33645D01*
X189746Y33353D01*
X189710Y33122D01*
X189637Y32683D01*
X189613Y32464D01*
X189588Y31881D01*
X189564Y31491D01*
X189552Y31211D01*
X189576Y31138D01*
X189613Y30177D01*
X189637Y29958D01*
X189661Y29836D01*
X189710Y29544D01*
X189746Y29216D01*
X189771Y29119D01*
X189844Y28997D01*
X189953Y28985D01*
X190075Y29034D01*
X190233Y29070D01*
X190330Y29094D01*
X190464Y29131D01*
X190659Y29179D01*
X190793Y29216D01*
X190890Y29240D01*
X191145Y29253D01*
X191413Y29107D01*
X191474Y29046D01*
X191571Y28827D01*
X191596Y28729D01*
X191571Y28510D01*
X191401Y28291D01*
X191316Y28206D01*
X191145Y28133D01*
X191048Y28109D01*
X190781Y28036D01*
X190683Y28012D01*
X190403Y27951D01*
X190270Y27914D01*
X190148Y27841D01*
X190136Y27756D01*
X190184Y27634D01*
X190391Y27062D01*
X190452Y26904D01*
X190549Y26685D01*
X191085Y25639D01*
X191133Y25590D01*
X191206Y25469D01*
X191304Y25298D01*
X191474Y25031D01*
X191498Y24982D01*
X191547Y24933D01*
X191571Y24885D01*
X191730Y24653D01*
X191790Y24568D01*
X191888Y24471D01*
X191912Y24422D01*
X192082Y24203D01*
X192180Y24106D01*
X192204Y24057D01*
X192301Y23960D01*
X192326Y23911D01*
X192399Y23838D01*
X192423Y23790D01*
X192557Y23777D01*
X192642Y23863D01*
X192666Y23911D01*
X192752Y23972D01*
X193311Y24532D01*
X193360Y24556D01*
X193530Y24629D01*
X193627Y24653D01*
X193871Y24629D01*
X194041Y24532D01*
X194126Y24447D01*
X194151Y24398D01*
X194199Y24276D01*
X194224Y24179D01*
X194199Y23887D01*
X194041Y23656D01*
X193993Y23583D01*
X193944Y23558D01*
X193348Y22962D01*
X193372Y22865D01*
X193482Y22755D01*
X193530Y22731D01*
X193749Y22512D01*
X193871Y22439D01*
X193920Y22390D01*
X193968Y22366D01*
X194017Y22318D01*
X194065Y22293D01*
X194187Y22171D01*
X194236Y22147D01*
X194284Y22099D01*
X194333Y22074D01*
X194795Y21782D01*
X194844Y21758D01*
X194893Y21709D01*
X195014Y21636D01*
X195246Y21478D01*
X195367Y21429D01*
X195525Y21344D01*
X196036Y21101D01*
X196085Y21077D01*
X196207Y21003D01*
X196474Y20882D01*
X196633Y20821D01*
X196754Y20772D01*
X196852Y20748D01*
X197046Y20675D01*
X197314Y20578D01*
X197399Y20566D01*
X197460Y20626D01*
X197484Y20724D01*
X197533Y20894D01*
X197570Y21052D01*
X197594Y21149D01*
X197655Y21356D01*
X197691Y21514D01*
X197740Y21636D01*
X197861Y21831D01*
X197934Y21904D01*
X198105Y21977D01*
X198202Y22001D01*
X198470Y21977D01*
X198701Y21819D01*
X198725Y21770D01*
X198823Y21551D01*
X198798Y21186D01*
X198750Y21064D01*
X198725Y20967D01*
X198689Y20809D01*
X198664Y20712D01*
X198628Y20578D01*
X198591Y20419D01*
X198579Y20261D01*
X198640Y20201D01*
X198969Y20164D01*
X199553Y20067D01*
X199869Y20042D01*
X200258Y20018D01*
X200575Y19994D01*
X201292Y19981D01*
X201366Y20006D01*
X202083Y20042D01*
X202351Y20067D01*
X202667Y20115D01*
X202959Y20164D01*
X203203Y20188D01*
X203251Y20213D01*
X203276Y20310D01*
X203251Y20480D01*
X203227Y20553D01*
X203130Y20943D01*
X203081Y21113D01*
X203032Y21308D01*
X203057Y21673D01*
X203178Y21843D01*
X203239Y21904D01*
X203458Y22001D01*
X203774Y21977D01*
X203945Y21879D01*
X204054Y21770D01*
X204127Y21600D01*
X204176Y21429D01*
X204225Y21235D01*
X204298Y20967D01*
X204322Y20870D01*
X204358Y20687D01*
X204395Y20602D01*
X204456Y20541D01*
X204577Y20566D01*
X204626Y20614D01*
X204723Y20638D01*
X204882Y20699D01*
X205295Y20845D01*
X205490Y20918D01*
X205733Y21040D01*
X205770Y21077D01*
X205891Y21125D01*
X206646Y21514D01*
X206877Y21673D01*
X207072Y21794D01*
X207315Y21940D01*
X207400Y22001D01*
X207631Y22159D01*
X207717Y22220D01*
X207789Y22293D01*
X207838Y22318D01*
X207911Y22390D01*
X207960Y22415D01*
X208033Y22488D01*
X208081Y22512D01*
X208154Y22585D01*
X208203Y22610D01*
X208349Y22755D01*
X208398Y22780D01*
X208507Y22889D01*
X208483Y22987D01*
X208373Y23096D01*
X208325Y23121D01*
X208264Y23206D01*
X207887Y23583D01*
X207850Y23595D01*
X207826Y23644D01*
X207729Y23741D01*
X207631Y23960D01*
X207607Y24130D01*
X207644Y24288D01*
X207765Y24483D01*
X207814Y24532D01*
X207862Y24556D01*
X207911Y24605D01*
X208069Y24641D01*
X208276Y24653D01*
X208349Y24629D01*
X208568Y24508D01*
X209298Y23777D01*
X209444Y23802D01*
X209505Y23887D01*
X209578Y23960D01*
X209602Y24009D01*
X209700Y24106D01*
X209724Y24155D01*
X209797Y24228D01*
X209821Y24276D01*
X209931Y24410D01*
X209992Y24495D01*
X210065Y24568D01*
X210089Y24617D01*
X210138Y24641D01*
X210235Y24812D01*
X210405Y25079D01*
X210430Y25128D01*
X210478Y25177D01*
X210576Y25347D01*
X210673Y25493D01*
X210697Y25542D01*
X210746Y25590D01*
X211281Y26637D01*
X211354Y26807D01*
X211415Y26965D01*
X211452Y27075D01*
X211549Y27318D01*
X211585Y27452D01*
X211634Y27573D01*
X211695Y27732D01*
X211671Y27878D01*
X211537Y27914D01*
X211366Y27963D01*
X211269Y27987D01*
X210989Y28048D01*
X210782Y28109D01*
X210649Y28145D01*
X210442Y28279D01*
X210405Y28316D01*
X210381Y28364D01*
X210332Y28413D01*
X210284Y28535D01*
X210308Y28924D01*
X210466Y29131D01*
X210515Y29155D01*
X210734Y29253D01*
X211026Y29228D01*
X211099Y29204D01*
X211488Y29107D01*
X211658Y29058D01*
X211817Y29021D01*
X211950Y28985D01*
X212023Y29009D01*
X212084Y29167D01*
X212121Y29423D01*
X212157Y29751D01*
X212218Y30031D01*
X212242Y30226D01*
X212267Y30786D01*
X212279Y31917D01*
X212255Y31990D01*
X212230Y32647D01*
X212218Y32659D01*
X212206Y32671D01*
X212169Y32903D01*
X212145Y33122D01*
X212096Y33438D01*
X212072Y33584D01*
X212036Y33669D01*
X211999Y33705D01*
X211853Y33681D01*
X211780Y33657D01*
X211585Y33608D01*
X211427Y33572D01*
X211293Y33535D01*
X211099Y33486D01*
X210916Y33450D01*
X210758Y33438D01*
X210685Y33462D01*
X210527Y33523D01*
X210442Y33584D01*
X210381Y33645D01*
X210357Y33693D01*
X210284Y33864D01*
X210308Y34229D01*
X210466Y34436D01*
X210515Y34460D01*
X210563Y34509D01*
X210734Y34557D01*
X210977Y34630D01*
X211172Y34679D01*
X211306Y34715D01*
X211403Y34740D01*
X211525Y34764D01*
X211622Y34788D01*
X211719Y34861D01*
X211683Y35020D01*
X211658Y35117D01*
X211598Y35251D01*
X211561Y35385D01*
X211512Y35506D01*
X211452Y35664D01*
X211354Y35883D01*
X211306Y36005D01*
X211281Y36054D01*
X211208Y36224D01*
X211184Y36273D01*
X211062Y36492D01*
X210795Y37003D01*
X210697Y37173D01*
X210649Y37222D01*
X210551Y37392D01*
X210344Y37696D01*
X210174Y37964D01*
X210113Y38049D01*
X210065Y38098D01*
X210040Y38146D01*
X209992Y38195D01*
X209967Y38244D01*
X209870Y38341D01*
X209846Y38390D01*
X209736Y38523D01*
X209700Y38560D01*
X209675Y38609D01*
X209481Y38803D01*
X209456Y38852D01*
X209395Y38913D01*
X209274Y38888D01*
X208568Y38183D01*
X208519Y38159D01*
X208373Y38061D01*
X208276Y38037D01*
X207960Y38061D01*
X207729Y38219D01*
X207631Y38390D01*
X207607Y38560D01*
X207631Y38803D01*
X207680Y38852D01*
X207753Y38974D01*
X208288Y39509D01*
X208313Y39558D01*
X208349Y39594D01*
X208398Y39618D01*
X208507Y39728D01*
X208483Y39825D01*
X208446Y39886D01*
X208398Y39911D01*
X208300Y40008D01*
X208252Y40032D01*
X208203Y40081D01*
X208154Y40105D01*
X207984Y40276D01*
X207935Y40300D01*
X207887Y40349D01*
X207838Y40373D01*
X207704Y40482D01*
X207668Y40519D01*
X207619Y40543D01*
X207546Y40616D01*
X207376Y40714D01*
X207206Y40835D01*
X207035Y40932D01*
X206768Y41103D01*
X206719Y41127D01*
X206646Y41200D01*
X205453Y41784D01*
X205234Y41881D01*
X205101Y41918D01*
X204967Y41979D01*
X204869Y42003D01*
X204638Y42088D01*
X204529Y42125D01*
X204407Y42100D01*
X204371Y42064D01*
X204334Y41906D01*
X204285Y41663D01*
X204225Y41456D01*
X204188Y41297D01*
X204164Y41200D01*
X204091Y41006D01*
X204030Y40920D01*
X203945Y40811D01*
X203896Y40786D01*
X203726Y40714D01*
X203628Y40689D01*
X203385Y40714D01*
X203154Y40872D01*
X203057Y41018D01*
X203032Y41188D01*
X203057Y41529D01*
X203081Y41602D01*
X203130Y41772D01*
X203203Y42064D01*
X203251Y42234D01*
X203276Y42405D01*
X203251Y42453D01*
X203215Y42490D01*
X202546Y42599D01*
X202351Y42624D01*
X202205Y42648D01*
X201937Y42672D01*
X201475Y42697D01*
X200343Y42709D01*
D02*
G37*
%LPD*%
G36*
X202801Y38499D02*
X202923Y38475D01*
X202996Y38402D01*
X203044Y38377D01*
X203154Y38268D01*
X203227Y38098D01*
X203251Y38000D01*
X203227Y37733D01*
X203203Y37660D01*
X203130Y37368D01*
X203081Y37197D01*
X203032Y37003D01*
X202959Y36735D01*
X202935Y36638D01*
X202899Y36479D01*
X202850Y36358D01*
X202813Y36224D01*
X202777Y36066D01*
X202716Y35859D01*
X202667Y35664D01*
X202594Y35421D01*
X202533Y35141D01*
X202497Y35007D01*
X202473Y34910D01*
X202436Y34752D01*
X202351Y34472D01*
X202314Y34314D01*
X202266Y34192D01*
X202217Y33997D01*
X202193Y33876D01*
X202132Y33718D01*
X202096Y33535D01*
X202071Y33438D01*
X202035Y33304D01*
X201962Y33012D01*
X201913Y32842D01*
X201901Y32781D01*
X201937Y32696D01*
X201974Y32659D01*
X202022Y32635D01*
X202278Y32379D01*
X202302Y32331D01*
X202351Y32282D01*
X202375Y32233D01*
X202424Y32185D01*
X202546Y31868D01*
X202570Y31771D01*
X202607Y31540D01*
X202619Y31138D01*
X202594Y31065D01*
X202558Y30834D01*
X202485Y30640D01*
X202400Y30457D01*
X202351Y30408D01*
X202327Y30360D01*
X202229Y30262D01*
X202205Y30214D01*
X201998Y30007D01*
X201950Y29983D01*
X201816Y29873D01*
X201658Y29788D01*
X201426Y29703D01*
X201329Y29678D01*
X201183Y29654D01*
X200684Y29642D01*
X200611Y29666D01*
X200465Y29690D01*
X200343Y29739D01*
X200307Y29751D01*
X200295Y29764D01*
X200198Y29788D01*
X200027Y29885D01*
X199954Y29958D01*
X199905Y29983D01*
X199772Y30092D01*
X199650Y30214D01*
X199626Y30262D01*
X199553Y30335D01*
X199528Y30384D01*
X199407Y30554D01*
X199334Y30725D01*
X199285Y30895D01*
X199249Y31053D01*
X199224Y31151D01*
X199163Y31236D01*
X199030Y31272D01*
X198871Y31309D01*
X198664Y31370D01*
X198385Y31430D01*
X198178Y31491D01*
X198020Y31528D01*
X197740Y31613D01*
X197582Y31649D01*
X197460Y31698D01*
X197326Y31734D01*
X197071Y31795D01*
X196937Y31832D01*
X196779Y31868D01*
X196681Y31893D01*
X196548Y31929D01*
X196450Y31953D01*
X196292Y32014D01*
X196255Y32051D01*
X196134Y32124D01*
X196110Y32173D01*
X196061Y32197D01*
X196000Y32355D01*
X195976Y32452D01*
X195963Y32586D01*
X195988Y32683D01*
X196073Y32866D01*
X196134Y32927D01*
X196182Y32951D01*
X196255Y33024D01*
X196353Y33049D01*
X196426Y33073D01*
X196815Y33049D01*
X196888Y33024D01*
X196985Y33000D01*
X197253Y32927D01*
X197351Y32903D01*
X197484Y32866D01*
X197691Y32805D01*
X197849Y32769D01*
X197971Y32720D01*
X198166Y32671D01*
X198287Y32647D01*
X198567Y32562D01*
X198725Y32525D01*
X198823Y32501D01*
X198957Y32464D01*
X199054Y32440D01*
X199236Y32404D01*
X199334Y32379D01*
X199468Y32318D01*
X199589Y32392D01*
X199699Y32501D01*
X199723Y32550D01*
X199808Y32635D01*
X199857Y32659D01*
X199954Y32757D01*
X200003Y32781D01*
X200198Y32903D01*
X200331Y32939D01*
X200490Y33000D01*
X200721Y33036D01*
X200794Y33085D01*
X200842Y33255D01*
X200915Y33523D01*
X200940Y33620D01*
X200976Y33779D01*
X201037Y33985D01*
X201061Y34083D01*
X201098Y34216D01*
X201159Y34375D01*
X201220Y34655D01*
X201280Y34813D01*
X201317Y34995D01*
X201341Y35092D01*
X201378Y35226D01*
X201402Y35324D01*
X201439Y35457D01*
X201511Y35749D01*
X201536Y35871D01*
X201560Y35968D01*
X201621Y36175D01*
X201670Y36370D01*
X201743Y36540D01*
X201803Y36796D01*
X201840Y36930D01*
X201864Y37027D01*
X201925Y37283D01*
X201962Y37416D01*
X202010Y37611D01*
X202083Y37879D01*
X202120Y38037D01*
X202169Y38159D01*
X202205Y38195D01*
X202278Y38317D01*
X202388Y38426D01*
X202558Y38499D01*
X202728Y38523D01*
X202801Y38499D01*
D02*
G37*
%LPC*%
G36*
X201000Y31905D02*
X200733Y31881D01*
X200562Y31783D01*
X200453Y31674D01*
X200380Y31503D01*
X200368Y31442D01*
X200356Y31430D01*
X200380Y31163D01*
X200538Y30931D01*
X200684Y30834D01*
X200879Y30786D01*
X201122Y30810D01*
X201292Y30931D01*
X201402Y31041D01*
X201451Y31163D01*
X201475Y31260D01*
X201451Y31552D01*
X201353Y31722D01*
X201268Y31807D01*
X201098Y31881D01*
X201000Y31905D01*
D02*
G37*
G36*
X179247Y44728D02*
X179028Y44704D01*
X178869Y44546D01*
X178845Y44449D01*
X178869Y44327D01*
X178906Y44290D01*
X178918Y44278D01*
X178955Y44242D01*
X179003Y44217D01*
X179076Y44144D01*
X179125Y44120D01*
X179259Y44011D01*
X179344Y43950D01*
X179393Y43901D01*
X179514Y43925D01*
X179575Y43986D01*
X179599Y44059D01*
X179672Y44181D01*
X179648Y44424D01*
X179575Y44497D01*
X179551Y44546D01*
X179417Y44680D01*
X179247Y44728D01*
D02*
G37*
G36*
X180196Y44169D02*
X180074Y44120D01*
X179952Y44047D01*
X179843Y43938D01*
X179818Y43889D01*
X179709Y43755D01*
X179697Y43694D01*
X179733Y43658D01*
X179782Y43633D01*
X179855Y43560D01*
X179977Y43487D01*
X180025Y43439D01*
X180147Y43366D01*
X180220Y43293D01*
X180268Y43268D01*
X180341Y43195D01*
X180439Y43171D01*
X180500Y43208D01*
X180573Y43329D01*
X180621Y43378D01*
X180646Y43451D01*
X180694Y43500D01*
X180743Y43694D01*
X180707Y43852D01*
X180646Y43913D01*
X180621Y43962D01*
X180487Y44096D01*
X180378Y44132D01*
X180366Y44144D01*
X180196Y44169D01*
D02*
G37*
G36*
X195306Y47965D02*
X195233Y47940D01*
X195039Y47916D01*
X194966Y47892D01*
X194869Y47867D01*
X194613Y47807D01*
X194370Y47709D01*
X194236Y47648D01*
X194114Y47600D01*
X193798Y47429D01*
X193664Y47320D01*
X193518Y47223D01*
X193482Y47186D01*
X193433Y47162D01*
X193287Y47016D01*
X193250Y47004D01*
X193226Y46955D01*
X192983Y46712D01*
X192958Y46663D01*
X192885Y46590D01*
X192812Y46468D01*
X192654Y46237D01*
X192545Y46030D01*
X192496Y45909D01*
X192423Y45738D01*
X192399Y45641D01*
X192326Y45398D01*
X192301Y45227D01*
X192277Y45130D01*
X192241Y44899D01*
X192216Y44631D01*
X192204Y44424D01*
X192228Y44351D01*
X192265Y44071D01*
X192313Y43779D01*
X192338Y43682D01*
X192386Y43633D01*
X192508Y43658D01*
X192557Y43706D01*
X192605Y43731D01*
X192910Y43938D01*
X192971Y43998D01*
X193092Y44071D01*
X193360Y44217D01*
X193701Y44412D01*
X193920Y44534D01*
X194528Y44826D01*
X194747Y44923D01*
X194905Y44984D01*
X195306Y45166D01*
X195331D01*
X195343Y45179D01*
X195440Y45203D01*
X195599Y45264D01*
X195696Y45288D01*
X196085Y45410D01*
X196402Y45507D01*
X196657Y45568D01*
X196864Y45629D01*
X197144Y45690D01*
X197278Y45726D01*
X197448Y45750D01*
X197983Y45848D01*
X198300Y45872D01*
X198628Y45909D01*
X198701Y45957D01*
X198677Y46103D01*
X198628Y46152D01*
X198458Y46468D01*
X198409Y46517D01*
X198385Y46566D01*
X198275Y46699D01*
X198214Y46760D01*
X198190Y46809D01*
X197861Y47137D01*
X197813Y47162D01*
X197715Y47259D01*
X197667Y47283D01*
X197618Y47332D01*
X197570Y47356D01*
X197521Y47405D01*
X197399Y47478D01*
X197034Y47648D01*
X196985Y47673D01*
X196815Y47746D01*
X196718Y47770D01*
X196548Y47843D01*
X196268Y47904D01*
X196170Y47928D01*
X196024Y47953D01*
X195306Y47965D01*
D02*
G37*
G36*
X212072Y43560D02*
X211999Y43536D01*
X211488Y43512D01*
X211366Y43463D01*
X211269Y43439D01*
X211111Y43402D01*
X211026Y43366D01*
X210904Y43317D01*
X210746Y43256D01*
X210709Y43220D01*
X210612Y43195D01*
X210503Y43135D01*
X210490Y43122D01*
X210223Y42976D01*
X210162Y42940D01*
X210186Y42818D01*
X210223Y42782D01*
X210271Y42757D01*
X210320Y42709D01*
X210369Y42684D01*
X210588Y42514D01*
X210819Y42356D01*
X210953Y42222D01*
X210989Y42210D01*
X211014Y42161D01*
X211099Y42100D01*
X211147Y42052D01*
X211196Y42027D01*
X211245Y41979D01*
X211293Y41954D01*
X211366Y41881D01*
X211415Y41857D01*
X212157Y41115D01*
X212182Y41066D01*
X212449Y40799D01*
X212474Y40750D01*
X212595Y40628D01*
X212620Y40580D01*
X212668Y40531D01*
X212693Y40482D01*
X212814Y40361D01*
X212839Y40312D01*
X212948Y40178D01*
X213009Y40093D01*
X213082Y40020D01*
X213106Y39971D01*
X213228Y39801D01*
X213252Y39752D01*
X213593Y39266D01*
X213617Y39217D01*
X213739Y39022D01*
X213763Y38974D01*
X213934Y38657D01*
X213982Y38609D01*
X214104Y38390D01*
X214250Y38073D01*
X214372Y37806D01*
X214432Y37696D01*
X214530Y37720D01*
X214615Y37806D01*
X214639Y37854D01*
X214810Y38025D01*
X214834Y38073D01*
X214956Y38244D01*
X214980Y38292D01*
X215077Y38438D01*
X215248Y38755D01*
X215296Y38876D01*
X215321Y38974D01*
X215369Y39095D01*
X215418Y39266D01*
X215491Y39679D01*
X215515Y39850D01*
X215491Y40653D01*
X215467Y40726D01*
X215442Y40823D01*
X215381Y41103D01*
X215357Y41200D01*
X215284Y41395D01*
X215175Y41650D01*
X215150Y41699D01*
X215102Y41748D01*
X214980Y41967D01*
X214858Y42137D01*
X214834Y42186D01*
X214664Y42405D01*
X214481Y42587D01*
X214432Y42611D01*
X214189Y42855D01*
X214140Y42879D01*
X214092Y42928D01*
X213921Y43025D01*
X213702Y43147D01*
X213386Y43293D01*
X213264Y43341D01*
X213094Y43414D01*
X212912Y43451D01*
X212778Y43487D01*
X212680Y43512D01*
X212364Y43536D01*
X212072Y43560D01*
D02*
G37*
G36*
X196231Y10443D02*
X196170Y10431D01*
X196146Y10382D01*
Y10358D01*
X196122Y10260D01*
X195976Y9993D01*
X195866Y9786D01*
X195830Y9774D01*
X195854Y9652D01*
X196000Y9628D01*
X196268Y9555D01*
X196304Y9543D01*
X196389Y9603D01*
X196353Y9859D01*
X196329Y9956D01*
X196292Y10090D01*
X196268Y10406D01*
X196231Y10443D01*
D02*
G37*
%LPD*%
D13*
X411831Y229211D02*
X422108Y218934D01*
Y216945D02*
X426075Y212978D01*
X422108Y216945D02*
Y218934D01*
X94014Y396919D02*
Y404509D01*
X266888Y414628D02*
X270147Y417886D01*
X251186Y414628D02*
X266888D01*
X280768Y417886D02*
X284261Y421380D01*
X270147Y417886D02*
X280768D01*
X174711Y62130D02*
X186594Y74012D01*
Y85465D01*
X221264Y54178D02*
Y55187D01*
X219129Y57323D02*
Y68465D01*
Y57323D02*
X221264Y55187D01*
X244435Y556341D02*
X245149Y557055D01*
X42083Y440543D02*
X44415Y438211D01*
X42083Y440543D02*
Y448646D01*
X44415Y438211D02*
X53562D01*
X52635Y464998D02*
X52814D01*
X40446Y477188D02*
X52635Y464998D01*
X184150Y466852D02*
X185650D01*
X184150D02*
X184150D01*
X133562Y352026D02*
X146569D01*
X133381Y352207D02*
X133562Y352026D01*
X202176Y369499D02*
X206798D01*
X215379Y359657D02*
X215936Y360214D01*
X206798Y369499D02*
X210732Y365566D01*
X199053Y366376D02*
X202176Y369499D01*
X119657Y371535D02*
X121438Y373316D01*
X159453Y126855D02*
X160387Y125921D01*
X155065Y131516D02*
X156606D01*
X159453Y128670D01*
Y126855D02*
Y128670D01*
X160387Y125921D02*
X164842D01*
X173105Y150876D02*
Y151928D01*
X176579Y155402D01*
X175848Y142204D02*
X176579Y141473D01*
X175848Y142204D02*
Y148134D01*
X173105Y150876D02*
X175848Y148134D01*
X160851Y158177D02*
X161785Y159111D01*
X158004Y153516D02*
X160851Y156363D01*
Y158177D01*
X155065Y153516D02*
X158004D01*
X155065Y176530D02*
X193729D01*
X153798Y175262D02*
X155065Y176530D01*
X155065Y197516D02*
X156481Y196101D01*
X165726D01*
X180777Y181050D01*
X139188Y164516D02*
X155065D01*
X138988Y164717D02*
X139188Y164516D01*
X166470Y163797D02*
X173724Y171050D01*
X166470Y160740D02*
Y163797D01*
X173724Y171050D02*
X193729D01*
X164842Y159111D02*
X166470Y160740D01*
X161785Y159111D02*
X164842D01*
X160886Y120516D02*
X163733Y117670D01*
X164842Y114921D02*
Y115434D01*
Y114921D02*
X169492Y110271D01*
X155065Y120516D02*
X160886D01*
X163733Y116543D02*
Y117670D01*
Y116543D02*
X164842Y115434D01*
X169492Y110271D02*
Y110271D01*
X176133Y103630D02*
X188909D01*
X169492Y110271D02*
X176133Y103630D01*
X164842Y125921D02*
X166470Y124293D01*
Y119838D02*
X180138Y106170D01*
X187857D01*
X166470Y119838D02*
Y124293D01*
X188601Y106914D02*
Y140417D01*
X187857Y106170D02*
X188601Y106914D01*
X190696Y150185D02*
X192864D01*
X193826Y151147D01*
X189345Y156050D02*
X193729D01*
X186134Y152839D02*
X189345Y156050D01*
X188674Y148163D02*
X190696Y150185D01*
X186134Y142885D02*
Y152839D01*
X188674Y143937D02*
X191141Y141469D01*
X186134Y142885D02*
X188601Y140417D01*
X191141Y105862D02*
Y141469D01*
X188674Y143937D02*
Y148163D01*
X188909Y103630D02*
X191141Y105862D01*
X17222Y531232D02*
X25647D01*
X26195Y531780D01*
X14325Y528335D02*
X17222Y531232D01*
X23135Y553603D02*
X24549Y555017D01*
X462584Y96458D02*
X463512Y97386D01*
Y105507D01*
X434075D02*
X438480Y109912D01*
X489200D02*
X500752Y121465D01*
X438480Y109912D02*
X489200D01*
X347880Y103100D02*
X361750D01*
X342199Y98067D02*
X342847D01*
X347880Y103100D01*
X336117Y91985D02*
X342199Y98067D01*
X319601Y98270D02*
X328837Y107505D01*
X361750Y103100D02*
X366697Y108047D01*
X328837Y107505D02*
X352331D01*
X336117Y79274D02*
Y91985D01*
X288685Y98270D02*
X319601D01*
X210732Y360298D02*
X211476Y359554D01*
X215379D01*
X210732Y360298D02*
Y365566D01*
X214719Y360214D02*
Y372025D01*
X215379Y359554D02*
Y360214D01*
X491674Y248530D02*
X509639D01*
X473710D02*
X491674D01*
X509639Y248530D02*
X510401Y247768D01*
X409576Y174345D02*
Y176914D01*
Y160461D02*
Y174345D01*
X510700Y331608D02*
X525214Y346123D01*
X506830Y331608D02*
X510700D01*
X506345Y331123D02*
X506830Y331608D01*
X524470Y346867D02*
Y351748D01*
X537595Y346123D02*
X568555D01*
X524470Y346867D02*
X525214Y346123D01*
X537595D01*
X474766Y210813D02*
Y219408D01*
X472104Y222071D02*
X474766Y219408D01*
X472848Y208895D02*
X474766Y210813D01*
X442746Y222071D02*
X472104D01*
X472848Y202054D02*
Y208895D01*
X480957Y193945D02*
X494805D01*
X472848Y202054D02*
X480957Y193945D01*
X494805D02*
X497047Y196187D01*
X499308Y195924D02*
X518192D01*
X542675Y380622D02*
X543319D01*
X502675Y76827D02*
X505452Y79605D01*
Y98270D01*
X545215Y372274D02*
Y378726D01*
X542031Y369090D02*
X545215Y372274D01*
X543319Y380622D02*
X545215Y378726D01*
X532769Y378494D02*
Y378754D01*
X519715Y365440D02*
X532769Y378494D01*
X534637Y380622D02*
X542675D01*
X532769Y378754D02*
X534637Y380622D01*
X497674Y365440D02*
X519715D01*
X214719Y360214D02*
X215379D01*
X215936D01*
X222619Y366897D01*
X222786D02*
X227484Y371595D01*
X222619Y366897D02*
X222786D01*
X227484Y371595D02*
Y371762D01*
X398519Y56851D02*
Y79686D01*
X208929Y150800D02*
X219129D01*
X586740Y277055D02*
Y291427D01*
X158958Y37271D02*
X164481Y42794D01*
X158958Y25919D02*
Y37271D01*
X492288Y278988D02*
X496540Y283241D01*
X485140Y278988D02*
X492288D01*
X496640Y277055D02*
X502825Y283241D01*
X496640Y271478D02*
Y277055D01*
X502825Y283241D02*
Y292240D01*
X495896Y270734D02*
X496640Y271478D01*
X475446Y270734D02*
X495896D01*
X121438Y373316D02*
X129686D01*
X175457Y164003D02*
X176171Y164717D01*
X180497Y166050D02*
X193729D01*
X176171Y164717D02*
X179164D01*
X180497Y166050D01*
X223935Y161131D02*
X224944D01*
X217180Y166050D02*
X219958Y163272D01*
X221794D02*
X223935Y161131D01*
X219958Y163272D02*
X221794D01*
X129284Y288718D02*
Y299179D01*
Y288718D02*
X133285Y284717D01*
X290817Y42554D02*
X300635Y52372D01*
X290817Y40154D02*
Y42554D01*
X300635Y52372D02*
Y65026D01*
X300831Y65223D01*
X335280Y190584D02*
X365281D01*
X267340Y40566D02*
Y52998D01*
X271707Y57365D01*
X272090D01*
X237430Y53793D02*
Y68465D01*
X359777Y96092D02*
Y97535D01*
X367749Y105507D01*
X434075D01*
X357725Y94039D02*
X359777Y96092D01*
X366697Y108047D02*
X399583D01*
X409067Y117532D01*
X486660Y87894D02*
Y97622D01*
X504334Y115297D02*
X520528D01*
X486660Y97622D02*
X504334Y115297D01*
X462584Y96458D02*
X467278Y91764D01*
Y80146D02*
Y91764D01*
X481427Y82662D02*
X486660Y87894D01*
X505452Y98270D02*
X515190Y108008D01*
X409576Y117532D02*
X410396D01*
X409067D02*
X409576D01*
X521644Y122219D02*
X536205Y136779D01*
X521644Y116413D02*
Y122219D01*
X520528Y115297D02*
X521644Y116413D01*
X378273Y56851D02*
Y79274D01*
X486516Y80908D02*
X487278Y80146D01*
X15800Y546268D02*
X15855D01*
X14735Y544836D02*
X18769D01*
X15800Y546268D02*
X23135Y553603D01*
X17956Y544023D02*
X18769Y544836D01*
X15855Y546268D02*
X23163Y553576D01*
X45380Y548690D02*
Y548949D01*
Y548690D02*
X51373Y542696D01*
X37516Y515446D02*
X40935D01*
X34172Y512102D02*
X37516Y515446D01*
X40935D02*
X44591Y511790D01*
X502214Y433734D02*
X511225Y424724D01*
X492475Y452643D02*
X523182D01*
X524358Y451467D01*
X590740Y410590D02*
X591312Y410018D01*
Y396903D02*
Y410018D01*
X458533Y379476D02*
X471170Y366839D01*
X449381Y379476D02*
X458533D01*
X445369Y383488D02*
X449381Y379476D01*
X327831Y386628D02*
X442869D01*
X495483Y392572D02*
X497670Y394759D01*
X491211Y392464D02*
X491319Y392572D01*
X495483D01*
X473196Y392464D02*
X491211D01*
X423023Y394673D02*
X442054D01*
X359410D02*
X423023D01*
X116729Y443203D02*
Y443528D01*
X115985Y435939D02*
X116413Y436367D01*
X58042Y550488D02*
Y554273D01*
X24549Y555017D02*
X57298D01*
X58042Y554273D01*
X469237Y433734D02*
X502214D01*
X454990Y419488D02*
X469237Y433734D01*
X94014Y396919D02*
X94420D01*
X221463Y390755D02*
X235855D01*
X221140Y391078D02*
X221463Y390755D01*
X190307Y414900D02*
X190579Y414628D01*
X190307Y414900D02*
Y423303D01*
X190035Y423575D02*
X190307Y423303D01*
X154031Y428875D02*
Y441021D01*
X116729Y443528D02*
X116804Y443602D01*
X153531Y428875D02*
X154031D01*
X442869Y383488D02*
Y386628D01*
X327831D02*
Y442510D01*
X208331Y418880D02*
X246934D01*
X204079Y414628D02*
X208331Y418880D01*
X246934D02*
X251186Y414628D01*
X184734Y373223D02*
X191581Y366376D01*
X199053D01*
X184734Y380283D02*
X186079Y381628D01*
Y383628D01*
X184734Y373223D02*
Y380283D01*
X256421Y390529D02*
Y390529D01*
X264767Y363064D02*
Y382183D01*
X251667Y395283D02*
X256421Y390529D01*
Y390529D02*
X264767Y382183D01*
X442054Y394673D02*
X442869Y395488D01*
X249706Y395283D02*
X251667D01*
X279872Y352893D02*
X302274D01*
X308869Y359488D01*
X273910Y375456D02*
Y386908D01*
X344170Y409913D02*
X359410Y394673D01*
X344170Y409913D02*
Y410412D01*
X273910Y386908D02*
X275047Y388044D01*
X291463Y387019D02*
X299932Y395488D01*
X98522Y428325D02*
X106136Y435939D01*
X115985D01*
X299932Y395488D02*
X308869D01*
X291463Y371488D02*
X308869D01*
X433021Y162274D02*
Y162666D01*
Y161883D02*
Y162274D01*
Y161883D02*
X444012Y150892D01*
X525135Y509630D02*
X525874Y508891D01*
X51373Y527696D02*
X58604D01*
X60812Y529904D01*
X514470Y344284D02*
X514767Y343988D01*
X514470Y344284D02*
Y351748D01*
X528862Y356680D02*
X529606Y355936D01*
X515214Y356680D02*
X528862D01*
X529470Y351748D02*
X529606Y351884D01*
Y355936D01*
X514470D02*
X515214Y356680D01*
X514470Y351748D02*
Y355936D01*
X482704Y346878D02*
X498642Y362816D01*
X546058D02*
X558165Y374922D01*
X498642Y362816D02*
X546058D01*
X513985Y351263D02*
X514470Y351748D01*
X506485Y351263D02*
X513985D01*
X506345Y351123D02*
X506485Y351263D01*
X39252Y477188D02*
X40446D01*
X240800Y488316D02*
Y488506D01*
X562625Y208236D02*
X565240Y205621D01*
Y204028D02*
Y205621D01*
X513135Y224385D02*
X529283Y208236D01*
X562625D01*
X537079Y215392D02*
Y221689D01*
X432990Y360988D02*
X434490Y359488D01*
X442869D01*
X432990Y360988D02*
Y363262D01*
X432276Y363976D02*
X432990Y363262D01*
X458481Y384032D02*
Y397688D01*
X458330Y383881D02*
X458481Y384032D01*
Y397688D02*
X458632Y397839D01*
X484906Y299488D02*
X496540Y311123D01*
X506345D01*
X482141Y307839D02*
Y311230D01*
X481427Y307125D02*
X482141Y307839D01*
Y311230D02*
X482385Y311474D01*
Y314013D02*
X484184Y315812D01*
X482385Y311474D02*
Y314013D01*
X558165Y374922D02*
Y389098D01*
X463925Y323488D02*
X470680Y316733D01*
Y262676D02*
Y316733D01*
X473710Y272470D02*
Y311030D01*
X477709Y341883D02*
X479309Y343483D01*
X473710Y311030D02*
X477709Y315028D01*
Y341883D01*
X473710Y272470D02*
X475446Y270734D01*
X427872Y371488D02*
X442869D01*
X428492Y430817D02*
X429163Y431488D01*
X442869D01*
X529150Y305178D02*
X529470Y305498D01*
X511302Y300718D02*
X528145D01*
X529150Y301722D02*
Y305178D01*
X528145Y300718D02*
X529150Y301722D01*
X339831Y200532D02*
Y203284D01*
X237430Y44313D02*
X238025Y43718D01*
X237430Y44313D02*
Y53793D01*
X238025Y41816D02*
Y43718D01*
X237430Y41220D02*
X238025Y41816D01*
X233864Y35983D02*
Y42157D01*
X233720D02*
X236502Y39375D01*
X476769Y344535D02*
Y346082D01*
X480105Y349418D02*
X481652D01*
X476769Y346082D02*
X480105Y349418D01*
X481652D02*
X497674Y365440D01*
X481157Y346878D02*
X482704D01*
X479309Y343483D02*
Y345030D01*
X467722Y335488D02*
X476769Y344535D01*
X479309Y345030D02*
X481157Y346878D01*
X442869Y335488D02*
X467722D01*
X442869Y419488D02*
X454990D01*
X442869Y383488D02*
X445369D01*
X454571Y407488D02*
X460757Y413674D01*
X442869Y407488D02*
X454571D01*
X460757Y413674D02*
X468428D01*
X474425Y419671D01*
X430426Y478816D02*
X441283D01*
X484184Y315812D02*
Y320442D01*
X486214Y322473D01*
X542675Y396903D02*
X550361D01*
X495021Y263488D02*
X503155D01*
X510401Y270734D01*
X470680Y262676D02*
X475926Y257430D01*
X537079Y228503D02*
X537595D01*
X526197D02*
X537079D01*
X442869Y323488D02*
X463925D01*
X225233Y144334D02*
X233718D01*
X235434Y146050D01*
X201329Y136880D02*
Y163550D01*
Y190220D01*
X502825Y292240D02*
X511302Y300718D01*
X537079Y221689D02*
Y227987D01*
Y221689D02*
X568013D01*
X570459Y224135D01*
X190650Y564798D02*
X191446Y565594D01*
X192150Y568070D01*
X475926Y257430D02*
X519798D01*
X525216Y252012D01*
X551809Y140011D02*
Y142410D01*
Y140011D02*
X554990Y136830D01*
X539987Y154231D02*
X551809Y142410D01*
X536860Y154231D02*
X539987D01*
X536579Y154512D02*
X536860Y154231D01*
X515190Y108008D02*
X541961D01*
X542675Y108722D01*
X517885Y144790D02*
X542345D01*
X500298D02*
X517885D01*
X294981Y299488D02*
X308869D01*
X232680Y195671D02*
X237574Y200565D01*
X232680Y176708D02*
Y195671D01*
X237574Y200565D02*
Y201399D01*
X209409Y176530D02*
X232680D01*
X339831Y203284D02*
X375087D01*
X335280Y200532D02*
X339831D01*
Y203284D02*
Y221327D01*
X199267Y443488D02*
Y453735D01*
X494774Y176914D02*
X497047Y179187D01*
X494774Y165862D02*
Y176914D01*
X454038Y189815D02*
Y199943D01*
X447487Y206493D02*
X454038Y199943D01*
X447487Y206493D02*
Y211140D01*
X454038Y189815D02*
X454571Y189282D01*
X445972Y212654D02*
X447487Y211140D01*
X445972Y212654D02*
X450139Y216821D01*
X440456Y217352D02*
X445154Y212654D01*
X445321D01*
X426075Y192778D02*
Y212978D01*
Y192778D02*
X429571Y189282D01*
X473710Y230310D02*
X484614Y219406D01*
X473710Y230310D02*
Y231530D01*
X484614Y218694D02*
Y219406D01*
X430426Y227549D02*
Y230481D01*
X440456Y217352D02*
Y217519D01*
X430426Y227549D02*
X440456Y217519D01*
X390116Y224861D02*
X399831Y234576D01*
X390116Y211346D02*
Y224861D01*
X399831Y234576D02*
Y237076D01*
X390116Y211346D02*
X406017Y195445D01*
X386309Y195349D02*
Y235553D01*
X387831Y237076D01*
X406017Y195445D02*
Y195445D01*
X386309Y175489D02*
Y179167D01*
Y175489D02*
Y179167D01*
X386237Y174249D02*
Y175489D01*
X386309Y174249D02*
Y179167D01*
Y174249D02*
Y179167D01*
X409576Y138374D02*
Y138882D01*
X417407Y130542D02*
X420174D01*
X420887Y129829D01*
X409576Y138374D02*
X417407Y130542D01*
X375822Y127362D02*
X386010Y137550D01*
X386237D01*
X375087Y127362D02*
X375822D01*
X410396Y117532D02*
X415145Y122282D01*
X434273D01*
X380811Y117532D02*
X392575D01*
X435831Y228986D02*
X442746Y222071D01*
X435831Y228986D02*
Y237076D01*
X426696Y232415D02*
X428492D01*
X423831Y235280D02*
Y237076D01*
X428492Y232415D02*
X430426Y230481D01*
X423831Y235280D02*
X426696Y232415D01*
X441898Y212838D02*
X443703Y211033D01*
X411831Y229211D02*
Y237076D01*
X498857Y196374D02*
X499308Y195924D01*
X478870Y178532D02*
X479120Y178782D01*
X478870Y165692D02*
Y178532D01*
X515582Y179187D02*
X522198Y185803D01*
X555833D01*
X375087Y203284D02*
X375831Y204028D01*
Y237076D01*
X477790Y122282D02*
X500298Y144790D01*
X451418Y122282D02*
X477790D01*
X208929Y150800D02*
Y151050D01*
X249825Y189282D02*
X252006Y191463D01*
Y192743D01*
X249825Y176708D02*
Y189282D01*
X225481Y156003D02*
X235434Y146050D01*
X568517Y119780D02*
X568555Y119742D01*
X314962Y222076D02*
X315831Y222946D01*
Y237076D01*
X365556Y190859D02*
X365831Y191134D01*
X365281Y190584D02*
X365556Y190859D01*
X201349Y83965D02*
X202849Y85465D01*
X363831Y237076D02*
X365831Y235076D01*
Y214100D02*
Y235076D01*
X208929Y176050D02*
X209409Y176530D01*
X116804Y443602D02*
Y444798D01*
X537079Y227987D02*
X537595Y228503D01*
X536205Y136779D02*
X552723D01*
X182968Y161503D02*
X183986D01*
X184439Y161050D01*
X193729D01*
Y166050D01*
X208929D02*
X217180D01*
X569240Y369090D02*
Y410590D01*
X554990Y360680D02*
X560830D01*
X569240Y369090D01*
X513135Y224385D02*
Y228034D01*
X510401Y230768D02*
X513135Y228034D01*
X525216Y229485D02*
X526197Y228503D01*
X525216Y229485D02*
Y252012D01*
X586727Y183277D02*
X586740Y183264D01*
X586727Y204015D02*
X586740Y204028D01*
Y162528D02*
Y183264D01*
X586727Y183277D02*
Y204015D01*
X586740Y359488D02*
X590740Y363488D01*
Y369090D01*
X586740Y346123D02*
Y356996D01*
X568555Y346123D02*
X569740D01*
X586740Y329123D01*
Y308573D02*
Y329123D01*
X551180Y283900D02*
X554990Y287710D01*
Y334109D01*
X537595Y246380D02*
Y306123D01*
X272090Y76965D02*
X273479Y78355D01*
Y91926D01*
X44591Y511790D02*
X53562D01*
X68578Y461352D02*
X68698D01*
X60953Y468977D02*
X68578Y461352D01*
X53562Y438211D02*
X65558Y426215D01*
X81637D01*
X74348Y465633D02*
X97518D01*
X106142Y474257D01*
X68604Y471377D02*
X74348Y465633D01*
X60953Y468977D02*
Y474290D01*
X57891Y477352D02*
X60953Y474290D01*
X59239Y506038D02*
X62603D01*
X219129Y85465D02*
X235779D01*
X290817Y251488D02*
X308869D01*
X291317Y287488D02*
X308869D01*
X308869Y251488D02*
X308869Y251488D01*
X252579Y161474D02*
X252682Y161577D01*
X252579Y146050D02*
Y161474D01*
X73582Y501339D02*
X80834Y508592D01*
X73582Y482450D02*
Y501339D01*
Y482450D02*
X78997Y477035D01*
X55887Y509250D02*
X62603Y515965D01*
X62737D02*
X63604Y516832D01*
X52388Y509250D02*
X55887D01*
X62603Y515965D02*
X62737D01*
X63604Y516832D02*
Y520465D01*
X57891Y504690D02*
X59239Y506038D01*
X57891Y494352D02*
Y504690D01*
X68604Y471377D02*
Y520465D01*
X58042Y550488D02*
X58604Y549926D01*
X78997Y477035D02*
X87013D01*
X80834Y508592D02*
Y527696D01*
X104575Y511596D02*
X106892D01*
X87013Y494035D02*
X104575Y511596D01*
X71396Y529904D02*
X71705Y529594D01*
X66104Y535196D02*
X71396Y529904D01*
X73042Y521027D02*
Y524748D01*
Y521027D02*
X73604Y520465D01*
X73011Y524779D02*
X73042Y524748D01*
X14628Y488893D02*
X14691Y488956D01*
X25862Y494321D02*
X37460D01*
X14691Y488956D02*
X20497D01*
X25862Y494321D01*
X37460D02*
X52388Y509250D01*
X53562Y511790D02*
X58604Y516832D01*
Y520465D01*
X63604Y535196D02*
X66104D01*
X180777Y181050D02*
X193729D01*
X219129Y123282D02*
X219834Y122577D01*
X241344D02*
X259924D01*
X219129Y101782D02*
X260629D01*
X208929Y156050D02*
X208976Y156003D01*
X225481D01*
X190650Y466852D02*
X192150D01*
X161107Y454192D02*
Y454438D01*
X202033Y101782D02*
X219129D01*
X202849Y85465D02*
X219129D01*
X219834Y122577D02*
X241344D01*
X259924D02*
X260629Y123282D01*
X267340Y10132D02*
Y22638D01*
X201349Y102465D02*
Y103898D01*
Y102465D02*
X202033Y101782D01*
X201349Y103898D02*
X202551Y105100D01*
X568555Y346123D02*
X570690Y343988D01*
X568555Y317046D02*
Y329123D01*
X550361Y396903D02*
X558165Y389098D01*
X195650Y457352D02*
X199267Y453735D01*
X442924Y251433D02*
X454687D01*
X458470Y247650D01*
X557530Y313285D02*
Y340379D01*
Y313285D02*
X560070Y310745D01*
Y310745D02*
Y310745D01*
Y310745D02*
X563690Y307125D01*
X563857D01*
X484607Y336511D02*
X487409Y339313D01*
X556786Y341123D02*
X557530Y340379D01*
X537595Y341123D02*
X556786D01*
X488424Y340328D02*
X499844Y340488D01*
X503594Y336738D02*
X505730D01*
X499844Y340488D02*
X503594Y336738D01*
X505730D02*
X506345Y336123D01*
X552976D02*
X554990Y334109D01*
X537595Y336123D02*
X552976D01*
X537595Y331123D02*
X549910D01*
X566700Y273930D02*
Y286140D01*
X568555Y302260D02*
Y302427D01*
X563857Y307125D02*
X568555Y302427D01*
X483344Y295988D02*
X483635D01*
X550361Y257430D02*
Y269640D01*
X442869Y263488D02*
X450850D01*
X442869Y251488D02*
X442924Y251433D01*
X450850Y263488D02*
X462850Y251488D01*
X470220D01*
X386237Y158430D02*
Y171863D01*
D16*
X144565Y213016D02*
D03*
Y58016D02*
D03*
D17*
X155065Y197516D02*
D03*
Y186516D02*
D03*
Y175516D02*
D03*
Y164516D02*
D03*
Y153516D02*
D03*
Y142516D02*
D03*
Y131516D02*
D03*
Y120516D02*
D03*
Y109516D02*
D03*
D18*
X48565Y210516D02*
D03*
Y53516D02*
D03*
D19*
X256687Y255469D02*
D03*
X188687D02*
D03*
X568232Y529110D02*
D03*
X500232D02*
D03*
D20*
X232687Y277969D02*
D03*
X212687D02*
D03*
X544231Y506610D02*
D03*
X524231D02*
D03*
D21*
X426075Y212978D02*
D03*
X409075D02*
D03*
X118102Y585036D02*
D03*
X135102D02*
D03*
X95776Y331097D02*
D03*
X112776D02*
D03*
X171031Y428875D02*
D03*
X154031D02*
D03*
X462321Y212654D02*
D03*
X445321D02*
D03*
D22*
X441007Y24648D02*
D03*
X548007D02*
D03*
X421381Y24082D02*
D03*
X314381D02*
D03*
D23*
X524507Y82148D02*
D03*
X504507D02*
D03*
X484507D02*
D03*
X464507D02*
D03*
X337881Y81582D02*
D03*
X357881D02*
D03*
X377881D02*
D03*
X397881D02*
D03*
D24*
X442869Y251488D02*
D03*
Y263488D02*
D03*
Y275488D02*
D03*
Y287488D02*
D03*
Y299488D02*
D03*
Y311488D02*
D03*
Y323488D02*
D03*
Y335488D02*
D03*
Y347488D02*
D03*
Y359488D02*
D03*
Y371488D02*
D03*
Y383488D02*
D03*
Y395488D02*
D03*
Y407488D02*
D03*
Y419488D02*
D03*
Y431488D02*
D03*
Y443488D02*
D03*
Y455488D02*
D03*
Y467488D02*
D03*
Y479488D02*
D03*
X308869Y479488D02*
D03*
Y467488D02*
D03*
Y455488D02*
D03*
Y443488D02*
D03*
Y431488D02*
D03*
Y419488D02*
D03*
Y407488D02*
D03*
Y395488D02*
D03*
Y383488D02*
D03*
Y371488D02*
D03*
Y359488D02*
D03*
Y347488D02*
D03*
Y335488D02*
D03*
Y323488D02*
D03*
Y311488D02*
D03*
Y299488D02*
D03*
Y287488D02*
D03*
Y275488D02*
D03*
Y263488D02*
D03*
Y251488D02*
D03*
D25*
X315831Y237076D02*
D03*
X327831D02*
D03*
X339831D02*
D03*
X351831D02*
D03*
X363831D02*
D03*
X375831D02*
D03*
X387831D02*
D03*
X399831D02*
D03*
X411831D02*
D03*
X423831D02*
D03*
X435831D02*
D03*
D26*
X355016Y287630D02*
D03*
X384251D02*
D03*
Y316179D02*
D03*
X355016D02*
D03*
X386309Y416560D02*
D03*
X364490D02*
D03*
Y438734D02*
D03*
X386309D02*
D03*
D27*
X51373Y542696D02*
D03*
Y537696D02*
D03*
Y532696D02*
D03*
Y527696D02*
D03*
X80834D02*
D03*
Y532696D02*
D03*
Y537696D02*
D03*
Y542696D02*
D03*
D28*
X58604Y520465D02*
D03*
X63604D02*
D03*
X68604D02*
D03*
X73604D02*
D03*
Y549926D02*
D03*
X68604D02*
D03*
X63604D02*
D03*
X58604D02*
D03*
D29*
X30991Y371851D02*
D03*
Y390601D02*
D03*
D30*
X61741Y394226D02*
D03*
Y387726D02*
D03*
Y381226D02*
D03*
Y374726D02*
D03*
Y368226D02*
D03*
D31*
X131364Y335226D02*
D03*
Y352226D02*
D03*
X554990Y136779D02*
D03*
Y119780D02*
D03*
X386237Y154550D02*
D03*
Y137550D02*
D03*
X409576Y155882D02*
D03*
Y138882D02*
D03*
X237430Y85465D02*
D03*
Y68465D02*
D03*
X267340Y39638D02*
D03*
Y22638D02*
D03*
X515582Y179187D02*
D03*
Y196187D02*
D03*
X473710Y231530D02*
D03*
Y248530D02*
D03*
X510401Y247768D02*
D03*
Y230768D02*
D03*
X485140Y295988D02*
D03*
Y278988D02*
D03*
X587201Y490130D02*
D03*
Y507130D02*
D03*
X129284Y299179D02*
D03*
Y316179D02*
D03*
X106142Y474257D02*
D03*
Y491257D02*
D03*
X87013Y477035D02*
D03*
Y494035D02*
D03*
X57891Y477352D02*
D03*
Y494352D02*
D03*
X14325Y545335D02*
D03*
Y528335D02*
D03*
X201349Y85465D02*
D03*
Y102465D02*
D03*
X479120Y178782D02*
D03*
Y195782D02*
D03*
D34*
X491674Y248530D02*
D03*
Y231530D02*
D03*
X116318Y409257D02*
D03*
Y426257D02*
D03*
X95929Y572150D02*
D03*
Y589150D02*
D03*
X116135Y373053D02*
D03*
Y390053D02*
D03*
X227484Y371762D02*
D03*
Y354762D02*
D03*
X219129Y68465D02*
D03*
Y85465D02*
D03*
X176579Y124473D02*
D03*
Y141473D02*
D03*
X497047Y196187D02*
D03*
Y179187D02*
D03*
X550361Y286640D02*
D03*
Y269640D02*
D03*
X566700Y303140D02*
D03*
Y286140D02*
D03*
X486214Y322473D02*
D03*
Y339473D02*
D03*
X568555Y346123D02*
D03*
Y329123D02*
D03*
X586740Y346123D02*
D03*
Y329123D02*
D03*
D35*
X511302Y421145D02*
D03*
X577176Y106640D02*
D03*
X570459Y224135D02*
D03*
X154482Y295063D02*
D03*
X517885Y144790D02*
D03*
X496577Y393665D02*
D03*
X581660Y138374D02*
D03*
X471170Y366839D02*
D03*
X528145Y447524D02*
D03*
X474425Y419671D02*
D03*
X244197Y446267D02*
D03*
X270417Y432504D02*
D03*
X158958Y25919D02*
D03*
X96713Y303366D02*
D03*
X467863Y451154D02*
D03*
X290817Y40154D02*
D03*
X292213Y98270D02*
D03*
X347880Y121531D02*
D03*
X236502Y39375D02*
D03*
X187068Y204028D02*
D03*
X177329Y65972D02*
D03*
X237574Y201399D02*
D03*
X247901Y321179D02*
D03*
X510401Y270734D02*
D03*
X239391Y509250D02*
D03*
X102878Y245110D02*
D03*
X231758Y570128D02*
D03*
D36*
X56459Y582461D02*
D03*
X75459D02*
D03*
X444012Y150892D02*
D03*
X463012D02*
D03*
X172031Y572150D02*
D03*
X153031D02*
D03*
X85460Y449060D02*
D03*
X104460D02*
D03*
D37*
X569240Y369090D02*
D03*
Y410590D02*
D03*
X590740D02*
D03*
Y369090D02*
D03*
X565240Y162528D02*
D03*
Y204028D02*
D03*
X586740D02*
D03*
Y162528D02*
D03*
D38*
X557257Y448441D02*
D03*
X577257Y457941D02*
D03*
Y438941D02*
D03*
D40*
X53991Y280393D02*
D03*
Y260393D02*
D03*
D41*
X31491Y304393D02*
D03*
Y236393D02*
D03*
D42*
X163165Y344670D02*
D03*
X204165D02*
D03*
D45*
X275047Y407044D02*
D03*
Y388044D02*
D03*
X240800Y469316D02*
D03*
Y488316D02*
D03*
X134390Y470052D02*
D03*
Y451052D02*
D03*
X264736Y469506D02*
D03*
Y488506D02*
D03*
D46*
X249706Y395283D02*
D03*
Y375683D02*
D03*
X272090Y57365D02*
D03*
Y76965D02*
D03*
X409576Y174345D02*
D03*
Y193945D02*
D03*
X386309Y193849D02*
D03*
Y174249D02*
D03*
X106892Y531196D02*
D03*
Y511596D02*
D03*
X129953Y531196D02*
D03*
Y511596D02*
D03*
D47*
X108911Y351386D02*
D03*
X89911D02*
D03*
D48*
X335280Y149732D02*
D03*
X294640D02*
D03*
X335280Y162432D02*
D03*
Y175132D02*
D03*
X294640D02*
D03*
X335280Y187832D02*
D03*
X294640D02*
D03*
X335280Y200532D02*
D03*
X294640D02*
D03*
D49*
X213650Y521760D02*
D03*
X162650D02*
D03*
D50*
X193729Y181050D02*
D03*
Y176050D02*
D03*
Y171050D02*
D03*
Y166050D02*
D03*
Y161050D02*
D03*
Y156050D02*
D03*
Y151050D02*
D03*
Y146050D02*
D03*
X208929Y181050D02*
D03*
Y176050D02*
D03*
Y171050D02*
D03*
Y166050D02*
D03*
Y161050D02*
D03*
Y156050D02*
D03*
Y151050D02*
D03*
Y146050D02*
D03*
D51*
X201329Y163550D02*
D03*
D52*
X190035Y569610D02*
D03*
X207034D02*
D03*
X409576Y117532D02*
D03*
X392575D02*
D03*
X134250Y389762D02*
D03*
X151250D02*
D03*
X134750Y406315D02*
D03*
X151750D02*
D03*
X121944Y547696D02*
D03*
X104944D02*
D03*
D53*
X454571Y189282D02*
D03*
X429571D02*
D03*
D54*
X514470Y351748D02*
D03*
X519470D02*
D03*
X524470D02*
D03*
X529470D02*
D03*
Y305498D02*
D03*
X524470D02*
D03*
X519470D02*
D03*
X514470D02*
D03*
D55*
X506345Y306123D02*
D03*
Y311123D02*
D03*
Y316123D02*
D03*
Y321123D02*
D03*
Y326123D02*
D03*
Y331123D02*
D03*
Y336123D02*
D03*
Y341123D02*
D03*
Y346123D02*
D03*
Y351123D02*
D03*
X537595Y346123D02*
D03*
Y341123D02*
D03*
Y336123D02*
D03*
Y331123D02*
D03*
Y326123D02*
D03*
Y321123D02*
D03*
Y316123D02*
D03*
Y311123D02*
D03*
Y306123D02*
D03*
Y351123D02*
D03*
D56*
X180650Y457352D02*
D03*
X185650D02*
D03*
X190650D02*
D03*
X195650D02*
D03*
Y476352D02*
D03*
X190650D02*
D03*
X185650D02*
D03*
X180650D02*
D03*
D57*
X260629Y123282D02*
D03*
X219129D02*
D03*
Y101782D02*
D03*
X260629D02*
D03*
D70*
X66104Y535196D02*
D03*
D81*
X181579Y383628D02*
D03*
X186079D02*
D03*
X190579D02*
D03*
X195079D02*
D03*
X199579D02*
D03*
X204079D02*
D03*
Y414628D02*
D03*
X199579D02*
D03*
X195079D02*
D03*
X190579D02*
D03*
X186079D02*
D03*
X181579D02*
D03*
D103*
X396859Y212816D02*
D03*
X261017Y406821D02*
D03*
X221264Y54178D02*
D03*
X369490Y433734D02*
D03*
X359490D02*
D03*
X369490Y443734D02*
D03*
X359490D02*
D03*
X391309Y433734D02*
D03*
X381309D02*
D03*
X391309Y443734D02*
D03*
X381309D02*
D03*
X369490Y411560D02*
D03*
X359490D02*
D03*
X369490Y421560D02*
D03*
X359490D02*
D03*
X391309Y411560D02*
D03*
X381309D02*
D03*
X391309Y421560D02*
D03*
X381309D02*
D03*
X360016Y311179D02*
D03*
X350016D02*
D03*
X360016Y321179D02*
D03*
X350016D02*
D03*
X389251Y311179D02*
D03*
X379251D02*
D03*
X389251Y321179D02*
D03*
X379251D02*
D03*
X389251Y282630D02*
D03*
X379251D02*
D03*
X389251Y292630D02*
D03*
X379251D02*
D03*
X360016Y282630D02*
D03*
X350016D02*
D03*
X360016Y292630D02*
D03*
X350016D02*
D03*
X423023Y483760D02*
D03*
X415290Y484110D02*
D03*
X406400D02*
D03*
X397510D02*
D03*
X389251Y483760D02*
D03*
X379251Y483897D02*
D03*
X369490Y484110D02*
D03*
X359410D02*
D03*
X348528D02*
D03*
X339831Y483760D02*
D03*
X332740Y484110D02*
D03*
X429163Y492814D02*
D03*
X420467D02*
D03*
X412750D02*
D03*
X401320D02*
D03*
X393700D02*
D03*
X384251Y492760D02*
D03*
X372285Y492814D02*
D03*
X364490D02*
D03*
X353939D02*
D03*
X344170D02*
D03*
X336550D02*
D03*
X328692D02*
D03*
X63791Y296093D02*
D03*
X64407Y302921D02*
D03*
X70065Y296658D02*
D03*
X71704Y303075D02*
D03*
X78604Y302921D02*
D03*
X76492Y296658D02*
D03*
X91224Y277913D02*
D03*
X102878Y278206D02*
D03*
X86922Y290715D02*
D03*
X136930Y550196D02*
D03*
X136904Y557715D02*
D03*
Y565611D02*
D03*
X138349Y572650D02*
D03*
X245149Y557055D02*
D03*
X186789Y581802D02*
D03*
X219020Y544396D02*
D03*
X207164Y544606D02*
D03*
X199677Y544396D02*
D03*
X185650Y544734D02*
D03*
X179041Y544396D02*
D03*
X172031D02*
D03*
X164642D02*
D03*
X157450Y544023D02*
D03*
X238101Y556605D02*
D03*
X219014Y551821D02*
D03*
X203509Y550830D02*
D03*
X195994Y550488D02*
D03*
X182829Y550830D02*
D03*
X175650D02*
D03*
X168305D02*
D03*
X159483D02*
D03*
X42083Y448646D02*
D03*
X52814Y464998D02*
D03*
X48482Y388810D02*
D03*
X146569Y352026D02*
D03*
X71396Y540488D02*
D03*
X60812D02*
D03*
X66104Y535196D02*
D03*
X60812Y529904D02*
D03*
X71396D02*
D03*
X203706Y375128D02*
D03*
X197228Y370781D02*
D03*
X77645Y414128D02*
D03*
X66334Y185803D02*
D03*
X103422Y368063D02*
D03*
X74863Y374723D02*
D03*
X186594Y85465D02*
D03*
X138988Y164717D02*
D03*
X182274Y112940D02*
D03*
X28911Y506641D02*
D03*
X463512Y105507D02*
D03*
X352331Y107505D02*
D03*
X497510Y219398D02*
D03*
X514981Y342119D02*
D03*
X470321Y212654D02*
D03*
X586740Y277055D02*
D03*
X257452Y555017D02*
D03*
X180155Y445450D02*
D03*
X164481Y42794D02*
D03*
X497842Y284948D02*
D03*
X129686Y373316D02*
D03*
X175457Y164003D02*
D03*
X224944Y161131D02*
D03*
X133285Y284717D02*
D03*
X300831Y65223D02*
D03*
X378273Y56851D02*
D03*
X398519D02*
D03*
X49527Y568895D02*
D03*
X45380Y548949D02*
D03*
X36775Y536194D02*
D03*
X34172Y512102D02*
D03*
X492475Y452643D02*
D03*
X591312Y396903D02*
D03*
X473196Y392464D02*
D03*
X146513Y310727D02*
D03*
X233431Y236464D02*
D03*
X423023Y394673D02*
D03*
X94420Y396919D02*
D03*
X235855Y390755D02*
D03*
X214719Y372025D02*
D03*
X190035Y423575D02*
D03*
X281300Y459839D02*
D03*
X203165Y424880D02*
D03*
X327831Y442510D02*
D03*
X284261Y421380D02*
D03*
X215379Y359554D02*
D03*
X190035Y375683D02*
D03*
X235099Y408223D02*
D03*
X264736Y363034D02*
D03*
X279872Y352910D02*
D03*
X273910Y375456D02*
D03*
X240799Y355125D02*
D03*
X221516Y337215D02*
D03*
X344170Y410412D02*
D03*
X173664Y372025D02*
D03*
X168466Y414215D02*
D03*
X163403Y384580D02*
D03*
X291463Y371488D02*
D03*
X159877Y325465D02*
D03*
X433021Y162274D02*
D03*
X230640Y498552D02*
D03*
X171501Y582969D02*
D03*
X537079Y215392D02*
D03*
X432276Y363976D02*
D03*
X458330Y383881D02*
D03*
X481427Y307125D02*
D03*
X542031Y369090D02*
D03*
X427872Y371488D02*
D03*
X477481Y155910D02*
D03*
X18791Y407260D02*
D03*
X18871Y401130D02*
D03*
X16791Y354835D02*
D03*
Y360630D02*
D03*
X458632Y397839D02*
D03*
X458848Y432502D02*
D03*
X428492Y430817D02*
D03*
X190650Y510096D02*
D03*
X102878Y269437D02*
D03*
X237430Y53793D02*
D03*
X430426Y478816D02*
D03*
X458632Y342102D02*
D03*
X495021Y263488D02*
D03*
X225233Y144334D02*
D03*
X201329Y136880D02*
D03*
Y190220D02*
D03*
X161107Y476677D02*
D03*
X99526Y71490D02*
D03*
X72971D02*
D03*
X85713D02*
D03*
X74592Y186050D02*
D03*
X86457D02*
D03*
X184150Y466852D02*
D03*
X192150D02*
D03*
X118324Y453387D02*
D03*
X158362Y445450D02*
D03*
X149980Y445196D02*
D03*
Y453735D02*
D03*
X214150Y469506D02*
D03*
X219720Y462618D02*
D03*
X288266Y458453D02*
D03*
X225285Y469025D02*
D03*
X210734Y462102D02*
D03*
X205907Y469138D02*
D03*
X294981Y299488D02*
D03*
X339831Y221327D02*
D03*
X84960Y284480D02*
D03*
X90372Y284717D02*
D03*
X498420Y292630D02*
D03*
X494774Y165862D02*
D03*
X478870Y165692D02*
D03*
X420887Y129829D02*
D03*
X375087Y127362D02*
D03*
X484614Y218694D02*
D03*
X380811Y117532D02*
D03*
X568555Y119742D02*
D03*
X314962Y222076D02*
D03*
X352331Y221742D02*
D03*
X365556Y190859D02*
D03*
X363831Y152484D02*
D03*
X365831Y214100D02*
D03*
X221033Y171261D02*
D03*
X536579Y154512D02*
D03*
X542675Y108722D02*
D03*
X542345Y144790D02*
D03*
X182968Y161503D02*
D03*
X554990Y360680D02*
D03*
X554420Y186270D02*
D03*
X586727Y183277D02*
D03*
X586740Y359488D02*
D03*
X273479Y91926D02*
D03*
X68698Y461352D02*
D03*
X67817Y450553D02*
D03*
X289301Y287488D02*
D03*
X252682Y161577D02*
D03*
X62603Y506038D02*
D03*
X176579Y155402D02*
D03*
X267340Y10132D02*
D03*
X241344Y122577D02*
D03*
X568555Y317046D02*
D03*
X458470Y247650D02*
D03*
X566700Y273930D02*
D03*
X549910Y331123D02*
D03*
X550361Y257430D02*
D03*
D105*
X578358Y71120D02*
D03*
X19463Y444798D02*
D03*
X76492Y23790D02*
D03*
X521142Y579120D02*
D03*
D106*
X99634Y383491D02*
D03*
X80634D02*
D03*
Y403491D02*
D03*
D107*
X97634D02*
D03*
D108*
X192829Y399128D02*
D03*
D109*
X221140Y391078D02*
D03*
Y408223D02*
D03*
X252035Y587106D02*
D03*
Y569961D02*
D03*
X241149Y528033D02*
D03*
Y545178D02*
D03*
X586740Y308573D02*
D03*
Y291427D02*
D03*
X542675Y398411D02*
D03*
Y381266D02*
D03*
X537595Y245648D02*
D03*
Y228503D02*
D03*
X16158Y506038D02*
D03*
Y488893D02*
D03*
X39252Y477188D02*
D03*
Y494333D02*
D03*
X53562Y455356D02*
D03*
Y438211D02*
D03*
D110*
X218089Y585519D02*
D03*
X200944D02*
D03*
X504562Y122282D02*
D03*
X521707D02*
D03*
X434273D02*
D03*
X451418D02*
D03*
X235434Y146050D02*
D03*
X252579D02*
D03*
X249825Y176708D02*
D03*
X232680D02*
D03*
X266226Y338574D02*
D03*
X283371D02*
D03*
X98522Y428325D02*
D03*
X81377D02*
D03*
D111*
X188150Y466852D02*
D03*
D112*
X396859Y212816D02*
Y212978D01*
Y212654D02*
Y212816D01*
Y212978D02*
X409075D01*
X568128Y107458D02*
X580986D01*
X115985Y422388D02*
Y435939D01*
X59776Y579144D02*
X60419Y579787D01*
X49527Y568895D02*
X59776Y579144D01*
X84960Y284480D02*
X90372D01*
X99526Y71095D02*
X127978D01*
X22231Y371921D02*
Y391236D01*
X44005Y210600D02*
X48549Y206056D01*
X27241Y339670D02*
Y340645D01*
X44565Y53123D02*
Y62702D01*
X53354Y71490D01*
X85713D02*
X99526D01*
X72971D02*
X85713D01*
X16791Y354835D02*
Y360630D01*
Y350121D02*
Y354835D01*
X18791Y408026D02*
X32991Y422226D01*
X24225Y342686D02*
X25199D01*
X16791Y350121D02*
X24225Y342686D01*
X25199D02*
X27241Y340645D01*
X128880Y210516D02*
X142065D01*
X104413Y186050D02*
X128880Y210516D01*
X142065D02*
X144565Y213016D01*
X86183Y359322D02*
Y368252D01*
Y373346D01*
X204165Y363743D02*
X204767Y364345D01*
Y364594D01*
X204165Y344670D02*
Y363743D01*
X18871Y401130D02*
X21031Y398970D01*
X18791Y401210D02*
X18871Y401130D01*
X21031Y392436D02*
X22231Y391236D01*
X21031Y392436D02*
Y398970D01*
X22231Y371921D02*
X22301Y371851D01*
X21031Y370581D02*
X22301Y371851D01*
X21031Y364870D02*
Y370581D01*
X16791Y360630D02*
X21031Y364870D01*
X74592Y186050D02*
X86457D01*
X66582D02*
X74592D01*
X61988Y185803D02*
X66334D01*
X58506Y189285D02*
X61988Y185803D01*
X66334D02*
X66582Y186050D01*
X48549Y192261D02*
Y206056D01*
X51525Y189285D02*
X58506D01*
X48549Y192261D02*
X51525Y189285D01*
X86183Y359322D02*
X86389Y359116D01*
X86183Y373346D02*
X96327Y383491D01*
X86389Y349736D02*
Y359116D01*
X86183Y349530D02*
X86389Y349736D01*
X115985Y422388D02*
X116413Y421960D01*
X94246Y331674D02*
Y341467D01*
X86183Y349530D02*
X94246Y341467D01*
Y331674D02*
X96276Y329644D01*
X112776Y331097D02*
X113936Y329936D01*
Y318477D02*
X115985Y316428D01*
X113936Y318477D02*
Y329936D01*
X115985Y316179D02*
Y316428D01*
X18791Y407260D02*
Y408026D01*
X96327Y383491D02*
X99634D01*
X493047Y223860D02*
Y231004D01*
Y223860D02*
X497510Y219398D01*
X286766Y407044D02*
X307160D01*
X462321Y212654D02*
X470321D01*
X275047Y407044D02*
X286766D01*
X550361Y102797D02*
X563468D01*
X550112D02*
X550361D01*
X525135Y94412D02*
X530255D01*
X531712Y95868D01*
X524391Y88547D02*
Y93668D01*
X525135Y94412D01*
X531712Y95868D02*
X539339D01*
X548144Y100829D02*
X550112Y102797D01*
X563468D02*
X568128Y107458D01*
X544550Y100829D02*
X548144D01*
X539339Y95868D02*
X544125Y100653D01*
X59776Y579144D02*
X60419Y578501D01*
X56459Y582461D02*
X59776Y579144D01*
X60419Y578501D02*
Y579787D01*
X49045Y569377D02*
X49527Y568895D01*
X575861Y459337D02*
X577257Y457941D01*
X575861Y459337D02*
Y472224D01*
X116729Y443203D02*
X121849D01*
X116413D02*
X116729D01*
X116413Y436367D02*
Y443203D01*
X116413Y443203D01*
X240436Y354762D02*
X240799Y355125D01*
X227484Y354762D02*
X240436D01*
X56108Y283779D02*
X84259D01*
X84960Y284480D01*
X53992Y281663D02*
X56108Y283779D01*
X246186Y488506D02*
X264736D01*
X18791Y401210D02*
Y407260D01*
X463012Y150892D02*
Y151601D01*
X466972Y155561D02*
X477132D01*
X463012Y151601D02*
X466972Y155561D01*
X477132D02*
X477481Y155910D01*
X584385Y136820D02*
Y138882D01*
X581242Y132428D02*
Y133676D01*
X584385Y136820D01*
X573635Y124822D02*
X581242Y132428D01*
X96713Y291058D02*
Y303366D01*
X90372Y284717D02*
X96713Y291058D01*
X90372Y284480D02*
Y284717D01*
X587201Y507130D02*
Y518950D01*
X544374Y100653D02*
X544550Y100829D01*
X544125Y100653D02*
X544374D01*
X53354Y71490D02*
X72971D01*
X86457Y186050D02*
X104413D01*
X127978Y71095D02*
X141368Y57704D01*
X568555Y119742D02*
X573811Y124998D01*
X291463Y166050D02*
Y173973D01*
Y157416D02*
Y166050D01*
Y150892D02*
Y157416D01*
X292622Y149732D02*
X294640D01*
X291463Y150892D02*
X292622Y149732D01*
Y175132D02*
X294640D01*
X291463Y176292D02*
Y186673D01*
X292622Y187832D01*
X291463Y176292D02*
X292622Y175132D01*
Y187832D02*
X294640D01*
X554990Y119780D02*
X568517D01*
X282520Y469103D02*
X293126Y479709D01*
X296471D01*
X296250Y479488D02*
X308869D01*
X296250D02*
X296471Y479709D01*
D113*
X166329Y573342D02*
X171340Y578353D01*
X166329Y572150D02*
Y573342D01*
X128349Y567070D02*
X129285Y568006D01*
X274824Y406821D02*
X275047Y407044D01*
X261017Y406821D02*
X274824D01*
X37631Y455514D02*
X53404D01*
X53562Y455356D01*
X48482Y388810D02*
X51939Y392266D01*
X53031D01*
X55239Y394475D01*
X124089Y336208D02*
X129284D01*
X131011Y336917D02*
X134263Y340170D01*
X130301Y336208D02*
X131011Y336917D01*
X129284Y336208D02*
X130301D01*
X108911Y351386D02*
X124089Y336208D01*
X103893Y355074D02*
X105436Y353531D01*
X129826Y336133D02*
X129935Y336023D01*
X129284Y316179D02*
Y335336D01*
X16158Y504507D02*
X18293Y506641D01*
X197228Y370781D02*
Y371446D01*
X195079Y373596D02*
X197228Y371446D01*
X55239Y394475D02*
X59658D01*
X103422Y368063D02*
X103893Y367593D01*
Y355074D02*
Y367593D01*
X207469Y306469D02*
X208957Y304981D01*
X202312Y306469D02*
X207469D01*
X208957Y299823D02*
Y304981D01*
X198053Y310727D02*
X202312Y306469D01*
X208957Y299823D02*
X214903Y293878D01*
X146513Y310727D02*
X198053D01*
X99659Y568248D02*
X108546D01*
X75459Y582461D02*
X80334Y580879D01*
X95929Y572150D02*
X99659Y568248D01*
X80334Y580879D02*
X82121Y580299D01*
X92199Y574276D02*
X95794Y572115D01*
X82121Y580299D02*
X92199Y574276D01*
X108546Y568248D02*
X113558Y573260D01*
X105707Y353801D02*
X107708Y351799D01*
X108911Y351386D01*
X346279Y149732D02*
X361027D01*
X335280D02*
X346279D01*
X361027D02*
X363779Y152484D01*
X363831D01*
X346279Y143858D02*
Y149732D01*
X347880Y121531D02*
Y142257D01*
X129285Y568006D02*
X131364Y570084D01*
X129285Y568006D02*
Y568006D01*
Y567070D02*
Y568006D01*
X232201Y381648D02*
X238398Y375451D01*
X277709Y222946D02*
X284261Y229498D01*
X215975Y222946D02*
X277709D01*
X213650Y521760D02*
Y562995D01*
X207034Y569610D02*
X213650Y562995D01*
X187068Y204028D02*
X199672D01*
X206369Y197332D01*
Y188132D02*
Y197332D01*
X74863Y565611D02*
X75459D01*
Y582461D01*
X67723Y565611D02*
X74863D01*
X113558Y573260D02*
Y585036D01*
X171031Y578353D02*
X171340D01*
X118102Y585036D02*
Y589432D01*
X134602Y589036D02*
X135408Y588231D01*
X122969Y562625D02*
X123904D01*
X128349Y567070D02*
X129285D01*
X121944Y547696D02*
X122456Y548208D01*
Y562113D01*
X122969Y562625D01*
X123904D02*
X128349Y567070D01*
X131364Y570084D02*
Y584230D01*
X18293Y506641D02*
X28911D01*
X544970Y459337D02*
X545052Y459420D01*
X556757Y448441D02*
X557257D01*
X545861Y459337D02*
X556757Y448441D01*
X544970Y459337D02*
X545861D01*
X545052Y459420D02*
Y509548D01*
X545135Y509630D01*
X587741Y440722D02*
Y486894D01*
X577601Y438785D02*
X578377Y439561D01*
X587660D02*
X588281Y440182D01*
X578377Y439561D02*
X587660D01*
X587741Y440722D02*
X588281Y440182D01*
X587741Y486894D02*
X588281Y487434D01*
X134149Y312733D02*
X151818Y295063D01*
X129284Y316179D02*
X132731Y312733D01*
X134149D01*
X151818Y295063D02*
X154482D01*
X235674Y588772D02*
X236918D01*
X219014D02*
X235674D01*
X231758Y570128D02*
Y572780D01*
X235674Y576696D01*
Y587527D01*
X237161Y589015D02*
X252035D01*
X205726Y182603D02*
Y187489D01*
Y182603D02*
X207279Y181050D01*
X208929D01*
X205726Y187489D02*
X206369Y188132D01*
X16158Y504507D02*
Y506038D01*
X134263Y340170D02*
X142177D01*
X153117Y372025D02*
X173664D01*
X151609Y349602D02*
Y370518D01*
X142177Y340170D02*
X151609Y349602D01*
Y370518D02*
X153117Y372025D01*
X248552Y446267D02*
X291371D01*
X198848Y428875D02*
X202843Y424880D01*
X171031Y428875D02*
X198848D01*
X202843Y424880D02*
X203165D01*
X202694Y424409D02*
X203165Y424880D01*
X197643Y420418D02*
X200807D01*
X202694Y422304D01*
Y424409D01*
X279596Y434915D02*
X295665Y418846D01*
X308227D02*
X308869Y419488D01*
X295665Y418846D02*
X308227D01*
X294613Y429329D02*
X306710D01*
X293126Y430817D02*
Y444512D01*
X291371Y446267D02*
X293126Y444512D01*
Y430817D02*
X294613Y429329D01*
X190035Y375683D02*
X190579D01*
X221140Y408223D02*
X235099D01*
X238398Y375451D02*
X249706D01*
X221516Y337215D02*
X247901D01*
Y321179D02*
Y336970D01*
X159877Y325465D02*
X163165Y328752D01*
Y344670D01*
X231110Y500969D02*
X239391Y509250D01*
X231110Y499022D02*
Y500969D01*
X230640Y498552D02*
X231110Y499022D01*
X236918Y588772D02*
X237161Y589015D01*
X235674Y587527D02*
X236918Y588772D01*
X237161D01*
X171031Y578353D02*
Y582498D01*
X171501Y582969D01*
X565240Y162528D02*
Y204028D01*
X458848Y432502D02*
Y435584D01*
X467863Y444599D01*
Y451154D01*
X453512Y347222D02*
X458632Y342102D01*
X443135Y347222D02*
X453512D01*
X442869Y347488D02*
X443135Y347222D01*
X306710Y429329D02*
X308869Y431488D01*
X442869Y299488D02*
X444053Y300671D01*
X465113D02*
X465775Y301334D01*
X444053Y300671D02*
X465113D01*
X289941Y303291D02*
X290016Y303366D01*
X284261Y289576D02*
X289941Y295255D01*
Y303291D01*
X290016Y303366D02*
Y311488D01*
X256405Y85465D02*
X285931Y114992D01*
X237430Y85465D02*
X256405D01*
X285931Y114992D02*
X339938D01*
X346477Y121531D01*
X347880D01*
X346279Y143858D02*
X347880Y142257D01*
X272587Y434915D02*
X279596D01*
X485140Y292630D02*
Y295988D01*
Y292630D02*
X498420D01*
X284261Y229498D02*
Y289576D01*
X458470Y311488D02*
Y311488D01*
X442869Y311488D02*
X458470D01*
X352331Y221742D02*
Y236576D01*
X351831Y237076D02*
X352331Y236576D01*
X209140Y171261D02*
X221033D01*
X208929Y171050D02*
X209140Y171261D01*
X98783Y542696D02*
X103783Y547696D01*
X104944D01*
X182880Y483760D02*
Y492814D01*
Y483760D02*
X185650Y480990D01*
X180340Y495354D02*
X182880Y492814D01*
D114*
X190650Y457352D02*
Y466852D01*
X68289Y537381D02*
Y545977D01*
X63604Y535196D02*
Y549926D01*
X185650Y457352D02*
Y465353D01*
X184150Y466852D02*
X185650Y465353D01*
X204079Y383628D02*
X206059Y381648D01*
X232201D01*
X180650Y445945D02*
Y457352D01*
X180155Y445450D02*
X180650Y445945D01*
X73604Y553560D02*
X74863Y554819D01*
X73604Y549926D02*
Y553560D01*
X74863Y554819D02*
Y565611D01*
X174212Y383853D02*
X181354D01*
X190579Y375683D02*
Y383628D01*
X195079Y373596D02*
Y383628D01*
X168466Y414215D02*
X181579D01*
X181354Y383853D02*
X181579Y383628D01*
X66104Y535196D02*
X68289Y537381D01*
Y545977D02*
X68604Y546293D01*
Y549926D01*
X190650Y510096D02*
Y564798D01*
Y476352D02*
Y510096D01*
X41543Y536422D02*
X45269Y532696D01*
X51373D01*
X46466Y536422D02*
X47740Y537696D01*
X51373D01*
X44305Y536422D02*
X46466D01*
X71705Y529594D02*
X72884Y528416D01*
Y525139D02*
X73011Y525012D01*
X72884Y525139D02*
Y528416D01*
X73011Y524779D02*
Y525012D01*
X84395Y542696D02*
X98783D01*
X185650Y476352D02*
Y480990D01*
D115*
X201329Y375128D02*
Y378757D01*
X195079Y414628D02*
Y417854D01*
X197643Y420418D01*
X199579Y381628D02*
X200777Y380430D01*
Y379309D02*
Y380430D01*
X199579Y381628D02*
Y383628D01*
X200777Y379309D02*
X201329Y378757D01*
X199504Y384953D02*
X199579Y384878D01*
X199504Y384953D02*
Y387827D01*
X197278Y390053D02*
X199504Y387827D01*
X199579Y383628D02*
Y384878D01*
D116*
X22301Y391236D02*
X30991D01*
X33841Y368252D02*
Y390601D01*
X35632Y388810D02*
X48482D01*
X33841Y390601D02*
X35632Y388810D01*
X30991Y390601D02*
X33841D01*
X156109Y141473D02*
X176579D01*
X155065Y142516D02*
X156109Y141473D01*
X176579Y124473D02*
X179674Y121378D01*
Y115862D02*
Y121378D01*
X182274Y112940D02*
Y113262D01*
X179674Y115862D02*
X182274Y113262D01*
X97532Y587047D02*
X106359Y578220D01*
Y575109D02*
Y578220D01*
X97532Y587047D02*
Y587547D01*
X106359Y575109D02*
X106778Y574690D01*
X95929Y589150D02*
X97532Y587547D01*
X36775Y536194D02*
X37002Y536422D01*
X41543D01*
X92520Y255469D02*
Y265350D01*
X55887Y264480D02*
X56165Y264758D01*
X81818Y265350D02*
X92520D01*
X56165Y264758D02*
X81227D01*
X81818Y265350D01*
X92520D02*
Y269437D01*
X233431Y236464D02*
Y284440D01*
X193404Y390053D02*
X197278D01*
X192829Y390628D02*
X193404Y390053D01*
X192829Y390628D02*
Y399128D01*
X525412Y509353D02*
Y543732D01*
Y509353D02*
X525874Y508891D01*
X92520Y269437D02*
X102878D01*
X92520Y255469D02*
X102878Y245110D01*
X288276Y200532D02*
Y225678D01*
X68367Y450781D02*
X68436Y450850D01*
X83670D02*
X85460Y449060D01*
X68436Y450850D02*
X83670D01*
X41543Y536422D02*
X44305D01*
D117*
X57890Y368252D02*
X86183D01*
D118*
X79953Y404830D02*
X82721D01*
X77645Y414128D02*
X77962Y413810D01*
Y406820D02*
Y413810D01*
Y406820D02*
X79953Y404830D01*
X56424Y381380D02*
X56789D01*
X56424D02*
X56459Y381416D01*
X115974Y406516D02*
X116413Y406076D01*
X134511D01*
X108359Y406516D02*
X115974D01*
X88821Y410950D02*
X103925D01*
X108359Y406516D01*
X104988Y387916D02*
X118417D01*
X82955Y390950D02*
X101954D01*
X104988Y387916D01*
X77014Y384009D02*
Y385009D01*
X73380Y380781D02*
X75279Y382680D01*
X56789Y380798D02*
X65176D01*
X56459Y381128D02*
X56789Y380798D01*
X65176D02*
X65194Y380781D01*
X75279Y382680D02*
X75685D01*
X77014Y384009D01*
X65194Y380781D02*
X73380D01*
X74834Y374752D02*
X74863Y374723D01*
X54698Y374752D02*
X74834D01*
X116804Y388044D02*
X132531D01*
X134511Y406076D02*
X134750Y406315D01*
X221760Y336970D02*
X247901D01*
X151250Y389762D02*
X152194D01*
X160557Y386977D02*
X162954Y384580D01*
X152194Y389762D02*
X154979Y386977D01*
X162954Y384580D02*
X163403D01*
X154979Y386977D02*
X160557D01*
X163295Y394770D02*
X166418D01*
X169605Y388460D02*
Y391584D01*
X155541Y402524D02*
X163295Y394770D01*
X169605Y388460D02*
X174212Y383853D01*
X155541Y402524D02*
Y402596D01*
X166418Y394770D02*
X169605Y391584D01*
X151750Y406315D02*
X151822D01*
X155541Y402596D01*
X85771Y407899D02*
X88821Y410950D01*
X82721Y404830D02*
X85771Y407880D01*
Y407899D01*
X132531Y388044D02*
X134250Y389762D01*
X77014Y385009D02*
X82955Y390950D01*
X292846Y338574D02*
X298260Y343988D01*
X305369D01*
X283371Y338574D02*
X292846D01*
X305369Y343988D02*
X308869Y347488D01*
X247901Y336970D02*
X251186D01*
X266831D01*
X109615Y491257D02*
X129953Y511596D01*
X106142Y491257D02*
X109615D01*
D119*
X252035Y560434D02*
Y569961D01*
Y560434D02*
X257452Y555017D01*
X144550Y543695D02*
Y562669D01*
X130100Y536496D02*
X137351D01*
X144550Y562669D02*
X151654Y569774D01*
X129953Y536350D02*
X130100Y536496D01*
X137351D02*
X144550Y543695D01*
X151654Y569774D02*
Y576475D01*
X106988Y535244D02*
X113096D01*
X114348Y536496D02*
Y538298D01*
X127795D01*
X113096Y535244D02*
X114348Y536496D01*
X127795Y538298D02*
X128528Y539031D01*
X151654Y576475D02*
X155384Y580205D01*
X159274Y584095D02*
X165093Y589914D01*
X158940Y584095D02*
X159274D01*
X165093Y589914D02*
X197885D01*
X155384Y580205D02*
Y580539D01*
X158940Y584095D01*
X200155Y587644D02*
X202280Y585519D01*
X197885Y589914D02*
X200155Y587644D01*
X129953Y531196D02*
Y536350D01*
X164807Y454192D02*
X177468Y466852D01*
X161107Y454192D02*
X164807D01*
X177468Y466852D02*
X184150D01*
X134390Y470052D02*
X154482D01*
X161107Y476677D02*
X171641D01*
X154482Y470052D02*
X161107Y476677D01*
D120*
X200404Y485098D02*
D03*
D121*
X106988Y535244D02*
D03*
D122*
X175460Y476832D02*
D03*
D123*
X44565Y181516D02*
D03*
D124*
Y101516D02*
D03*
D125*
X63791Y356976D02*
D03*
Y405476D02*
D03*
D126*
X32991Y340226D02*
D03*
Y422226D02*
D03*
D127*
X24701Y576475D02*
D03*
X31463Y23875D02*
D03*
X575540Y26964D02*
D03*
X574257Y576580D02*
D03*
D128*
X199267Y443488D02*
D03*
D129*
X37631Y455514D02*
D03*
X204767Y364594D02*
D03*
X115985Y316179D02*
D03*
X26195Y531780D02*
D03*
X106778Y574690D02*
D03*
X215975Y222946D02*
D03*
X550361Y102797D02*
D03*
X67723Y565611D02*
D03*
X122969Y562625D02*
D03*
X129285Y567070D02*
D03*
X544970Y459337D02*
D03*
X525412Y543732D02*
D03*
X588281Y440182D02*
D03*
X575861Y472224D02*
D03*
X291463Y387019D02*
D03*
X465775Y301334D02*
D03*
X587201Y518950D02*
D03*
X544374Y100653D02*
D03*
X573635Y124822D02*
D03*
X219129Y150800D02*
D03*
X290016Y311488D02*
D03*
X458470D02*
D03*
X288276Y215772D02*
D03*
Y225678D02*
D03*
X291463Y157416D02*
D03*
Y166050D02*
D03*
X252006Y192743D02*
D03*
X290817Y251488D02*
D03*
M02*
